<svg width="27" height="24" viewBox="0 0 27 24" fill="none" xmlns="http://www.w3.org/2000/svg">
<path d="M24.824 19.2255C24.9601 18.9363 24.9515 18.543 25.0024 18.2326C25.0314 18.0557 25.0711 17.8816 25.0711 17.7019C25.0711 17.5722 25.0711 17.4426 25.0711 17.313C25.0711 17.072 25.0711 16.831 25.0711 16.59C25.0711 16.3094 25.0711 16.0287 25.0711 15.7481C25.0711 15.4741 24.9887 15.1961 24.9887 14.9222C24.9887 14.6384 24.9459 14.2974 24.856 14.0277C24.7699 13.7693 24.6506 13.5199 24.586 13.2544C24.507 12.9293 24.4645 12.5538 24.2886 12.2569C24.2211 12.1429 24.1916 11.9434 24.1651 11.8108C24.1245 11.6077 23.9987 11.439 23.9272 11.2457C23.8098 10.9288 23.6588 10.6122 23.5268 10.2895C23.2668 9.65388 23.1263 8.96819 22.765 8.37458C22.638 8.16598 22.5519 7.93334 22.4264 7.72713C22.2651 7.4621 22.0529 7.22707 21.8796 6.97216C21.7145 6.72932 21.6017 6.43612 21.3969 6.22177C21.2209 6.03763 20.9975 5.84024 20.8501 5.6361C20.7777 5.53585 20.687 5.4761 20.5847 5.40961C20.4628 5.33039 20.3966 5.20044 20.2942 5.10076C20.0757 4.88818 19.8399 4.69425 19.617 4.48305C19.4362 4.31183 19.2385 4.15891 19.0588 3.98889C18.8625 3.80327 18.6491 3.70278 18.4433 3.5382C18.0593 3.23095 17.5285 3.08022 17.0821 2.89762C16.6525 2.72186 16.2169 2.60095 15.7826 2.44464C15.3648 2.29422 14.9513 2.18639 14.5289 2.05343C14.0963 1.91722 13.5942 1.70354 13.138 1.6828C12.6873 1.66232 12.2352 1.52822 11.779 1.51808C11.2728 1.50684 10.7615 1.50731 10.2554 1.51808C9.48546 1.53447 8.67799 1.65171 7.94012 1.85668C7.52835 1.97106 7.12799 2.17251 6.72759 2.31881C6.35658 2.45437 5.98093 2.60309 5.68436 2.86788C5.56503 2.97442 5.31895 3.02608 5.1719 3.12411C4.99247 3.24373 4.81544 3.33809 4.64799 3.47414C4.25114 3.79659 3.91822 4.18104 3.55672 4.54254C3.2939 4.80536 2.84061 5.19527 2.75142 5.57433C2.69932 5.79576 2.56295 5.9725 2.43113 6.15314C2.30986 6.31932 2.217 6.54818 2.11313 6.73195C1.62456 7.59633 1.39421 8.68779 1.3124 9.66946C1.29123 9.92356 1.26894 10.1906 1.26894 10.445C1.26894 10.5798 1.25486 10.7237 1.27809 10.8568C1.36381 11.3483 1.49593 11.9354 1.71963 12.3828C1.86168 12.6669 1.91921 12.9849 2.06051 13.2727C2.18863 13.5337 2.26412 13.8266 2.40368 14.0803C2.6429 14.5153 2.85571 14.9447 3.11289 15.3638C3.42615 15.8743 3.74015 16.4732 4.1607 16.9103C4.45396 17.2151 4.73156 17.5651 5.0598 17.8277C5.25853 17.9867 5.44495 18.139 5.64318 18.2967C6.11624 18.673 6.67835 18.8814 7.22633 19.1112C7.78868 19.347 8.37225 19.5069 8.94903 19.6991C9.55886 19.9024 10.1613 20.1396 10.7587 20.3786C11.3658 20.6214 11.993 20.8114 12.6164 21.0192C12.925 21.122 13.2134 21.2384 13.5269 21.3257C13.8378 21.4124 14.1572 21.4567 14.4649 21.5522C15.6332 21.9148 16.9112 21.9866 18.1208 22.1402C19.4247 22.3058 20.7428 22.2729 22.0558 22.2729C22.8321 22.2729 23.6437 21.974 24.3069 21.614C24.5551 21.4793 24.6676 21.1864 24.824 20.9643C25.0228 20.6817 25.1238 20.3967 25.277 20.0903C25.5598 19.5247 25.4048 18.8966 25.5858 18.3173C25.6635 18.0687 25.5585 17.76 25.6682 17.5189C25.7218 17.4009 25.6888 16.8028 25.6888 17.2878C25.6888 17.9819 25.3594 18.6921 25.1946 19.3514C25.1505 19.5276 25.0302 19.6709 24.9795 19.8432C24.9401 19.9775 24.8766 20.1593 24.8011 20.2779C24.7194 20.4063 24.6408 20.534 24.5677 20.6668C24.5444 20.7092 24.3509 21.0247 24.3321 20.9116C24.2839 20.6222 24.4843 20.3188 24.5563 20.0469C24.6261 19.7831 24.7473 19.5401 24.824 19.2759C24.9428 18.8667 25.0642 18.4815 25.2358 18.0954C25.3395 17.8619 25.3593 17.5334 25.3593 17.2809C25.3593 17.0389 25.4005 16.8278 25.4005 16.59C25.4005 16.5008 25.4005 16.4116 25.4005 16.3223C25.4005 16.2648 25.4005 16.5643 25.4005 16.6312C25.4005 16.9637 25.4005 17.2962 25.4005 17.6287C25.4005 17.8878 25.4005 17.3246 25.4005 17.2695C25.4005 16.9746 25.4417 16.6876 25.4417 16.3933C25.4417 16.2691 25.5157 15.6181 25.4005 15.5605" stroke="#BFED3B" stroke-linecap="round"/>
<path d="M10.9051 8.02453C10.4009 7.98852 9.98582 8.0228 9.50496 8.18925C9.07437 8.3383 8.39842 8.57564 8.12772 8.96939C8.00671 9.1454 7.86886 9.29862 7.75481 9.48871C7.62324 9.70799 7.56216 10.0812 7.51917 10.3306C7.46987 10.6166 7.39505 10.8716 7.40478 11.1634C7.41353 11.4258 7.507 11.6725 7.5306 11.9321C7.55214 12.1689 7.7274 12.4086 7.83488 12.6138C7.93379 12.8027 8.15575 12.9996 8.31989 13.1309C8.98443 13.6625 9.6913 13.8952 10.5139 14.0597C11.4066 14.2382 12.3025 14.4167 13.2203 14.3159C14.0259 14.2275 15.0236 13.9629 15.5173 13.2773C15.6152 13.1413 15.7498 13.0371 15.8376 12.8929C15.9199 12.7577 15.9344 12.5958 16.0114 12.4583C16.1773 12.162 16.2482 11.916 16.3226 11.5866C16.4652 10.9548 16.5243 10.2341 16.135 9.67174C15.7807 9.16008 15.2961 8.57175 14.7577 8.24873C14.5313 8.11291 14.3297 7.93112 14.0737 7.84151C13.8702 7.77031 13.6124 7.73654 13.3988 7.68594C12.8607 7.55851 12.2723 7.60221 11.7287 7.65162C11.5211 7.6705 11.3171 7.6699 11.111 7.6928C10.9444 7.71131 10.7719 7.81047 10.6168 7.81863C10.3598 7.83216 10.0844 8.16076 9.93278 8.33567C9.83857 8.44437 9.69569 8.58413 9.6285 8.70172C9.59267 8.76443 9.46144 8.77045 9.4226 8.84813" stroke="#723700" stroke-linecap="round"/>
<path d="M8.18719 11.8543C8.18719 10.9494 8.41079 10.2113 8.97191 9.48648C9.07956 9.34743 9.24821 9.1145 9.4226 9.05637C9.63342 8.9861 9.53345 9.23864 9.50496 9.37438C9.37117 10.0119 9.28831 10.6625 9.13434 11.2938C9.12212 11.3439 8.97741 11.9852 9.07028 11.9321C9.15207 11.8854 9.13434 11.4579 9.13434 11.8452C9.13434 12.1708 9.0108 12.4379 9.0108 12.7511C9.0108 12.7997 9.01911 13.1247 8.96047 13.0074C8.91777 12.922 8.92862 12.8296 8.88726 12.742C8.82864 12.6179 8.7602 12.4803 8.72254 12.3485C8.70009 12.2699 8.56215 12.0233 8.64933 11.9458C8.75712 11.85 8.96775 12.6357 8.98792 12.6962C9.01597 12.7804 9.06693 12.855 9.09087 12.9387C9.11939 13.0386 9.13363 12.7356 9.15722 12.6345C9.25561 12.2128 9.32716 11.7953 9.57817 11.4334C9.85458 11.0348 10.2442 10.6819 10.4292 10.2277C10.5056 10.0403 10.5665 9.74552 10.6992 9.58943C10.7958 9.47572 10.8309 9.34897 10.8959 9.21881C10.9748 9.06107 11.1017 8.98817 11.2116 8.84818C11.2461 8.80427 11.51 8.51874 11.4404 8.51874C11.3703 8.51874 11.2676 8.61416 11.2025 8.64228C11.0246 8.7191 10.8635 8.86217 10.7221 8.99231C10.5924 9.11157 10.4428 9.23192 10.3286 9.36522C10.2018 9.51311 10.1782 9.66319 10.0998 9.83422C9.94877 10.1637 9.73779 10.4684 9.67883 10.834C9.55202 11.6202 9.47382 12.5331 9.74289 13.2865C9.75573 13.3225 9.85112 13.6681 9.88473 13.5747C9.92898 13.4518 9.91974 13.3208 9.95794 13.195C10.0377 12.9324 10.1254 12.6451 10.1616 12.3737C10.2953 11.3708 11.0355 10.4919 11.644 9.73127C11.9133 9.3947 12.1468 8.97919 12.4699 8.69262C12.6248 8.55532 12.7692 8.43398 12.9366 8.31284C13.0473 8.2328 13.1653 8.21352 13.2729 8.12982C13.3019 8.10727 13.4121 8.07765 13.2935 8.11152C13.1885 8.14153 13.0161 8.2818 12.9458 8.36317C12.6042 8.75872 12.2446 9.13392 11.9552 9.57341C11.3771 10.4513 11.0612 11.4622 10.8227 12.472C10.7617 12.7307 10.6787 13.0715 10.761 13.3345C10.8501 13.6198 10.9397 13.0442 10.9554 12.957C10.994 12.7432 11.1318 12.5238 11.2254 12.3302C11.3482 12.0759 11.4466 11.8321 11.6234 11.6073C11.8236 11.3528 12.073 11.1473 12.2732 10.898C12.423 10.7115 12.5872 10.5016 12.7559 10.333C13.0477 10.0411 13.209 9.70451 13.5635 9.46589C13.6864 9.38314 13.7756 9.28658 13.8792 9.18678C13.9634 9.10568 14.0929 9.09741 14.1766 9.02892C14.2475 8.97093 14.2381 8.91468 14.3207 8.86649C14.3875 8.82755 14.4278 8.79426 14.5061 8.76582C14.7004 8.69516 14.3311 8.88134 14.2407 8.97172C13.872 9.34044 13.6285 9.75653 13.3484 10.1911C13.1969 10.4262 12.9963 10.6231 12.8383 10.8523C12.6919 11.0645 12.6057 11.2953 12.4791 11.5157C12.2702 11.8794 12.1616 12.2772 12.1085 12.6917C12.082 12.8979 12.0005 13.1865 12.0604 13.3963C12.0634 13.4066 12.2724 12.9408 12.3144 12.8838C12.5808 12.5222 12.821 12.1544 13.1128 11.8086C13.4543 11.4038 13.7728 10.9854 14.1789 10.6395C14.4255 10.4295 14.7076 10.3016 14.9728 10.1248C15.0864 10.049 15.0618 9.90799 15.2084 9.8754C15.2518 9.86575 15.3306 9.84096 15.3686 9.81821C15.4674 9.75888 15.2102 9.98736 15.1466 10.0836C14.8585 10.5199 14.6149 10.9782 14.323 11.4105C14.0675 11.7891 13.7727 12.1514 13.6001 12.575C13.4933 12.8371 13.4107 13.1216 13.2935 13.378C13.2357 13.5045 13.2023 13.7894 13.3141 13.4787C13.464 13.0624 13.8504 12.7133 14.1995 12.4514C14.5881 12.16 14.8824 11.7619 15.3114 11.5249C15.4789 11.4323 15.6343 11.2404 15.8261 11.1977C16.002 11.1587 15.6938 11.5843 15.6408 11.6667C15.4003 12.0409 15.1759 12.4204 14.9842 12.8198C14.8959 13.0037 14.8774 13.1239 14.7257 13.2453C14.6241 13.3266 14.4119 13.3231 14.2841 13.3391C14.1554 13.3552 14.0869 13.4192 13.9524 13.4192" stroke="#723700" stroke-linecap="round"/>
<path d="M24.3298 19.7197C23.9809 20.0369 23.4941 20.1718 23.0761 20.3557C22.8019 20.4764 22.5427 20.6192 22.2708 20.7401C22.1074 20.8127 21.9148 20.838 21.7378 20.8933C21.7024 20.9044 21.4243 20.9683 21.4243 20.9963C21.4243 21.0151 21.6174 20.8774 21.6302 20.8728C21.7322 20.8357 21.9301 20.6355 22.0031 20.557C22.3248 20.2115 22.5959 19.8195 22.8885 19.4498C23.1102 19.1696 23.2586 18.9148 23.4238 18.6078C23.5143 18.4398 23.6373 18.237 23.6297 18.0405C23.6157 17.6749 22.9429 18.1007 22.8611 18.1572C22.1619 18.6393 21.6394 19.3575 20.9119 19.8021C20.2682 20.1954 19.6361 20.7469 18.8529 20.7904C18.7543 20.7959 18.6144 20.928 18.5028 20.9528C18.2817 21.002 18.0294 21.0302 17.8005 20.9757C17.6 20.928 17.1965 20.831 17.5763 20.6257C18.0996 20.3428 18.5822 20.0084 19.0771 19.6785C19.5699 19.35 20.0174 18.9633 20.4154 18.5255C20.7826 18.1216 21.2007 17.7837 21.5868 17.3976C21.8288 17.1555 22.0642 16.8932 22.28 16.6312C22.3365 16.5625 22.408 16.5365 22.4744 16.4825C22.5538 16.418 22.5905 16.3126 22.6689 16.2423C22.82 16.1068 22.8878 15.9931 23.012 15.8511C23.1865 15.6517 23.44 15.5338 23.6297 15.3546C23.7312 15.2588 23.8303 15.1724 23.9272 15.0755C24.1303 14.8723 23.2599 14.9482 23.1379 14.9634C22.3613 15.0605 21.7127 15.421 21.0102 15.7275C20.2498 16.0593 19.5241 16.6508 18.8712 17.1574C18.6307 17.3439 18.3706 17.4761 18.1345 17.6744C17.9592 17.8216 17.8036 17.9884 17.6266 18.1366C17.3201 18.3932 17.0128 18.6682 16.7138 18.9373C16.3768 19.2406 15.9848 19.3615 15.5813 19.5344C15.3575 19.6303 15.1374 19.7386 14.8996 19.7929C14.6549 19.8489 14.3957 19.8223 14.1583 19.9348C13.9712 20.0234 13.7661 20.008 13.5612 20.008C13.3079 20.008 13.7253 19.6174 13.7465 19.5962C13.9385 19.4042 14.1834 19.2702 14.3848 19.0837C14.6267 18.8598 14.9297 18.6929 15.2061 18.5163C15.8513 18.1041 16.4834 17.665 16.9997 17.0933C17.9476 16.0439 19.1745 15.2753 20.1294 14.2336C20.5613 13.7625 21.079 13.3712 21.5113 12.9044C21.6769 12.7256 21.8359 12.5123 22.0237 12.3576C22.1205 12.2779 22.1264 12.1565 22.2273 12.0808C22.3713 11.9728 22.5005 11.8534 22.6323 11.7216C22.8937 11.4602 22.4301 11.9421 22.344 12.0282C22.0995 12.2727 21.8949 12.4755 21.5479 12.5727C20.8224 12.7758 20.1315 13.0082 19.45 13.3414C18.7486 13.6843 18.0937 14.1257 17.4115 14.499C17.2902 14.5654 17.2038 14.6661 17.1004 14.7552C16.9852 14.8546 16.8327 14.9072 16.7344 15.0252C16.6009 15.1853 16.4141 15.2974 16.2997 15.469C15.9889 15.9353 15.5078 16.1371 15.0254 16.4024C14.7707 16.5425 14.5082 16.6188 14.291 16.828C14.1918 16.9235 14.0648 16.9741 13.9547 17.0636C13.8498 17.1488 13.8269 17.2871 13.6962 17.3404C13.575 17.3898 13.5131 17.507 13.4079 17.5783C13.3097 17.645 13.0733 17.6892 13.0076 17.7659C12.9224 17.8653 12.7928 17.8457 12.6758 17.8758C12.4953 17.9222 12.2958 17.9878 12.1176 18.0519C11.9296 18.1196 11.7024 18.1549 11.5022 18.1549C11.3721 18.1549 11.2844 18.2278 11.1613 18.2372C10.9686 18.252 10.7542 18.2956 10.5573 18.3219C10.4553 18.3355 10.2278 18.3742 10.1547 18.434C10.0606 18.511 9.8937 18.5318 9.7795 18.5644C9.65826 18.599 10.0311 18.5411 10.1547 18.5163C10.4254 18.4622 10.7458 18.5563 11.0057 18.482C11.3057 18.3963 11.6003 18.1138 11.8568 17.949C12.5817 17.4829 13.2583 16.9224 14.0439 16.558C14.4814 16.355 14.9251 16.1471 15.3457 15.9105C15.6509 15.7389 15.9145 15.5078 16.2082 15.3226C16.6978 15.0139 17.1704 14.6634 17.6403 14.3251C17.9988 14.067 18.3269 13.7902 18.6012 13.4397C19.0364 12.8837 19.3998 12.2904 19.8915 11.7811C20.4184 11.2354 20.6605 10.546 20.9119 9.85478C21.0896 9.36611 21.2666 8.82842 21.0857 8.32196C20.9565 7.96014 20.6474 7.72098 20.4177 7.42744C20.1337 7.0646 19.6756 6.94087 19.3058 6.69764C18.9536 6.46591 18.562 6.28733 18.2146 6.04562C17.9016 5.82791 17.6642 5.51783 17.3475 5.30666C16.6325 4.82999 15.7152 4.73479 14.9179 4.44188C14.3422 4.23041 13.8107 3.83368 13.1906 3.74182C12.7452 3.67584 12.3228 3.5858 11.8705 3.5771C11.5237 3.57043 11.1691 3.46022 10.8227 3.45356C10.3983 3.4454 9.97326 3.33002 9.54614 3.33002C9.09858 3.33002 8.69307 3.39275 8.25354 3.47415C8.10765 3.50116 7.89737 3.53925 7.7754 3.62057C7.58733 3.74594 7.3557 3.74503 7.14854 3.83333C6.92992 3.92651 6.69488 4.10674 6.46221 4.14904C6.281 4.18199 6.19114 4.2236 6.05498 4.35037C5.71503 4.66687 5.25295 4.82296 4.91566 5.16025C4.58598 5.48993 4.20473 5.83343 3.96623 6.23093C3.75915 6.57606 3.53679 6.909 3.32794 7.25128C3.22132 7.42602 3.12201 7.62888 2.9985 7.7912C2.83272 8.00908 2.86503 8.20175 2.8109 8.45694C2.67301 9.107 2.66906 9.72601 2.66906 10.3901C2.66906 11.288 2.62322 12.1833 2.98935 13.0165C3.27115 13.6578 3.46722 14.2718 3.8793 14.8536C4.27393 15.4107 4.71873 16.064 5.27942 16.4619C5.82809 16.8513 6.39695 17.1877 6.97467 17.528C7.66939 17.9372 8.59069 18.0792 9.38142 18.1457C9.7624 18.1778 10.1524 18.1549 10.5345 18.1549C11.6447 18.1549 12.8147 18.0355 13.8701 17.679C14.991 17.3003 16.1147 16.8035 16.851 15.8534C16.9995 15.6618 17.1258 15.4552 17.2606 15.254C17.4944 14.9047 17.8187 14.5383 17.8851 14.1101C17.9537 13.6683 17.962 13.2128 18.0613 12.7786C18.1351 12.4554 18.1505 12.1189 18.2123 11.7925C18.2629 11.5251 18.3239 11.2582 18.3678 10.9895C18.4371 10.566 18.4411 10.1631 18.4411 9.73353C18.4411 9.48563 18.4596 9.23681 18.3999 8.99457C18.3387 8.74619 18.2023 8.54002 18.0887 8.31281C17.8317 7.79869 17.2971 7.40385 16.8671 7.03623C16.1639 6.43517 15.3895 6.21033 14.5381 5.90149C13.5527 5.54404 12.6233 5.21657 11.5617 5.14881C10.8867 5.10573 10.2382 5.18112 9.57817 5.31581C8.48366 5.53918 7.31069 5.88672 6.58346 6.80974C6.25422 7.22761 6.04785 7.7306 5.72554 8.15267C5.59746 8.32039 5.5198 8.55598 5.42584 8.74978C5.32592 8.95587 5.23748 9.14472 5.16274 9.36062C4.98891 9.86282 4.88015 10.3071 4.85389 10.8454C4.81865 11.5678 5.21831 12.2596 5.6386 12.8243C6.06793 13.4012 6.44529 14.0313 6.91976 14.5722C7.17009 14.8576 7.54777 15.0931 7.89207 15.2471C8.28233 15.4217 8.60206 15.6368 9.02453 15.7481C10.0815 16.0267 11.1297 16.1782 12.2183 16.1782C13.0249 16.1782 13.9626 16.149 14.728 15.8694C15.3754 15.6328 16.0726 15.4544 16.6932 15.1579C17.1153 14.9562 17.4583 14.7554 17.8165 14.4509C18.049 14.2533 18.3573 13.9117 18.3907 13.5976C18.4274 13.2528 18.3662 12.9265 18.3267 12.5864C18.2782 12.1695 18.2532 11.7503 18.2146 11.3327C18.1438 10.5689 18.2331 9.70878 17.8828 9.0083C17.7784 8.79946 17.7434 8.56931 17.638 8.35857C17.5036 8.08972 17.3093 7.85492 17.1828 7.58072C17.0358 7.2622 16.8311 6.86618 16.5834 6.61528C16.2665 6.29437 15.8288 6.15272 15.4235 5.98385C14.5236 5.60889 13.5132 5.68014 12.5706 5.51256C12.2114 5.44871 11.8431 5.47138 11.4793 5.47138C11.1435 5.47138 10.8086 5.47547 10.4979 5.62238C10.2236 5.75203 9.92408 5.80204 9.65138 5.93352C9.278 6.11354 8.93255 6.35715 8.56011 6.54664C8.27142 6.69352 7.99963 6.85948 7.71134 7.00878C7.47166 7.1329 7.29971 7.30907 7.07762 7.44574C6.92417 7.54018 6.81587 7.70434 6.67955 7.82552C6.46563 8.01566 6.24718 8.24192 6.09616 8.48669C5.70134 9.12658 5.73581 9.86226 5.64318 10.5686C5.59048 10.9704 5.63403 11.4055 5.63403 11.8108C5.63403 12.5329 5.48463 13.3138 5.6958 14.014C6.10509 15.3711 7.51036 16.2989 8.6173 17.075C8.92927 17.2938 9.27419 17.4527 9.58961 17.663C9.89758 17.8683 10.2086 18.0608 10.5665 18.164C11.1494 18.3322 11.7212 18.4568 12.3281 18.5072C13.3768 18.5942 14.5049 18.6492 15.5493 18.5186C16.8805 18.3522 18.0171 17.6821 19.0862 16.9057C19.8704 16.3363 20.7353 15.7189 21.374 14.984C21.7859 14.51 22.096 13.8916 22.3486 13.3185C22.5476 12.8668 22.6053 12.4183 22.6002 11.9321C22.597 11.6241 22.3938 10.7276 22.511 11.0124C22.7252 11.5324 22.8915 12.0397 22.9709 12.5955" stroke="#BFED3B" stroke-width="3" stroke-linecap="round"/>
<path d="M9.13002 1.23242C9.48897 1.27088 9.86604 1.33686 10.2266 1.33686C10.4084 1.33686 10.6482 1.35512 10.8271 1.39488C11.0425 1.44275 11.2743 1.4367 11.4856 1.49931C11.7736 1.58465 12.1193 1.62878 12.4183 1.64871C12.8206 1.67553 13.2385 1.71441 13.6352 1.79376C13.9491 1.85652 14.305 1.86393 14.6071 1.95766C14.895 2.04703 15.1849 2.12563 15.4802 2.17814C15.6306 2.20487 15.757 2.24068 15.8907 2.31593C16.0421 2.40106 16.2154 2.43213 16.3752 2.49725C16.7705 2.6583 17.1774 2.73031 17.5791 2.86422C17.7657 2.92643 17.9638 2.96573 18.1375 3.05423C18.3018 3.13789 18.5103 3.21313 18.6568 3.31967C18.874 3.47761 19.0762 3.64597 19.311 3.77802C19.5633 3.91994 19.7357 4.18755 19.9652 4.35967C20.2306 4.55878 20.432 4.84785 20.7165 5.02399C20.9884 5.19234 21.2511 5.44139 21.4417 5.69557C21.5371 5.8227 21.6851 5.90908 21.787 6.03643C21.9021 6.18036 22.0376 6.31021 22.1554 6.45417C22.2556 6.57668 22.397 6.70484 22.4716 6.8458C22.5355 6.96645 22.6101 7.09861 22.6863 7.21133C22.7849 7.35733 22.839 7.52551 22.9546 7.66678C23.0229 7.75022 23.0752 7.87025 23.1243 7.96848C23.2005 8.12084 23.2585 8.26788 23.3201 8.42538C23.3743 8.56391 23.4799 8.70608 23.5101 8.85037C23.5826 9.19675 23.7295 9.533 23.7828 9.89472C23.8319 10.2273 23.9926 10.5383 24.0512 10.8665C24.0962 11.1189 24.2663 11.3284 24.3007 11.586C24.3231 11.7546 24.4293 11.9567 24.5023 12.1082C24.5811 12.2719 24.6032 12.4633 24.6589 12.6361C24.8723 13.2976 24.8654 13.9999 25.11 14.6523C25.2383 14.9945 25.3665 15.334 25.4741 15.6836C25.5325 15.8735 25.5662 16.0895 25.5988 16.2856C25.6175 16.3975 25.5912 16.5131 25.6061 16.625C25.6416 16.8913 25.5893 17.1677 25.7221 17.4068C25.7581 17.4715 25.8019 17.5765 25.8918 17.5765C25.9382 17.5765 25.9002 17.5193 25.8599 17.5301C25.808 17.5441 25.7784 17.5689 25.7352 17.5968C25.6857 17.6288 25.7352 17.9193 25.7352 17.9942C25.7352 18.1615 25.7201 18.3426 25.6844 18.5034C25.652 18.6493 25.672 18.8375 25.6554 18.9864C25.6211 19.2954 25.5483 19.6003 25.4538 19.8944C25.3806 20.1222 25.3088 20.3585 25.1753 20.5587C25.0921 20.6834 24.975 20.7553 24.8765 20.8647C24.7836 20.9679 24.6966 21.0785 24.6009 21.1795C24.4904 21.2962 24.3885 21.4415 24.247 21.5247C24.1757 21.5666 24.0835 21.6302 24.0251 21.6886C23.957 21.7567 23.834 21.7525 23.7756 21.8206C23.6776 21.9349 23.4967 22.0017 23.3709 22.0817C23.2362 22.1674 23.1077 22.2671 22.9415 22.2761C22.7657 22.2856 22.5894 22.4094 22.4194 22.453C21.6037 22.6622 20.7108 22.5633 19.8738 22.5633C19.3168 22.5633 18.749 22.541 18.1999 22.4472C17.6063 22.3459 17.0023 22.3075 16.4129 22.1861C15.7983 22.0596 15.1662 22.0159 14.5563 21.8714C13.952 21.7283 13.3421 21.5968 12.733 21.487C12.4107 21.4289 12.0882 21.3205 11.7685 21.2448C11.483 21.1772 11.1878 20.9952 10.9402 20.8401C10.616 20.637 10.242 20.5604 9.90458 20.3962C9.65415 20.2744 9.39869 20.1672 9.15613 20.0307C8.73755 19.7953 8.30914 19.5826 7.88841 19.3504C7.43641 19.1011 6.95522 18.9042 6.49304 18.6731C6.23296 18.543 5.93217 18.399 5.71558 18.1973C5.65636 18.1422 5.57031 18.1301 5.51686 18.0726C5.44908 17.9996 5.36845 17.9431 5.29349 17.8767C5.10553 17.7105 4.95609 17.5398 4.73795 17.4082C4.20571 17.0872 3.73333 16.6719 3.24975 16.2914C3.0857 16.1623 2.94197 15.9834 2.8001 15.8287C2.7397 15.7628 2.6704 15.7508 2.62894 15.6575C2.58609 15.5611 2.51097 15.4647 2.44473 15.3819C2.37609 15.2961 2.32871 15.1997 2.26922 15.1078C2.20544 15.0092 2.12788 14.9502 2.08066 14.8409C2.04626 14.7612 1.97846 14.7012 1.93706 14.6248C1.87735 14.5145 1.86348 14.4016 1.81812 14.2882C1.70873 14.0148 1.65434 13.7373 1.57299 13.4571C1.5148 13.2567 1.39662 13.0792 1.32351 12.8856C1.15948 12.4514 1.10054 11.96 1.03051 11.5048C0.973213 11.1323 0.905766 10.7765 0.905766 10.3966C0.905766 9.98159 0.858128 9.62041 0.997146 9.2188C1.0755 8.99244 1.01648 8.74446 1.04211 8.51096C1.0788 8.17671 1.23665 7.88755 1.309 7.56524C1.37845 7.25587 1.51357 6.98072 1.6165 6.68335C1.72107 6.38127 1.85455 6.10331 2.02844 5.83626C2.48772 5.13095 3.02097 4.52791 3.74292 4.07828C4.4049 3.66599 5.00294 3.15535 5.67786 2.75833C6.17402 2.46648 6.71716 2.23577 7.25164 2.01568C7.43224 1.94132 7.59849 1.87022 7.77237 1.78651C7.95666 1.69777 8.10343 1.6753 8.29599 1.63566C8.66334 1.56003 9.04036 1.41518 9.41722 1.41518" stroke="black" stroke-linecap="round"/>
<path d="M9.83495 7.81183C10.0792 7.61991 10.4143 7.56326 10.7096 7.47242C10.9133 7.40975 11.0845 7.39409 11.297 7.39409C11.5341 7.39409 11.7651 7.36798 12.0034 7.36798C12.356 7.36798 12.693 7.43921 13.0347 7.52463C13.3719 7.60894 13.7427 7.66712 14.0646 7.79878C14.369 7.92333 14.683 7.95205 14.9726 8.11933C15.0799 8.18136 15.2368 8.21872 15.3569 8.25568C15.4546 8.28571 15.5365 8.37035 15.6311 8.41088C15.6932 8.43749 15.7529 8.45436 15.8139 8.48486C15.8799 8.51788 15.9144 8.60223 15.9763 8.627C16.1001 8.67652 16.1835 8.76612 16.2954 8.83007C16.3449 8.85832 16.3794 9.08508 16.4086 9.14338C16.484 9.29431 16.487 9.46849 16.5449 9.62784C16.6119 9.81196 16.6754 10.02 16.6754 10.2196C16.6754 10.7017 16.8187 11.2043 16.6493 11.6701C16.5679 11.8942 16.4658 12.0964 16.3491 12.304C16.2219 12.5301 16.0507 12.7169 15.9183 12.9349C15.8783 13.0008 15.8225 13.1313 15.7486 13.1641C15.6679 13.2 15.633 13.3284 15.5513 13.3846C15.4611 13.4466 15.4305 13.5055 15.3584 13.5819C15.3026 13.6409 15.2089 13.6737 15.1669 13.7385C15.076 13.8791 14.8019 13.9182 14.6651 13.9865C14.4427 14.0978 14.1301 14.1993 13.8818 14.2085C13.4511 14.2244 13.0213 14.3129 12.5894 14.3129C12.2178 14.3129 11.8423 14.339 11.4682 14.339C11.1775 14.339 10.8648 14.3675 10.5805 14.2999C10.3262 14.2393 10.0696 14.1549 9.81464 14.0982C9.64662 14.0609 9.47337 13.977 9.31132 13.9198C9.12802 13.8551 8.9478 13.7423 8.76594 13.6877C8.62759 13.6462 8.48775 13.5071 8.37286 13.4194C8.19988 13.2874 8.01435 13.1684 7.84488 13.0336C7.64568 12.8751 7.42729 12.6743 7.34301 12.4215C7.18846 11.9578 7.13237 11.456 7.19216 10.971C7.24512 10.5415 7.24744 10.0372 7.4605 9.65105C7.66263 9.28469 7.83804 8.91902 8.11177 8.60089C8.22531 8.46894 8.39963 8.35366 8.54257 8.25423C8.70155 8.14363 8.81897 8.01188 9.01397 7.95688C9.51232 7.81632 10.0467 7.79348 10.5399 7.62907" stroke="black" stroke-linecap="round"/>
</svg>
