<svg width="31" height="34" viewBox="0 0 31 34" fill="none" xmlns="http://www.w3.org/2000/svg">
<mask id="mask0_3_38" style="mask-type:alpha" x="0" y="0" width="31" height="34">
<path d="M9 33L1.5 29.5L3.5 27.5L5 25.5L5.5 23.5L7 20.5L8 19.5L10 18L11.5 17L12.5 14.5L13.5 11L15 9L17.5 7L19.5 5.5L21 3.5L22 1L30 5L29.5 6.5L29 7.5L27.5 9L25 11L23 12.5L21 16L20.5 19L19 22L16 24.5L14.5 26L12.5 31L9 33Z" fill="#D9D9D9" stroke="black"/>
</mask>
<g mask="url(#mask0_3_38)">
<path d="M22.1779 1.5318C22.1392 1.74492 22.0072 1.95556 21.9103 2.1495C21.8157 2.33858 21.6239 2.53723 21.5602 2.72831C21.4612 3.02533 21.2654 3.27858 21.1576 3.55878C21.099 3.71114 21.0079 3.83487 20.9425 3.98202C20.8957 4.08736 20.8785 4.26764 20.8007 4.33434C20.6786 4.439 20.6748 4.65697 20.5307 4.753C20.4434 4.8112 20.444 4.93913 20.366 5.01152C20.2886 5.08337 20.2263 5.17184 20.151 5.24716C19.8767 5.52141 19.6536 5.83775 19.3548 6.0822C19.2013 6.20778 19.0998 6.33955 18.9247 6.43224C18.7529 6.52321 18.651 6.77847 18.4397 6.80286C18.3517 6.81301 18.1641 7.04444 18.0805 7.10942C17.9415 7.21754 17.7636 7.29052 17.6298 7.39997C17.292 7.67633 16.9365 7.87515 16.5683 8.12062C16.2154 8.35585 15.893 8.65625 15.5662 8.92363C15.2664 9.16892 14.9387 9.49656 14.7243 9.81816C14.6163 9.98027 14.4855 10.1219 14.3743 10.2826C14.2483 10.4646 14.1417 10.6881 14.0037 10.8568C13.862 11.03 13.8362 11.2258 13.736 11.415C13.6334 11.6089 13.5556 11.796 13.4798 12.0007C13.3732 12.2884 13.2007 12.7078 13.2007 13.0211C13.2007 13.1898 13.1305 13.3416 13.1183 13.5061C13.1105 13.6115 13.067 13.7231 13.0359 13.8241C12.9991 13.944 13.0225 14.0732 12.9856 14.1878C12.8568 14.5886 12.7162 15.0081 12.5601 15.4095C12.3617 15.9197 12.0831 16.336 11.7571 16.7707C11.631 16.9389 11.4633 17.0984 11.2972 17.2214C11.201 17.2927 11.1184 17.3834 11.0181 17.4479C10.9261 17.507 10.7988 17.5315 10.7207 17.6012C10.359 17.9241 9.83675 18.1163 9.41438 18.3539C9.00049 18.5867 8.63057 18.946 8.25905 19.2301C7.8608 19.5347 7.59061 19.9541 7.22955 20.2894C6.98165 20.5195 6.72522 20.7854 6.57982 21.0924C6.51074 21.2382 6.472 21.4311 6.38764 21.5636C6.29955 21.7021 6.16144 21.9275 6.11769 22.0807C6.06968 22.2487 5.9726 22.3978 5.92094 22.5657C5.82096 22.8906 5.76487 23.2107 5.71504 23.554C5.68198 23.7818 5.6647 24.0558 5.6647 24.2838C5.6647 24.3814 5.59922 24.5102 5.58006 24.6156C5.42979 25.442 5.09635 26.0364 4.57801 26.67C4.19799 27.1344 4.04028 27.8524 3.58511 28.2165C3.18962 28.5329 2.81266 28.9088 2.39088 29.1431C2.31242 29.1867 2.18534 29.2891 2.11406 29.3604C2.03161 29.4429 1.89603 29.4596 1.80292 29.5434C1.73665 29.6031 1.62981 29.687 1.54669 29.731C1.46215 29.7758 1.45176 29.9091 1.34079 29.9461" stroke="#FF1616" stroke-linecap="round"/>
<path d="M22.1367 1.44946C22.4558 1.46823 22.7389 1.66973 23.0244 1.79949C23.1544 1.8586 23.3341 1.90024 23.4751 1.94362C23.6495 1.99727 23.7876 2.12076 23.9578 2.18155C24.3256 2.31291 24.643 2.40764 24.9782 2.6231C25.069 2.68145 25.1702 2.69854 25.2664 2.74664C25.3908 2.80881 25.4791 2.91749 25.605 2.97313C25.8522 3.08234 26.0622 3.21361 26.2799 3.36434C26.6433 3.61588 27.0917 3.75834 27.4581 4.00263C27.5928 4.09239 27.7346 4.17209 27.8791 4.24056C28.0392 4.3164 28.202 4.31507 28.3549 4.39155C28.4727 4.45042 28.5966 4.44465 28.7073 4.5151C28.8141 4.5831 29.0465 4.6493 29.1694 4.69354C29.317 4.74669 29.6846 4.72655 29.7551 4.86741" stroke="#FF1616" stroke-linecap="round"/>
<path d="M29.7963 5.03214C29.7963 5.17928 29.7119 5.27861 29.6498 5.40276C29.6105 5.48138 29.5875 5.53376 29.5309 5.59035C29.4785 5.64271 29.5267 5.7262 29.476 5.78253C29.4153 5.8499 29.2881 6.07984 29.2632 6.16688C29.2294 6.28507 29.0962 6.42208 29.0962 6.53521C29.0962 6.67078 28.9224 6.76981 28.8583 6.88524C28.8164 6.96058 28.7274 7.17704 28.6615 7.21468C28.5279 7.29104 28.4661 7.51537 28.355 7.62648C28.2916 7.68986 28.2275 7.79203 28.1925 7.87356C28.1458 7.98251 28.0503 8.01992 27.9843 8.11149C27.7667 8.4138 27.5441 8.71036 27.2843 8.98543C27.0035 9.28275 26.6885 9.54006 26.3989 9.82962C26.3103 9.91818 26.1398 10.003 26.0809 10.0973C26.0229 10.1901 25.8089 10.3862 25.7194 10.4359C25.6183 10.4921 25.437 10.6298 25.39 10.7356C25.3253 10.8811 25.0755 10.9883 24.9576 11.1062C24.8211 11.2427 24.6841 11.3278 24.5481 11.4562C24.4265 11.5711 24.2062 11.6636 24.1111 11.8063C23.8882 12.1406 23.4404 12.3352 23.1663 12.6093C22.8825 12.8931 22.5261 13.1082 22.2809 13.4352C22.1919 13.5538 22.0569 13.7426 21.9309 13.8127C21.8209 13.8737 21.6912 14.0486 21.6838 14.1741C21.6806 14.2276 21.4958 14.514 21.4573 14.5447C21.3257 14.65 21.3213 14.7837 21.2628 14.9154C21.1524 15.1638 20.9208 15.4147 20.8625 15.6772C20.8016 15.9512 20.7277 16.2165 20.6222 16.4802C20.5754 16.5973 20.6131 16.8005 20.6131 16.924C20.6131 17.0424 20.5567 17.0945 20.533 17.2009C20.5046 17.3289 20.4484 17.4393 20.4484 17.5715C20.4484 17.7638 20.3647 18.0137 20.334 18.2098C20.3055 18.3913 20.3162 18.5174 20.2425 18.6834C20.1867 18.8088 20.0937 18.9799 20.0778 19.1157C20.0676 19.2021 20.0446 19.4042 19.9862 19.4772C19.9042 19.5798 19.7886 19.7468 19.7483 19.8776C19.6561 20.1773 19.522 20.4455 19.3685 20.7218C19.3469 20.7607 19.2789 20.8022 19.245 20.8362C19.1865 20.8947 19.1948 20.9716 19.1489 21.0306C18.9547 21.2803 18.7636 21.501 18.6387 21.7924C18.6039 21.8737 18.5349 21.9611 18.4511 21.9984C18.3463 22.0449 18.3757 22.0905 18.307 22.1631C18.088 22.3942 17.9352 22.7235 17.6504 22.8837C17.4955 22.9709 17.4061 23.1397 17.2363 23.2246C17.0254 23.3301 16.8775 23.5852 16.6507 23.6776C16.4353 23.7653 16.2443 24.0553 16.0192 24.0963C15.8045 24.1353 15.5849 24.4452 15.4427 24.6133C15.2558 24.8342 15.0524 24.996 14.8891 25.2196C14.7689 25.3839 14.656 25.6373 14.4773 25.7366C14.3784 25.7915 14.2737 25.9246 14.2393 26.034C14.1949 26.1754 14.062 26.2692 13.9648 26.384C13.8259 26.5481 13.7622 26.7402 13.6125 26.8988C13.5634 26.9508 13.446 27.0063 13.4157 27.0635C13.3667 27.1561 13.3671 27.2543 13.2807 27.3335C13.1172 27.4834 13.0299 27.7757 12.933 27.9695C12.8399 28.1557 12.8023 28.4401 12.6745 28.5963C12.5601 28.7361 12.5921 28.967 12.5098 29.1225C12.4057 29.319 12.4382 29.5776 12.3748 29.7997C12.3523 29.8785 12.2993 30.1401 12.2329 30.1932C12.1912 30.2266 12.1837 30.3836 12.1506 30.4426C12.0774 30.5727 12.0067 30.7007 11.9241 30.8246C11.7979 31.0139 11.6396 31.1691 11.4711 31.3257C11.2636 31.5183 10.9933 31.7942 10.7116 31.8724C10.4318 31.9502 10.1854 32.1404 9.90626 32.2202C9.76189 32.2614 9.40726 32.3407 9.32974 32.4764C9.29403 32.5389 8.93076 32.6935 8.85388 32.7075C8.74331 32.7276 8.58849 32.8311 8.58849 32.9523C8.58849 33.0332 8.50613 33.416 8.50613 33.2817" stroke="#FF1616" stroke-linecap="round"/>
<path d="M1.7114 30.1932C1.99174 30.1932 2.23797 30.4358 2.49382 30.5318C3.27912 30.8263 4.1098 30.9706 4.88227 31.2844C5.6337 31.5897 6.44469 31.838 7.1243 32.2705C7.69217 32.6319 8.36314 33.117 9.08264 33.117" stroke="#FF1616" stroke-linecap="round"/>
<path d="M28.9727 5.23803C28.7167 5.23803 28.3783 5.2585 28.1697 5.09619C28.115 5.05367 27.9224 4.96738 27.8608 4.94977C27.7879 4.92893 27.2577 4.70197 27.2431 4.82623C27.2156 5.05984 27.1684 5.26889 27.3872 5.44393C27.6104 5.62247 27.724 5.97384 27.902 6.18517C27.9516 6.2441 28.0065 6.45992 28.0232 6.5352C28.0471 6.6427 27.7199 6.59697 27.6549 6.59697C27.2045 6.59697 26.8812 6.2717 26.5019 6.11196C26.2189 5.99283 26.2614 6.38813 26.0695 6.47343C25.8506 6.57071 26.0733 7.05311 26.1953 7.15291C26.325 7.25901 26.4833 7.37997 26.6254 7.46176C26.7695 7.54472 26.9942 7.68411 27.1104 7.80035C27.231 7.92091 26.8668 7.72117 26.8107 7.70655C26.4292 7.60703 26.0906 7.39871 25.6966 7.31991C25.3429 7.24918 24.9729 7.24459 24.6167 7.18265C24.4209 7.14859 24.2369 7.12325 24.2369 7.34737C24.2369 7.80862 24.4328 8.42113 24.8867 8.5965C25.0709 8.66767 25.2584 8.65598 25.4518 8.65598C25.6251 8.65598 25.7778 8.63969 25.5753 8.46838C25.4023 8.32197 25.235 8.12981 24.9873 8.12064C24.7549 8.11203 24.7311 8.53701 24.7311 8.69716C24.7311 8.90458 24.6875 9.18712 24.8752 9.33317C25.0146 9.44157 25.1227 9.45112 25.0377 9.2325C24.7926 8.6024 23.8875 8.48575 23.5369 9.07007C23.2804 9.49748 23.3656 10.0806 23.9487 10.0973C24.0932 10.1014 24.3475 10.146 24.317 9.93256C24.2882 9.73106 24.0217 9.63248 23.8457 9.60541C23.2953 9.52073 22.9862 10.6807 23.2486 11.0536C23.3469 11.1932 23.5292 11.2915 23.7016 11.2915C23.8342 11.2915 23.7712 11.1061 23.7291 11.049C23.5695 10.8331 23.3318 10.6145 23.061 10.5594C22.7015 10.4863 22.2869 10.452 22.0315 10.7585C21.7678 11.0749 21.5191 11.4047 21.5191 11.8406C21.5191 12.3218 22.6528 12.7485 21.8622 11.7079C21.6257 11.3966 21.2249 11.5536 20.9883 11.7902C20.7332 12.0453 20.6543 12.5719 20.6543 12.9158C20.6543 13.1091 20.7947 13.3428 21.0043 13.3894C21.1741 13.4271 21.2266 13.0926 21.1645 12.9822C21.0023 12.6939 20.7986 12.8589 20.6131 13.0394C20.2504 13.3923 20.1223 13.6871 19.9954 14.165C19.9393 14.3762 19.8742 14.7438 20.0755 14.8948C20.2727 15.0427 20.2927 14.9726 20.3454 14.7301C20.4864 14.0813 20.1564 13.4892 19.4509 13.6067C18.9809 13.6851 18.8888 14.3108 18.8835 14.6912C18.8804 14.9177 18.8308 15.2779 19.0894 15.4004C19.3121 15.5059 19.6206 15.084 19.682 14.936C19.8986 14.4136 19.9954 13.9636 19.9954 13.394C19.9954 13.2188 19.9337 12.9838 19.7071 13.2041C19.3596 13.542 19.249 13.9904 19.1215 14.4395C19.0375 14.735 18.929 15.3063 19.277 15.4919C19.5503 15.6376 19.7669 15.6519 20.0183 15.4438C20.4046 15.1241 20.6058 14.7024 20.5284 14.1993C20.4816 13.8946 19.8725 14.6047 19.8558 14.6294C19.4477 15.2351 19.2322 16.0216 19.0391 16.7181C18.9676 16.976 18.8904 17.2399 18.8835 17.5097C18.8813 17.5955 18.8878 17.6733 18.975 17.5829C19.1875 17.3629 19.2824 17.0267 19.3296 16.7342C19.3405 16.6669 19.4235 15.7046 19.3091 15.7504C19.0693 15.8463 18.9376 16.2264 18.7966 16.4184C18.5255 16.7875 18.2359 17.1397 18.0233 17.5486C17.9273 17.7333 17.4272 18.7155 17.7808 18.8595C18.1525 19.0109 18.3851 18.6556 18.6044 18.3974C19.045 17.8786 19.2022 17.0985 19.1695 16.4276C19.1411 15.846 18.6892 16.5498 18.5907 16.6975C18.333 17.084 18.1663 17.5257 17.9593 17.9398C17.7497 18.3589 17.5101 18.768 17.3782 19.221C17.3098 19.4557 17.1937 19.8399 17.2455 20.0858C17.2647 20.1773 17.4188 20.1478 17.4834 20.1452C17.6636 20.1382 17.7999 19.9855 17.9227 19.8684C18.1973 19.6065 18.4723 19.3113 18.6136 18.9533C18.6315 18.9078 18.798 18.4354 18.6479 18.5529C18.3087 18.8184 18.0497 19.245 17.7717 19.571C17.2381 20.1966 16.8245 20.8293 16.669 21.6415C16.5868 22.0704 17.2309 21.6736 17.3416 21.5865C17.6837 21.3174 17.9929 20.9904 18.2109 20.6119C18.2402 20.5612 18.5111 19.9034 18.4122 19.8799C18.2541 19.8422 17.8422 20.685 17.7717 20.8041C17.5053 21.254 17.1488 21.6771 16.8337 22.0944C16.6937 22.2798 16.0628 23.173 16.7422 22.7144C17.1534 22.4369 17.4868 21.9779 17.8334 21.6277C18.3307 21.1254 18.8169 20.6307 19.2107 20.04C19.4289 19.7127 19.6607 19.4053 19.7163 19.0105C19.7227 18.9649 19.8051 18.7185 19.6888 18.7543C19.3655 18.8537 19.0778 19.2129 18.8835 19.4726C18.5627 19.9016 18.3553 20.4074 18.0691 20.859C17.9461 21.0531 17.7893 21.2327 17.6779 21.4333C17.5891 21.5931 17.9548 21.1906 18.0645 21.0443C18.4505 20.5297 18.7786 19.9804 19.0414 19.3926C19.1388 19.1747 19.2233 18.9551 19.2679 18.7199C19.2797 18.6575 19.3266 18.4831 19.2839 18.5301C19.0131 18.828 18.682 19.0791 18.3939 19.3605C17.7804 19.9599 17.2099 20.5995 16.6072 21.2091C16.1584 21.6629 15.7186 22.1265 15.2734 22.584C15.1854 22.6744 15.0511 22.9194 15.2665 22.7327C15.8951 22.1879 16.4373 21.5074 16.7879 20.7492C17.1239 20.0227 15.8233 22.0271 15.3603 22.6801C15.3177 22.7403 14.8531 23.4572 14.8799 23.4648C15.0005 23.4993 15.3514 22.9593 15.3992 22.8837C15.5173 22.6971 16.0491 21.2738 15.6623 21.3463C15.3747 21.4003 15.1207 21.6997 14.9257 21.8977C14.4535 22.377 14.0428 22.9348 13.6262 23.4625C13.3106 23.8623 12.8835 24.3323 12.734 24.8306C12.6786 25.015 12.6709 25.1845 12.8987 25.1006C13.1805 24.9967 13.421 24.6981 13.6079 24.4737C13.8885 24.137 14.231 23.7412 14.3537 23.3115C14.3721 23.2472 14.5436 22.6314 14.4178 22.6664C14.0755 22.7615 13.7705 23.1315 13.5484 23.3802C13.1574 23.818 12.8357 24.3008 12.5235 24.7963C12.2691 25.2 11.9105 25.6517 11.8257 26.1324C11.7731 26.4305 11.8739 26.5554 12.178 26.5671C12.6265 26.5843 12.8905 26.4297 13.2098 26.1141C13.6547 25.6743 13.9747 25.1601 14.1387 24.5561C14.1562 24.4916 14.4032 23.6251 14.1707 23.7874C13.7329 24.093 13.4417 24.6585 13.1366 25.0823C12.7489 25.6207 12.4102 26.2128 12.1071 26.8027C12.0896 26.8367 11.8477 27.2197 11.9493 27.2648C12.1407 27.3499 12.3875 26.8093 12.4411 26.7066C12.7108 26.1903 12.8533 25.6237 12.9284 25.048C12.9845 24.618 12.7315 24.9641 12.5761 25.1463C12.1408 25.6567 11.841 26.3036 11.51 26.8828C11.1836 27.454 10.8663 28.043 10.6955 28.6833C10.6729 28.768 10.5056 29.1823 10.6933 29.1614C10.9659 29.1311 11.1005 28.8374 11.2309 28.6329C11.5291 28.1653 11.694 27.6352 11.8417 27.1047C11.8823 26.9589 12.1675 26.0867 11.8829 26.6197C11.554 27.2356 11.3095 27.897 10.9998 28.5231C10.7274 29.0738 10.3824 29.6333 10.222 30.2298C10.2049 30.2934 10.1064 30.5232 10.2403 30.4563C10.4534 30.3497 10.541 30.0822 10.5834 29.8638C10.5981 29.7883 10.6359 29.2997 10.5583 29.4016C10.3031 29.7365 10.0798 30.0897 9.85822 30.4471C9.61932 30.8325 9.33565 31.1961 9.12384 31.5979C9.03972 31.7575 8.85851 32.2658 8.94997 32.1104C9.02411 31.9843 9.44872 31.0605 9.23823 31.1083C8.97524 31.1681 8.75365 31.4854 8.57477 31.6665C8.43236 31.8107 8.25577 31.9572 8.13551 32.1195C7.94887 32.3715 8.0892 32.085 8.26821 31.9822C9.24836 31.4199 10.1236 30.7105 11.0959 30.136C11.3353 29.9945 11.6235 29.8704 11.8234 29.6762C11.9894 29.5149 11.9213 29.3868 11.9241 29.1408C11.9268 28.9049 11.9858 28.698 12.0476 28.4728C12.1602 28.0626 12.2295 27.6148 12.2718 27.1916C12.3146 26.7635 12.2784 26.3347 12.297 25.9059C12.3202 25.3713 12.5581 24.8452 12.7889 24.3708C12.8816 24.1801 13.0016 24.0093 13.0748 23.808C13.1612 23.5706 13.2062 23.4099 13.3654 23.2109C13.6732 22.8261 14.0044 22.4612 14.3125 22.0716C14.5564 21.7632 14.8394 21.5848 15.1956 21.4218C15.6402 21.2184 16.0761 21.0001 16.5088 20.7721C16.7764 20.6311 17.0393 20.4748 17.3278 20.3786C17.3935 20.3567 17.5679 20.3555 17.6069 20.2871C17.6837 20.1528 17.7305 19.9231 17.7305 19.7723C17.7305 19.4865 17.7036 19.1802 17.7396 18.8961C17.7628 18.714 17.7914 18.4995 17.8723 18.3333C17.9271 18.2208 18.0357 18.1312 18.0599 18.0039C18.114 17.72 18.37 17.467 18.4626 17.1894C18.5638 16.8857 18.7936 16.6301 18.8835 16.3155" stroke="#FF1616" stroke-width="2" stroke-linecap="round"/>
<path d="M24.2369 3.09666C24.2369 2.94272 24.1472 2.83826 24.0127 2.76493C23.8536 2.67812 23.764 2.49353 23.6101 2.3966C23.388 2.25679 23.0434 2.16747 22.7956 2.29136C22.3926 2.49288 22.0956 2.56291 22.0956 3.07607C22.0956 3.22562 22.0801 3.25682 22.1871 3.33459C22.299 3.41597 22.5453 3.30889 22.6492 3.26138C22.8372 3.17545 22.9965 3.19622 23.0404 2.95482C23.0768 2.75455 22.6435 3.04321 22.608 3.08751C22.4874 3.23824 21.7149 4.90132 22.3038 4.63634C22.5586 4.52165 22.8942 4.18329 23.0519 3.96144C23.135 3.84447 23.2402 3.39081 22.9512 3.47643C22.5357 3.59955 22.322 4.06416 22.0933 4.39384C21.8822 4.698 21.6846 5.01404 21.4436 5.29522C21.4249 5.31697 21.2302 5.63954 21.2582 5.64754C21.5089 5.71916 21.9518 5.05983 22.0864 4.90859C22.2624 4.71091 22.4774 4.51584 22.5852 4.2703C22.6087 4.21657 22.7712 3.84748 22.6904 3.8013C22.4904 3.68699 21.7219 4.60502 21.6106 4.71641C20.9901 5.33686 20.4145 6.05349 19.7254 6.59697C19.703 6.61464 19.4133 6.84906 19.5081 6.88066C19.6466 6.92682 19.7852 6.83319 19.8924 6.76169C20.2187 6.54415 20.5429 6.27669 20.8098 5.98842C20.8991 5.89206 20.6554 6.04546 20.6314 6.0685C20.3884 6.3018 20.2097 6.60235 19.9725 6.84405C19.3025 7.52671 18.56 8.07735 17.8014 8.6514C17.6973 8.73017 17.5862 8.8694 17.7488 8.68801C17.9898 8.4192 18.2637 8.16784 18.5175 7.91016C19.2129 7.20414 19.8343 6.45418 20.6337 5.85802C20.8561 5.69212 21.1095 5.52681 21.3681 5.42105C21.489 5.37157 21.2112 5.75899 21.1805 5.80082C20.6222 6.56043 20.1946 7.39423 19.5836 8.12064C19.4267 8.30721 19.2284 8.48255 19.0986 8.6903C19.0635 8.74639 19.4897 8.44902 19.5493 8.40432C20.3666 7.7913 21.1517 7.10271 21.908 6.41624C22.1801 6.16925 22.4677 5.87635 22.7773 5.67728C23.0525 5.50037 22.7036 5.82494 22.6538 5.87403C21.8676 6.64945 21.0541 7.40335 20.2928 8.203C20.0516 8.45635 19.8085 8.72277 19.5287 8.93509C19.2917 9.11489 19.5748 8.92888 19.6499 8.83443C20.174 8.17516 20.6817 7.50666 21.2308 6.86693C21.8542 6.14058 22.3992 5.35737 23.1251 4.72556C23.3555 4.52505 23.6554 4.40751 23.864 4.19022C23.9552 4.09524 24.0666 4.00374 24.1935 3.96144C24.286 3.93059 24.3578 3.87125 24.4428 3.82875C24.5188 3.79078 24.8742 3.47123 24.7082 3.59769C23.7175 4.35254 22.7907 5.17644 21.972 6.12111C21.2267 6.98115 20.4199 7.82044 19.6248 8.63768C19.1582 9.11721 18.9027 9.84093 18.3482 10.2414C17.8641 10.591 17.555 11.1257 17.0716 11.4883C16.8842 11.6288 16.6961 11.8463 16.5546 12.035C16.3665 12.2858 16.1475 12.4914 15.9597 12.7328C15.5862 13.2131 15.3258 13.7896 15.1956 14.3846C15.1133 14.761 14.9764 15.0921 14.8479 15.4507C14.8117 15.5517 14.6896 15.8377 14.7655 15.7618C14.8517 15.6756 14.8469 15.369 14.857 15.2585C14.923 14.5403 14.9612 13.8551 15.1316 13.1492C15.2123 12.8149 15.2566 12.4926 15.3603 12.1609C15.4357 11.9198 15.5021 11.6769 15.5685 11.4334C15.7458 10.7832 16.0629 10.224 16.5454 9.75869C16.632 9.67518 16.7718 9.46155 16.8863 9.43612C16.9348 9.42533 17.0343 9.31158 17.0121 9.35604C16.9578 9.46471 16.8276 9.61838 16.7422 9.70836C16.4354 10.0313 16.2119 10.4234 15.9163 10.7585C15.4749 11.2587 15.1493 11.8463 14.8524 12.44C14.5021 13.1406 13.9681 13.7141 13.736 14.4715C13.5302 15.143 13.3213 15.7512 13.2807 16.4619C13.2601 16.8234 13.1674 17.1786 13.1595 17.5417C13.1541 17.7883 13.0477 18.0371 13.3654 17.7339C13.745 17.3715 14.1628 17.05 14.5825 16.7364C14.9786 16.4405 15.2248 16.0238 15.4976 15.6246C15.5158 15.598 15.7472 15.1938 15.7721 15.2105C15.8034 15.2313 15.3769 16.0611 15.342 16.1279C14.9724 16.8363 14.6881 17.6089 14.2691 18.2898C14.0834 18.5916 13.7849 18.8185 13.5804 19.1066C13.3617 19.4148 13.1084 19.848 12.7728 20.0377C12.0374 20.4534 11.2342 20.8913 10.5789 21.4218C10.2704 21.6715 9.94831 21.8916 9.67747 22.1882C9.43916 22.4492 9.31248 22.7818 9.19017 23.1079C9.01249 23.5817 9.01137 24.1404 8.78523 24.5927C8.64369 24.8758 8.55882 25.187 8.48553 25.4964C8.38025 25.9409 8.1974 26.3606 8.09432 26.8073C8.02565 27.1049 7.95507 27.4746 7.80606 27.7407C7.66854 27.9863 7.66445 28.3001 7.51551 28.5483C7.41754 28.7116 7.35405 28.9659 7.22954 29.1042C7.07439 29.2766 6.93255 29.5315 6.81774 29.7356C6.56603 30.1831 6.07268 30.4771 5.58234 30.605C4.96661 30.7656 4.06695 30.8388 3.44097 30.6462C3.14271 30.5544 2.9504 30.5811 2.80725 30.2618C2.74142 30.115 2.74091 29.9992 2.74091 29.8432C2.74091 29.507 3.5035 29.5755 3.7155 29.5755C4.02741 29.5755 4.34564 29.7189 4.65578 29.6373C4.77793 29.6051 4.97565 29.5388 5.09732 29.5343C5.24177 29.529 5.5561 29.5226 5.64182 29.3879C6.00128 28.823 4.99329 28.7877 4.63519 28.7519C4.5387 28.7422 5.02151 28.5246 5.06987 28.5025C5.35737 28.3711 5.66285 28.2787 5.94381 28.1342C6.12259 28.0422 6.71172 27.8252 6.75826 27.608C6.76324 27.5847 6.2599 27.6576 6.23207 27.6629C5.89592 27.7267 5.5619 27.8291 5.23459 27.9283C5.14648 27.955 4.87809 28.061 5.07216 27.926C5.36241 27.7241 5.68887 27.5688 5.98727 27.3769C6.22305 27.2254 6.55614 27.0804 6.72623 26.8484C6.90335 26.6069 6.58197 26.6339 6.41966 26.67C6.14716 26.7306 5.90299 26.8871 5.65783 27.0132C5.59718 27.0444 5.39261 27.1471 5.55259 27.0338C5.80104 26.8578 6.05258 26.6863 6.3007 26.5099C6.66673 26.2496 7.11227 26.016 7.43544 25.7046C7.68171 25.4672 7.43936 25.4903 7.22039 25.549C6.89242 25.6369 6.57605 25.7799 6.25952 25.9013C6.09674 25.9637 6.02592 26.0098 6.19089 25.8212C6.48194 25.4886 6.86373 25.2193 7.19751 24.9313C7.2368 24.8974 7.64071 24.5149 7.56356 24.5149C7.25411 24.5149 6.96954 24.6652 6.68276 24.7574C6.60545 24.7823 5.57278 25.1436 5.93008 24.7986C6.26042 24.4796 6.69559 24.2375 7.06024 23.9567C7.4604 23.6485 7.89177 23.3739 8.24074 23.005C8.36507 22.8735 7.90528 23.0636 7.88385 23.0736C7.54399 23.2322 7.22635 23.3492 6.86807 23.458C6.69031 23.5119 6.53066 23.5471 6.73538 23.3664C7.03223 23.1045 7.31864 22.826 7.60931 22.5566C7.84128 22.3415 8.32836 22.0244 8.41461 21.7009C8.43815 21.6127 7.96672 21.7275 7.94791 21.733C7.59082 21.8359 7.26691 22.015 6.91611 22.1356C6.6502 22.227 7.10462 21.972 7.13574 21.9526C7.32232 21.8364 8.91502 20.8115 8.82642 20.7309C8.7286 20.642 8.14091 20.903 8.02569 20.946C7.84515 21.0132 7.38806 21.335 7.49492 21.1747C7.58488 21.0398 7.79819 20.8868 7.92045 20.779C8.3105 20.4348 8.75602 20.1171 9.24737 19.9416C9.29516 19.9246 10.0086 19.673 9.97717 19.7883C9.90249 20.0622 9.66445 20.2873 9.48301 20.4907C9.4702 20.5051 9.29466 20.7893 9.43039 20.6943C9.7438 20.4749 10.0467 20.2408 10.3638 20.0263C10.7231 19.7832 11.1099 19.5505 11.4391 19.2667C11.6754 19.063 11.3469 19.274 11.2652 19.3193C11.2337 19.3369 10.9123 19.4918 10.922 19.4589C11.0033 19.1846 11.2768 18.9335 11.4528 18.7222C11.7008 18.4246 12.0559 18.1022 12.194 17.7339C12.2709 17.529 11.9587 17.699 11.9058 17.7431C11.5765 18.0168 11.2545 18.3028 10.9518 18.6056C10.7924 18.7649 10.633 18.9243 10.4736 19.0837C10.4317 19.1256 10.3137 19.2301 10.373 19.2301C10.5526 19.2301 10.7759 18.981 10.9152 18.8892C11.1611 18.7273 11.3999 18.53 11.5946 18.3081C11.6441 18.2518 12.0153 17.8206 11.7456 17.949C11.2946 18.1637 10.8903 18.4572 10.469 18.7222C10.1369 18.9312 9.67806 19.1151 9.39836 19.3948C9.38464 19.4086 9.77491 19.2721 9.86507 19.2393" stroke="#FF1616" stroke-width="2" stroke-linecap="round"/>
<path d="M25.843 3.59082C25.843 3.7747 25.656 3.8469 25.5959 3.98203C25.5282 4.13443 25.4145 4.29358 25.3259 4.43273C25.1724 4.67394 24.8961 5.03465 24.6488 5.16482C24.5321 5.22619 24.4631 5.44876 24.3399 5.54459C24.2714 5.59784 24.2233 5.54265 24.1752 5.62924C24.1295 5.71148 24.0775 5.76811 24.0105 5.83514C23.8056 6.04001 23.533 6.26587 23.4133 6.5352C23.3179 6.74993 23.1505 7.00165 22.9695 7.18264C22.7557 7.39646 22.6052 7.70564 22.3838 7.91473C22.1602 8.12593 21.989 8.40642 21.7433 8.61708C21.6719 8.67827 21.6614 8.77631 21.5808 8.839C21.5018 8.90045 21.4071 8.93263 21.3338 9.00601C21.2093 9.13046 21.0493 9.19754 20.922 9.29656C20.811 9.38289 20.7353 9.5221 20.6131 9.59397C20.4924 9.66495 20.3657 9.7747 20.2928 9.89138C20.2095 10.0247 20.0447 10.0745 19.9634 10.2208C19.9012 10.3328 19.777 10.4117 19.666 10.4771C19.6 10.5158 19.6417 10.5977 19.563 10.6326C19.5054 10.6582 19.4349 10.7479 19.396 10.7973C19.3016 10.9175 19.182 10.9905 19.0894 11.1062C18.9994 11.2187 18.8735 11.2831 18.7806 11.3967C18.6975 11.4983 18.6692 11.6294 18.5747 11.7239C18.5254 11.7732 18.4216 11.8345 18.3894 11.8909C18.1928 12.2349 17.9479 12.499 17.8037 12.8884C17.749 13.0362 17.5849 13.1875 17.5658 13.3505C17.5434 13.5404 17.5146 13.7765 17.4514 13.9591C17.4031 14.0987 17.3793 14.2184 17.3576 14.3594C17.3369 14.4937 17.2548 14.7534 17.1768 14.8536C17.1046 14.9464 17.059 15.2293 17.0327 15.3477C17.0139 15.4324 16.9629 15.5163 16.9252 15.5971C16.8483 15.762 16.8402 15.892 16.8039 16.0661C16.7684 16.2366 16.7489 16.4939 16.669 16.6449C16.5935 16.7874 16.5043 17.0152 16.4951 17.1803C16.4872 17.3216 16.3625 17.4372 16.3327 17.5715C16.2887 17.7695 16.241 17.893 16.1451 18.0656C16.0762 18.1897 15.9263 18.3032 15.8865 18.4385C15.8123 18.6911 15.6577 18.8803 15.4839 19.0746C15.2514 19.3344 15.0131 19.7977 14.6832 19.9714C14.4884 20.0739 14.3312 20.1678 14.1684 20.3305C14.0812 20.4178 13.9389 20.4169 13.8435 20.4976C13.7483 20.5782 13.6955 20.7074 13.5713 20.7607C13.3726 20.8458 13.2433 20.97 13.0954 21.1313C12.9686 21.2697 12.7823 21.3461 12.6447 21.4836C12.5188 21.6095 12.2961 21.7229 12.2032 21.8748C12.1471 21.9665 12.0429 22.0229 11.9561 22.0807C11.8669 22.1402 11.8289 22.23 11.7502 22.2866C11.4079 22.5331 11.2465 22.9164 11.0181 23.2658C10.9058 23.4376 10.9024 23.6759 10.7527 23.8469C10.6811 23.9287 10.5924 24.1302 10.5674 24.2427C10.5293 24.4144 10.4392 24.601 10.3387 24.7574C10.228 24.9296 10.1729 25.1932 10.0298 25.3362C9.79408 25.5719 9.78407 25.9427 9.57682 26.1758C9.50225 26.2597 9.45328 26.5879 9.45328 26.702C9.45328 26.8847 9.37092 27.054 9.37092 27.2374C9.37092 27.3801 9.3264 27.5775 9.27941 27.7132C9.13855 28.1202 8.84861 28.4998 8.5885 28.8342C8.47229 28.9837 8.32695 29.091 8.23847 29.2483C8.16522 29.3785 8.02994 29.6361 7.88844 29.6967C7.70403 29.7758 7.66665 29.9233 7.559 30.0788C7.50921 30.1507 7.43071 30.2047 7.35309 30.2435C7.26933 30.2854 7.26672 30.3622 7.18837 30.4082C7.12679 30.4445 6.87535 30.6326 6.84978 30.6965C6.78046 30.8698 6.53405 30.9207 6.48831 31.058" stroke="#FFB8B8" stroke-width="2" stroke-linecap="square"/>
<path d="M1.05252 29.9049C1.22951 29.9049 1.32354 30.0315 1.48491 30.0674C1.59891 30.0927 1.62275 30.1706 1.73428 30.2344C1.85019 30.3006 1.99527 30.2777 2.10261 30.3373C2.23835 30.4127 2.39187 30.5229 2.53501 30.5638C2.65456 30.598 2.75897 30.6438 2.86445 30.6965C3.02087 30.7747 3.23197 30.7454 3.39979 30.82C3.52495 30.8757 3.65169 30.9356 3.77956 30.9848C3.89243 31.0282 3.97325 31.124 4.09985 31.138C4.21054 31.1503 4.32251 31.1626 4.42014 31.2227C4.68114 31.3833 5.04818 31.4411 5.33754 31.5315C5.6462 31.628 5.93915 31.732 6.22292 31.861C6.40344 31.943 6.58967 32.0001 6.77656 32.0669C6.93189 32.1224 7.06014 32.2384 7.21124 32.2934C7.59263 32.4321 7.90707 32.715 8.31853 32.7898C8.58201 32.8377 8.73108 33.1752 9.03232 33.1993C9.10962 33.2055 9.27504 33.3007 9.36176 33.2314C9.44084 33.1681 9.54343 33.0482 9.65917 33.0346C9.72124 33.0273 9.85205 32.9058 9.8971 32.8607C9.98432 32.7735 10.1289 32.7737 10.2357 32.7143C10.3229 32.6659 10.5503 32.6087 10.5972 32.5404C10.64 32.4781 10.7666 32.4501 10.8328 32.3986C10.8815 32.3607 10.9713 32.4042 11.009 32.3666C11.1868 32.1887 11.4797 32.0379 11.7388 31.9227C11.8279 31.8831 11.9862 31.7271 12.0499 31.6528C12.1478 31.5386 12.254 31.5195 12.297 31.3691C12.3299 31.2538 12.4621 31.1436 12.5212 31.0374C12.5907 30.9123 12.6785 30.7284 12.7042 30.5867C12.7465 30.3543 12.8777 30.0869 12.9948 29.882C13.0689 29.7522 13.0844 29.5827 13.1275 29.4428C13.178 29.2785 13.284 29.1332 13.3562 28.9807C13.5056 28.6654 13.5673 28.2919 13.6857 27.9603C13.9435 27.2384 14.223 26.4025 14.7655 25.8281C15.249 25.3161 15.717 24.7883 16.312 24.4097C16.9784 23.9856 17.5934 23.4641 18.2269 22.9889C18.4892 22.7922 18.7542 22.5826 18.9567 22.3598C19.0449 22.2628 19.1376 22.152 19.2221 22.0487C19.3148 21.9354 19.3193 21.8031 19.4189 21.6918C19.4824 21.6208 19.5043 21.486 19.563 21.4012C19.6278 21.3076 19.6687 21.2657 19.698 21.1519C19.7528 20.9386 19.9234 20.7544 20.0045 20.5479C20.1472 20.1847 20.2711 19.8083 20.4163 19.4452C20.5787 19.0393 20.6003 18.5557 20.6954 18.1274C20.8174 17.5787 20.84 17.0006 20.9837 16.4619C21.0659 16.1536 21.1506 15.7889 21.3131 15.5125C21.4076 15.3518 21.4262 15.1561 21.5282 14.9886C21.6353 14.8125 21.7381 14.6465 21.8302 14.4624C21.9715 14.1798 22.1947 13.9028 22.3678 13.6365C22.5478 13.3595 22.8201 13.1203 22.9809 12.8358C23.3231 12.2304 23.9641 11.7511 24.4932 11.3327C24.7278 11.1472 24.9613 10.9482 25.2161 10.7882C25.4452 10.6443 25.7452 10.5177 25.9345 10.3352C26.1119 10.1641 26.3796 10.1049 26.5819 9.95315C26.6932 9.86968 26.7597 9.78593 26.8931 9.72665C27.0285 9.66645 27.0892 9.53206 27.2019 9.44754C27.3434 9.34145 27.4502 9.27704 27.5771 9.15013C27.8651 8.8621 28.1941 8.62528 28.4579 8.30594C28.812 7.87734 29.1269 7.45568 29.4165 6.97674C29.5802 6.70602 29.7166 6.43134 29.8603 6.14398C29.9777 5.90915 29.9463 5.68876 30.0113 5.45307C30.0524 5.3041 30.0764 5.18614 30.0845 5.03212C30.0886 4.95379 30.1257 4.88673 30.1257 4.80563C30.1257 4.71681 30.0511 4.76627 30.0113 4.70268C29.9563 4.61469 29.7423 4.52828 29.6407 4.48763C29.4238 4.40085 29.2042 4.23871 28.991 4.12616C26.8536 2.99808 24.635 2.02291 22.528 0.852334C22.4331 0.799618 22.3262 0.743083 22.2191 0.749384C22.1568 0.753051 22.1204 1.05891 22.0864 1.12001C22.0055 1.2657 21.8961 1.42319 21.8393 1.58214C21.7565 1.81403 21.7322 2.04845 21.6014 2.2639C21.4601 2.49658 21.4509 2.82434 21.3131 3.04632C21.1678 3.28043 21.0265 3.50521 20.9013 3.75553C20.662 4.23416 20.3117 4.81174 19.8901 5.14651C19.7975 5.2201 19.7599 5.29503 19.698 5.39359C19.6043 5.54278 19.4546 5.57109 19.3388 5.67727C19.2893 5.72262 19.2903 5.79878 19.2496 5.85115C19.2002 5.91457 19.1125 5.96358 19.0482 6.01129C18.9635 6.07423 18.8863 6.15324 18.7966 6.20804C18.115 6.62459 17.442 7.07211 16.7833 7.52123C16.2696 7.87153 15.7964 8.2772 15.3237 8.67427C14.8395 9.08102 14.3693 9.58455 14.0266 10.1202C13.9291 10.2724 13.909 10.462 13.7978 10.6075C13.6974 10.7388 13.6033 10.8527 13.5301 11.0032C13.4004 11.2699 13.1898 11.6188 13.1275 11.9046C13.0782 12.1305 12.9576 12.31 12.8918 12.5292C12.8351 12.7183 12.797 12.9195 12.7568 13.1126C12.6478 13.6358 12.5228 14.1545 12.4091 14.6774C12.2805 15.269 11.9555 15.8507 11.6358 16.3658C11.4818 16.614 11.3865 16.8347 11.1737 17.0476C11.0639 17.1574 10.9223 17.2242 10.7916 17.3038C10.6546 17.3872 10.5595 17.5209 10.4096 17.5829C10.1759 17.6796 9.81361 17.8829 9.634 18.0519C9.3713 18.2992 9.16088 18.5726 8.85387 18.768C8.6216 18.9158 8.39492 19.0814 8.15381 19.221C7.93396 19.3482 7.77264 19.5671 7.55898 19.6739C7.39162 19.7576 7.12492 20.0662 7.04194 20.2322C6.91297 20.4901 6.84241 20.7452 6.65073 20.9528C6.39963 21.2248 6.29923 21.6182 6.12225 21.9343C6.00833 22.1377 5.89829 22.3495 5.76536 22.5428C5.6327 22.7358 5.65988 23.026 5.60293 23.2475C5.5671 23.3868 5.48842 23.5161 5.42677 23.6455C5.34296 23.8215 5.27136 24.0059 5.17969 24.1809C4.97734 24.5672 4.89997 24.8823 4.88227 25.3248C4.87396 25.5327 4.70842 25.7766 4.59401 25.9425C4.05361 26.7261 3.5751 27.5909 2.8736 28.2486C2.35554 28.7342 1.72782 29.0929 1.17606 29.5343" stroke="black" stroke-linecap="round"/>
<path d="M5.047 30.8109C5.11732 30.8021 5.18241 30.6456 5.23002 30.5844C5.27715 30.5238 5.27327 30.4611 5.33526 30.3991C5.3812 30.3531 5.46778 30.3364 5.49998 30.2961C5.63586 30.1263 5.84769 30.012 6.01473 29.882C6.42365 29.564 6.63203 29.0396 6.97331 28.6604C7.15598 28.4574 7.38428 28.226 7.51781 27.9923C7.61126 27.8288 7.85197 27.6243 7.89071 27.4112C7.93341 27.1764 8.13551 26.9684 8.13551 26.7135C8.13551 26.4098 8.28525 26.1472 8.33912 25.851C8.36254 25.7222 8.38079 25.5336 8.43292 25.4163C8.50077 25.2636 8.50428 25.1049 8.55646 24.9541C8.67295 24.6176 8.86693 24.2867 8.94996 23.9338C8.98543 23.783 9.03893 23.6248 9.12383 23.49C9.20161 23.3664 9.30521 23.0118 9.41209 22.9363C9.6841 22.7443 9.75429 22.2967 9.97946 22.0715C10.0559 21.9951 10.1513 21.7821 10.1945 21.6849C10.2808 21.4907 10.4397 21.379 10.5445 21.2159C10.6478 21.0554 10.7011 20.9564 10.8328 20.8247C10.9377 20.7198 10.9956 20.5606 11.1211 20.477C11.4388 20.2651 11.6606 19.9236 11.9881 19.7151C12.1916 19.5857 12.4779 19.5532 12.6836 19.4223C12.7518 19.3789 12.81 19.3237 12.8804 19.2804C12.9485 19.2385 13.0391 19.262 13.0977 19.2164C13.3309 19.0351 13.604 18.9099 13.8687 18.8183C13.9862 18.7777 14.2342 18.6359 14.3217 18.5483C14.4016 18.4684 14.5054 18.4103 14.5916 18.3241C14.6979 18.2179 14.7659 18.0812 14.8685 17.9787C14.9429 17.9043 15.0085 17.7811 15.0446 17.6836C15.0718 17.6101 15.1617 17.56 15.175 17.4868C15.2111 17.2886 15.34 17.0487 15.445 16.8737C15.5398 16.7157 15.5413 16.4722 15.6509 16.3383C15.7582 16.2071 15.8156 15.9531 15.8682 15.7893C15.9451 15.5502 15.9831 15.3145 16.0329 15.0709C16.1007 14.7398 16.217 14.3786 16.3304 14.0597C16.4254 13.7925 16.4426 13.495 16.5042 13.2178C16.5658 12.9405 16.7171 12.6917 16.7742 12.4125C16.8332 12.1238 16.9309 11.8428 17.0624 11.5798C17.1619 11.3808 17.2182 11.1377 17.337 10.9529C17.477 10.7352 17.6612 10.5106 17.7625 10.2711C17.7966 10.1905 17.8866 10.16 17.9364 10.0881C17.9991 9.99759 18.0449 9.86979 18.1217 9.793C18.224 9.69067 18.3357 9.57881 18.4488 9.48186C18.5002 9.43784 18.4611 9.36636 18.5541 9.35603C18.6341 9.34714 18.7286 9.24727 18.7806 9.19131C18.9402 9.01943 19.1309 8.90839 19.3136 8.75892C19.7337 8.41524 20.2195 8.16449 20.6337 7.81406C20.7258 7.7361 20.8569 7.70785 20.9425 7.62646C21.0514 7.52303 21.1339 7.40605 21.2674 7.32447C21.5061 7.1786 21.6956 6.96633 21.908 6.78227C22.7064 6.09033 23.2127 5.24523 23.7108 4.33205C24.1211 3.57975 24.3111 2.70132 24.6899 1.9436" stroke="black" stroke-linecap="round"/>
<path d="M27.0784 3.54962C26.9877 3.65165 26.8884 3.77122 26.8313 3.89965C26.7942 3.98312 26.7226 4.01361 26.7055 4.10784C26.6922 4.18063 26.6236 4.30367 26.5636 4.35035C26.4538 4.43576 26.3313 4.57463 26.2982 4.72326C26.2879 4.76967 26.1216 5.03161 26.0695 5.07329C25.8849 5.2209 25.7877 5.60098 25.6691 5.81453C25.5012 6.11668 25.3916 6.45717 25.1429 6.72049C25.0397 6.82976 24.9734 6.99398 24.8752 7.11399C24.7389 7.28063 24.5945 7.44483 24.4657 7.61044C24.3574 7.74968 24.2406 7.89261 24.1363 8.05656C24.0723 8.15713 23.9338 8.19012 23.8663 8.30822C23.5155 8.92206 22.9139 9.37107 22.4456 9.89136C22.0026 10.3836 21.4991 10.8025 21.0249 11.2503C20.9042 11.3643 20.7754 11.4238 20.6543 11.5386C20.5181 11.6676 20.288 11.7935 20.1921 11.9504C20.1011 12.0993 19.9383 12.156 19.8627 12.2798C19.8047 12.3747 19.7415 12.4046 19.698 12.5177C19.6625 12.6099 19.557 12.5966 19.5104 12.6687C19.4601 12.7464 19.3045 12.9818 19.2358 13.0211C19.1033 13.0968 19.0666 13.3358 18.9453 13.4329C18.8423 13.5152 18.795 13.823 18.7394 13.9453C18.6616 14.1164 18.5564 14.2976 18.5152 14.4829C18.4724 14.6756 18.4401 14.874 18.3688 15.0595C18.2942 15.2532 18.3187 15.4861 18.2452 15.6772C18.1675 15.8793 18.1748 16.1037 18.1446 16.3155C18.1096 16.5604 18.0599 16.7864 18.0599 17.0361C18.0599 17.5385 17.8911 17.907 17.7213 18.3653C17.6369 18.5933 17.4673 18.7938 17.3599 19.0151C17.2777 19.1842 17.1691 19.3598 17.0716 19.5184C16.6649 20.1792 16.3089 20.8981 15.6715 21.3989C15.6004 21.4547 15.5733 21.536 15.4976 21.5865C15.4098 21.6451 15.2404 21.6807 15.1773 21.7604C14.9451 22.0537 14.5084 22.1346 14.2302 22.3689C14.0023 22.5609 13.7201 22.7589 13.4477 22.8951C13.187 23.0255 12.9586 23.1834 12.7568 23.4076C12.5492 23.6383 12.4505 23.9427 12.2444 24.1717C12.1477 24.2791 12.1603 24.4342 12.0659 24.5286C11.9578 24.6367 11.8781 24.7891 11.844 24.9427C11.8149 25.0738 11.6739 25.3275 11.574 25.4163C11.4114 25.5608 11.3219 25.9433 11.2034 26.1346C10.7956 26.7934 10.7128 27.6048 10.3386 28.2783C10.2676 28.4062 10.2373 28.6155 10.1854 28.761C10.1022 28.9939 9.92076 29.1527 9.82389 29.3787C9.72119 29.6184 9.43465 29.9235 9.24737 30.1108C9.09132 30.2669 8.94549 30.4246 8.78524 30.5729C8.61349 30.732 8.37303 30.8745 8.18584 31.0168C8.12235 31.065 8.10385 31.1301 8.01196 31.1403C7.92451 31.15 7.91971 31.2539 7.84724 31.2959C7.61533 31.4301 7.41445 31.7483 7.27072 31.9639" stroke="black" stroke-linecap="round"/>
</g>
</svg>
