<svg width="18" height="12" viewBox="0 0 18 12" fill="none" xmlns="http://www.w3.org/2000/svg">
<path d="M4.6 6.45001C4.2852 6.94189 4.7458 6.90001 5.1 6.90001C5.37447 6.90001 5.65 6.62 5.65 6.35001C5.65 6.05436 5.23701 5.95001 5 5.95001C4.77985 5.95001 4.76503 5.91917 4.68889 6.10001C4.61948 6.26487 4.51839 6.5819 4.66111 6.7389C4.92153 7.02536 5.35678 7.36342 5.7 7.00001C5.84448 6.84703 5.94237 6.51726 5.95 6.31112C5.95798 6.09577 5.83878 6.05438 5.73889 5.90001C5.59867 5.68331 4.97273 5.74658 4.76111 5.7889C4.58546 5.82403 4.26248 5.92545 4.25 6.15001C4.24076 6.31629 4.43321 6.60163 4.56111 6.70001C4.88714 6.9508 5.13187 7.04775 5.55 7.10001" stroke="#FF4004" stroke-linecap="round"/>
<path d="M7.1 5.25C6.5989 5.48581 6.98767 5.9291 7.275 6.17222C7.47031 6.33749 7.90226 6.4 8.14722 6.4C8.51765 6.4 8.8039 6.27205 8.95 5.91111C9.06514 5.62663 8.87209 5.24179 8.58889 5.12222C8.15015 4.93697 7.72104 4.95 7.25277 4.95C6.92456 4.95 6.7 5.0505 6.7 5.4C6.7 5.7381 6.83495 6.13036 7.2 6.23889C7.52868 6.3366 7.83613 6.39202 8.17777 6.31111C8.38405 6.26225 8.85856 6.0206 8.67222 5.72777C8.46572 5.40328 7.75 5.38042 7.75 5.85C7.75 6.17229 8.51073 6.02152 8.44722 5.67222C8.38866 5.35013 7.91489 5.25 7.65 5.25C7.38814 5.25 7.31571 5.28716 7.25 5.55" stroke="#FF4004" stroke-linecap="round"/>
<path d="M7.3 7.45C6.87056 7.02056 6.5211 7.75513 6.55278 8.11945C6.59752 8.63398 8.0415 9.11887 8.09723 8.42222C8.13334 7.97085 7.84892 7.54355 7.41112 7.4C7.02575 7.27365 6.86173 7.27065 6.60556 7.6C6.42627 7.83052 6.3824 8.20941 6.61112 8.4C7.01006 8.73246 7.46692 8.72469 7.975 8.69722C8.32857 8.67811 8.7253 8.40393 8.69723 8.025C8.66137 7.54093 8.03112 7.45736 7.66112 7.41111C7.31506 7.36786 6.94041 7.571 6.90278 7.94722C6.87167 8.25832 7.19976 8.42564 7.46112 8.53889C7.76967 8.6726 8.32429 8.8508 8.59167 8.55C8.87366 8.23276 8.50829 7.86906 8.25 7.7C7.68942 7.33307 6.95 7.49864 6.95 8.25" stroke="#FF4004" stroke-linecap="round"/>
<path d="M9.59999 6.65001C8.91097 6.65001 8.64862 7.58803 9.38055 7.77779C9.7315 7.86878 10.3249 7.96681 10.5 7.5389C10.681 7.09644 10.4173 6.81352 9.99999 6.72224C9.56684 6.62748 9.1335 6.58741 8.98055 7.09724C8.86267 7.49018 8.9798 7.9748 9.41111 8.10001C9.93607 8.25242 10.5748 8.18083 10.8972 7.69724C11.2614 7.15098 10.6728 6.62206 10.1778 6.50001C9.78711 6.40368 9.15557 6.44934 9.06111 6.95001C8.97495 7.40663 9.19239 7.6949 9.62499 7.77501C9.91861 7.82939 10.508 7.88431 10.5889 7.4889C10.6288 7.29397 10.5562 7.15773 10.45 7.00001C10.2806 6.74841 10.1666 6.79753 9.90555 6.72501C9.61642 6.6447 9.49999 6.94878 9.49999 7.19724C9.49999 7.48091 9.67308 7.5919 9.94999 7.66112C10.1428 7.70934 10.4668 7.66123 10.2722 7.55001C10.0321 7.41278 9.7903 7.30001 9.49999 7.30001" stroke="#FF4004" stroke-linecap="round"/>
<path d="M7.60001 7C7.41242 7 7.29066 7.14493 7.13889 7.25C7.05443 7.30847 6.97046 7.37633 6.91112 7.46111C6.89131 7.4894 7.10005 7.43939 7.15 7.35C7.29612 7.08852 7.29386 6.80327 7.02778 6.61111C6.82691 6.46603 6.36564 6.40874 6.22778 6.65C6.10522 6.86449 5.88308 7.27553 5.96112 7.53888C6.04252 7.81362 6.47401 7.76101 6.67778 7.75C6.87108 7.73955 7.06481 7.33369 6.88889 7.2C6.69308 7.05117 6.49533 6.97733 6.25001 7.1" stroke="#FF4004" stroke-linecap="round"/>
<path d="M9.95 5.04999C9.59503 5.06917 8.99291 5.33263 9.23889 5.79999C9.49735 6.29106 10.2548 6.07591 10.6 5.84999C11.0563 5.55134 11.2535 5.00891 10.6389 4.7611C10.1832 4.57737 9.44996 4.63349 9.33889 5.18888C9.21969 5.78483 10.2562 6.18074 10.7278 6.23888C11.1734 6.29381 11.9173 6.24462 11.5889 5.59999C11.3008 5.03451 10.6012 4.69999 10 4.69999C9.73009 4.69999 9.71115 5.17409 9.9 5.29999" stroke="#FF4004" stroke-linecap="round"/>
<path d="M13.1 5.69999C12.732 5.67371 12.4607 5.58661 12.1389 5.8111C11.836 6.0224 11.8063 6.77618 11.9333 7.08888C12.127 7.56554 12.5174 7.74999 13 7.74999C13.4565 7.74999 14.05 7.64613 14.05 7.07499C14.05 6.64052 13.6782 6.33822 13.2528 6.30277C12.8597 6.27002 12.5223 6.59005 12.4 6.94999C12.2872 7.28209 12.3181 7.49462 12.6111 7.6611C12.8973 7.82373 13.4937 7.82517 13.7445 7.59721C13.9474 7.4127 14.2008 7.02565 13.9222 6.80277C13.7348 6.65282 13.3248 6.68224 13.125 6.77777C12.9007 6.88504 12.6769 7.19346 12.7028 7.45277C12.737 7.79457 12.9346 7.84443 13.2389 7.93888C13.4514 8.00484 13.6024 7.89988 13.5389 7.67777C13.4581 7.39497 13.1336 7.19999 12.8528 7.19999C12.4587 7.19999 12.65 7.55882 12.65 7.79999" stroke="#FF4004" stroke-linecap="round"/>
<path d="M11.75 8.60001C11.7313 8.45026 11.4054 8.59458 11.35 8.65001C11.2245 8.77548 11.1001 9.09482 11.1556 9.27501C11.2335 9.5283 11.649 9.56742 11.8556 9.52223C12.27 9.43157 12.8162 9.0621 12.8472 8.59723C12.8748 8.18319 12.5596 8.00884 12.1778 7.96112C11.6963 7.90093 11.2215 8.06903 10.9111 8.45001C10.1592 9.37284 11.6106 9.80663 12.2889 9.5889C13.3848 9.23714 12.9314 7.98152 12 7.77778C11.6138 7.69329 11.3767 8.04348 11.3528 8.40278C11.3294 8.7532 11.3618 8.92157 11.7028 9.07501C12.0837 9.24641 13.2656 9.23958 12.7389 8.60001C12.6813 8.53002 12.2876 8.25946 12.3889 8.50001C12.4628 8.67559 12.2942 8.82445 12.2 8.95001" stroke="#FF4004" stroke-linecap="round"/>
<path d="M8.00001 9.1C7.79048 9.1986 7.74059 9.30349 7.67778 9.52778C7.60338 9.79352 7.56802 10.5787 7.80278 10.7694C8.11043 11.0194 8.74822 10.9199 9.07778 10.7972C9.57017 10.614 10.0663 10.2653 9.99445 9.67223C9.89487 8.85065 8.32352 8.62087 8.20001 9.54723C8.14668 9.94719 8.16242 10.1461 8.57778 10.275C9.06563 10.4264 9.77974 10.4036 10.2445 10.1944C10.5352 10.0636 10.9178 9.69546 10.6389 9.37223C10.3694 9.0599 9.63396 9.03799 9.27223 9.12223C8.89689 9.20963 8.53434 9.53491 8.55001 9.95C8.56891 10.451 9.48641 10.3087 9.78334 10.2889C10.0953 10.2681 10.7752 9.99027 10.6889 9.55C10.6067 9.13088 10.0549 9.2 9.75001 9.2C9.40687 9.2 9.12184 9.25216 8.9889 9.61112C8.93428 9.75858 9.06136 9.87424 8.95001 9.8" stroke="#FF4004" stroke-linecap="round"/>
<path d="M5.45 7.84999C4.916 7.59704 4.99391 8.04606 5 8.47221C5.0074 8.99049 5.21495 9.49241 5.80278 9.39444C6.31078 9.30977 7.17332 8.48993 6.83889 7.9111C6.70334 7.67649 6.36966 7.69638 6.13889 7.69999C5.67208 7.70728 5.37434 7.80725 5.07778 8.17499C4.92259 8.36742 4.75356 8.68724 4.80556 8.94721C4.86103 9.22459 5.29126 9.25192 5.50278 9.29999C5.92638 9.39626 7.26958 9.53518 7.25 8.84999C7.2357 8.34958 6.22211 8.2066 5.85278 8.25277C5.53104 8.29299 5.76253 8.74688 5.9 8.84999" stroke="#FF4004" stroke-linecap="round"/>
<path d="M14.2 8.25C13.7531 8.25 13.85 8.83477 13.85 9.16666C13.85 9.73098 14.3944 9.90123 14.9056 9.84444C15.6211 9.76493 15.9324 8.86708 15.4722 8.33333C15.0443 7.83688 14.0516 7.75159 13.6528 8.3C13.3285 8.74587 13.7064 9.17342 14.1778 9.23889C14.3657 9.26499 15.7755 9.35195 15.4278 8.81111C15.2485 8.53229 14.5771 8.24756 14.25 8.41111C14.0537 8.50928 14.2634 8.71095 14.45 8.4" stroke="#FF4004" stroke-linecap="round"/>
<path d="M15.1 6.45001C14.9964 6.42928 14.9422 6.32673 14.825 6.35278C14.6993 6.38073 14.7583 6.63814 14.7389 6.72778C14.6581 7.10133 14.7587 7.39023 15.1889 7.40001C15.5582 7.4084 15.9995 7.20355 15.8278 6.73889C15.5792 6.06627 14.7661 5.85001 14.1222 5.85001C13.7776 5.85001 13.5564 5.93516 13.4389 6.28334C13.3425 6.56897 13.2863 6.96143 13.4278 7.24445C13.6443 7.67742 14.5657 7.61834 14.875 7.37778C15.7729 6.67945 13.9006 5.82471 13.25 6.15001" stroke="#FF4004" stroke-linecap="round"/>
<path d="M12.75 4.59999C12.4497 4.46785 11.5504 4.16039 11.3305 4.59999C11.0725 5.11617 11.812 5.70299 12.2472 5.74444C12.7221 5.78966 13.6107 5.67354 13.4889 5.02777C13.3811 4.45672 12.5103 4.12563 11.9889 4.2111C11.6479 4.267 11.3908 4.90673 11.5055 5.22222C11.6249 5.55051 12.4051 5.45953 12.6194 5.37222C12.9348 5.24375 13.0113 4.95301 12.6889 4.74999C12.3955 4.56526 11.9944 4.73706 11.75 4.89999" stroke="#FF4004" stroke-linecap="round"/>
<path d="M10.1 4.4C9.68081 3.7712 8.6847 4.01274 8.60278 4.75C8.51596 5.5314 9.8717 5.20464 10.1778 4.81111C10.4748 4.42928 10.1928 4.01586 9.85 3.81111C9.45547 3.57549 8.6282 3.58714 8.22778 3.80555C7.79111 4.04374 7.79606 4.48679 7.92223 4.93889C8.00184 5.22418 8.19899 5.25 8.45278 5.25C8.68519 5.25 8.9176 5.25 9.15 5.25" stroke="#FF4004" stroke-linecap="round"/>
<path d="M11.2 3.94999C10.7251 3.78672 9.81525 3.48376 9.80001 4.32221C9.78712 5.03082 10.6839 5.27885 11.2472 5.04165C11.9839 4.73146 11.8575 3.91987 11.1417 3.67499C10.7734 3.549 10.4491 3.49155 10.0611 3.49999C9.74898 3.50677 9.52922 3.83095 9.35001 4.04999" stroke="#FF4004" stroke-linecap="round"/>
<path d="M6.10001 4.3C5.61776 4.3 5.14819 4.19161 4.85001 4.63889C4.70422 4.85758 4.6899 5.24295 4.86112 5.45C5.25213 5.92285 6.80184 6.34223 7.11667 5.56945C7.40693 4.857 6.55308 4.23783 5.90556 4.35556C5.6797 4.39663 5.69935 4.78581 5.72501 4.95C5.77638 5.27878 5.97359 5.5912 6.30001 5.7" stroke="#FF4004" stroke-linecap="round"/>
<path d="M7.49999 3.29999C7.0589 3.29999 6.69389 3.3225 6.33333 3.59722C6.20133 3.69778 6.10285 3.99061 6.19999 4.13888C6.57006 4.70373 7.66978 4.80284 8.22777 4.52777C8.50982 4.38873 8.71667 4.12686 8.61944 3.80277C8.50936 3.43586 8.16102 3.26975 7.83888 3.13888C7.44737 2.97983 6.99999 2.95558 6.99999 3.44999" stroke="#FF4004" stroke-linecap="round"/>
<path d="M10.9 2.94999C10.5118 2.80441 9.37497 2.63488 9.26112 3.2611C9.20518 3.56872 9.57075 4.01978 9.78889 4.19999C10.0165 4.38804 10.3829 4.55646 10.6722 4.39443C10.8744 4.2812 11.2197 3.99736 11.2472 3.74999C11.2773 3.4796 10.8925 3.24679 10.6694 3.19721C10.2738 3.10928 9.65 2.91625 9.65 3.49999" stroke="#FF4004" stroke-linecap="round"/>
<path d="M12.5 3.24999C12.2951 3.23633 11.9803 3.10584 11.8278 3.29999C11.731 3.42313 11.678 3.61888 11.7111 3.77221C11.8324 4.33301 12.4789 4.65148 13.025 4.46943C13.7586 4.22489 13.2473 3.33956 12.7472 3.17777C12.4993 3.09755 12.2102 3.07397 11.95 3.09999C11.7377 3.12122 11.75 3.56664 11.75 3.69999" stroke="#FF4004" stroke-linecap="round"/>
<path d="M13.9 5.25001C13.6527 5.02176 13.0311 4.71936 13.3028 5.33056C13.4408 5.64103 13.8812 6.2502 14.3028 5.99723C15.1683 5.47789 14.2632 4.35564 13.55 4.95001" stroke="#FF4004" stroke-linecap="round"/>
<path d="M5.3 7.54999C4.97402 7.56303 4.35081 7.61355 4.17778 7.94999C4.06907 8.16138 4.03278 8.56409 4.25556 8.72499C4.87925 9.17543 6.27931 8.56758 5.91667 7.68888C5.59507 6.90962 4.08327 6.83135 3.78056 7.67221C3.44489 8.60463 4.77711 9.30963 5.5 9.39999" stroke="#FF4004" stroke-linecap="round"/>
<path d="M3.05 8.84998C2.69008 8.86284 2.04201 8.90476 1.96111 9.37221C1.88538 9.80975 2.18499 10.1371 2.55 10.3222C2.99219 10.5464 3.54718 10.7429 4.03889 10.5278C4.67138 10.251 4.73603 9.61721 4.37222 9.07776C4.05126 8.60185 3.50077 8.32338 2.92778 8.35276C2.70573 8.36415 2.25 8.48406 2.25 8.77498C2.25 9.21531 3.38707 9.29567 3.7 9.39998" stroke="#FF4004" stroke-linecap="round"/>
<path d="M3.39999 9.45001C3.11917 9.45001 2.55408 9.71396 2.94999 9.9889C3.23826 10.1891 4.30277 10.3264 4.52777 9.9889C4.75927 9.64165 3.38513 9.55001 3.22221 9.55001C3.09785 9.55001 2.84999 9.56974 2.84999 9.75001C2.84999 9.89711 3.09789 9.95625 3.19999 10" stroke="#FF4004" stroke-linecap="round"/>
<path d="M15.8 9.29999C15.5563 9.28375 15.2807 9.14556 15.1778 9.42499C15.1057 9.62061 15.1816 9.94937 15.3556 10.075C15.964 10.5144 16.7256 10.1894 16.9194 9.49999C17.1463 8.69333 15.7463 8.04289 15.1 8.25833C14.8927 8.32743 14.8689 8.75662 14.9306 8.92777C15.0514 9.26347 15.3351 9.30938 15.6222 9.44722C16.0562 9.65552 17.2387 9.42817 16.6778 8.76111C16.5032 8.55354 16.0215 8.49186 15.7722 8.56111C15.5441 8.62447 15.4758 9.05416 15.4389 9.23888C15.4041 9.41259 15.3214 9.67356 15.55 9.73888C15.7945 9.80875 15.9768 9.89999 16.2389 9.89999C16.4187 9.89999 16.5955 9.85477 16.4389 9.64999C16.2414 9.39168 15.8008 9.2876 15.5 9.24999" stroke="#FF4004" stroke-linecap="round"/>
<path d="M4.1 6.74999C3.65616 6.69451 2.7 6.41629 2.7 7.17776C2.7 7.81816 4.01656 7.9376 4.43889 7.88887C4.66849 7.86238 5.06559 7.78466 5.09722 7.49999C5.12558 7.24478 4.88728 7.17934 4.68889 7.09999C4.36201 6.96924 3.9789 6.91328 3.85 7.29999" stroke="#FF4004" stroke-linecap="round"/>
<path d="M16.1 7.6C16.0265 7.54343 15.6709 7.32711 15.7028 7.55C15.7304 7.7432 16.0497 7.80883 16.1889 7.9C16.4533 8.07323 16.33 7.90066 16.1444 7.82778C15.8378 7.70729 15.4737 7.73596 15.15 7.7" stroke="#FF4004" stroke-linecap="round"/>
<path d="M5.2 9.95001C5.23698 10.1164 5.63595 10.2243 5.77222 10.2722C6.23612 10.4355 6.71372 10.6841 7.22777 10.5889C7.49362 10.5397 7.61088 10.1036 7.47777 9.90001C7.18116 9.44637 6.68212 9.40001 6.18889 9.40001C5.9271 9.40001 5.51054 9.38089 5.5 9.75001C5.48978 10.1077 5.76256 10.2915 6.08889 10.3389C6.32505 10.3732 6.89476 10.383 7.07777 10.2C7.19987 10.0779 6.89606 9.85394 6.85 9.90001" stroke="#FF4004" stroke-linecap="round"/>
<path d="M12.4 9.14999C12.1171 8.96811 11.7594 9.10369 11.75 9.44999C11.7407 9.7931 11.7971 10.0124 12.1222 10.1944C12.5298 10.4227 13.1887 10.3859 13.6167 10.25C13.9749 10.1363 14.2331 9.65089 13.9917 9.32499C13.5545 8.73481 12.0258 8.43759 12.2611 9.54999C12.3549 9.99355 13.2077 10.122 13.5667 10.0972C13.953 10.0706 13.9657 9.74576 13.9 9.44999" stroke="#FF4004" stroke-linecap="round"/>
<path d="M8.49999 2.55001C8.30323 2.50215 7.90917 2.37896 7.89999 2.70001C7.89453 2.89127 7.88719 3.05866 8.04999 3.1889C8.50548 3.55329 8.98812 3.59856 9.47222 3.25001C9.63523 3.13264 9.7733 2.90095 9.6861 2.69168C9.48648 2.21258 8.91819 2.20001 8.4861 2.20001C8.2179 2.20001 7.81713 2.33932 7.75555 2.64723C7.69247 2.96261 7.90414 3.06591 8.14999 3.20001" stroke="#FF4004" stroke-linecap="round"/>
<path d="M10.65 1.95001C10.3966 1.89723 9.88902 1.61569 9.9 2.00001C9.90744 2.26032 10.0722 2.63304 10.3 2.77224C10.5809 2.94389 10.8647 3.0625 11.2 2.97224C11.4472 2.90568 11.6664 2.72919 11.5889 2.45001C11.4479 1.94261 10.3574 1.82682 10.0806 2.25279C9.77577 2.72169 10.1772 3.1443 10.6 3.25001" stroke="#FF4004" stroke-linecap="round"/>
<path d="M10.1 1.35C9.81278 1.35 8.8033 1.19553 8.675 1.47778C8.33941 2.21609 9.1745 2.65967 9.81111 2.47778C10.4312 2.30061 11.2004 1.50237 10.2 1.275C9.98736 1.22667 9.43548 1.08405 9.25 1.25C9.05655 1.42309 9.09354 1.67416 9.15 1.9" stroke="#FF4004" stroke-linecap="round"/>
<path d="M2.44999 10.85C1.803 10.85 0.939699 10.0106 1.23888 9.30001C1.29243 9.17284 1.29575 9.03071 1.3611 8.90001C1.44958 8.72305 1.62503 8.62892 1.72777 8.45279C1.8556 8.23366 2.15408 8.28957 2.34999 8.20001C2.59656 8.08729 2.90332 8.10001 3.16944 8.10001C3.44786 8.10001 3.64048 8.10948 3.89722 8.22501C4.08785 8.31079 4.12999 8.44376 4.25277 8.59723C4.39082 8.76979 4.55282 8.91437 4.67777 9.10001C4.98721 9.55974 5.3117 9.93275 4.86944 10.375C4.53716 10.7073 4.12154 10.7153 3.68888 10.8389C3.3748 10.9286 2.65265 10.7553 2.49999 10.45" stroke="black" stroke-linecap="round"/>
<path d="M5.65 10.5C5.67652 10.7122 6.16629 10.961 6.35 11.0111C6.57955 11.0737 7.04564 11.3139 7.25277 11.0722C7.4584 10.8323 7.9096 10.8211 8.04722 10.5C8.18332 10.1824 8.27611 9.86889 8.16111 9.5111C7.86122 8.57811 7.10995 8.34999 6.225 8.34999C6.06612 8.34999 5.85454 8.30112 5.74444 8.42499C5.6177 8.56757 5.23015 8.70838 5.20277 8.89999C5.12124 9.47072 5.3778 10.1867 5.9 10.5" stroke="black" stroke-linecap="round"/>
<path d="M4.64999 8.49999C4.48655 8.47028 4.30361 8.25903 4.14999 8.24999C4.00225 8.2413 3.80035 8.25171 3.71111 8.09999C3.62841 7.95942 3.50728 7.86766 3.38888 7.76111C3.23422 7.62191 3.24628 7.5298 3.16111 7.34999C2.80821 6.605 3.1402 5.94147 3.92499 5.69999C4.39237 5.55619 4.99005 5.40078 5.47499 5.54999C5.70879 5.62193 6.01371 5.90314 6.19999 6.05555C6.46265 6.27045 6.70735 6.42323 6.87499 6.72499C7.10105 7.13189 6.39252 7.62873 6.09999 7.77499C5.73159 7.9592 5.61499 8.25749 5.19999 8.04999" stroke="black" stroke-linecap="round"/>
<path d="M6 5.60001C6.22339 5.6993 6.66019 5.69372 6.9 5.6389C7.13803 5.5845 7.45817 5.46784 7.49722 5.19446C7.54565 4.85544 7.6 4.56011 7.6 4.21112C7.6 3.76639 7.18842 3.56381 6.85278 3.37501C6.22694 3.02298 5.09103 3.11572 4.7 3.80001C4.4204 4.28931 4.18713 4.62644 4.525 5.17224C5.02693 5.98304 6.54662 5.83137 7.25 5.55001" stroke="black" stroke-linecap="round"/>
<path d="M7.79999 4.15001C7.83221 4.23592 8.27239 4.28931 8.38055 4.32223C8.59221 4.38665 8.83949 4.45001 9.0611 4.45001C9.36573 4.45001 9.67505 4.52496 9.89999 4.30001C10.3513 3.84875 10.3535 2.77391 10.1028 2.23056C9.92717 1.8501 9.3273 1.70001 8.95277 1.70001C8.49527 1.70001 7.96223 1.6186 7.52777 1.77501C7.10768 1.92624 7.00104 2.32138 6.77777 2.67223C6.70044 2.79376 6.68082 2.92258 6.74999 3.05001C6.95426 3.4263 7.45957 3.73319 7.74999 4.05001" stroke="black" stroke-linecap="round"/>
<path d="M7.35 6C7.08236 6.26763 6.88553 6.43564 6.78888 6.82222C6.71795 7.10595 6.66946 7.51348 6.93888 7.7C7.34535 7.9814 7.71302 8 8.2 8C8.63317 8 9.05441 8.14595 9.44722 7.925C9.81185 7.71989 9.78116 7.41538 9.74722 7.025C9.71065 6.60449 9.39229 6.32726 9.04999 6.125C8.55822 5.83441 8.06919 5.75 7.50277 5.75C7.04663 5.75 7.2 6.70099 7.2 7" stroke="black" stroke-linecap="round"/>
<path d="M8.8 8.75001C8.49425 8.78399 8.6 9.52819 8.6 9.72501C8.6 10.0884 8.69062 10.1924 8.87223 10.4778C9.26362 11.0928 10.1774 11.3225 10.85 11.1111C12.0102 10.7465 11.2358 9.22257 10.5472 8.77501C10.0675 8.46318 9.67501 8.33358 9.1 8.35001C8.55535 8.36557 8.54694 9.38928 8.65 9.75001" stroke="black" stroke-linecap="round"/>
<path d="M11.4 8.85C11.3315 9.32978 11.2163 9.5791 11.5 9.98889C11.6766 10.244 11.8874 10.3953 12.1889 10.4889C12.4612 10.5734 12.8034 10.55 13.0889 10.55C13.3139 10.55 13.7355 10.3465 13.75 10.1C13.771 9.74307 13.8673 9.56103 13.7611 9.2C13.6215 8.72533 13.1425 8.36038 12.6889 8.22778C12.1565 8.07215 11.3559 7.79192 10.85 8.16111C10.4879 8.42535 10.4895 9.22543 10.65 9.6" stroke="black" stroke-linecap="round"/>
<path d="M13.85 9.25C13.7493 9.57104 13.7355 9.70206 13.95 9.94723C14.0425 10.0529 14.148 10.1534 14.25 10.25C14.5107 10.497 14.9841 10.6169 15.325 10.6528C15.6965 10.6919 16.0614 10.7 16.4389 10.7C16.8176 10.7 16.8 10.3125 16.8 9.99723C16.8 9.6075 16.8922 9.07213 16.775 8.69723C16.6548 8.31276 16.3166 8.11333 15.9389 8C15.4413 7.85072 14.8232 7.69192 14.4278 8.125C14.233 8.33834 14.1765 8.71423 14.1 8.98889C14.0222 9.26803 14.0219 9.56254 14.2 9.8" stroke="black" stroke-linecap="round"/>
<path d="M13.6 8.05001C14.0761 8.05001 14.5865 8.10808 15.05 7.9889C15.2109 7.94753 15.5032 7.70428 15.5889 7.55001C15.727 7.30141 15.8 7.04095 15.8 6.75001C15.8 6.39475 15.3287 6.16158 15.05 6.02223C14.8052 5.89982 14.6716 5.78151 14.4 5.7389C14.1642 5.70191 13.9399 5.70001 13.7 5.70001C13.4685 5.70001 13.2336 5.74432 13.0278 5.85001C12.7363 5.99966 12.7023 6.25507 12.6 6.54723C12.4956 6.84563 11.9822 7.72749 12.3305 8.02223C12.7977 8.41748 13.8911 8.30594 14.35 8.00001" stroke="black" stroke-linecap="round"/>
<path d="M10.25 8C10.7607 8 11.2348 8.05758 11.7 7.825C12.0319 7.65903 12.05 7.42901 12.05 7.08889C12.05 6.62884 12.1999 5.8 11.5278 5.8C11.1892 5.8 10.5583 5.66392 10.3056 5.95278C10.0699 6.22204 9.95312 6.75957 9.88888 7.1C9.8216 7.45662 9.67832 7.66627 10.0528 7.87222C10.2852 8.00007 11.0677 8.22345 11.25 7.95" stroke="black" stroke-linecap="round"/>
<path d="M8.10001 5.20001C8.10001 5.98485 9.78724 6.6379 10.1 5.77778C10.1925 5.52343 10.2391 5.05007 9.93889 4.93889C9.61388 4.81852 9.19305 4.65696 8.90001 4.95001" stroke="black" stroke-linecap="round"/>
<path d="M10.45 4.24999C10.395 4.96504 10.9582 5.56109 11.6778 5.59999C12.0472 5.61996 12.286 5.6403 12.6472 5.54999C12.8249 5.50558 13.0951 5.12515 13.1389 4.94999C13.3684 4.03215 12.396 3.60911 11.6389 3.59999C11.0819 3.59328 10.4287 3.45057 10.15 4.02777C9.9833 4.37309 9.99884 5.01588 10.35 5.24999" stroke="black" stroke-linecap="round"/>
<path d="M10.25 2.7C10.6851 3.264 11.85 3.81929 11.85 2.675C11.85 2.30128 11.7838 1.96717 11.4389 1.75C11.2702 1.6438 11.0036 1.65 10.8111 1.65C10.5262 1.65 10.598 2.05402 10.5 2.25" stroke="black" stroke-linecap="round"/>
<path d="M9.14999 1.65001C9.53845 1.85446 9.82856 2.04367 10.1611 1.71112C10.3441 1.5281 10.2763 1.16651 10.1 1.00001C9.83357 0.748391 9.60911 0.700012 9.24999 0.700012C8.63437 0.700012 8.69999 1.21611 8.69999 1.70001" stroke="black" stroke-linecap="round"/>
<path d="M13.5 4.80001C13.4917 4.7335 13.4317 4.71265 13.3778 4.69723C13.3457 4.68806 13.3353 4.57221 13.3111 4.5389C13.1961 4.3807 13.3313 4.20484 13.45 4.1389C13.8093 3.93932 14.2154 4.10492 14.55 4.27223C14.8305 4.41246 15.3324 4.69157 15.2472 5.07501C15.1727 5.41036 14.4459 5.25001 14.25 5.25001" stroke="black" stroke-linecap="round"/>
<path d="M12.3 2.84999C12.3 2.67056 12.8058 2.64999 12.9528 2.64999C13.3268 2.64999 13.5777 2.67418 13.8778 2.90277C14.1478 3.10851 14.5856 3.51517 14.6 3.88888C14.6084 4.10735 14.0328 4.26344 13.85 4.29999" stroke="black" stroke-linecap="round"/>
<path d="M5.56818 6.58603C5.71398 6.64211 5.94623 6.92006 5.72668 7.02984" stroke="white" stroke-linecap="round"/>
<path d="M3.79294 9.37567C3.9376 9.39175 4.10994 9.48949 4.10994 9.64513C4.10994 9.74756 4.19194 9.92114 4.07824 9.97798" stroke="white" stroke-linecap="round"/>
<path d="M6.6143 4.08167C6.7806 4.09206 6.8362 4.41182 6.8362 4.54132C6.8362 4.68589 6.71759 4.81078 6.5826 4.81078" stroke="white" stroke-linecap="round"/>
<path d="M8.89674 2.56003C9.15362 2.56003 9.15761 2.83304 9.2613 3.01969C9.31568 3.11757 9.42875 3.5462 9.30885 3.60615" stroke="white" stroke-linecap="round"/>
<path d="M11.7815 4.36697C12.0149 4.36697 12.1969 4.96929 12.0351 4.96929" stroke="white" stroke-linecap="round"/>
<path d="M14.3493 6.49091C14.5448 6.49091 14.6365 6.56275 14.7226 6.74451C14.7699 6.84427 14.9657 7.19416 14.7931 7.25172" stroke="white" stroke-linecap="round"/>
<path d="M11.2743 6.80792C11.2743 6.8959 11.2426 6.97168 11.2426 7.06153" stroke="white" stroke-linecap="round"/>
<path d="M8.70654 6.93472C8.7754 6.94237 8.75432 7.00616 8.80164 7.02982" stroke="white" stroke-linecap="round"/>
<path d="M15.7441 8.99527C15.7441 9.10763 15.9728 9.53418 15.7441 9.53418" stroke="white" stroke-linecap="round"/>
<path d="M7.24536 9.62573C7.25003 9.66309 7.28942 9.69376 7.30566 9.72623" stroke="white" stroke-linecap="round"/>
<path d="M10.1396 9.56546C10.1462 9.61842 10.2364 9.66914 10.2713 9.70615C10.3017 9.73829 10.3211 9.80794 10.3406 9.84684" stroke="white" stroke-linecap="round"/>
<path d="M12.9132 9.24387C12.933 9.24635 12.9428 9.26825 12.9534 9.28406" stroke="white" stroke-linecap="round"/>
</svg>
