<svg width="34" height="17" viewBox="0 0 34 17" fill="none" xmlns="http://www.w3.org/2000/svg">
<path d="M4.15155 15.639C6.19112 15.639 8.25302 15.5091 10.3003 15.5091C11.7777 15.5091 13.3047 15.5997 14.7711 15.4116C15.4328 15.3268 16.1639 15.321 16.8315 15.3142C17.6837 15.3055 18.527 15.1937 19.3791 15.1843C20.6661 15.1702 21.9561 15.1194 23.2473 15.1194C24.8519 15.1194 26.5053 15.1318 28.1042 15.0039C29.2107 14.9154 30.3492 14.9895 31.4601 14.9895C31.8624 14.9895 32.2265 14.9842 32.6003 14.8596" stroke="#FDE726" stroke-linecap="round"/>
<path d="M32.9251 14.4699C32.9251 14.1741 32.9919 13.7734 32.8926 13.4956C32.755 13.1101 32.6653 12.7342 32.6653 12.3229C32.6653 11.1675 32.6004 9.98571 32.6004 8.81908C32.6004 8.55611 32.5354 8.31383 32.5354 8.05409C32.5354 7.77437 32.5831 7.45577 32.4704 7.19529C32.3576 6.93422 32.3698 6.63453 32.29 6.36535C32.2053 6.07928 32.1055 5.79911 32.0302 5.50655C31.9444 5.17277 31.7401 4.8671 31.6405 4.53228C31.5685 4.2902 31.3798 4.10054 31.3158 3.88276C31.1968 3.47844 31.0164 3.00077 30.7817 2.64868" stroke="#FDE726" stroke-linecap="round"/>
<path d="M30.6518 2.64868C30.2768 2.64868 30.0532 2.7945 29.7425 2.95901C29.3623 3.1603 29.0022 3.37973 28.6239 3.62295C27.9106 4.08148 27.0633 4.3519 26.365 4.8426C25.9029 5.16731 25.3371 5.29964 24.9036 5.66893C24.633 5.8994 24.3205 6.04757 24.034 6.25349C23.6934 6.49827 23.3162 6.59487 22.9731 6.82001C21.813 7.5813 20.4861 8.07328 19.3141 8.81908C18.7282 9.19195 18.0481 9.48683 17.4089 9.75727C16.811 10.0102 16.2461 10.3445 15.648 10.5872C15.006 10.8477 14.3317 11.1456 13.7283 11.4785C13.2466 11.7442 12.6676 11.8657 12.22 12.1966C11.8046 12.5036 11.1841 12.6387 10.7117 12.8749C10.5058 12.9779 10.2535 13.0695 10.0261 13.1059C9.73479 13.1525 9.58957 13.3224 9.33325 13.4306C8.57517 13.7507 7.77258 14.0952 6.99499 14.3544C6.37457 14.5612 5.77213 14.8456 5.14027 15.04C4.77817 15.1514 4.45856 15.3348 4.10104 15.4586C3.99697 15.4946 3.6969 15.7122 3.6969 15.5416C3.6969 15.4607 3.63709 15.1606 3.58143 15.1049C3.36381 14.8873 3.22443 14.5288 3.03295 14.2894C2.82926 14.0348 2.6132 13.7972 2.4123 13.5461C2.33492 13.4494 2.33139 13.2415 2.23188 13.142C2.12086 13.0309 1.96049 13.0657 1.86382 12.911C1.76161 12.7475 1.62038 12.6202 1.45607 12.4924C1.40377 12.4518 1.25005 12.4822 1.23235 12.4203C1.20279 12.3168 1.26859 12.249 1.16379 12.1966" stroke="#FDE726" stroke-linecap="round"/>
<path d="M0.968933 11.9367C1.01676 11.7215 1.5882 11.5504 1.76279 11.482C2.15339 11.3292 2.57496 11.1858 2.94635 10.9913C3.36262 10.7732 3.73541 10.5755 4.18043 10.4067C4.61228 10.2429 5.13863 10.0045 5.51554 9.74278C6.1603 9.29504 6.91486 9.03938 7.56152 8.5917C7.86461 8.38187 8.17484 8.16958 8.48888 7.97466C8.83563 7.75944 9.17309 7.481 9.54254 7.29628C9.9973 7.06889 10.4303 6.81084 10.8777 6.5782C11.0933 6.46607 11.3115 6.36862 11.5055 6.22097C11.7479 6.03655 12.0189 5.98679 12.2705 5.83126C13.0371 5.35738 13.8914 5.01085 14.6448 4.52862C15.0353 4.27875 15.4733 4.16996 15.8825 3.97292C16.2708 3.78598 16.6517 3.39596 17.0769 3.31258C17.5789 3.21415 18.0335 2.85527 18.4409 2.58368" stroke="#FDE726" stroke-linecap="round"/>
<path d="M17.9862 2.71362C18.011 2.51541 18.8664 2.16763 19.0579 2.06772C19.3236 1.92913 19.7922 1.82975 19.9348 1.54449" stroke="#FDE726" stroke-linecap="round"/>
<path d="M19.9997 1.47954C20.0819 1.46926 20.1848 1.39151 20.274 1.36407C20.4495 1.31007 20.6453 1.3944 20.8152 1.31716C20.9745 1.24475 21.1926 1.28957 21.3637 1.28468C21.6251 1.27722 21.8796 1.21973 22.1467 1.21973C23.2571 1.21973 24.3783 1.04668 25.4881 1.25221C26.1512 1.37499 26.8063 1.4026 27.4692 1.53006C27.9494 1.62241 28.4239 1.87166 28.8837 2.0641C29.112 2.15971 29.3146 2.31736 29.544 2.41773C29.67 2.47286 29.8763 2.64167 30.0023 2.64867C30.2584 2.6629 30.3668 2.86343 30.5868 2.97343" stroke="#FDE726" stroke-linecap="round"/>
<path d="M20.302 1.71295C20.8666 1.71295 21.429 1.82461 21.9995 1.83649C22.3851 1.84452 22.7782 1.95003 23.1617 1.99206C23.6462 2.04515 24.1383 1.99161 24.6236 2.06298C25.0686 2.12843 25.5203 2.1231 25.9643 2.18652C26.3558 2.24246 26.7912 2.18227 27.1722 2.27117C27.7291 2.40112 28.3085 2.64478 28.8903 2.66009C29.3039 2.67098 29.4638 2.95948 28.991 3.08105C28.7303 3.14809 28.4703 3.22918 28.2177 3.31898C27.9346 3.41963 27.5976 3.40134 27.3003 3.40134C26.9427 3.40134 26.6002 3.28488 26.2502 3.23662C25.918 3.19079 25.575 3.11524 25.2528 3.03072C24.5182 2.83805 23.7117 2.7923 22.9558 2.74017C22.2902 2.69426 21.6275 2.61891 20.9586 2.61891C20.358 2.61891 19.7254 2.48977 19.1261 2.62807C18.893 2.68185 18.522 2.76762 18.5313 3.0719C18.5374 3.27555 18.7995 3.33927 18.9431 3.40134C19.699 3.72824 20.6436 3.73078 21.4528 3.73078C22.8786 3.73078 24.3023 3.74688 25.7149 3.94583C26.0893 3.99856 26.479 4.06242 26.8405 4.17461C26.9886 4.22056 27.1285 4.23925 27.0327 4.43084C26.926 4.6441 26.6658 4.69018 26.4561 4.7191C25.9813 4.7846 25.5333 4.80146 25.0514 4.80146C24.1184 4.80146 23.2029 4.67792 22.2695 4.67792C21.4784 4.67792 20.6909 4.45577 19.9131 4.34848C19.068 4.23192 18.1885 4.14258 17.3347 4.14258C16.8638 4.14258 15.9529 3.97466 15.6486 4.43999C15.3373 4.91618 15.7691 5.02141 16.1748 5.1309C17.2215 5.41335 18.2935 5.49808 19.3732 5.54042C19.9167 5.56173 20.4867 5.53174 21.0249 5.60447C21.5316 5.67295 22.0516 5.57094 22.5578 5.63422C23.0956 5.70144 23.6745 5.7651 24.1501 6.03687C24.3006 6.12289 23.9637 6.31416 23.9007 6.32513C23.4841 6.39758 23.0744 6.45786 22.6538 6.51044C22.0328 6.58807 21.4118 6.53078 20.7916 6.5928C20.0834 6.66362 19.3434 6.62112 18.6319 6.61339C17.7256 6.60354 16.8562 6.38924 15.9598 6.32741C15.0296 6.26327 14.094 6.16041 13.1595 6.16041C12.9159 6.16041 12.6458 6.0949 12.4778 6.28395C12.3626 6.41349 12.3954 6.6269 12.3954 6.78726C12.3954 7.10167 12.6229 7.24767 12.8987 7.35463C13.5889 7.62223 14.408 7.56053 15.1339 7.56053C16.1565 7.56053 17.2614 7.46085 18.2659 7.68407C18.8862 7.82191 19.5469 7.84188 20.1556 8.0158C20.211 8.03163 20.3205 8.1817 20.2357 8.21941C20.0427 8.30518 19.8443 8.30177 19.6363 8.30177C19.2153 8.30177 18.7944 8.30177 18.3734 8.30177C17.7318 8.30177 17.0904 8.3658 16.4494 8.34067C15.796 8.31504 15.2006 8.08794 14.5551 8.02266C14.002 7.96673 13.4645 7.81731 12.917 7.72525C12.6476 7.67995 12.3915 7.62207 12.1209 7.58341C11.822 7.54072 11.5317 7.53932 11.2332 7.5102C11.0167 7.48908 10.5528 7.37501 10.3776 7.56053C10.2486 7.69711 10.397 8.0059 10.4233 8.15764C10.458 8.35696 10.736 8.73584 10.9152 8.81424C11.1457 8.91509 11.5377 8.91948 11.78 8.91948C12.8466 8.91948 13.8996 8.95049 14.9486 9.13453C15.3751 9.20936 15.812 9.28358 16.2252 9.41364C16.3993 9.46847 16.5691 9.51746 16.7422 9.57836C16.9011 9.63427 17.0745 9.64081 17.2272 9.7019C17.5373 9.82592 17.3372 9.85582 17.1083 9.86891C16.6073 9.89753 16.111 9.9078 15.6075 9.9078C15.0221 9.9078 14.4546 9.76159 13.8733 9.71105C13.3587 9.6663 12.8328 9.69939 12.3222 9.62869C11.9112 9.57178 11.5092 9.48483 11.1097 9.37246C10.6247 9.23606 10.1378 9.17427 9.63863 9.10707C9.21315 9.0498 8.7902 9.04302 8.36205 9.04302C8.17863 9.04302 8.22689 9.17406 8.2774 9.31297C8.39957 9.64894 8.565 9.77024 8.79444 10.0359C8.9993 10.2731 9.22413 10.5179 9.47391 10.7085C9.72025 10.8965 10.0193 10.9622 10.2952 11.0929C10.6815 11.2759 11.1117 11.2672 11.5215 11.3491C11.8781 11.4204 12.2258 11.4869 12.5693 11.6053C12.8901 11.716 12.6666 11.793 12.4686 11.8661C12.1198 11.9951 11.614 11.9668 11.2447 11.9668C10.7487 11.9668 10.186 11.7615 9.71184 11.6351C9.05911 11.461 8.41065 11.3394 7.74664 11.2256C7.17619 11.1278 6.60563 11.0548 6.0308 10.9876C5.57215 10.934 4.98782 10.8538 4.53001 10.9579C4.30077 11.01 4.04217 11.1392 3.93976 11.372C3.79599 11.6987 4.31869 11.7343 4.51171 11.7609C5.17802 11.8528 5.8206 12.083 6.50208 12.127C7.22284 12.1735 7.93416 12.2526 8.64802 12.3695C8.78575 12.392 9.74495 12.7577 9.33893 12.9231C9.06892 13.0331 8.80191 13.1968 8.50618 13.2342C8.2853 13.2622 8.04263 13.2818 7.81984 13.2846C7.53347 13.2882 7.26591 13.3531 6.98252 13.3646C6.48453 13.385 5.97341 13.4058 5.49774 13.2434C4.98751 13.0692 4.49151 12.9422 4.01526 12.6875C3.6745 12.5052 3.25997 12.3253 2.88052 12.2368C2.71922 12.1991 2.15448 12.1185 2.10953 12.3283C1.95801 13.0354 2.63411 13.4536 3.10701 13.8405C3.50687 14.1677 3.94661 14.1581 4.4385 14.2226C4.83917 14.2751 5.24697 14.3141 5.65102 14.3141C5.86013 14.3141 6.31865 14.2789 5.8798 14.1814C5.6368 14.1274 5.05234 14.0193 4.94181 13.7787C4.78516 13.4378 4.92572 12.9374 5.02417 12.6051C5.12273 12.2725 5.43169 11.9178 5.63959 11.6442C5.83941 11.3813 5.91998 11.1367 5.98962 10.8183C6.02858 10.6402 6.00665 10.2914 6.13603 10.1549C6.30736 9.97404 6.87839 10.2051 7.07403 10.2281C7.79013 10.3123 8.48633 10.5493 9.17193 10.7566C9.83289 10.9564 10.5364 11.0197 11.2264 11.0197C11.9575 11.0197 12.6779 11.1432 13.4089 11.1432C13.8348 11.1432 14.2618 11.1222 14.6809 11.1867C14.7523 11.1977 14.8082 11.2256 14.8822 11.2256C14.9929 11.2256 14.678 11.1402 14.578 11.0929C14.121 10.8764 13.6215 10.8491 13.1367 10.7314C12.5961 10.6001 12.0678 10.4646 11.51 10.4409C11.1616 10.426 10.8169 10.3693 10.4805 10.2784C10.2772 10.2235 10.0195 10.2435 9.84225 10.1549" stroke="#FDE726" stroke-linecap="round"/>
<path d="M7.57736 14.6435C7.68482 14.6435 7.77481 14.6023 7.88621 14.6023C7.96157 14.6023 8.07583 14.7605 8.14473 14.8082C8.24356 14.8767 8.3232 14.973 8.38037 15.0759C8.42466 15.1556 8.392 15.2785 8.4513 15.1377C8.50997 14.9983 8.58077 14.8554 8.60687 14.7053C8.63395 14.5496 8.76225 14.381 8.77159 14.2317C8.77499 14.1773 8.80202 14.2932 8.81277 14.3141C8.8602 14.4063 8.93645 14.4767 8.99808 14.5589C9.10315 14.699 9.21223 14.8104 9.29778 14.973C9.33275 15.0394 9.37063 15.2206 9.39158 15.053C9.41528 14.8634 9.46252 14.6663 9.52198 14.488C9.57029 14.343 9.72854 13.9523 9.88345 13.8703C9.99067 13.8135 10.0919 14.059 10.1534 14.1059C10.3411 14.2489 10.4554 14.4232 10.6247 14.584C10.6822 14.6386 10.8718 14.853 10.8718 14.7854C10.8718 14.5732 10.913 14.3679 10.913 14.1517C10.913 14.0871 10.8685 13.7426 10.9541 13.7376C11.1339 13.727 11.2147 13.8611 11.327 13.9846C11.5678 14.2495 12.066 14.6234 12.066 15.0302C12.066 15.2658 12.066 14.5589 12.066 14.3232C12.066 14.1024 11.9642 13.8046 12.0454 13.5934C12.0931 13.4694 12.1473 13.0868 12.3634 13.3669C12.5353 13.5897 12.7116 13.8203 12.8461 14.067C12.9797 14.3118 13.1569 14.582 13.2602 14.8403C13.2801 14.89 13.3014 15.0486 13.3014 14.9135C13.3014 14.7335 13.3014 14.5535 13.3014 14.3736C13.3014 13.9756 13.2958 13.5772 13.3014 13.1793C13.304 12.9959 13.2638 12.387 13.5485 12.3786C13.7796 12.3718 13.9734 12.6921 14.0838 12.8728C14.3197 13.2587 14.6378 13.5867 14.8617 13.9846C14.9791 14.1933 15.0583 14.4383 15.1225 14.6664C15.1934 14.9184 15.1545 14.1435 15.1545 13.8817C15.1545 13.4153 15.1204 12.936 15.1957 12.4747C15.2446 12.1753 15.1891 11.8146 15.3375 11.539C15.4533 11.324 15.5265 11.7041 15.5846 11.8204C15.7919 12.235 16.034 12.6331 16.2229 13.0581C16.3829 13.4182 16.5413 13.7482 16.637 14.1311C16.6863 14.3282 16.8017 14.5522 16.8017 14.7579C16.8017 15.116 16.6832 14.0515 16.637 13.6964C16.5605 13.1083 16.5958 12.5061 16.5958 11.9142C16.5958 11.8242 16.674 10.878 16.9893 11.2507C17.2654 11.5771 17.4453 11.9591 17.6345 12.3374C17.8395 12.7476 18.0709 13.1754 18.2201 13.6094C18.2946 13.826 18.3505 14.048 18.4169 14.2638C18.6596 15.0525 18.2095 12.6227 18.2018 11.7975C18.1951 11.074 18.4624 10.4255 18.6868 9.75224C18.7227 9.64473 18.8986 10.3324 18.9225 10.4226C19.0795 11.0143 19.3005 11.5882 19.4464 12.1819C19.5842 12.7427 19.8017 13.2978 19.9932 13.8428C19.9996 13.861 20.2118 14.5017 20.1785 14.5017C20.0894 14.5017 19.911 13.8705 19.8307 13.7787C19.743 13.6785 19.6898 13.4018 19.6843 13.2754C19.6666 12.8677 19.513 12.4526 19.4601 12.0446C19.395 11.5423 19.4031 10.9665 19.4464 10.4615C19.4762 10.1138 19.6946 9.86138 19.7667 9.53719C19.794 9.41441 19.8387 9.29828 19.9223 9.23978C19.9774 9.20114 19.9838 9.37114 19.9909 9.39992C20.0517 9.64639 20.1709 9.87712 20.2448 10.1206C20.329 10.3978 20.4827 10.6256 20.6086 10.8824C20.7306 11.1312 20.7604 11.4101 20.8785 11.6603C21.0795 12.0859 21.2238 12.542 21.4047 12.978C21.5822 13.4056 21.7433 13.9651 21.7433 14.4376C21.7433 14.5189 21.7171 14.9448 21.7342 14.8723C21.9177 14.0923 21.908 13.2161 21.908 12.4198C21.908 12.0159 21.9237 11.6084 21.9058 11.205C21.8903 10.8565 21.7063 10.6001 21.6106 10.2784C21.5241 9.98722 21.324 9.79875 21.1256 9.57837C21.0736 9.52052 21.0797 9.43626 21.0341 9.37247C20.9845 9.30299 20.9123 9.25403 20.8602 9.18716C20.7436 9.03723 20.825 9.16054 20.8968 9.26723C21.4885 10.1463 22.0856 11.0033 22.4846 11.9897C22.8021 12.7747 23.1846 13.4974 23.1846 14.3553C23.1846 14.6513 23.1846 14.571 23.1846 14.3141C23.1846 13.7616 23.1924 13.2159 23.2258 12.6646C23.263 12.0517 23.3662 11.4502 23.4317 10.8412C23.4678 10.5061 23.4729 10.1712 23.4729 9.8346C23.4729 9.65755 23.5188 9.38844 23.4111 9.23291C23.2243 8.96309 23.0033 8.74845 22.7545 8.53285C22.6525 8.44446 22.5073 8.44697 22.4114 8.37499C22.3294 8.31352 22.5633 8.51388 22.6264 8.59462C22.769 8.7771 22.8892 8.99227 23.0108 9.18944C23.6198 10.1774 24.2481 11.1719 24.42 12.3374C24.5311 13.0903 24.7083 13.8464 24.7083 14.6115C24.7083 14.7707 24.6885 14.9247 24.7472 15.0713C24.7478 15.0729 24.7495 14.9693 24.7495 14.9478C24.7495 14.7452 24.7656 14.5481 24.7815 14.3461C24.8749 13.1631 25.1741 12.0066 25.0743 10.8092C25.0198 10.1544 24.8225 9.39842 24.4795 8.83712C24.3341 8.59912 24.1826 8.4167 23.9854 8.21942C23.8329 8.06694 23.6542 7.97357 23.537 7.78932C23.5112 7.74893 23.4072 7.59299 23.4409 7.73441C23.5363 8.13534 23.799 8.49662 23.9465 8.8783C24.145 9.39224 24.4674 9.86561 24.7175 10.3562C25.0373 10.9837 25.401 11.5874 25.7378 12.2047C25.9201 12.5389 25.9713 12.8809 26.0695 13.2411C26.1546 13.5532 26.1799 13.8766 26.264 14.1814C26.2883 14.2697 26.2993 14.4564 26.2526 14.5406C26.1265 14.7674 26.1496 14.2447 26.1496 14.1905C26.1496 13.0962 26.4528 12.0256 26.4379 10.9327C26.4322 10.5166 26.1858 10.1327 26.0238 9.76139C25.8583 9.38227 25.6554 9.0286 25.4518 8.6724C25.3177 8.43769 25.2288 8.16986 25.0698 7.95404C24.987 7.84169 24.7868 7.64999 24.7495 7.51936C24.6995 7.34454 24.5929 7.09234 24.4932 6.94284C24.4077 6.81449 24.5725 7.06342 24.5939 7.08926C24.7256 7.2479 24.8913 7.36718 25.0515 7.49419C25.1696 7.58791 25.2924 7.67411 25.4267 7.74356C25.6165 7.84175 25.7352 8.02751 25.8842 8.17824C26.2524 8.5508 26.6095 8.92272 26.9572 9.31527C27.2681 9.66628 27.5987 10.0659 27.7968 10.4935C28.0251 10.9861 28.3165 11.4851 28.4877 11.9988C28.6309 12.4284 28.8675 12.9927 28.8675 13.4493C28.8675 13.7315 28.8786 13.9038 29.0231 14.1494C29.0742 14.2364 29.3304 14.6023 29.1146 14.6023C28.9038 14.6023 28.9591 14.4169 28.9476 14.25C28.9174 13.8134 28.8544 13.4026 28.8698 12.9574C28.8783 12.7116 28.9829 12.3643 28.8995 12.1224C28.8076 11.8559 28.6468 11.632 28.5815 11.3491C28.4624 10.8328 28.5262 10.2871 28.3916 9.76825C28.3101 9.45378 28.207 9.13396 28.1446 8.81425C28.091 8.54034 28.0552 8.23675 27.8975 7.99293C27.6855 7.66529 27.4581 7.35757 27.1585 7.10527C27.0123 6.98211 26.9274 6.8065 26.8176 6.65458C26.7138 6.51081 26.5848 6.37547 26.4996 6.22219C26.4549 6.14166 26.1887 5.58389 26.3784 5.58389C26.8452 5.58389 27.1144 5.89232 27.3278 6.28624C27.6113 6.80964 27.965 7.33501 28.1354 7.90828C28.2095 8.15755 28.4363 8.36192 28.5152 8.61292C28.6315 8.98305 28.8863 9.29489 28.959 9.67903C29.0024 9.90852 29.1497 10.0939 29.229 10.3105C29.3068 10.5232 29.3699 10.7357 29.4234 10.9556C29.5349 11.4139 29.6916 11.862 29.8238 12.3146C29.928 12.6712 30.0023 13.0701 30.1441 13.4104C30.1974 13.5384 30.1719 13.6618 30.1875 13.7948C30.2004 13.9044 30.2787 14.0499 30.3271 14.1494C30.3858 14.27 30.4472 14.3477 30.517 14.4582C30.6428 14.6574 30.6745 14.6436 30.7435 14.417C30.8665 14.0127 30.7741 13.5832 30.6771 13.1793C30.624 12.9579 30.6306 12.7572 30.5879 12.5342C30.5163 12.1604 30.322 11.8184 30.2104 11.4589C29.9943 10.7626 29.7479 10.0772 29.5035 9.38848C29.383 9.04903 29.334 8.703 29.2381 8.35669C29.1388 7.99824 29.006 7.63857 28.959 7.2677C28.902 6.81836 28.8129 6.27497 28.6204 5.85385C28.5555 5.71183 28.5677 5.55975 28.5175 5.41917C28.4948 5.35558 28.5046 5.2987 28.4946 5.23386C28.4933 5.22524 28.4426 5.06017 28.4648 5.06685C28.5494 5.09223 28.6523 5.37251 28.7028 5.44205C28.8412 5.63266 28.9385 5.80561 29.0368 6.01857C29.2254 6.42713 29.4264 6.8263 29.6087 7.24025C29.7702 7.60688 29.8973 7.9821 30.0617 8.34754C30.2262 8.71301 30.4679 9.12495 30.5467 9.51889C30.6149 9.85953 30.7373 10.1742 30.8235 10.5095C30.9171 10.8734 30.957 11.2489 31.05 11.6099C31.2065 12.2175 31.2625 12.8534 31.503 13.4356C31.5676 13.592 31.6773 13.9181 31.8119 14.0258C31.8448 14.0521 31.8267 14.0923 31.8348 14.1288C31.8647 14.2637 31.9145 13.9648 31.9148 13.9435C31.921 13.5063 31.9792 13.0834 31.9995 12.6486C32.0125 12.3692 32.0428 12.0974 32.0384 11.8158C32.032 11.4122 31.8798 11.038 31.8393 10.6399C31.7902 10.1573 31.7608 9.67191 31.6998 9.18944C31.6414 8.72803 31.6366 8.25494 31.5236 7.80305C31.3406 7.07082 30.9997 6.49498 30.5536 5.89275C30.4556 5.7604 30.3402 5.64369 30.2516 5.50382C30.1614 5.36147 30.1484 5.20626 30.0297 5.07601C29.9041 4.93812 29.7387 4.64778 30.0205 4.92959C30.3079 5.21696 30.5055 5.59765 30.6748 5.95909C30.8199 6.26878 31.0716 6.61221 31.0912 6.96572C31.1053 7.21996 31.273 7.50536 31.3383 7.75271C31.4647 8.23136 31.5841 8.71988 31.6677 9.20775C31.82 10.0962 32.0694 10.9438 32.1299 11.8433C32.1717 12.4651 32.2225 12.9625 32.0292 13.5637C31.988 13.6918 31.9197 13.6755 31.8119 13.717C31.5953 13.8003 31.4805 13.7662 31.3589 13.9824C31.201 14.263 31.1694 14.7648 30.8235 14.8288C30.4749 14.8934 30.0921 14.9043 29.7414 14.8586C29.569 14.8361 29.1376 14.857 29.0116 14.703C28.9333 14.6073 28.8991 14.4712 28.8378 14.3644C28.6194 13.9844 28.4697 13.5964 28.323 13.1839C27.9461 12.124 27.8851 10.9703 27.2889 9.99474C27.2204 9.88262 27.2615 10.0239 27.2615 10.1046C27.2615 10.6297 27.289 11.1563 27.3438 11.6786C27.4291 12.4907 27.4255 13.3158 27.5291 14.1242C27.5569 14.3406 27.5497 14.5584 27.5497 14.7762C27.5497 14.9704 27.6091 15.2433 27.4628 14.9181C27.2177 14.3733 27.0652 13.7917 26.8817 13.2251C26.7802 12.9119 26.6267 12.6194 26.5294 12.3054C26.4826 12.1546 26.3406 11.7261 26.3166 11.8822C26.2736 12.1618 26.3414 12.4798 26.4013 12.7492C26.5065 13.2228 26.6223 13.6994 26.749 14.1677C26.7567 14.196 26.8575 14.6096 26.9412 14.4422C27.1331 14.0583 27.1379 13.5745 27.1379 13.1565C27.1379 11.0919 27.3109 9.02708 27.4994 6.97487C27.5249 6.69703 27.6815 6.0731 27.5085 5.83097C27.4601 5.76312 27.303 5.67735 27.2386 5.79895C27.0996 6.06151 27.1811 6.58699 27.1883 6.86505C27.2038 7.46693 27.2489 8.06565 27.1791 8.66554C27.1739 8.71069 27.1745 9.26703 27.1059 9.0476C26.94 8.51681 26.7503 8.00202 26.4241 7.54681C26.3419 7.432 25.8951 6.69287 25.7149 6.71406C25.6376 6.72316 25.7682 6.86125 25.8064 6.92911C25.9 7.09511 26.0013 7.25579 26.0924 7.42327C26.4773 8.13097 26.9914 8.90554 27.6687 9.35874C28.0751 9.63068 28.5806 9.60575 29.0139 9.80486C29.4754 10.0169 29.8932 10.1392 30.4095 10.068C30.9117 9.99868 30.8095 9.02909 30.7938 8.70443C30.7521 7.84067 30.4228 7.07171 30.0846 6.28624C29.7813 5.58173 29.6356 4.82093 29.3845 4.1037C29.3621 4.03959 29.3734 3.97937 29.3594 3.9161C29.3343 3.80339 29.3531 3.98449 29.38 4.03735C29.6091 4.48915 29.8816 4.93007 30.1235 5.37799C30.43 5.94554 30.8739 6.45028 31.288 6.94284C31.3131 6.97269 31.427 7.21572 31.4801 7.18534C31.5701 7.13393 31.5437 6.75688 31.5442 6.68203C31.5481 6.14043 31.5908 5.48657 31.2376 5.03254C31.2127 5.00043 31.0853 4.79508 31.034 4.89756C30.9979 4.96984 31.0058 5.07223 30.9906 5.14921C30.9485 5.3617 30.856 5.55523 30.7618 5.74861C30.1295 7.04636 29.3565 8.22373 28.5655 9.42737C28.2446 9.91565 27.9521 10.4224 27.6161 10.9007C27.3111 11.3349 27.0583 11.5753 26.5065 11.5459C26.0647 11.5223 25.7194 11.2594 25.3992 10.9739C24.8921 10.5219 24.4551 9.95546 24.038 9.4228C23.9528 9.31401 23.2693 8.36662 23.0863 8.51912C22.9703 8.61572 23.2124 9.49117 23.2258 9.64243C23.2967 10.4416 23.2293 11.2409 23.2693 12.04C23.2907 12.4679 23.3215 11.8769 23.3127 11.7655C23.251 10.9792 22.977 10.3133 22.6173 9.61955C22.4969 9.38746 22.3132 8.82285 22.0224 8.71816C21.858 8.65898 22.1474 9.75943 22.1643 9.8163C22.5129 10.9933 22.9599 12.1631 23.0794 13.3921C23.0794 13.3924 23.1324 13.7935 23.0908 13.6689C22.8653 12.9922 22.4032 12.3366 21.963 11.7838C21.9237 11.7345 21.6922 11.3895 21.5786 11.4406C21.5409 11.4576 21.5207 11.5302 21.51 11.5596C21.4024 11.8536 21.3088 12.154 21.2126 12.4518C21.1126 12.7612 20.5628 14.5664 19.968 14.0395C19.867 13.9501 19.8227 13.7989 19.7667 13.6827C19.6329 13.4052 19.4856 13.1325 19.3274 12.8682C19.1608 12.5898 18.9491 12.2615 18.6411 12.1178C18.5284 12.0652 18.5546 12.5495 18.5542 12.5662C18.5384 13.102 18.5968 13.6307 18.6457 14.1631C18.6789 14.5253 18.6317 13.7308 18.6274 13.6895C18.6213 13.6309 18.4446 12.762 18.4489 13.1382C18.4544 13.6164 18.6136 14.0759 18.6136 14.5566C18.6136 14.6453 18.5878 14.6553 18.5015 14.6138C18.0644 14.4033 17.7747 13.9277 17.3554 13.6735C17.301 13.6406 16.8788 13.3905 16.8109 13.4585C16.6947 13.5746 16.8573 14.1341 16.8886 14.2683C16.9656 14.5975 17.0307 14.9377 17.1517 15.2544C17.2201 15.4331 17.3192 15.4563 17.3599 15.2429C17.4433 14.8066 17.2824 14.3314 17.1586 13.9206C17.1413 13.8632 16.922 13.0304 16.82 13.0489C16.6841 13.0736 16.4851 13.5462 16.4288 13.6369C16.17 14.0538 15.8776 14.3152 15.516 14.6389C15.505 14.6488 15.2511 14.9194 15.2048 14.8311C15.0825 14.5975 15.2544 14.1815 15.182 13.916C15.1649 13.8534 14.8988 13.3506 14.8159 13.5545C14.6887 13.8677 14.7502 14.2173 14.5826 14.5246C14.5094 14.6588 14.5046 14.6285 14.491 14.5063C14.4515 14.1507 14.2881 13.7027 14.093 13.4035C14.0211 13.2934 13.9725 13.7071 13.9694 13.7238C13.9404 13.8822 13.9191 14.0415 13.8779 14.1974C13.8562 14.2797 13.8295 14.519 13.7979 14.4399C13.7305 14.2715 13.8088 13.926 13.8162 13.7604C13.8485 13.0358 13.987 12.4586 14.5139 11.9256C14.85 11.5857 15.2078 11.3847 15.6944 11.4589C15.8975 11.4899 16.0917 11.5691 16.2915 11.6145C16.7084 11.7092 17.1336 11.7362 17.5567 11.7884C18.3124 11.8816 19.0493 12.0706 19.7964 12.2116C20.2899 12.3047 21.2913 12.5888 21.574 11.9668C21.6658 11.7649 21.692 11.113 21.4917 10.9556C21.4027 10.8857 21.5467 11.176 21.59 11.2805C21.7146 11.5809 21.8759 11.8637 22.0293 12.1498C22.2413 12.5453 22.4452 12.935 22.782 13.2411C22.9382 13.3831 23.3155 13.7475 23.5644 13.6369C23.885 13.4944 23.7563 13.006 23.8847 12.7492" stroke="#FDE726" stroke-linecap="round"/>
<path d="M0.544098 11.9263C0.551299 11.9839 0.657272 12.0064 0.694948 12.0365C0.74363 12.0755 0.789425 12.1669 0.845799 12.1874C1.01905 12.2504 1.23164 12.4572 1.35927 12.5848C1.44096 12.6665 1.53438 12.7294 1.61456 12.814C1.65875 12.8606 1.70679 12.94 1.76541 12.9648C1.84497 12.9985 1.85632 13.0794 1.90175 13.1476C1.95163 13.2224 2.03897 13.2556 2.09612 13.3231C2.19132 13.4356 2.32819 13.5024 2.41232 13.6248C2.47429 13.7149 2.59066 13.7509 2.64295 13.8322C2.696 13.9147 2.75253 13.9614 2.83587 14.015C2.91781 14.0677 2.93595 14.1523 3.00412 14.2181C3.05657 14.2686 3.13865 14.2848 3.17528 14.3544C3.24512 14.4871 3.38057 14.5683 3.44217 14.7069C3.48977 14.814 3.61249 14.896 3.68875 14.9941C3.75611 15.0807 3.80774 15.2063 3.88602 15.2943C3.94287 15.3583 3.94365 15.465 3.99625 15.5235C4.02536 15.5558 4.09835 15.7164 4.04267 15.6468C3.9321 15.5086 3.7411 15.4045 3.58432 15.319C3.50257 15.2744 3.44736 15.1857 3.3769 15.1261C3.36087 15.1125 3.26472 15.0584 3.26086 15.0448C3.2524 15.0152 3.2333 14.9704 3.2333 14.9419C3.2333 14.8794 3.20052 14.9271 3.2275 14.981C3.28192 15.0899 3.37315 15.1535 3.44217 15.2479C3.49328 15.3178 3.56705 15.3554 3.63073 15.4191C3.72444 15.5128 3.80878 15.5559 3.92518 15.6076C4.15126 15.7081 4.49608 15.686 4.7418 15.686C5.25721 15.686 5.77262 15.686 6.28802 15.686C6.85984 15.686 7.43881 15.7382 8.0112 15.7382C8.64713 15.7382 9.28256 15.7643 9.91859 15.7643C10.4308 15.7643 10.9399 15.7121 11.4518 15.7121C11.8238 15.7121 12.1956 15.686 12.5657 15.686C12.9393 15.686 13.3053 15.6337 13.6782 15.6337C14.0441 15.6337 14.4091 15.6076 14.7734 15.6076C15.1639 15.6076 15.5597 15.6267 15.9497 15.6062C16.3363 15.5858 16.7236 15.5789 17.1101 15.5569C17.5425 15.5322 17.9738 15.4771 18.4083 15.4771C19.405 15.4771 20.3954 15.3204 21.3948 15.3204C22.4709 15.3204 23.5397 15.1466 24.6164 15.1377C25.6876 15.1288 26.7593 15.1377 27.8306 15.1377C28.74 15.1377 29.6461 15.0593 30.5561 15.0593C31.1136 15.0593 31.671 15.0593 32.2285 15.0593C32.3281 15.0593 32.4277 15.0593 32.5273 15.0593C32.5842 15.0593 32.779 15.0385 32.8145 14.9941C32.8494 14.9504 33.0042 14.9494 33.0553 14.9085C33.1375 14.8427 33.1539 14.7825 33.1539 14.6663C33.1539 14.3232 33.181 14.0267 33.1075 13.6814C33.0652 13.4824 33.0561 13.2824 33.0292 13.0809C33.0112 12.9462 33.007 12.8092 32.9857 12.6747C32.9533 12.4701 32.9786 12.2442 32.9305 12.0452C32.8638 11.7687 32.8038 11.4891 32.7507 11.2083C32.6984 10.932 32.716 10.6439 32.6317 10.3714C32.555 10.1232 32.5563 9.82216 32.5259 9.56345C32.4961 9.31036 32.449 9.05526 32.449 8.79905C32.449 8.10576 32.3971 7.41978 32.3446 6.73646C32.314 6.33975 32.2592 5.92076 32.1226 5.54125C32.0178 5.25014 31.9553 4.94437 31.8543 4.65356C31.7418 4.32967 31.7024 3.9582 31.5497 3.65272C31.3552 3.26368 31.0559 3.01787 30.7461 2.73021C30.5978 2.59248 30.393 2.47993 30.2181 2.385C30.0466 2.29188 29.8873 2.17657 29.709 2.09635C29.1853 1.86067 28.6181 1.70617 28.0685 1.54662C27.5279 1.38967 26.9796 1.27608 26.4237 1.2014C26.0421 1.15015 25.673 1.03016 25.2923 0.972224C25.1036 0.943506 24.9226 0.947044 24.7339 0.933061C24.5616 0.920299 24.3921 0.865814 24.2204 0.857636C23.8545 0.840213 23.4891 0.830076 23.1224 0.830076C22.6696 0.830076 22.2162 0.796638 21.7618 0.803968C21.4373 0.809202 21.0745 0.815775 20.7537 0.869239C20.5294 0.906634 20.3235 0.945039 20.1155 1.0375C19.7076 1.2188 19.3227 1.48895 18.9305 1.70617C18.7606 1.80023 18.5839 1.90525 18.4083 1.98756C18.2069 2.08194 17.9821 2.19065 17.7918 2.30667C17.3319 2.58709 16.8782 2.86066 16.4008 3.11314C15.5373 3.56979 14.6636 4.01076 13.7928 4.45339C13.2473 4.7307 12.723 5.05126 12.1871 5.34689C11.736 5.59577 11.3486 5.9593 10.8832 6.18092C10.6625 6.286 10.4868 6.46206 10.2841 6.59721C10.038 6.76127 9.76277 6.87309 9.5197 7.04396C9.23639 7.24312 8.93958 7.42089 8.64071 7.59514C8.26913 7.81179 7.90596 8.04379 7.53544 8.25947C7.3374 8.37474 7.14041 8.4931 6.94654 8.61629C6.69248 8.77772 6.42373 8.90323 6.16183 9.05288C5.284 9.5545 4.37478 10.1398 3.3943 10.4236C3.09323 10.5107 2.78156 10.6547 2.4921 10.7775C2.18407 10.9082 1.88234 11.0732 1.58845 11.2272C1.44374 11.303 1.2801 11.3512 1.1417 11.4273C1.00908 11.5003 0.883512 11.5479 0.883512 11.7044C0.883512 11.8587 0.846919 12.0981 0.956036 12.2193C1.03498 12.307 1.07172 12.3929 1.1591 12.4644C1.31675 12.5934 1.48719 12.6901 1.64647 12.814C1.81365 12.944 2.00816 13.003 2.16284 13.1534C2.2753 13.2627 2.42502 13.3366 2.54577 13.4406C2.72958 13.599 2.91743 13.7537 3.10276 13.9106C3.48352 14.2327 3.73149 14.6687 4.11519 14.981C4.26808 15.1055 4.40635 15.2592 4.57935 15.3523C4.68032 15.4067 4.75027 15.5045 4.85204 15.5554C4.90485 15.5818 4.95022 15.5974 4.99564 15.6337C5.12453 15.7369 5.2083 15.8426 5.39452 15.8426C5.55641 15.8426 5.72205 15.8531 5.88334 15.8412C6.10973 15.8244 6.31959 15.7317 6.53461 15.6714C6.78646 15.6009 7.03903 15.5417 7.28596 15.451C7.57813 15.3436 7.86006 15.2457 8.14174 15.1116C8.32173 15.0259 8.49671 14.9416 8.67552 14.8505C8.8685 14.7521 9.05978 14.6027 9.25717 14.5227C9.61568 14.3773 9.97701 14.1446 10.3015 13.9352C10.665 13.7007 11.0587 13.5158 11.4518 13.3362C11.7965 13.1787 12.1486 13.0358 12.4903 12.872C12.7662 12.7398 13.048 12.6627 13.32 12.5181C13.8262 12.2488 14.3569 12.0346 14.8517 11.7377C15.6598 11.2529 16.4687 10.7709 17.2653 10.2669C18.1932 9.67991 19.1294 9.07193 20.1228 8.60178C21.1143 8.13251 21.9774 7.41687 22.9512 6.91051C23.4723 6.63957 23.9782 6.33546 24.509 6.08374C24.6872 5.99927 24.8527 5.88086 25.0254 5.78494C25.2609 5.6541 25.515 5.56765 25.7564 5.44987C26.1489 5.25841 26.5504 5.09642 26.94 4.90159C27.108 4.81763 27.2865 4.75528 27.4376 4.64195C27.5595 4.55053 27.721 4.44928 27.8596 4.38667C28.1234 4.26754 28.3821 4.12074 28.6371 3.98343C28.8703 3.85785 29.1114 3.73806 29.329 3.58745C29.4033 3.53602 29.5007 3.53846 29.5785 3.48011C29.6399 3.43408 29.7112 3.41838 29.7728 3.37568C29.8767 3.30377 30.0259 3.30114 30.1195 3.22628C30.2217 3.14455 30.4697 3.04932 30.5953 3.04932" stroke="black" stroke-linecap="round"/>
<path d="M20.5434 3.23205C20.6667 3.37078 20.9031 3.33648 21.0859 3.33648C21.2979 3.33648 21.1659 3.1015 21.0395 3.1015" stroke="black" stroke-linecap="round"/>
<path d="M14.1467 6.93949C14.1467 7.15866 14.5142 7.20971 14.6747 7.15416C14.9582 7.05603 14.7596 6.81512 14.5906 6.73062" stroke="black" stroke-linecap="round"/>
<path d="M27.1489 8.24494C26.9467 8.24494 26.6298 8.21171 26.5513 8.46686C26.4952 8.64912 26.735 8.71489 26.8675 8.71489C27.0432 8.71489 27.1228 8.47729 27.1228 8.32471C27.1228 8.18067 26.9291 8.08688 26.8095 8.16661" stroke="black" stroke-linecap="round"/>
<path d="M19.1074 12.5268C18.9274 12.7068 19.1947 12.8203 19.3554 12.9054C19.6939 13.0845 20.1675 13.0185 20.439 12.7618C20.5839 12.6247 20.7148 12.3343 20.4404 12.2657C20.2518 12.2185 20.0069 12.2056 19.8385 12.3179" stroke="black" stroke-linecap="round"/>
<path d="M25.1907 11.5869C25.2221 11.5908 25.2737 11.6843 25.301 11.7116C25.3962 11.8068 25.4885 11.8948 25.5954 11.9785C25.7642 12.1105 26.023 12.3001 26.2351 12.1351C26.3595 12.0383 26.554 11.7616 26.3395 11.6391C26.1615 11.5374 26.0943 11.5293 25.9218 11.5869" stroke="black" stroke-linecap="round"/>
<path d="M30.9608 12.9445C31.1018 12.9288 31.0388 12.4447 31.0232 12.3716C30.9853 12.1948 30.8816 11.9263 30.6866 11.9263C30.326 11.9263 30.16 12.5529 30.5953 12.5529" stroke="black" stroke-linecap="round"/>
<path d="M29.7337 6.26068C29.7337 6.36222 29.7337 6.46375 29.7337 6.56529C29.7337 6.57979 29.7337 6.53628 29.7337 6.52177C29.7337 6.46998 29.7387 6.41518 29.7322 6.36367C29.7215 6.27794 29.6588 6.18352 29.577 6.15625" stroke="black" stroke-linecap="round"/>
<path d="M22.9976 9.68091C22.8717 9.67428 22.6999 9.62167 22.5799 9.67075C22.4942 9.70582 22.4407 9.78262 22.3652 9.83176C22.3126 9.86603 22.193 10.0145 22.3391 10.0203C22.5248 10.0277 22.6 9.89725 22.5015 9.73312" stroke="black" stroke-linecap="round"/>
<path d="M7.67176 11.6652C7.4635 11.6652 7.72655 11.8095 7.80811 11.8276C7.89305 11.8465 7.96441 11.8977 8.04889 11.8436C8.13817 11.7865 8.19273 11.6659 8.25196 11.5811C8.35415 11.4347 8.46476 11.1974 8.45503 11.0125C8.45248 10.9641 8.30822 10.9864 8.27226 10.9864" stroke="black" stroke-linecap="round"/>
<path d="M11.797 10.5947C12.014 10.708 12.1804 10.8448 12.4091 10.9341C12.631 11.0209 12.831 11.0988 13.0705 11.0908C13.2865 11.0836 13.1581 10.7177 13.0241 10.6731" stroke="black" stroke-linecap="round"/>
<path d="M19.1074 6.80896C19.1975 6.81897 19.2428 6.9395 19.3438 6.9395C19.4802 6.9395 19.5251 6.89956 19.5251 6.75674C19.5251 6.6001 19.2587 6.53968 19.1451 6.50871C19.0353 6.47876 18.7331 6.37386 18.6375 6.46955" stroke="black" stroke-linecap="round"/>
<path d="M26.7573 3.85867C26.5347 3.66792 26.1963 3.52942 25.9015 3.51925C25.7922 3.51548 25.804 3.51584 25.8565 3.59758C25.898 3.66208 25.8957 3.70451 25.8957 3.78034" stroke="black" stroke-linecap="round"/>
<path d="M19.499 4.92912C19.2522 4.68231 18.9438 4.59951 18.6432 4.43306C18.5783 4.39709 18.1153 4.23049 18.1153 4.35473" stroke="black" stroke-linecap="round"/>
<path d="M11.4053 8.16663C11.1793 8.16663 10.6743 8.04017 10.6743 8.3755" stroke="black" stroke-linecap="round"/>
</svg>
