<svg width="33" height="18" viewBox="0 0 33 18" fill="none" xmlns="http://www.w3.org/2000/svg">
<path d="M10.05 14.85C10.05 14.4914 10.1521 14.2248 10.2889 13.9C10.3361 13.7879 10.3592 13.6668 10.4111 13.55C10.4361 13.4939 10.5551 13.163 10.5778 13.15C10.7173 13.0703 10.806 12.844 10.9222 12.7278C11.0568 12.5932 11.1668 12.4554 11.3 12.3222C11.5314 12.0908 11.8267 11.9178 12.0694 11.675C12.3777 11.3667 12.8538 11.2457 13.1611 10.9611C13.5421 10.6084 14.1538 10.6128 14.5694 10.325C14.7863 10.1749 15.0903 10.0577 15.35 10C15.5974 9.94504 15.8426 9.77383 16.0889 9.6889C16.6135 9.50798 17.1319 9.16436 17.675 9.05001C17.9509 8.99193 18.1757 8.76789 18.4472 8.70001C18.6601 8.64679 18.9269 8.61892 19.1222 8.52779C19.3202 8.4354 19.544 8.30888 19.75 8.25001C19.8842 8.21166 20.0142 8.16274 20.15 8.12501C20.3053 8.08188 20.465 8.12528 20.6111 8.05001C20.9302 7.88562 21.373 7.8471 21.7222 7.7889C22.212 7.70727 22.705 7.65149 23.1944 7.57501C23.9751 7.45303 24.8048 7.25001 25.5889 7.25001C26.8066 7.25001 28.0916 6.90298 29.25 7.45001C29.6118 7.62086 29.8274 7.70306 30.0778 8.02501C30.3076 8.32049 30.6826 8.5351 30.9 8.86112C31.3453 9.52902 31.6 10.33 31.6 11.125C31.6 11.8148 31.6303 12.4443 31.35 13.075C31.2889 13.2124 31.0851 13.3294 31.0528 13.475C31.0178 13.6325 30.7907 13.8607 30.65 13.9389C30.3336 14.1147 29.9606 14.5766 29.5722 14.6472C29.0392 14.7442 28.4945 15.1395 27.95 15.15C27.5908 15.1569 27.2547 15.2798 26.9 15.3389C26.4151 15.4197 25.9331 15.494 25.4472 15.575C22.9967 15.9834 20.4729 16.2503 17.9889 16.3C16.5386 16.329 15.1059 16.45 13.65 16.45C12.9591 16.45 12.3052 16.3217 11.6306 16.175C11.3779 16.1201 11.1046 16.0392 10.85 16.0028C10.6629 15.9761 10.4847 15.8705 10.3 15.85C9.74134 15.7879 9.72576 14.7985 9.9 14.45" stroke="#FCB01C" stroke-linecap="round"/>
<path d="M22.75 7.60001C22.3354 7.60001 21.9417 7.70001 21.5389 7.70001C20.9613 7.70001 20.3281 7.7334 19.7611 7.83889C19.1284 7.9566 18.4833 8.08536 17.8389 8.10001C17.0889 8.11705 16.3662 8.44526 15.6472 8.62501C14.5516 8.89892 13.536 9.36334 12.55 9.91112C12.154 10.1311 11.7313 10.4136 11.2889 10.5611C10.8449 10.7091 10.553 11.097 10.225 11.425C9.89791 11.7521 9.82663 12.2776 9.64999 12.675C9.49284 13.0286 9.5118 13.432 9.33888 13.7778C9.15441 14.1467 9.1275 15.122 9.47499 15.4C9.57605 15.4808 9.57193 15.6132 9.72499 15.6472C9.81932 15.6682 9.98738 15.7467 10.05 15.825C10.1717 15.9771 10.8047 16.15 11 16.15C11.15 16.15 11.3 16.15 11.45 16.15C11.5731 16.15 11.6551 16.242 11.8 16.25C11.8932 16.2552 12.1666 16.3033 12.2389 16.3611C12.3955 16.4864 11.9813 16.4937 11.9 16.5028C11.5006 16.5472 11.0571 16.6056 10.6778 16.4972C10.3971 16.417 10.1172 16.2799 9.82777 16.1972C9.72102 16.1667 9.50756 16.023 9.44999 15.9222C9.36927 15.781 9.1933 15.7416 9.09999 15.625C8.93767 15.4221 8.89999 14.9682 8.89999 14.7C8.89999 14.4478 8.98006 14.2565 9.03888 14.0278C9.08044 13.8662 9.04789 13.7486 9.12499 13.5945C9.2054 13.4336 9.25465 13.2752 9.3611 13.1278C9.46708 12.981 9.49905 12.7911 9.60277 12.6528C9.71858 12.4984 9.86671 12.34 9.99999 12.2C10.2764 11.9098 10.5819 11.6357 10.9222 11.425C11.119 11.3032 11.2598 11.2006 11.4778 11.1C11.6567 11.0174 11.8357 10.9469 12.0194 10.875C12.3761 10.7355 12.7894 10.5787 13.1 10.3528C13.4403 10.1053 13.9137 10.1039 14.2778 9.90001C14.626 9.70502 15.0634 9.69618 15.4389 9.58889C15.9379 9.44632 15.3818 9.59696 15.1944 9.68889C14.6323 9.96467 14.095 10.2697 13.5055 10.5C12.9272 10.726 12.3988 10.9656 11.85 11.2611C11.4827 11.4589 11.1903 11.7986 10.8778 12.0695C10.0359 12.7991 9.69999 13.9602 9.69999 15.05C9.69999 15.4727 9.85811 15.7585 10.0389 16.1C10.0995 16.2145 10.4147 16.2988 10.5278 16.4C10.7064 16.5598 10.9326 16.5974 11.15 16.675C11.8378 16.9207 12.6688 16.8 13.4 16.8" stroke="#FCB01C" stroke-linecap="round"/>
<path d="M16.7 9.10001C16.1921 9.32576 15.6715 9.54097 15.175 9.79723C14.8982 9.94012 14.6157 10.0599 14.35 10.2222C14.1687 10.333 14.0643 10.5286 13.95 10.7" stroke="#FCB01C" stroke-linecap="round"/>
<path d="M12.75 16.9C12.9485 16.9934 13.1055 16.9274 13.3028 16.9028C13.4432 16.8852 13.5631 16.8433 13.7 16.8111C13.817 16.7836 13.9686 16.8374 14.0778 16.7889C14.2059 16.7319 14.383 16.7343 14.525 16.7028C14.6901 16.6661 14.8378 16.65 15.025 16.65C15.158 16.65 15.2926 16.55 15.45 16.55C15.6083 16.55 15.7667 16.55 15.925 16.55C16.1 16.55 16.275 16.55 16.45 16.55C16.6159 16.55 16.1824 16.5523 16.1 16.5889C15.9326 16.6633 15.611 16.6 15.4278 16.6C15.3288 16.6 14.9961 16.5908 15 16.5889C15.1738 16.502 15.3558 16.4774 15.5528 16.4528C15.7182 16.4321 16.0312 16.4549 16.175 16.375C16.3071 16.3016 16.5082 16.3519 16.65 16.2889C16.7507 16.2441 17.0396 16.3005 17.1 16.225C17.1306 16.1867 17.2104 16.1817 17.1389 16.2389C17.0935 16.2752 16.9621 16.2613 16.9 16.2889C16.6758 16.3885 16.3409 16.3197 16.1 16.4" stroke="#FCB01C" stroke-linecap="round"/>
<path d="M26.6 6.6C26.5602 6.59503 26.1029 6.12325 26.1 6.1C26.07 5.85974 25.7438 5.73626 25.6111 5.58889C25.4382 5.39675 25.0554 5.16419 24.8 5.15C24.5287 5.13493 24.2669 4.7657 24 4.75C23.7709 4.73652 23.4608 4.56649 23.25 4.46111C23.0266 4.34938 22.7398 4.21332 22.5 4.2C22.2025 4.18347 21.901 4.05 21.6 4.05C21.306 4.05 20.9842 4 20.675 4C20.375 4 20.075 4 19.775 4C19.5027 4 19.2512 4.15 18.975 4.15C18.3128 4.15 17.6915 4.24033 17.0528 4.4C16.0528 4.65 15.0358 4.76608 14.0472 5.075C13.6654 5.19432 13.2179 5.22629 12.8278 5.29722C12.462 5.36373 12.0371 5.46837 11.6889 5.58889C11.3901 5.69232 11.1047 5.75347 10.8 5.88889C10.5273 6.0101 10.222 6.06802 9.95001 6.18889C9.845 6.23556 9.59575 6.26212 9.53889 6.35C9.4744 6.44968 9.10739 6.58807 9.00001 6.6C8.73046 6.62995 8.40996 6.76337 8.20001 6.95C8.06573 7.06936 7.90271 7.15405 7.75001 7.23889C7.59269 7.32628 7.51453 7.47885 7.35 7.56111C7.0821 7.69506 6.78278 8.03426 6.6 8.22778C6.52653 8.30557 6.29 8.58941 6.2 8.6C6.11816 8.60963 6.03113 8.92398 5.98889 9C5.90253 9.15545 5.73732 9.31333 5.62223 9.45C5.49733 9.59831 5.41982 9.82463 5.27223 9.97222C5.12303 10.1214 5.15 10.5982 5.15 10.8222C5.15 11.1231 5.15 11.4241 5.15 11.725C5.15 11.8898 5.15628 12.0345 5.19723 12.1778C5.23142 12.2975 5.31427 12.4124 5.34723 12.5278C5.3691 12.6043 5.46501 12.802 5.525 12.85C5.55687 12.8755 5.59766 13.0077 5.6 13.05C5.60627 13.1628 5.67783 13.1099 5.69723 13.1778C5.87181 13.7888 6.53673 13.65 7.075 13.65C7.425 13.65 7.77501 13.65 8.12501 13.65C8.46203 13.65 8.78144 13.55 9.1 13.55" stroke="#FCB01C" stroke-linecap="round"/>
<path d="M9.55 13.4C9.17455 13.4 8.81289 13.3 8.45 13.3C8.18332 13.3 7.7432 13.1684 7.52223 13.0278C7.27457 12.8702 6.85977 12.8605 6.575 12.7972C6.49731 12.7799 6.21284 12.7303 6.16111 12.6889C6.07744 12.6219 6.50413 12.6468 6.58889 12.65C6.72515 12.655 7.1058 12.8 6.96945 12.8C6.77193 12.8 6.64862 12.6644 6.46111 12.65C6.29509 12.6372 6.13938 12.4753 6.09723 12.3278C6.06276 12.2071 5.85809 12.1057 5.8 11.975C5.65591 11.6508 5.6 11.4624 5.6 11.1C5.6 10.798 5.59103 10.5029 5.65278 10.225C5.66807 10.1562 5.72139 10.0894 5.75 10.025C5.79427 9.92539 5.77001 9.81469 5.81111 9.72221C5.84198 9.65276 5.91912 9.49469 5.975 9.44999C6.12096 9.33322 6 9.43277 6 9.54999C6 9.70845 5.95814 9.85359 5.95 9.99999C5.91843 10.5684 5.75 11.1448 5.75 11.725C5.75 11.8416 5.64936 11.961 5.71111 12.1C5.78883 12.2748 5.87244 12.4449 5.95 12.6194C5.98197 12.6914 6.2 13.0144 6.2 12.8C6.2 12.513 6.15 12.2327 6.15 11.95C6.15 11.45 6.17397 10.9631 6.37778 10.4972C6.52459 10.1617 6.6 9.71386 6.6 9.34999C6.6 9.14675 6.78987 8.71617 7 8.6111C7.13328 8.54446 7.29421 8.42973 7.42223 8.32499C7.58667 8.19044 7.78375 8.14759 7.94723 8.02499C8.43848 7.65655 8.86675 7.34341 9.4 7.0611C9.61579 6.94686 9.83352 6.83844 10.05 6.7111C10.2034 6.62084 10.4584 6.45117 10.6278 6.40277C10.8897 6.32792 11.0715 6.16546 11.35 6.14999C11.5451 6.13915 11.8997 5.89858 12.0722 5.79999C12.3098 5.66424 12.5801 5.65885 12.825 5.54999C13.1289 5.41494 13.504 5.42043 13.8 5.28888C14.3948 5.02454 15.12 5.05126 15.7278 4.77499C15.944 4.6767 16.2273 4.65834 16.4611 4.64999C16.6409 4.64357 16.8211 4.52276 17 4.49721C17.4204 4.43715 17.8405 4.33757 18.2611 4.2611C18.5265 4.21284 18.8638 4.14999 19.1306 4.14999C19.3066 4.14999 19.659 4.21722 19.825 4.12499C19.9586 4.05074 20.2109 4.09999 20.3611 4.09999C20.5951 4.09999 20.8414 4.04999 21.05 4.04999" stroke="#FCB01C" stroke-linecap="round"/>
<path d="M23.7 4.15001C23.588 4.12511 23.5528 3.89101 23.4889 3.81112C23.4399 3.74982 23.3534 3.66773 23.3111 3.60001C23.1812 3.3922 22.9077 3.10854 22.7 2.97501C22.6058 2.91442 22.6075 2.84908 22.55 2.76112C22.4883 2.66678 22.4131 2.6765 22.3278 2.62223C22.2008 2.5414 22.084 2.46334 21.95 2.38889C21.8124 2.31247 21.6958 2.20762 21.5389 2.16112C21.2884 2.08691 20.9887 2.08712 20.7278 2.02501C18.9655 1.60542 17.1476 1.60001 15.3389 1.60001C13.7452 1.60001 12.2264 2.00052 10.6528 2.19723C10.2548 2.24697 9.88527 2.44219 9.5 2.49723C9.12695 2.55052 8.75331 2.64537 8.4 2.73889C7.6307 2.94253 6.77719 3.13743 6.1 3.58889C5.7201 3.84216 5.28217 4.04257 4.9 4.31112C4.7162 4.44027 4.52313 4.5494 4.33889 4.67223C4.18138 4.77724 4.06455 5.02671 3.9 5.09723C3.68344 5.19004 3.67934 5.34646 3.52222 5.47501C3.42689 5.55301 3.21674 5.64987 3.16111 5.75001C3.01106 6.02011 2.71475 6.18462 2.52778 6.42501C2.40767 6.57943 2.19069 6.72939 2.14722 6.92501C2.10218 7.1277 1.89933 7.4229 1.76111 7.56112C1.60092 7.72131 1.5585 7.95321 1.375 8.10001C1.28877 8.16899 1.1 8.48876 1.1 8.60001C1.1 8.81012 1 8.97776 1 9.20001C1 9.47212 1.05794 9.61379 1.22222 9.82501C1.35484 9.99552 1.53347 10.1057 1.68889 10.2611C1.77005 10.3423 1.88632 10.3829 1.98889 10.45C2.04647 10.4877 2.08584 10.5861 2.15278 10.5972C2.23974 10.6117 2.34575 10.6291 2.42222 10.6778C2.86053 10.9567 3.33287 11.1 3.85 11.1C4.10833 11.1 4.36667 11.1 4.625 11.1C4.7398 11.1 5.22991 10.9 4.9 10.9" stroke="#FCB01C" stroke-linecap="round"/>
<path d="M5.45001 10.65C5.08862 10.65 4.73872 10.6129 4.3889 10.6C3.87798 10.5811 3.4252 10.1651 2.95001 10.0972C2.49827 10.0327 2.51685 9.38346 2.22501 9.14999C2.02859 8.99285 1.95001 8.44502 1.95001 8.19999C1.95001 7.82993 2.10001 8.92993 2.10001 9.29999C2.10001 9.42981 2.11246 9.57832 2.16112 9.69999C2.16193 9.70199 2.06131 9.52832 2.0389 9.4611C1.95977 9.2237 1.95001 8.99959 1.95001 8.74999C1.95001 8.5461 2.10001 8.39054 2.10001 8.17499C2.10001 8.02659 2.28516 7.77091 2.35001 7.62499C2.45238 7.39466 2.50978 7.13601 2.62501 6.90554C2.90188 6.35181 3.40188 5.96581 3.81112 5.5111C4.06929 5.22425 4.41421 5.07075 4.70001 4.79999C4.80746 4.6982 4.93325 4.70069 5.05001 4.63888C5.09555 4.61477 5.20171 4.49321 5.25001 4.44999C5.43967 4.2803 5.68629 4.22713 5.87223 4.07499C6.28058 3.74089 6.92306 3.58151 7.42223 3.39999C7.91825 3.21962 8.37144 2.94022 8.8889 2.7611C9.34374 2.60365 9.79709 2.36578 10.2611 2.2111C10.4815 2.13763 10.6841 2.14115 10.9 2.03888C11.1242 1.93269 11.3634 1.89979 11.6028 1.82499C12.3161 1.60207 13.0819 1.64999 13.8222 1.64999C13.9788 1.64999 14.1349 1.54999 14.275 1.54999C14.4667 1.54999 14.6583 1.54999 14.85 1.54999" stroke="#FCB01C" stroke-linecap="round"/>
<path d="M11.6275 14.7677C11.6066 14.5588 11.7843 14.3137 11.8811 14.1407C11.9027 14.102 12.0326 13.9678 12.0396 13.9117C12.0423 13.8902 12.0965 13.8088 12.11 13.792C12.1459 13.7471 12.1184 13.692 12.1593 13.6511C12.2216 13.5888 12.2756 13.5243 12.3566 13.4838C12.5429 13.3906 12.6974 13.2319 12.8796 13.1509C12.9291 13.1289 12.9989 13.023 13.0381 13.0928C13.1311 13.2582 13.1361 13.52 13.1808 13.7039C13.2424 13.9575 13.2113 14.2251 13.2759 14.4753C13.297 14.5571 13.284 14.7616 13.3463 14.824C13.38 14.8577 13.4061 14.5005 13.4097 14.4753C13.435 14.2982 13.4716 14.1192 13.5048 13.9434C13.5671 13.6146 13.6044 13.2164 13.769 12.9202C13.8078 12.8503 14.3663 12.1206 14.4101 12.2387C14.6118 12.7834 14.891 13.3297 14.9877 13.91C15.0121 14.0564 15.0125 14.2223 15.0687 13.9892C15.1371 13.7059 15.2126 13.4237 15.3047 13.1474C15.4285 12.776 15.5881 12.4098 15.7661 12.0608C15.8636 11.8699 15.9909 11.5341 16.1923 11.4215C16.3628 11.3262 16.306 11.8373 16.3191 11.9393C16.3787 12.4014 16.4969 12.8503 16.5728 13.3094C16.6226 13.6116 16.6528 13.9208 16.7947 14.197C16.9095 14.4206 17.0706 13.8734 17.0941 13.8114C17.1928 13.5505 17.2219 13.2719 17.3054 13.0065C17.3962 12.7178 17.4983 12.4293 17.6206 12.1524C17.7872 11.7752 18.0094 11.3956 18.2969 11.0957C18.3273 11.064 18.3941 10.9661 18.4396 10.9548C18.4465 10.953 18.4265 11.2352 18.4255 11.2436C18.3529 11.8554 18.379 12.4734 18.3409 13.0875C18.3286 13.2867 18.3163 13.483 18.3163 13.6828C18.3163 13.7531 18.2918 13.8769 18.3233 13.9434C18.4184 14.1441 18.727 13.3475 18.7442 13.3041C19.0443 12.5492 19.3621 11.8216 19.7886 11.1274C19.854 11.021 20.2208 10.3075 20.4015 10.3437C20.4695 10.3573 20.2299 11.4353 20.2113 11.5095C20.0643 12.0976 20.0372 12.7063 19.926 13.3024C19.8707 13.5984 19.7428 13.9025 19.7428 14.2076C19.7428 14.3004 19.803 14.032 19.8309 13.9434C19.9192 13.6634 20.0233 13.4 20.0792 13.1104C20.2134 12.4158 20.4968 11.759 20.6903 11.0816C20.7213 10.9731 20.9105 10.5497 20.803 10.4423C20.6961 10.3353 20.3226 10.4646 20.2025 10.4881C19.8446 10.5579 19.4839 10.6337 19.1194 10.6712C18.8762 10.6963 18.6381 10.71 18.3938 10.71C18.2435 10.71 18.272 10.5423 18.2916 10.4247C18.3224 10.24 18.4359 10.1223 18.5769 10.0126C18.6026 9.99262 18.9395 9.75499 18.9485 9.81355C18.9999 10.1473 18.9694 10.5819 18.8975 10.9037C18.6919 11.8237 18.3658 12.76 17.9746 13.6194C17.8829 13.8209 17.7161 14.4507 17.4111 14.4507C17.1901 14.4507 16.8987 14.5151 16.7154 14.6426C16.6298 14.7021 16.5852 14.79 16.5094 14.8575C16.4668 14.8953 16.4098 14.9053 16.3649 14.942C16.2759 15.0149 16.2297 15.0035 16.1289 15.0459C16.07 15.0707 15.9328 15.0817 15.8683 15.0847C15.7293 15.091 15.555 15.1391 15.4315 15.2044C15.2438 15.3038 15.854 15.1604 16.0655 15.141C16.5942 15.0925 17.1238 15.0154 17.6541 14.9896C18.6387 14.9415 19.6371 14.9361 20.6181 14.8469C21.0023 14.812 21.3875 14.7667 21.7717 14.736C22.1249 14.7077 22.4694 14.5849 22.8248 14.5775C23.1286 14.5711 23.456 14.5084 23.7547 14.4507C24.0407 14.3954 24.3266 14.3512 24.6089 14.2781C25.0619 14.1606 25.5328 14.1017 25.9879 13.9928C26.2344 13.9337 26.4578 13.9219 26.6958 13.8237C26.8478 13.761 26.9884 13.6827 27.1361 13.6194C27.2517 13.5698 27.3346 13.4618 27.4461 13.4045C27.5911 13.33 27.7453 13.2752 27.8881 13.1967C28.0193 13.1246 28.0951 13.0224 28.2527 12.9924C28.3685 12.9704 28.4537 12.861 28.5398 12.7881C28.6462 12.6981 28.7811 12.6509 28.8867 12.5645C28.9726 12.4942 29.0434 12.4068 29.1509 12.3655C29.2958 12.3097 29.4289 12.1826 29.5383 12.0731C29.6068 12.0046 29.6436 12.0003 29.6722 11.9076C29.684 11.8691 29.7208 11.7626 29.7585 11.7438C29.7624 11.7418 29.7255 12.0157 29.7109 12.0449C29.588 12.2907 29.4139 12.5285 29.2213 12.7247C29.0524 12.8969 28.5037 13.3669 28.7 13.2267C29.1541 12.9023 29.6286 12.4638 29.8729 11.9463C29.944 11.7958 29.9377 11.6024 30.0209 11.4461C30.0853 11.3249 30.1674 11.1417 30.1723 11.0023C30.1803 10.78 30.2029 10.563 29.998 10.4264C29.8955 10.3581 29.8723 10.2429 29.7567 10.1852C29.5859 10.0998 29.4057 10.0365 29.2372 9.94916C29.0967 9.8763 28.9287 9.83083 28.7793 9.7748C28.5994 9.70736 28.4383 9.5989 28.2562 9.53705C27.8222 9.38966 27.3709 9.27344 26.9177 9.20595C26.5761 9.15507 26.2077 9.18834 25.8628 9.18834C25.4161 9.18834 24.9693 9.18834 24.5226 9.18834C24.2812 9.18834 24.034 9.17226 23.7935 9.19539C23.5791 9.216 23.3879 9.32572 23.1876 9.39616C22.7909 9.53571 22.4006 9.64737 22.0147 9.82236C21.6812 9.97361 21.3408 10.1639 21.1306 10.474C20.924 10.7788 20.7877 11.1357 20.7185 11.4954C20.6821 11.6846 20.5357 12.0536 20.7308 12.1999C20.9827 12.3888 21.4865 12.3042 21.7734 12.2915C22.0942 12.2772 22.4109 12.1981 22.728 12.1506C23.0706 12.0992 23.416 12.0417 23.753 11.9604C24.4094 11.8019 25.0384 11.5388 25.6955 11.3915C26.0175 11.3194 26.333 11.1793 26.5902 10.9706C26.9165 10.7059 27.2795 10.4915 27.6222 10.2415C27.7223 10.1685 27.8445 10.1374 27.9533 10.083C28.0113 10.054 28.0598 9.9977 28.1276 9.98262C28.2928 9.94592 28.4071 9.78061 28.5239 9.66385C28.688 9.49974 28.5577 9.47836 28.4922 9.331C28.426 9.18205 28.2302 9.16734 28.0924 9.12494C27.7366 9.01544 27.4208 8.99814 27.041 8.99814C26.0942 8.99814 25.2402 9.18978 24.35 9.51239C23.4499 9.83856 22.5525 10.1817 21.6625 10.5339C20.6605 10.9303 19.7796 11.5348 18.8235 12.0185C17.9563 12.4572 17.0805 12.8481 16.3033 13.4362C15.9937 13.6706 15.5677 13.9053 15.3364 14.2217C15.247 14.3441 15.0392 14.4344 14.9419 14.5317C14.8895 14.5841 14.7216 14.6726 14.639 14.6726" stroke="#FCB01C" stroke-opacity="0.3" stroke-width="3" stroke-linecap="round"/>
<path d="M25.1636 6.43036C25.0087 6.43036 24.8285 6.42642 24.6881 6.35991C24.5447 6.29198 24.3821 6.34016 24.2443 6.2789C24.0966 6.21326 23.915 6.24879 23.7688 6.1838C23.6825 6.14546 23.5133 6.15177 23.4201 6.14329C23.2391 6.12684 23.0634 6.05683 22.8812 6.04995C22.6886 6.04269 22.5071 5.98655 22.3123 5.98655C22.2076 5.98655 22.0708 6.00969 21.9689 5.97951C21.758 5.91701 21.5165 5.89145 21.2961 5.89145C20.9157 5.89145 20.5353 5.89145 20.1549 5.89145C19.6642 5.89145 19.1864 5.95609 18.6984 5.98479C18.1919 6.01459 17.6759 6.05529 17.1733 6.1292C16.697 6.19925 16.2029 6.24998 15.7344 6.34935C15.509 6.39715 15.2727 6.41123 15.0441 6.45502C14.8189 6.49813 14.5964 6.53642 14.3695 6.57301C14.1093 6.61499 13.8487 6.61739 13.5929 6.68397C13.2898 6.76285 12.9929 6.83707 12.6876 6.90587C12.4649 6.95607 12.2282 6.98255 12.0255 7.09607C11.8017 7.22136 11.5479 7.23926 11.3104 7.32502C10.8901 7.47679 10.4617 7.59149 10.0494 7.76179C9.67871 7.91492 9.29205 8.04715 8.93287 8.23025C8.60563 8.39708 8.32575 8.63277 8.02588 8.84137C7.68507 9.07846 7.41362 9.39911 7.16116 9.72371C6.98964 9.94424 6.94716 10.1708 6.85648 10.4246C6.76245 10.6879 6.69198 11.5342 7.14179 11.5342C7.4173 11.5342 7.57371 11.3124 7.79341 11.1696C8.13719 10.9461 8.47435 10.6567 8.85362 10.5021C9.08377 10.4084 9.28407 10.2753 9.49644 10.1534C9.83985 9.95639 10.3315 9.94213 10.6253 9.66559C10.7693 9.53006 10.9517 9.478 11.1273 9.40318C11.349 9.30867 11.5836 9.19976 11.793 9.07913C12.2566 8.81194 12.7838 8.7206 13.29 8.54726C13.9423 8.32384 14.6151 8.16127 15.2836 7.99074C15.5608 7.92 15.8756 7.95292 16.1448 7.87098C16.4492 7.77832 16.0171 7.8817 15.9246 7.89563C15.7596 7.9205 15.6065 7.99755 15.4456 8.04005C15.2047 8.10369 14.9589 8.15256 14.72 8.22321C14.1568 8.38978 13.592 8.55576 13.0909 8.87307C12.7209 9.10745 12.3194 9.32711 11.9691 9.58986C11.7351 9.76532 11.4305 9.94209 11.2629 10.1886C11.0527 10.4977 10.7903 10.8584 10.4862 11.078C10.4214 11.1249 10.3601 11.1947 10.3259 11.2665C10.2733 11.377 10.1481 11.4128 10.0635 11.4954C9.91335 11.6422 9.75757 11.7429 9.57746 11.8547C9.42072 11.952 9.252 12.0081 9.09842 12.1048C9.02181 12.153 8.9296 12.2316 8.83777 12.2316" stroke="#FCB01C" stroke-opacity="0.3" stroke-width="3" stroke-linecap="round"/>
<path d="M22.1521 3.48221C21.8737 3.45128 21.5583 3.35389 21.2891 3.26735C20.8719 3.13326 20.4201 3.19804 19.9964 3.10885C19.7714 3.06147 19.5277 3.06205 19.299 3.03664C19.0401 3.00787 18.7866 2.9504 18.5241 2.9433C18.244 2.93573 17.9664 2.8482 17.684 2.8482C17.4447 2.8482 17.2154 2.8165 16.9778 2.8165C16.391 2.8165 15.8034 2.80688 15.2167 2.8165C14.4073 2.82977 13.6197 3.01001 12.818 3.10885C12.0051 3.20907 11.1743 3.29658 10.3982 3.57732C9.80599 3.79151 9.15789 3.84746 8.5842 4.12327C8.23517 4.29107 7.85905 4.39246 7.52575 4.58998C7.36287 4.68649 7.18836 4.74034 7.03086 4.84534C6.85358 4.96353 6.68043 5.06982 6.49195 5.16939C6.18405 5.33206 5.86646 5.56825 5.60786 5.79812C5.39558 5.98681 5.15909 6.16059 4.95271 6.36697C4.4946 6.82508 3.98397 7.25313 3.61424 7.7935C3.5484 7.88973 3.20965 8.97746 3.38529 8.99813C3.6779 9.03255 3.89464 8.94105 4.16019 8.77622C4.5788 8.5164 4.99061 8.24121 5.34368 7.89565C5.50649 7.73631 5.71463 7.60764 5.85618 7.43071C5.98199 7.27345 6.15908 7.09334 6.3176 6.96929C6.481 6.84141 6.61742 6.68333 6.77726 6.55013C6.9757 6.38476 7.16053 6.22368 7.37253 6.07462C7.8996 5.70403 8.49869 5.46085 9.08788 5.2099C9.44791 5.05656 9.82001 4.94608 10.1904 4.82069C10.6355 4.66999 11.1223 4.53998 11.5817 4.44028C12.375 4.26808 13.1696 4.10453 13.9575 3.91193C14.2492 3.84062 14.6553 3.68161 14.956 3.76752" stroke="#FCB01C" stroke-opacity="0.3" stroke-width="3" stroke-linecap="round"/>
<path d="M4.6 11.55C4.22218 11.55 3.88247 11.5866 3.55 11.4389C3.31567 11.3347 3.08969 11.3176 2.85 11.2111C2.67563 11.1336 2.44989 11.0832 2.3 10.95C2.12627 10.7956 1.87614 10.7485 1.75 10.5278C1.65052 10.3537 1.3 10.2569 1.3 10.025C1.3 9.96986 1.21399 9.80646 1.18889 9.74998C1.13282 9.62381 1.15 9.48795 1.15 9.34999C1.15 8.80506 1.2 8.256 1.2 7.72498C1.2 7.60606 1.25888 7.54865 1.31112 7.44998C1.35973 7.35816 1.52349 7.2553 1.54723 7.17221C1.60517 6.96939 1.86765 6.77009 2.025 6.57776C2.17573 6.39354 2.29018 6.09785 2.475 5.94998C2.58371 5.86302 2.64289 5.71783 2.71112 5.59998C2.81193 5.42585 3.09429 5.36297 3.16112 5.2111C3.22371 5.06884 3.49815 4.93178 3.625 4.84721C3.79984 4.73065 4.00899 4.60111 4.2 4.49998C4.52257 4.32921 4.89357 4.1411 5.175 3.92221C5.46326 3.69801 5.85163 3.55464 6.175 3.37498C6.30418 3.30322 6.43213 3.29781 6.55 3.23887C6.69453 3.16661 6.83065 3.01781 7 2.99998C7.23339 2.97542 7.63492 2.79642 7.85 2.68887C8.07776 2.57499 8.48504 2.51957 8.66112 2.3611C8.79364 2.24183 8.96635 2.27555 9.12223 2.24721C9.29191 2.21635 9.47424 2.14376 9.63889 2.08887C10.0439 1.95388 10.5482 1.8093 10.9722 1.75276C11.5849 1.67107 12.2351 1.44998 12.8528 1.44998C13.2405 1.44998 13.6184 1.29998 14.0111 1.29998C15.0225 1.29998 16.0671 1.24998 17.0917 1.24998C18.0761 1.24998 18.9936 1.23657 19.9472 1.47498C20.3483 1.57526 20.7169 1.72907 21.1222 1.80276C21.4048 1.85413 21.6725 2.06915 21.95 2.09998C22.2056 2.12839 22.4769 2.36492 22.7 2.48887C22.942 2.62333 23.1843 2.7843 23.375 2.97498C23.5402 3.14018 23.7322 3.43825 23.9278 3.54998C24.1757 3.69164 24.15 4.0001 24.15 4.24998" stroke="black" stroke-linecap="round"/>
<path d="M4.29999 11.45C4.70747 10.6803 5.11719 9.84763 5.74999 9.24999C5.9247 9.08498 6.06866 8.89648 6.23888 8.73888C6.46737 8.52731 6.68392 8.32941 6.93888 8.14999C7.04526 8.07513 7.10226 7.97115 7.2111 7.89999C7.33127 7.82142 7.49606 7.79352 7.59999 7.69999C7.80742 7.5133 8.03254 7.37432 8.28888 7.28888C8.54577 7.20325 8.69104 6.96504 8.94999 6.88888C9.14773 6.83072 9.36126 6.75547 9.54999 6.6611C9.78287 6.54466 10.0034 6.38744 10.2611 6.3111C10.4812 6.24589 10.7324 6.17196 10.9111 6.0111C11.1766 5.77215 11.5993 5.69712 11.9 5.53888C12.3416 5.30644 12.8197 5.26749 13.2889 5.1111C13.8775 4.91489 14.5272 4.76682 15.15 4.74999C15.4898 4.74081 15.9207 4.64343 16.25 4.5611C16.5915 4.47573 16.9517 4.49724 17.2889 4.38888C17.5841 4.29397 17.9414 4.32414 18.25 4.28888C18.6881 4.23881 19.1711 4.28418 19.6 4.18888C20.211 4.0531 20.8721 4.09999 21.5 4.09999C21.7579 4.09999 22.0169 4.1406 22.2611 4.14999C22.4855 4.15862 22.6857 4.24999 22.9 4.24999C23.1239 4.24999 23.3727 4.43903 23.5889 4.5111C23.8288 4.59108 24.0974 4.7234 24.35 4.74999C24.5105 4.76689 24.852 5.05708 24.9889 5.14999C25.2775 5.34586 25.6076 5.69106 25.95 5.78888C26.1799 5.85457 26.2542 6.08524 26.45 6.18888C26.553 6.24343 26.6496 6.39925 26.7 6.49999" stroke="black" stroke-linecap="round"/>
<path d="M8.45001 14.1C8.32857 13.9921 7.91003 14.0089 7.75001 14C7.54127 13.9884 7.2833 13.8935 7.07501 13.8472C6.82782 13.7923 6.61787 13.6873 6.37778 13.6C6.27491 13.5626 6.15218 13.5022 6.07501 13.425C5.9793 13.3293 5.83975 13.3348 5.75001 13.25C5.15238 12.6856 4.60001 12.0645 4.60001 11.2" stroke="black" stroke-linecap="round"/>
<path d="M8.50001 13.7C8.54452 13.4997 8.76984 13.3554 8.85001 13.175C8.92783 12.9999 9.09237 12.8257 9.20001 12.6611C9.36435 12.4098 9.56491 12.199 9.72501 11.95C9.81383 11.8118 9.95649 11.7462 10.05 11.6111C10.1199 11.5101 10.1926 11.3614 10.3 11.3C10.5186 11.1751 10.5921 10.8928 10.8 10.7889C11.0394 10.6692 11.2926 10.3206 11.5611 10.3C11.7001 10.2893 12.0651 9.98486 12.175 9.87499C12.3852 9.66479 12.8286 9.50515 13.0945 9.37222C13.4128 9.21306 13.9524 8.79999 14.325 8.79999C14.88 8.79999 15.4611 8.43428 16 8.31111C16.3417 8.23301 16.7013 8.22625 17.0445 8.14999C17.4248 8.06548 17.8136 7.98614 18.2028 7.94722C18.5626 7.91123 18.9288 7.79999 19.2889 7.79999C20.113 7.79999 20.935 7.46795 21.7611 7.44999C22.3922 7.43627 23.0057 7.24999 23.6389 7.24999C24.3062 7.24999 24.975 7.14999 25.6528 7.14999C26.1847 7.14999 26.7335 7.19999 27.25 7.19999C27.4485 7.19999 27.8537 7.17984 28.025 7.27499C28.168 7.35442 28.4909 7.23864 28.6 7.37499C28.6219 7.40238 28.9984 7.49696 29.05 7.49999C29.1793 7.5076 29.4224 7.65439 29.55 7.7111C29.6356 7.74915 29.744 7.79634 29.8389 7.79999C29.9818 7.80549 30.0053 7.90545 30.1278 7.94999C30.2594 7.99786 30.4211 8.02299 30.5389 8.09999C30.6366 8.16386 30.7033 8.27017 30.825 8.29722C31.1317 8.36537 31.3335 8.96872 31.35 9.24999C31.3678 9.55294 31.6779 9.86301 31.7472 10.175C31.8154 10.4818 31.8759 10.8039 31.9472 11.125C32.0267 11.4827 31.9205 11.902 31.9 12.25C31.8926 12.3765 31.775 12.4998 31.7472 12.625C31.7274 12.7141 31.6041 12.7805 31.6 12.85C31.5924 12.9794 31.5168 13.0833 31.425 13.175C31.3097 13.2903 31.184 13.4543 31.1111 13.6C31.0111 13.8 30.8163 13.8712 30.7111 14.05C30.5848 14.2647 30.2956 14.2377 30.1278 14.375C29.9431 14.5261 29.6835 14.5455 29.5 14.7C29.4316 14.7576 29.2515 14.7933 29.1611 14.8C29.0203 14.8104 28.8872 14.915 28.7472 14.95C28.4149 15.0331 28.0978 15.2586 27.75 15.2972C27.014 15.379 26.2782 15.5814 25.55 15.7389C25.1443 15.8266 24.7145 15.8116 24.3028 15.8528C23.894 15.8936 23.4753 16 23.0639 16C22.4945 16 21.9376 16.0934 21.3722 16.1C20.7532 16.1072 20.1351 16.0992 19.5195 16.1528C19.0091 16.1972 18.4881 16.2902 17.9778 16.3C17.5866 16.3075 17.1809 16.274 16.8 16.3611C16.1988 16.4985 15.5683 16.5 14.9472 16.5C14.2167 16.5 13.4838 16.6 12.75 16.6C11.7156 16.6 10.5877 16.7553 9.65001 16.3111C9.37203 16.1794 9.15639 15.9898 8.90001 15.825C8.71893 15.7086 8.37459 15.4773 8.30001 15.2722C8.21243 15.0314 8.02613 14.62 8.16112 14.35C8.2772 14.1178 8.69751 13.9519 8.90001 13.8" stroke="black" stroke-linecap="round"/>
<path d="M13.5 16.35C13.1636 16.35 12.8434 16.1915 12.55 16.0611C12.4104 15.9991 12.2196 15.9563 12.1 15.85C11.9689 15.7334 11.7597 15.7947 11.6278 15.625C11.5424 15.5153 11.4001 15.4199 11.2778 15.35C11.1298 15.2655 11.1622 15.1125 11.0611 14.9889C10.8392 14.7177 10.7541 14.394 10.975 14.075C11.1113 13.8781 11.1743 13.6652 11.3222 13.475C11.4441 13.3183 11.5833 13.201 11.7 13.0389C11.8236 12.8672 12.1328 12.7689 12.3111 12.65C12.4814 12.5365 12.6531 12.3563 12.85 12.3C13.0486 12.2433 13.2686 12.0286 13.4528 11.925C13.6876 11.7929 13.9141 11.6998 14.1389 11.55C14.3867 11.3848 14.6384 11.2919 14.9 11.1611C15.1049 11.0587 15.2454 10.9301 15.45 10.8278C16.3122 10.3966 17.2958 10.1763 18.1722 9.76111C18.8722 9.42953 19.5239 9.09917 20.2 8.76111C20.4615 8.63034 20.9002 8.3 21.1722 8.3C21.4083 8.3 21.8589 8.03289 22.0389 7.88889C22.2231 7.74147 22.5789 7.73881 22.75 7.525C22.8732 7.37095 23.3149 7.25 23.5 7.25" stroke="black" stroke-linecap="round"/>
<path d="M8.54999 13C8.38656 12.9796 8.12259 12.7004 8.0111 12.5889C7.93471 12.5125 7.84525 12.4365 7.74999 12.3889C7.62599 12.3269 7.6266 12.2096 7.52221 12.15C7.04527 11.8775 6.79999 11.1086 6.79999 10.6C6.79999 10.1227 7.32182 9.34893 7.76943 9.14999C7.88401 9.09907 8.0176 8.9113 8.12499 8.82777C8.24568 8.7339 8.39836 8.65456 8.52777 8.57222C8.68608 8.47147 8.7775 8.33363 8.97777 8.29722C9.1461 8.26661 9.44 8.09734 9.58888 7.99999C9.93262 7.77524 10.4015 7.69851 10.7 7.39999C10.8305 7.26943 11.0475 7.25696 11.2111 7.14999C11.3864 7.03537 11.5361 6.91213 11.7278 6.82499C12.4803 6.48295 13.1853 6.09476 13.95 5.78888C14.2308 5.67655 14.4879 5.52759 14.75 5.41111C15.0062 5.29722 15.3002 5.25264 15.525 5.07777C15.7272 4.92046 15.8881 4.81411 16.1222 4.74722C16.1442 4.74093 16.1794 4.65078 16.2 4.62499C16.2307 4.58659 16.3252 4.57687 16.3722 4.54999C16.4652 4.49683 16.5548 4.44759 16.65 4.39999" stroke="black" stroke-linecap="round"/>
<path d="M4.09999 10.3C3.81243 10.3 3.60701 10.0981 3.46111 9.85001C3.38687 9.72382 3.23274 9.64329 3.16111 9.50001C3.10273 9.38327 3.12155 9.25302 3.04999 9.12779C2.91621 8.89368 2.99999 8.427 2.99999 8.15001C2.99999 8.01668 2.99999 7.88335 2.99999 7.75001C2.99999 7.55006 3.10805 7.40128 3.14722 7.22501C3.21976 6.89858 3.44017 6.74745 3.58888 6.45001C3.65437 6.31905 3.77964 6.1597 3.89999 6.0889C4.02213 6.01705 4.05982 5.839 4.17499 5.77501C4.3286 5.68968 4.4219 5.53591 4.57222 5.45001C4.62094 5.42217 4.61036 5.36092 4.67499 5.32501C4.75547 5.2803 4.8088 5.25447 4.88888 5.20001C5.06859 5.07781 5.28201 4.75001 5.52499 4.75001C5.58492 4.75001 5.8126 4.62077 5.87499 4.57223C6.00301 4.47267 6.19223 4.33876 6.34722 4.30001C6.71308 4.20855 6.9827 3.9874 7.29999 3.81112C7.458 3.72334 7.63432 3.68285 7.79999 3.60001C7.9697 3.51516 8.22287 3.28277 8.40277 3.25279C8.58423 3.22255 8.69134 3.127 8.84999 3.02501C9.06266 2.8883 9.22751 2.8048 9.44999 2.71112C9.65473 2.62492 9.9412 2.47074 10.125 2.32779C10.3179 2.17771 10.5832 2.13901 10.7611 1.96112C11.0965 1.62571 11.5178 1.45001 12 1.45001" stroke="black" stroke-linecap="round"/>
</svg>
