<svg width="31" height="18" viewBox="0 0 31 18" fill="none" xmlns="http://www.w3.org/2000/svg">
<path d="M3.14999 3.94999C3.1764 3.71231 3.52643 3.37488 3.63888 3.14998C3.78239 2.86298 4.09312 2.51241 4.32499 2.28054C4.60045 2.00508 4.90524 1.75579 5.21111 1.5111C5.30243 1.43804 5.60876 1.47304 5.72499 1.44721C5.90925 1.40626 6.08018 1.39998 6.27499 1.39998C6.54089 1.39998 6.98655 1.31534 7.22777 1.42498C7.48613 1.54242 7.8948 1.4442 8.1111 1.63887C8.25395 1.76743 8.46825 1.8503 8.62499 1.97221C8.75143 2.07055 8.98227 2.11684 9.12777 2.19998C9.47096 2.39609 9.89319 2.45108 10.25 2.63887C10.6484 2.84858 11.0494 3.01148 11.45 3.19998C11.6008 3.27095 11.7655 3.31856 11.9222 3.37498C12.1084 3.442 12.3291 3.45177 12.5028 3.52776C12.6776 3.60426 12.8662 3.65887 13.0472 3.72221C13.2426 3.7906 13.4514 3.90586 13.65 3.94999C13.9668 4.02038 14.2567 4.10333 14.55 4.24998C15.0495 4.49975 15.5984 4.46839 16.1111 4.64998C16.5882 4.81897 17.1275 4.90279 17.6222 5.02221C18.1252 5.14361 18.641 5.25744 19.15 5.34998C19.9329 5.49233 20.6588 5.84492 21.4278 6.04998C21.745 6.13458 22.0516 6.27094 22.35 6.39998C22.6223 6.51774 22.8897 6.51713 23.1611 6.6111C23.5242 6.73677 23.971 6.99949 24.3528 7.04721C24.5828 7.07596 24.7887 7.10543 25 7.2111C25.1429 7.28253 25.3904 7.30255 25.5 7.39998C25.6273 7.51316 25.7781 7.51762 25.9222 7.59999C26.047 7.67127 26.2293 7.82345 26.3389 7.9111C26.4067 7.96535 26.55 8.08809 26.55 8.17498C26.55 8.25832 26.55 8.34165 26.55 8.42498C26.55 8.54381 26.4765 8.54468 26.4528 8.62776C26.3995 8.81408 25.9288 9.11646 25.75 9.2111C25.5303 9.32742 25.3952 9.5638 25.225 9.69998C25.1174 9.78609 25.1107 9.95909 25.0389 10.0389C24.9712 10.114 24.8315 10.2272 24.8028 10.3278C24.7642 10.4628 24.676 10.5774 24.6111 10.7C24.5453 10.8244 24.5933 11.0083 24.5111 11.1111C24.3042 11.3697 24.1327 11.4 23.775 11.4C23.433 11.4 23.1085 11.285 22.8 11.1389C22.3109 10.9072 21.701 10.929 21.2 10.7C20.937 10.5798 20.5847 10.4788 20.3 10.4472C20.1335 10.4287 19.9384 10.3219 19.775 10.2722C19.565 10.2083 19.362 10.1339 19.15 10.075C18.9426 10.0174 18.7279 10.0103 18.5167 9.94998C18.2767 9.88142 18.0422 9.78545 17.8 9.73887C17.4147 9.66477 16.9558 9.5886 16.5889 9.44998C16.0709 9.25429 15.5211 9.18013 15.0028 8.99721C14.706 8.89245 14.3913 8.84414 14.1 8.72499C13.8346 8.61642 13.4952 8.60251 13.2555 8.44999C12.7772 8.14556 12.1861 7.96221 11.6611 7.74998C11.1354 7.53746 10.6132 7.30437 10.075 7.12498C9.51281 6.93759 8.97594 6.70086 8.41111 6.52776C7.75757 6.32748 7.07082 6.0719 6.43888 5.8111C5.91982 5.59688 5.36187 5.50209 4.83055 5.32499C4.60112 5.24851 4.35838 5.10463 4.12499 5.05276C3.85121 4.99192 3.49999 4.68818 3.49999 4.39998" stroke="#FF4646" stroke-linecap="round"/>
<path d="M3.70001 4.94999C3.47557 4.69749 3.23405 4.20745 3.4889 3.88888C3.55119 3.81101 3.52694 3.71825 3.55279 3.62777C3.57403 3.55343 3.6966 3.40969 3.75001 3.34999C3.84712 3.24145 3.95966 3.13792 4.05001 3.02499C4.12047 2.93692 4.30547 2.89453 4.40001 2.79999" stroke="#FF4646" stroke-linecap="round"/>
<path d="M26.35 8.85001C26.35 9.16136 26.2589 9.3474 26.1972 9.62501C26.143 9.8692 26.0123 10.2462 25.8389 10.4389C25.6896 10.6047 25.576 10.9914 25.325 11.0472C25.0158 11.1159 24.6715 11.1 24.35 11.1" stroke="#FF4646" stroke-linecap="round"/>
<path d="M1.14999 6.49999C2.62994 6.49999 4.12271 6.39999 5.59999 6.39999" stroke="#FF4646" stroke-linecap="round"/>
<path d="M1.65001 6.75C1.52017 6.76623 1.39856 6.88156 1.25001 6.90278C1.14029 6.91845 0.957449 7.02358 0.950013 7.15C0.939397 7.33047 0.850013 7.48327 0.850013 7.675C0.850013 7.77547 0.805922 7.9992 0.761124 8.1C0.721071 8.19012 0.700013 8.43042 0.700013 8.525C0.700013 8.6859 0.650013 8.79169 0.650013 8.95C0.650013 9.21157 0.596886 9.58359 0.761124 9.78889C1.05628 10.1578 1.33259 10.7 1.90001 10.7C2.06499 10.7 2.20328 10.8 2.37501 10.8C2.54036 10.8 2.72109 10.85 2.90001 10.85C3.24701 10.85 3.62622 10.9 3.9889 10.9C4.80611 10.9 5.57291 10.8 6.3889 10.8C6.84496 10.8 7.31181 10.6666 7.76112 10.65C8.32223 10.6292 8.86566 10.55 9.4389 10.55C10.1959 10.55 10.958 10.4171 11.7111 10.4C12.3904 10.3846 13.0654 10.3 13.7389 10.3C14.4909 10.3 15.2636 10.15 16 10.15" stroke="#FF4646" stroke-linecap="round"/>
<path d="M23.05 5.94999C23.9447 5.94999 24.8248 5.89999 25.725 5.89999C26.1083 5.89999 26.4917 5.89999 26.875 5.89999C27.1123 5.89999 27.474 6.39218 27.5 6.59999C27.5144 6.71501 27.5469 6.89722 27.6111 6.99999C27.6707 7.09525 27.8428 7.27695 27.85 7.39999C27.8646 7.64838 28.2 7.93954 28.2 8.22499C28.2 8.38844 28.2949 9.1041 28.175 9.19999C28.037 9.3104 28.0174 9.44859 27.8278 9.50277C27.6937 9.54108 27.5009 9.59999 27.35 9.59999" stroke="#FF4646" stroke-linecap="round"/>
<path d="M15.8 10.35C16.2081 10.35 16.622 10.3 17.0222 10.3C17.2743 10.3 17.688 10.306 17.9 10.2" stroke="#FF4646" stroke-linecap="round"/>
<path d="M27.75 9.75001C27.3817 9.75001 26.7171 9.63859 26.4 9.85001" stroke="#FF4646" stroke-linecap="round"/>
<path d="M23.05 6.04999C22.7672 6.04999 22.5173 6.09999 22.25 6.09999" stroke="#FF4646" stroke-linecap="round"/>
<path d="M5.85001 6.49999C6.27793 6.49999 6.72557 6.29999 7.15001 6.29999" stroke="#FF4646" stroke-linecap="round"/>
<path d="M3.25 14.05C3.18701 13.4831 3.18244 12.7385 3.57222 12.3C3.81762 12.0239 4.19525 11.9687 4.55 11.95C4.92437 11.9303 5.27481 11.8 5.66111 11.8C6.05741 11.8 6.4537 11.8 6.85 11.8C7.07916 11.8 7.26032 11.8995 7.475 11.9472C7.64751 11.9855 7.88622 12.007 8.05 12.0889C8.73321 12.4305 8.85929 13.22 9.04722 13.8778C9.16168 14.2784 9.1 14.8015 9.1 15.225C9.1 15.4721 8.65586 15.8 8.42778 15.8C8.23298 15.8 8.05016 15.9 7.85 15.9C7.66389 15.9 7.45824 15.8746 7.275 15.9028C6.87298 15.9646 6.42906 16.05 6.025 16.05C5.66667 16.05 5.30833 16.05 4.95 16.05C4.57499 16.05 4.14525 16.1368 3.87222 15.9028C3.54293 15.6205 3.23071 15.0564 3.15278 14.6278C3.04947 14.0596 3.38521 13.7611 3.8 13.45" stroke="#FF4646" stroke-linecap="round"/>
<path d="M1.54999 7.29999C1.72141 7.32142 1.94999 7.91673 1.94999 8.07499C1.94999 8.40693 2.27375 8.7444 2.34721 9.07499C2.40382 9.32973 2.39999 9.64169 2.39999 9.89999C2.39999 10.2469 2.02057 10.4088 1.89999 10.65" stroke="#FF4646" stroke-linecap="round"/>
<path d="M9 13.45C9.05028 13.0477 9.68469 12.6395 10.075 12.5528C10.5475 12.4478 11.0881 12.3 11.575 12.3C11.8833 12.3 12.1917 12.3 12.5 12.3C12.7756 12.3 12.9556 12.4556 13.15 12.65C13.3319 12.8319 13.4918 13.0273 13.6389 13.2111C13.8048 13.4185 13.8575 13.6668 13.9611 13.9C14.0934 14.1976 13.9474 14.547 14.075 14.8278C14.1734 15.0443 14.0782 15.4273 13.9278 15.5778C13.8133 15.6923 13.7174 15.8326 13.6 15.95C13.4665 16.0835 13.2663 16.1071 13.1222 16.225C12.7379 16.5395 11.9624 16.55 11.4972 16.55C11.1315 16.55 10.7657 16.55 10.4 16.55C10.2044 16.55 9.75115 16.2289 9.61111 16.0889C9.2301 15.7079 9.1 14.9689 9.1 14.45" stroke="#FF4646" stroke-linecap="round"/>
<path d="M13.6 16.15C13.953 16.15 14.4504 16.1697 14.725 15.95C14.9972 15.7322 15.4513 15.55 15.8 15.55C16.2443 15.55 16.6705 15.4 17.125 15.4C17.7001 15.4 18.2733 15.2 18.825 15.2C19.0268 15.2 19.1951 15.05 19.4 15.05C19.5324 15.05 19.6648 15.05 19.7972 15.05C19.9406 15.05 20.0728 14.9553 20.2111 14.95C20.6915 14.9315 21.1733 14.753 21.65 14.7C21.7462 14.6893 22.145 14.6438 22.2 14.575C22.2894 14.4633 22.6499 14.6002 22.75 14.475C22.8581 14.3399 23.1321 14.4044 23.275 14.325C23.4418 14.2324 23.6612 14.266 23.825 14.175C23.961 14.0994 24.2495 14.05 24.4 14.05C24.5916 14.05 24.9331 14.0522 25.0889 13.9389C25.1969 13.8603 25.5375 13.7333 25.675 13.7028C25.819 13.6708 25.9421 13.6585 26.0611 13.5611C26.1329 13.5024 26.2875 13.6032 26.35 13.525C26.4074 13.4533 26.7078 13.3554 26.8 13.35C26.9337 13.3421 27.2179 13.2698 27.35 13.2111C27.7485 13.034 28.3129 13.1397 28.6611 12.8611C28.7891 12.7587 29.1825 12.8218 29.3 12.675C29.3852 12.5686 29.5594 12.4425 29.675 12.35C29.9139 12.1589 29.7 11.3448 29.7 11.0778C29.7 10.8732 29.5607 10.6919 29.55 10.5C29.5391 10.3045 29.3194 10.1649 29.3 10C29.2773 9.8074 29.0614 9.64287 29.05 9.45001C29.0399 9.2785 28.6586 9.1724 28.55 9.10001" stroke="#FF4646" stroke-linecap="round"/>
<path d="M11.15 12.05C11.6006 12.05 12.1336 11.917 12.5722 11.8C12.8892 11.7155 13.2253 11.7158 13.55 11.6389C13.7224 11.5981 13.9005 11.5593 14.0778 11.55C14.2376 11.5416 14.3476 11.4374 14.4972 11.4C15.0002 11.2743 15.4986 11.1282 16 10.9889C16.3189 10.9003 16.7307 10.75 17.05 10.75" stroke="#FF4646" stroke-linecap="round"/>
<path d="M7.15001 2.14999C6.71979 2.14999 6.35327 2.23097 5.95001 2.37499C5.56732 2.51167 5.24098 2.49582 5.0389 2.89999C4.96075 3.05628 4.85592 3.1908 4.7889 3.34999C4.75081 3.44044 4.66738 3.79482 4.82501 3.67222C5.32882 3.28037 6.20086 3.199 6.82501 3.15277C7.56745 3.09778 8.36567 3.1184 9.10001 3.19999C9.51002 3.24555 8.3084 3.44443 7.90001 3.50277C7.68279 3.5338 7.52072 3.89249 7.43056 4.05277C7.35081 4.19455 7.15926 4.58345 7.15001 4.74999C7.14287 4.87851 7.16633 4.78367 7.22501 4.72499C7.34765 4.60235 7.51215 4.53697 7.67779 4.49722C8.15965 4.38157 8.61966 4.15325 9.11112 4.06111C9.56184 3.97659 10.0424 3.99999 10.5 3.99999C10.9098 3.99999 10.3405 4.27486 10.2278 4.34999C9.96063 4.52809 9.71839 4.65767 9.57223 4.94999C9.43734 5.21977 9.45001 5.43667 9.45001 5.73888C9.45001 5.87192 9.40523 6.15396 9.5389 5.89999C9.68965 5.61357 10.0752 5.39232 10.375 5.27499C10.5325 5.21335 10.6613 5.1016 10.8278 5.06111C10.9922 5.02112 11.193 5.04999 11.3611 5.04999C11.763 5.04999 12.1648 5.04999 12.5667 5.04999C12.6576 5.04999 12.4149 5.15017 12.3389 5.19999C12.201 5.29036 12.1071 5.45157 11.9722 5.52222C11.7284 5.64991 11.4339 5.93249 11.3389 6.18888C11.3174 6.24691 11.1488 6.6766 11.2 6.72777C11.2206 6.74836 11.6093 6.33074 11.625 6.30277C11.7866 6.01553 12.2354 5.678 12.5222 5.52777C12.8178 5.37293 13.1243 5.24375 13.4389 5.13888C13.6803 5.05843 13.8505 4.94657 13.625 5.22222C13.5436 5.32176 13.4386 5.45023 13.3389 5.52777C13.179 5.65217 13.1369 5.84922 13.05 6.02777C12.9945 6.14179 12.4799 7.29613 12.925 7.19722C13.016 7.17699 13.1093 7.04067 13.1722 6.97777C13.3932 6.75681 13.639 6.58485 13.8833 6.39166C14.2703 6.08566 14.6322 5.78676 15.0889 5.6111C15.2177 5.56158 15.4635 5.46875 15.3889 5.71111C15.2998 6.00061 15.1813 6.24348 15.1472 6.54999C15.1272 6.73019 15.125 6.93455 15.0889 7.1111C15.054 7.28188 14.9565 7.42992 14.95 7.6111C14.9466 7.70599 14.8541 8.16976 14.9278 8.07499C15.1278 7.81787 15.2899 7.58408 15.5472 7.37499C15.8842 7.10119 16.2317 6.92188 16.6111 6.7111C16.9407 6.528 17.4306 6.51055 17.8 6.49999C18.0976 6.49149 18.1048 6.51119 17.85 6.67499C17.7022 6.77001 17.644 6.90812 17.5278 7.02777C17.381 7.17888 17.2004 7.30205 17.1028 7.49722C16.9784 7.74593 16.6822 7.9965 16.7 8.29999C16.7051 8.38618 17.2091 7.84943 17.2778 7.79999C17.6677 7.51926 18.2779 7.31756 18.75 7.23888C19.2267 7.15943 19.7287 7.19999 20.2111 7.19999C20.5159 7.19999 20.8609 7.13355 20.5222 7.47222C20.2589 7.73558 19.9027 7.91546 19.6778 8.22222C19.5398 8.41037 19.4646 8.64304 19.3611 8.84999C19.2134 9.14546 19.4818 8.959 19.6111 8.83888C19.9285 8.54416 20.4333 8.36333 20.8278 8.20555C21.4482 7.95739 22.1651 8.04999 22.825 8.04999C22.9135 8.04999 22.5626 8.4072 22.4945 8.47222C22.219 8.73514 21.914 8.96159 21.7 9.28888C21.6385 9.38298 21.4971 9.79277 21.7 9.59999C22.0637 9.25451 22.4894 9.02281 22.9028 8.74722C23.1941 8.55302 23.6468 8.44999 24 8.44999C24.082 8.44999 24.5469 8.34706 24.55 8.39999C24.5562 8.5045 24.5472 8.51921 24.4722 8.58055C24.2991 8.72222 24.2151 8.91001 24.1028 9.09722C23.9314 9.38289 23.6818 9.67298 23.6 9.99999" stroke="#FF4646" stroke-width="3" stroke-linecap="round"/>
<path d="M15.15 15.15C15.3887 14.9113 15.35 14.4922 15.35 14.175C15.35 14.0463 15.2375 13.8876 15.175 13.775C15.0937 13.6286 15.0151 13.4525 14.9389 13.3C14.8705 13.1633 14.7315 13.1269 14.6 13.0611C14.4905 13.0064 14.544 12.9744 14.6278 13.0278C14.8221 13.1514 15.0129 13.2762 15.2056 13.4C15.9841 13.9005 16.6763 14.5058 17.4611 15C17.6897 15.1439 17.6 14.6412 17.6 14.5C17.6 14.2121 17.641 13.8742 17.5222 13.6028C17.4157 13.3594 17.1491 13.0825 17.1028 12.8278C17.0943 12.7812 16.9498 12.4738 16.9611 12.4611C17.086 12.3206 18.1918 12.982 18.3389 13.05C18.7949 13.2609 19.3198 13.629 19.6278 14.025C19.8278 14.2821 19.6081 13.8771 19.575 13.725C19.4984 13.3728 19.3904 12.8678 19.2 12.5611C19.1088 12.4142 19.0641 12.2331 18.95 12.1028C18.9054 12.0517 18.8568 12.0115 18.8 11.975C18.7585 11.9483 18.6373 11.9349 18.6722 11.9C18.7448 11.8274 19.1377 12.0527 19.2028 12.075C19.6316 12.2217 20.0939 12.4175 20.4944 12.6278C20.9071 12.8444 21.3625 13.0306 21.7222 13.325C22.0074 13.5583 21.9 12.9661 21.9 12.8C21.9 12.4715 21.956 12.2146 22.0611 11.9111C22.1377 11.6898 22.3712 11.6841 22.575 11.6528C22.7921 11.6194 22.9964 11.7987 23.1611 11.9111C23.4189 12.0871 23.6872 12.2435 23.9472 12.4194C24.146 12.5539 24.3818 12.5946 24.5611 12.7611C24.6929 12.8835 24.8 12.9194 24.8 12.7111C24.8 12.3392 24.6675 11.4734 25.3028 11.5528C25.5267 11.5808 26.9 12.8859 26.9 12.15C26.9 11.9979 26.8059 11.388 26.95 11.2889C27.2241 11.1005 27.3549 11.398 27.6 11.575C27.6587 11.6174 28.1206 12.0071 28.1472 11.8472C28.1717 11.7003 28.0633 11.2184 28.2 11.15" stroke="#FF4646" stroke-width="3" stroke-linecap="round"/>
<path d="M26.9 8.60001C26.7776 8.10275 26.6834 7.42739 26.1389 7.23889C25.9059 7.15823 25.7454 7.10001 25.5 7.10001C25.2064 7.10001 25.1068 7.20324 24.85 7.35001" stroke="#FF4646" stroke-width="3" stroke-linecap="round"/>
<path d="M2.5 7.54999C3.23024 7.54999 3.26701 8.66899 3.45 9.17221C3.48986 9.28183 3.48326 9.44999 3.62778 9.44999C3.87826 9.44999 4.03413 9.44798 4.25278 9.32499C4.7176 9.06353 4.67372 8.34673 4.7 7.89999C4.7108 7.71638 4.74063 7.69381 4.86111 7.84999C5.04796 8.0922 5.28807 8.28201 5.5 8.49999C5.68791 8.69327 5.86554 8.90528 6.05 9.09999C6.11858 9.17237 6.17191 9.46696 6.27778 9.49721C6.55469 9.57633 6.7525 8.39345 6.81111 8.2111C6.95479 7.76408 7.38535 7.90231 7.67778 8.07777C7.86393 8.18946 8.00607 8.34057 8.16111 8.48888C8.30414 8.62569 8.48831 8.70526 8.625 8.84999C8.71837 8.94885 9.1 9.17599 9.1 9.31665C9.1 9.74702 8.92226 8.09751 9.35 8.04999C9.48332 8.03517 9.5654 7.94459 9.71111 7.94999C10.0683 7.96322 10.3263 8.36243 10.6 8.54999C10.8565 8.72572 11.085 8.92424 11.3389 9.09999C11.4095 9.14885 11.45 9.22535 11.45 9.09721C11.45 8.93325 11.4864 8.76612 11.5028 8.60277C11.5862 7.76811 12.1412 8.58056 12.3972 8.87499C12.521 9.01738 13.337 9.86008 13.4611 9.34999C13.4946 9.21247 13.5055 8.8167 13.6111 8.7111C13.6608 8.66143 14.0137 9.02707 14.0722 9.07499C14.1928 9.17362 14.3135 9.31133 14.475 9.34721C14.5737 9.36915 14.6876 9.29999 14.8 9.29999" stroke="#FF4646" stroke-width="3" stroke-linecap="round"/>
<path d="M8.60001 11.65C8.91014 11.65 9.28192 11.3878 9.55001 11.2389C9.83698 11.0795 10.1374 10.9598 10.4722 10.95C10.7605 10.9415 11.054 10.8114 11.35 10.8C11.8201 10.7819 12.3013 10.6593 12.7722 10.6111C13.4742 10.5393 14.1771 10.582 14.8778 10.5111C15.4553 10.4527 16.0244 10.3219 16.6 10.25" stroke="#FF4646" stroke-width="3" stroke-linecap="round"/>
<path d="M1.15 10.85C0.955016 10.6767 0.815589 10.1806 0.8 9.90001C0.780299 9.5454 0.75 9.21829 0.75 8.85001C0.75 8.43261 0.820437 7.87903 0.988889 7.50001C1.02556 7.4175 1.05 7.31571 1.05 7.22501C1.05 7.08307 1.12235 7.06314 1.18889 6.95001C1.28289 6.79021 1.37539 6.70001 1.575 6.70001C1.7719 6.70001 1.7638 7.04314 1.825 7.17779C1.9432 7.43782 2.01513 7.79409 2.175 8.02501C2.31264 8.22383 2.50283 8.52805 2.54722 8.77223C2.58215 8.96434 2.6096 9.21689 2.675 9.40001C2.75334 9.61935 2.7786 10.4371 2.575 10.6C2.51141 10.6509 2.60083 10.7881 2.5 10.8C2.45527 10.8053 2.27502 10.8437 2.25 10.875C2.16139 10.9858 1.80002 10.9501 1.75 10.85" stroke="black" stroke-linecap="round"/>
<path d="M1.25 6.35001C1.28389 6.07888 2.67034 6.20001 2.91111 6.20001C3.6095 6.20001 4.31384 6.10001 5 6.10001" stroke="black" stroke-linecap="round"/>
<path d="M3.04999 5.05C3.19437 5.19437 3.36845 5.48741 3.57777 5.54722C3.77932 5.60481 4.00357 5.73596 4.18888 5.85C4.36713 5.95969 4.6163 5.99879 4.77499 6.12222C4.93729 6.24845 5.16599 6.36911 5.34999 6.46111C5.79809 6.68516 6.26216 6.7922 6.73888 6.93889C7.12229 7.05686 7.56432 7.15 7.97499 7.15C8.13307 7.15 8.45519 7.22453 8.59999 7.28889C8.70843 7.33708 9.03204 7.34006 9.09999 7.425C9.20064 7.55081 9.49655 7.49724 9.61111 7.58889C9.6857 7.64856 9.79275 7.62931 9.87499 7.675C9.9633 7.72406 10.101 7.83836 10.2 7.85C10.3721 7.87024 10.5375 8.05 10.725 8.05C10.8809 8.05 11.2016 8.23691 11.35 8.31111C11.6837 8.47794 12.0394 8.60783 12.3889 8.73889C12.5516 8.79991 12.6466 8.89829 12.8 8.975C13.1888 9.1694 13.6248 9.39441 14.0472 9.5C14.4532 9.6015 14.8399 9.75132 15.2389 9.88889C15.3862 9.93967 15.5821 10.0444 15.7389 10.05C15.999 10.0593 16.1751 10.2096 16.4278 10.25C17.4318 10.4106 18.3907 10.8364 19.35 11.15C20.0343 11.3737 20.698 11.6842 21.3889 11.8889C21.9151 12.0448 22.3976 12.1098 22.875 12.375C23.066 12.4811 23.3854 12.523 23.5389 12.6611C23.6787 12.7869 23.9541 12.8976 24.1278 12.9472C24.3478 13.0101 24.5694 13.0864 24.8 13.1C25.0094 13.1123 25.1739 13.3 25.4 13.3C25.5914 13.3 25.8281 13.4035 26.025 13.4472C26.2837 13.5047 26.412 13.1953 26.5611 13.0611C26.689 12.946 26.9062 12.8419 27 12.6778C27.0358 12.6151 27.0822 12.501 27.15 12.4611C27.2496 12.4025 27.4179 12.3571 27.4472 12.225C27.4631 12.1537 27.5321 12.1023 27.575 12.025C27.6367 11.9139 27.6593 11.8036 27.7111 11.7C27.8188 11.4846 27.9001 11.3122 27.9528 11.075C28.0386 10.6887 28.25 10.2638 28.25 9.875C28.25 9.53283 28.5322 9.00923 28.2722 8.675C28.0051 8.33152 27.4604 8.09353 27.05 7.91111C26.5248 7.67771 26.0216 7.39019 25.45 7.23889C25.0374 7.12966 24.632 6.99251 24.2222 6.87778C23.7489 6.74525 23.2653 6.58986 22.775 6.54722C22.4505 6.519 22.1527 6.35161 21.8611 6.26111C21.6682 6.20123 21.4581 6.15392 21.2611 6.11111C21.0022 6.05483 20.7764 5.93086 20.5194 5.875C20.2777 5.82246 20.0359 5.74729 19.8 5.67222C19.5333 5.58738 19.257 5.57642 18.9944 5.48889C18.4149 5.2957 17.7652 5.06709 17.15 5.05C16.6578 5.03633 16.2308 4.72354 15.7528 4.65C15.3006 4.58044 14.9249 4.3361 14.5 4.21111C14.064 4.08287 13.6171 3.85348 13.2028 3.67222C12.9736 3.57195 12.7522 3.44747 12.5111 3.35C12.2399 3.24037 11.9688 3.14416 11.7028 3.02778C11.292 2.84804 10.9088 2.57764 10.55 2.31111C10.1284 1.99793 9.58732 1.92373 9.13055 1.67778C8.83724 1.51984 8.49229 1.49957 8.19999 1.36111C7.86903 1.20434 7.55252 1.12183 7.19999 1.03889C6.6417 0.907524 5.96421 0.999999 5.38888 0.999999C5.12365 0.999999 4.73028 1.26811 4.52499 1.42778C4.39635 1.52783 4.20051 1.5715 4.09999 1.71111C3.99998 1.85002 3.90538 1.92636 3.77499 2.02778C3.49353 2.24669 3.47332 2.60723 3.29999 2.88889C3.11022 3.19728 3.04999 3.46865 3.04999 3.82778C3.04999 4.23781 3.01774 4.61968 3.18888 5C3.3188 5.28871 3.31708 5.4 3.69999 5.4" stroke="black" stroke-linecap="round"/>
<path d="M27.75 9.45001C27.4883 9.47908 27.3234 9.95985 27.2389 10.15C27.0885 10.4884 26.7275 10.6857 26.5611 11C26.2103 11.6627 25.95 12.2367 25.95 13" stroke="black" stroke-linecap="round"/>
<path d="M28 9.14999C27.9432 9.15709 27.9215 9.20705 27.9 9.24999" stroke="black" stroke-linecap="round"/>
<path d="M2.60001 11.1C2.77035 11.11 2.89439 11.2 3.07501 11.2C3.32593 11.2 3.57686 11.2 3.82778 11.2C4.43043 11.2 5.01983 11.15 5.62223 11.15C5.93522 11.15 6.23618 11.05 6.54723 11.05C6.84723 11.05 7.14723 11.05 7.44723 11.05C7.99941 11.05 8.55195 11 9.09723 11C10.2443 11 11.36 10.8288 12.4945 10.7028C13.1693 10.6278 13.8702 10.5 14.55 10.5" stroke="black" stroke-linecap="round"/>
<path d="M14.2 10.75C14.5072 10.75 14.7802 10.6 15.1 10.6C15.2967 10.6 15.6729 10.6312 15.75 10.4" stroke="black" stroke-linecap="round"/>
<path d="M21.7 5.55C22.537 5.55 23.3741 5.55 24.2111 5.55C24.5684 5.55 25.1231 5.44359 25.45 5.58889C25.6019 5.65639 25.8236 5.58803 25.9889 5.63889C26.1455 5.68707 26.3878 5.74099 26.55 5.75C26.8696 5.76776 27.1573 6.03374 27.45 6.05C27.5883 6.05769 27.7608 6.38863 27.8611 6.48889C27.99 6.61777 28.0937 6.7286 28.1889 6.9C28.4192 7.31451 29.2378 7.9748 28.6 8.4" stroke="black" stroke-linecap="round"/>
<path d="M21.35 5.75C21.0752 5.6207 20.7739 5.75 20.5 5.75" stroke="black" stroke-linecap="round"/>
<path d="M3.99999 11.9C3.50914 11.9545 3.24999 12.8685 3.24999 13.2722C3.24999 13.5917 3.19999 13.8826 3.19999 14.2C3.19999 14.4534 3.17612 14.8766 3.34999 15.0722C3.44073 15.1743 3.51498 15.39 3.55277 15.5222C3.58591 15.6382 3.92436 15.8941 4.02221 15.95C4.34357 16.1336 4.82287 16.15 5.19444 16.15C5.98791 16.15 6.81579 16.2 7.62499 16.2C7.84629 16.2 8.06758 16.2 8.28888 16.2C8.48389 16.2 8.50299 16.1389 8.64999 16.0611C8.958 15.8981 9.1686 15.7706 9.3111 15.45C9.42211 15.2002 9.34999 14.7971 9.34999 14.525C9.34999 14.1829 9.25763 13.8545 9.19721 13.5222C9.12739 13.1382 8.8941 12.848 8.7611 12.4889C8.65125 12.1923 8.52228 12.0124 8.24999 11.8611C7.66594 11.5366 6.9058 11.65 6.24999 11.65" stroke="black" stroke-linecap="round"/>
<path d="M6.30001 11.65C5.94631 11.65 5.5926 11.65 5.2389 11.65C5.04231 11.65 4.70001 11.5574 4.70001 11.8" stroke="black" stroke-linecap="round"/>
<path d="M9.45001 15.55C9.45001 15.9654 10.0619 16.4721 10.425 16.5528C10.6617 16.6054 10.8207 16.65 11.0778 16.65C11.4788 16.65 11.8563 16.5616 12.25 16.55C12.509 16.5424 12.8144 16.4005 13.05 16.2889C13.3075 16.1669 13.609 16.1299 13.85 15.975C14.3123 15.6778 14.3 14.9994 14.3 14.4889C14.3 14.023 14.1801 13.2515 13.75 12.975C13.6249 12.8945 13.5851 12.7674 13.4722 12.675C13.3764 12.5966 13.1976 12.592 13.1278 12.5222C12.9696 12.364 12.7247 12.3125 12.5 12.2611C12.2167 12.1964 11.9013 12.2595 11.6111 12.2111C11.4415 12.1828 11.2722 12.15 11.1 12.15C10.8547 12.15 10.4451 12.0737 10.2222 12.175C9.93758 12.3044 9.58889 12.4853 9.47779 12.8028C9.34392 13.1853 9.45001 13.5225 9.45001 13.9" stroke="black" stroke-linecap="round"/>
<path d="M13.6 16.55C13.9508 16.55 14.2586 16.444 14.5778 16.3528C14.9293 16.2523 15.3809 16.05 15.75 16.05C16.1864 16.05 16.6155 15.8955 17.05 15.8472C17.6548 15.78 18.2461 15.6199 18.85 15.5528C19.1394 15.5206 19.4141 15.4936 19.7 15.4528C19.9893 15.4114 20.2577 15.2882 20.5445 15.2472C20.6721 15.229 20.841 15.1602 20.975 15.125C21.1829 15.0703 21.3933 15.072 21.6 15.025C21.9401 14.9477 22.2722 14.8326 22.6028 14.75C23.0699 14.6332 23.4897 14.513 23.95 14.4472C24.0849 14.4279 24.426 14.3025 24.55 14.225C24.7232 14.1168 25.0279 14.1658 25.2278 14.075C25.4222 13.9866 25.6977 14.0698 25.9 13.9889C26.1127 13.9038 26.3356 13.9014 26.55 13.8111C26.7287 13.7359 26.9633 13.7941 27.15 13.7111C27.3096 13.6401 27.489 13.6567 27.65 13.5889C28.2765 13.3251 29.1004 13.1996 29.6 12.7C29.7392 12.5608 29.8774 12.5448 30.0111 12.4111C30.0854 12.3368 30.0865 12.0678 30.1389 11.95C30.2664 11.6631 30.2 11.2204 30.2 10.9C30.2 10.7584 30.0831 10.5547 30.0389 10.4111C29.9762 10.2074 29.8248 10.0121 29.6889 9.8611C29.4644 9.61161 29.3442 9.29422 29.1 9.04999" stroke="black" stroke-linecap="round"/>
<path d="M10.45 12C10.5132 11.7155 11.705 11.65 11.925 11.65C12.0364 11.65 12.1395 11.5686 12.25 11.5528C12.4237 11.528 12.5805 11.5431 12.7528 11.5C12.9952 11.4394 13.2975 11.4271 13.5222 11.325C13.7713 11.2118 14.0898 11.15 14.3611 11.15C14.5267 11.15 14.8501 11.1055 15 11.0389C15.182 10.958 15.5142 10.9109 15.7 10.9C15.8915 10.8887 16.0416 10.8 16.25 10.8" stroke="black" stroke-linecap="round"/>
<path d="M16.3 11C16.5007 10.8216 16.888 10.8 17.15 10.8" stroke="black" stroke-linecap="round"/>
<path d="M4.60743 12.7004C4.55587 12.7821 4.439 12.9022 4.42654 13.0018C4.41927 13.06 4.34615 13.1091 4.34615 13.1727C4.34615 13.3268 4.34615 13.4809 4.34615 13.6349C4.34615 13.8533 4.31646 14.0904 4.34726 14.306C4.35703 14.3744 4.41813 14.4377 4.42654 14.5092C4.43368 14.5699 4.49516 14.6857 4.52704 14.7415C4.55393 14.7885 4.54639 14.8613 4.5985 14.8911C4.66538 14.9293 4.73768 14.97 4.81288 14.9961C5.02127 15.0682 5.22577 15.1295 5.43594 15.1971C5.69207 15.2794 5.97614 15.2686 6.23989 15.3176C6.37308 15.3424 6.53356 15.3534 6.66754 15.3534C6.81928 15.3534 6.96674 15.3735 7.11976 15.3735C7.36094 15.3735 7.60213 15.3735 7.84331 15.3735C7.99776 15.3735 8.12835 15.3132 8.27543 15.3132C8.40134 15.3132 8.45393 14.8917 8.47642 14.8107C8.50476 14.7087 8.46125 14.5938 8.49093 14.4936C8.52252 14.387 8.50657 14.2598 8.50657 14.1486C8.50657 13.8936 8.43614 13.6497 8.38151 13.4038C8.33593 13.1987 8.21428 13.0398 8.12022 12.8611C7.99418 12.6217 7.72861 12.5195 7.47707 12.4748C7.12901 12.4129 6.73304 12.3733 6.38058 12.4346C6.01997 12.4973 5.63792 12.4994 5.2718 12.4994C4.92816 12.4994 4.4609 12.5629 4.23672 12.8511C4.07544 13.0585 3.91418 13.269 3.84368 13.5333C3.76831 13.816 3.87929 14.1419 4.01564 14.3898C4.08997 14.5249 4.1626 14.6758 4.26464 14.7906C4.33989 14.8753 4.43809 14.9762 4.49131 15.072C4.52697 15.1362 4.66047 15.2357 4.72914 15.2529C5.00427 15.3217 5.2442 15.275 5.5074 15.168C5.71417 15.084 6.02604 14.972 6.10366 14.7281C6.18355 14.477 6.12004 14.186 6.11483 13.9308C6.11256 13.8199 6.11254 13.7142 6.09026 13.6048C6.07509 13.5303 5.99474 13.3672 5.92054 13.3346C5.81839 13.2896 5.71152 13.2776 5.6012 13.2843C5.40975 13.2959 5.36085 13.3956 5.28632 13.5579C5.25582 13.6243 4.96951 14.3937 5.0697 14.3886C5.17689 14.3833 5.32084 14.1157 5.36671 14.038C5.49426 13.8222 5.56455 13.5747 5.69164 13.3603C5.87685 13.0477 5.50002 14.0638 5.45604 14.4244C5.40748 14.8225 5.95892 14.5777 6.11259 14.4579C6.29779 14.3134 6.47294 14.0903 6.55365 13.8683C6.573 13.8151 6.56846 13.733 6.60389 13.6874C6.64986 13.6283 6.56144 13.8311 6.5369 13.9018C6.43942 14.1828 6.35741 14.4874 6.31358 14.7817C6.29984 14.8739 6.41513 14.7643 6.43864 14.7448C6.5715 14.6351 6.69516 14.4916 6.80935 14.363C7.04434 14.0982 7.17858 13.796 7.36094 13.4987C7.4099 13.4189 7.45908 13.3587 7.5329 13.3033C7.54859 13.2916 7.51774 13.4574 7.5128 13.473C7.43569 13.7176 7.33163 13.9707 7.30511 14.2279C7.29684 14.3081 7.25402 14.5633 7.31181 14.6376C7.35145 14.6886 7.43103 14.612 7.4525 14.5863C7.56442 14.452 7.62848 14.2803 7.64009 14.1061C7.64736 13.9972 7.65955 13.6763 7.62223 13.779C7.54803 13.983 7.54344 14.2387 7.54183 14.4534C7.5413 14.5245 7.49827 14.8446 7.61106 14.8665C7.78015 14.8994 7.86791 14.5564 7.90137 14.4523C8.06708 13.9367 7.68045 13.2142 7.15102 13.0867C6.94724 13.0376 6.63501 12.9896 6.46097 13.1403C6.31127 13.2699 6.20548 13.4854 6.23877 13.6852C6.25736 13.7967 6.36688 13.891 6.47772 13.904C6.65935 13.9254 6.77517 13.884 6.87858 13.7299C6.94978 13.6237 7.00198 13.4721 6.92324 13.3524C6.90171 13.3197 6.81556 13.3033 6.78813 13.3368C6.59541 13.5724 6.51199 13.9417 6.73789 14.1676" stroke="white" stroke-linecap="round"/>
<path d="M10.3556 13.0822C10.2309 13.0822 10.2852 13.3087 10.2596 13.3882C10.2098 13.543 10.1948 13.704 10.1948 13.8661C10.1948 14.012 10.1948 14.1579 10.1948 14.3038C10.1948 14.3941 10.2149 14.4828 10.2149 14.5707C10.2149 14.6407 10.2008 14.7276 10.2194 14.7951C10.2507 14.9088 10.2723 15.0565 10.3355 15.1569C10.3882 15.2406 10.4353 15.381 10.5164 15.4383C10.5999 15.4972 10.6508 15.5909 10.7576 15.6191C10.9473 15.6694 11.1422 15.6549 11.3393 15.6549C11.4612 15.6549 11.5522 15.6155 11.6665 15.5901C11.7638 15.5685 11.8676 15.571 11.9635 15.5443C12.1593 15.4899 12.4244 15.5343 12.6268 15.5343C12.7303 15.5343 12.8262 15.496 12.9282 15.4941C13.0253 15.4922 13.1132 15.487 13.2085 15.4751C13.287 15.4653 13.3696 15.3389 13.4106 15.2775C13.5054 15.1353 13.4918 14.9881 13.5267 14.8308C13.5597 14.6823 13.5714 14.5415 13.5714 14.3887C13.5714 14.0866 13.4918 13.8357 13.2509 13.6551C13.2088 13.6235 13.1711 13.5552 13.1292 13.5155C13.0716 13.4609 12.9863 13.3709 12.9171 13.3346C12.6577 13.1987 12.3889 13.1042 12.112 13.0119C11.8978 12.9405 11.6509 12.8612 11.422 12.8612C11.2987 12.8612 10.9395 12.7439 10.8469 12.8533C10.75 12.9679 10.6461 13.1426 10.6013 13.2832C10.5313 13.5027 10.441 13.729 10.407 13.9577C10.3552 14.3053 10.3729 14.8086 10.7163 15.0106C10.8824 15.1083 11.1574 15.159 11.3449 15.0988C11.5439 15.0349 11.7348 14.8663 11.8954 14.737C12.1056 14.5678 12.2364 14.3422 12.2605 14.0715C12.2752 13.9072 12.2434 13.7382 12.0551 13.7098C11.6225 13.6445 11.0663 14.1117 11.0233 14.5361C11.0052 14.7155 11.1458 14.8095 11.3014 14.8599C11.5279 14.9332 11.751 14.8791 11.9546 14.7705C12.4913 14.4843 12.1501 13.7288 11.6553 13.6338C11.443 13.5931 11.2297 13.6433 11.0613 13.779C10.9319 13.8832 10.7293 14.1859 10.8614 14.3485C11.2062 14.7728 12.0779 14.9009 12.5352 14.6187C12.6137 14.5703 12.8592 14.3552 12.7474 14.2368C12.6543 14.1383 12.5901 14.4226 12.5866 14.459C12.5748 14.5797 12.3233 14.9921 12.6067 14.9291C12.7672 14.8934 12.7456 14.6645 12.6915 14.5628C12.5663 14.3273 12.3704 14.1514 12.1645 13.9867" stroke="white" stroke-linecap="round"/>
<path d="M1.41172 8.09778C1.35727 8.10458 1.33794 8.32972 1.33245 8.37916C1.31418 8.5436 1.30256 8.6873 1.34138 8.85036C1.3594 8.92604 1.34992 8.99759 1.38158 9.07145C1.41337 9.14562 1.4449 9.22107 1.47649 9.29476C1.51699 9.38927 1.51918 9.48261 1.59708 9.56051C1.64177 9.60521 1.66549 9.66353 1.72325 9.69562C1.78954 9.73245 1.7371 9.84792 1.78467 9.89549C1.83918 9.95001 1.7751 9.8048 1.7735 9.7615C1.76875 9.63313 1.77668 9.47767 1.74894 9.35283C1.71065 9.18056 1.6558 9.01754 1.63393 8.84254C1.6294 8.80632 1.62542 8.55444 1.56358 8.65161C1.521 8.71852 1.53402 8.85096 1.50105 8.93187C1.45738 9.03908 1.39496 9.14762 1.37599 9.2635C1.35074 9.41784 1.33802 9.67785 1.38716 9.83073C1.41515 9.91782 1.51639 9.95624 1.55242 10.0373C1.574 10.0859 1.62517 10.0937 1.65291 10.1322C1.67817 10.1673 1.71677 10.2368 1.76345 10.2472C1.91508 10.2809 1.96674 9.92288 1.85389 9.86646" stroke="white" stroke-linecap="round"/>
<path d="M26.5551 12.3587C26.6381 12.2556 26.6961 12.1706 26.7673 12.0617C26.816 11.9873 26.8521 11.9205 26.8968 11.8361C26.9884 11.6631 27.0384 11.5137 27.1782 11.3739C27.2431 11.309 27.2757 11.2446 27.3546 11.193C27.424 11.1476 27.4108 11.0949 27.4439 11.0322C27.475 10.9735 27.5356 10.95 27.54 10.8714C27.5417 10.8409 27.6008 10.7405 27.6204 10.7307" stroke="white" stroke-linecap="round"/>
<path d="M15.25 12.3C15.6359 12.3 16.0432 12.607 16.3194 12.8472C16.6703 13.1523 16.65 13.6223 16.65 14.05" stroke="white" stroke-opacity="0.5" stroke-linecap="round"/>
<path d="M8.10001 2.5C7.31441 2.5 6.56991 2.49437 5.85001 2.86112C5.20344 3.1905 4.95001 3.7613 4.95001 4.45001" stroke="white" stroke-opacity="0.5" stroke-linecap="round"/>
<path d="M13.65 5.19999C13.1465 5.15422 12.6246 5.00056 12.1333 5.2111C11.6455 5.42018 11.3012 5.988 11.25 6.49999" stroke="white" stroke-opacity="0.5" stroke-linecap="round"/>
<path d="M23.5 8.65C23.327 8.49622 23.0488 8.5024 22.95 8.7" stroke="white" stroke-opacity="0.5" stroke-linecap="round"/>
<path d="M20.05 12.25C20.4872 12.6475 21.1443 13.1157 21.25 13.75" stroke="white" stroke-opacity="0.5" stroke-linecap="round"/>
<path d="M4.35001 7.54999C4.38905 7.74519 4.69641 8.00153 4.85001 8.12221C5.00255 8.24207 5.03775 8.5205 5.15001 8.68888C5.27564 8.87733 5.45001 9.14501 5.45001 9.37499C5.45001 9.5436 5.40001 9.68769 5.40001 9.84999" stroke="white" stroke-opacity="0.5" stroke-linecap="round"/>
<path d="M9.96118 9.0946C9.96118 9.36422 10.2766 9.49124 10.2766 9.80437" stroke="white" stroke-opacity="0.5" stroke-linecap="round"/>
</svg>
