<svg width="28" height="11" viewBox="0 0 28 11" fill="none" xmlns="http://www.w3.org/2000/svg">
<path d="M5.11769 7.86663C4.78697 7.86663 4.51899 7.84237 4.21173 7.70191C3.83445 7.52944 3.43544 7.49534 3.07699 7.26723C2.88001 7.14188 2.65548 7.07432 2.46157 6.94008C2.25835 6.79938 2.21959 6.64142 2.11154 6.42533C1.88474 5.97172 1.63387 5.52764 1.47325 5.04579C1.36987 4.73564 1.3703 4.36559 1.3703 4.03917C1.3703 3.86056 1.37669 3.5562 1.47554 3.40087C1.78463 2.91516 2.20904 2.69328 2.72924 2.51321C3.82153 2.13511 4.99179 2.1919 6.11517 2.35764C6.4237 2.40316 6.7204 2.43214 7.02113 2.52236C7.15225 2.5617 7.28958 2.57892 7.42378 2.60472C7.58867 2.63643 7.72041 2.74542 7.87676 2.80147C8.44931 3.00673 9.02179 3.23237 9.62234 3.33681C10.1684 3.43179 10.7132 3.57773 11.2627 3.67541C11.8448 3.77889 12.517 3.7898 13.1089 3.7898C13.689 3.7898 14.3225 3.83375 14.8934 3.72803C15.5123 3.61342 16.1311 3.45062 16.7305 3.25445C17.6708 2.9467 18.6764 2.85157 19.6291 2.57498C19.9307 2.48741 20.2486 2.40062 20.5397 2.28672C20.8437 2.16773 21.133 1.99349 21.4479 1.90466C21.8193 1.79991 22.1839 1.66914 22.5552 1.54777C22.7589 1.48118 23.0154 1.36017 23.2278 1.36017C23.484 1.36017 23.7403 1.36017 23.9965 1.36017C24.5176 1.36017 24.9779 1.39985 25.4287 1.68961C25.7693 1.90862 26.0598 2.11192 26.2637 2.47432C26.4482 2.80232 26.5725 3.08645 26.5725 3.48323C26.5725 3.71462 26.5807 3.93441 26.5108 4.15813C26.4346 4.40181 26.2853 4.59439 26.179 4.8193C26.0618 5.06763 25.9272 5.29019 25.6986 5.47818C25.5467 5.60312 25.4266 5.74573 25.2868 5.88083C25.1803 5.98384 25.008 6.05186 24.9276 6.18053C24.843 6.31587 24.686 6.33519 24.5753 6.44592C24.461 6.56019 24.3279 6.65404 24.1864 6.73189C23.928 6.87402 23.7277 7.08868 23.452 7.20775C23.2033 7.31513 22.9911 7.47888 22.7336 7.57837C22.4927 7.67145 22.2555 7.77382 22.0153 7.86663C21.7394 7.97322 21.4404 8.02365 21.1596 8.11371C20.3307 8.37959 19.4243 8.42455 18.5744 8.58728C17.6253 8.76903 16.6617 8.93731 15.6918 8.93731C14.6697 8.93731 13.6459 9.02374 12.6239 8.97621C11.4757 8.9228 10.3263 8.93731 9.17622 8.93731C8.07593 8.93731 6.95213 8.98929 5.86809 8.76344C5.65169 8.71836 5.41561 8.60668 5.23208 8.48433C5.09393 8.39223 4.94117 8.3824 4.80655 8.29673C4.68246 8.21776 4.45444 8.14248 4.31468 8.11142C4.211 8.08838 3.9703 8.04265 3.92347 7.94899" stroke="#00BD2A" stroke-linecap="round"/>
<path d="M3.88228 2.88383C3.73064 3.03547 3.49361 2.99022 3.30804 3.07372C3.12816 3.15467 2.87657 3.32832 2.74983 3.48323C2.5729 3.69948 2.47536 3.9797 2.2854 4.19245C2.18975 4.29958 2.15271 4.55273 2.15271 4.69576C2.15271 4.75441 2.13284 5.51479 2.17559 5.51479C2.25091 5.51479 2.54965 5.13692 2.62857 5.07553C2.96288 4.81552 3.22644 4.45381 3.47963 4.11924C3.58728 3.97698 3.75078 3.75808 3.92803 3.70744C4.10475 3.65694 4.21399 3.44962 4.39703 3.42146C4.67149 3.37924 4.93763 3.30565 5.20919 3.2453C5.32093 3.22047 5.47227 3.13549 5.58439 3.13549C5.684 3.13549 5.40104 3.2144 5.31443 3.26361C4.833 3.53715 4.28837 3.82834 3.96464 4.29082C3.80941 4.51258 3.70176 4.78439 3.55284 5.01605C3.42619 5.21306 3.38812 5.51532 3.38812 5.74814C3.38812 5.93524 3.37792 6.13708 3.34465 6.32009C3.32985 6.4015 3.26458 6.48726 3.26458 6.57174C3.26458 6.66988 3.406 6.43074 3.44989 6.34297C3.59539 6.05197 3.82303 5.7656 4.00582 5.49648C4.24577 5.14323 4.59232 4.90322 4.82027 4.54019C5.09218 4.10715 5.37447 3.81136 5.81546 3.56331C6.06735 3.42162 6.30941 3.35416 6.60017 3.30479C6.68997 3.28954 7.12533 3.18022 7.20872 3.26361C7.22347 3.27835 6.96874 3.4111 6.94791 3.42833C6.78187 3.56563 6.63578 3.70321 6.45833 3.83098C5.93466 4.20802 5.54808 4.59308 5.19089 5.13501C4.85723 5.64126 4.48762 6.20802 4.41762 6.82798C4.40565 6.93401 4.34758 7.44885 4.42677 7.52804C4.48997 7.59124 4.56498 7.44838 4.58234 7.41365C4.67187 7.2346 4.72801 7.13987 4.8706 6.99727C5.3375 6.53038 5.78296 6.03054 6.27073 5.58342C6.68465 5.20399 7.14378 4.89261 7.56561 4.53104C7.74812 4.37461 7.89015 4.26059 8.12612 4.2016C8.18858 4.18598 9.07388 4.05808 8.92913 3.91334C8.89058 3.87478 8.53186 4.09898 8.47615 4.11924C8.16428 4.23264 7.93097 4.58821 7.71432 4.8193C7.43045 5.12209 7.1417 5.37274 6.97079 5.75729C6.89907 5.91867 6.83195 6.02242 6.78319 6.19655C6.73875 6.35526 6.69243 6.51308 6.6505 6.67241C6.53791 7.10025 6.42099 7.7707 6.5201 8.21666C6.55352 8.36709 6.67393 8.051 6.68253 8.03135C6.7883 7.78958 6.81983 7.52798 6.93876 7.29011C7.24923 6.66917 7.66845 6.09355 8.00944 5.48733C8.22219 5.10911 8.57636 4.8549 8.86736 4.54934C9.10417 4.30069 9.4688 4.18499 9.75274 3.9957C9.96313 3.85543 10.2248 3.76009 10.4619 3.67541C10.7246 3.58162 10.2267 4.06376 10.192 4.11009C10.0561 4.29127 9.88031 4.40924 9.77104 4.6134C9.64694 4.84527 9.49212 5.06273 9.33636 5.27457C9.03898 5.67901 8.70222 6.06595 8.49674 6.52828C8.23723 7.11218 8.08265 7.73351 8.08265 8.36994C8.08265 8.57135 8.144 8.58366 8.22678 8.39968C8.30462 8.22671 8.33754 8.05297 8.45327 7.89866C8.62052 7.67567 8.78039 7.44822 8.95201 7.22834C9.62697 6.36355 10.2376 5.48291 11.0156 4.70491C11.111 4.60947 11.4533 4.24735 11.6013 4.24735C11.7172 4.24735 11.4668 4.43631 11.3999 4.53104C11.2676 4.71849 11.0537 4.8418 10.947 5.04808C10.5172 5.87889 10.1732 6.72972 10.3796 7.66988C10.4011 7.76793 10.4529 7.92616 10.5329 7.99017C10.5834 8.0306 10.5378 8.39315 10.5557 8.16862C10.5717 7.96871 10.6912 7.78462 10.7411 7.58981C10.7953 7.37762 10.8407 7.18602 10.9515 6.9927C11.3563 6.28689 11.8139 5.57554 12.3151 4.93369C12.4793 4.72333 12.4054 5.01831 12.5393 4.86963C12.6502 4.7464 12.7865 4.64024 12.8595 4.48986C12.8974 4.41189 12.9512 4.31117 12.8801 4.45325C12.7755 4.66248 12.6581 4.86115 12.5621 5.07553C12.442 5.34373 12.2769 5.58938 12.1869 5.87168C12.0736 6.22724 11.9966 6.59289 11.9353 6.96067C11.8692 7.35688 11.8406 7.76015 11.9124 8.15489C12.0188 8.73986 12.183 7.64899 12.2007 7.54634C12.3131 6.89144 12.5306 6.21689 12.8687 5.6429C12.9833 5.4483 13.0543 5.23921 13.189 5.05723C13.3158 4.88583 13.3687 4.62365 13.5413 4.49215C13.5854 4.45855 13.9178 4.22241 13.9279 4.26794C13.9621 4.42161 13.8504 4.64718 13.8296 4.79871C13.783 5.13794 13.7676 5.48904 13.7335 5.8305C13.6835 6.33065 13.6676 6.81889 13.7655 7.30841C13.7716 7.33864 13.8874 8.13767 13.9897 8.00619C14.086 7.88243 14.0126 7.49392 14.0126 7.34044C14.0126 7.06607 14.0295 6.80138 14.0538 6.52828C14.1013 5.99384 14.1548 5.36982 14.3924 4.88336C14.4914 4.68058 14.5695 4.43167 14.7332 4.26794C14.8094 4.19178 14.8362 4.14482 14.8362 4.26108C14.8362 5.36318 14.5998 6.58532 14.9803 7.64243C14.9885 7.66508 15.0393 7.90323 15.0627 7.90323C15.0869 7.90323 15.1265 7.56154 15.1336 7.51889C15.2196 7.00303 15.1649 6.47736 15.248 5.96319C15.3051 5.6098 15.3035 5.25942 15.3944 4.91081C15.4319 4.76719 15.4374 4.55698 15.518 4.43038C15.5474 4.38404 15.6406 4.26727 15.6095 4.4075C15.5598 4.63088 15.5046 4.83987 15.4745 5.06867C15.4142 5.52709 15.36 6.05015 15.4447 6.50769C15.5048 6.83174 15.7161 7.16907 15.8749 7.45483C15.8984 7.49715 15.9847 7.53181 16.0304 7.53719C16.1096 7.54651 16.1825 7.759 16.2157 7.82545C16.3953 8.18451 16.2924 7.82184 16.2798 7.61955C16.2389 6.9658 16.2775 6.29786 16.2775 5.6429C16.2775 5.37447 16.2775 5.10604 16.2775 4.8376C16.2775 4.67469 16.2378 4.44899 16.2958 4.29311C16.3512 4.14411 16.5658 3.80956 16.5658 4.13983C16.5658 4.94815 16.5749 5.77549 16.7122 6.57403C16.7865 7.0065 17.03 7.44166 17.3482 7.74309C17.4456 7.83536 17.4686 7.52088 17.4717 7.43653C17.4917 6.89852 17.5129 6.36566 17.5129 5.82593C17.5129 5.1734 17.4561 4.5115 17.6982 3.89275C17.7375 3.79241 17.7554 3.67723 17.8103 3.5839C17.8306 3.54942 17.9247 3.50552 17.9247 3.55415C17.9247 4.15036 18.1569 4.75643 18.2724 5.33405C18.3993 5.96845 18.5289 6.66495 18.9954 7.14369C19.0822 7.23279 19.4484 7.79781 19.4484 7.46856C19.4484 6.88034 19.4606 6.2904 19.4461 5.70239C19.4296 5.03329 19.2836 4.38716 19.2836 3.71201C19.2836 3.60754 19.2836 3.50306 19.2836 3.39859C19.2836 3.31458 19.3627 3.25778 19.366 3.378C19.3836 4.01056 19.387 4.62121 19.5811 5.2311C19.7512 5.76584 20.1517 6.22253 20.4756 6.66783C20.6323 6.88331 20.8367 7.01107 21.0544 7.16657C21.1706 7.24959 21.0873 7.0872 21.075 7.01557C21.0243 6.72136 21.0282 6.42406 21.0041 6.12791C20.953 5.50286 20.8752 4.87989 20.725 4.27023C20.6513 3.97137 20.6426 3.66343 20.6426 3.35741C20.6426 3.25395 20.639 3.27156 20.6426 3.36884C20.6492 3.54733 20.7104 3.75096 20.7684 3.91791C21.0381 4.69332 21.3033 5.50112 21.846 6.13706C21.9985 6.31575 22.2008 6.45198 22.3882 6.59005C22.4829 6.65987 22.5473 6.75854 22.6604 6.8051C22.7494 6.84173 22.6693 6.54791 22.6604 6.51684C22.5812 6.23958 22.5022 5.95529 22.4111 5.6818C22.1347 4.85279 21.7992 4.04672 21.5303 3.21556C21.4829 3.06934 21.3935 2.86337 21.3838 2.71911C21.3763 2.6067 21.4876 2.91947 21.5486 3.01424C21.7135 3.27078 21.8014 3.58871 21.9512 3.85843C22.3075 4.49977 22.5338 5.12834 23.0928 5.63833C23.3034 5.83047 23.5236 5.99441 23.7723 6.11876C23.8767 6.17098 23.9186 6.18424 23.8729 6.03411C23.8062 5.81484 23.7312 5.59609 23.6625 5.37752C23.4136 4.58656 22.99 3.89133 22.8251 3.06686C22.79 2.89115 22.7082 2.70123 22.7016 2.52236C22.698 2.42512 22.6791 2.37533 22.7268 2.4972C22.9685 3.1149 23.3619 3.59151 23.6899 4.15813C23.9525 4.61163 24.3907 5.19266 24.8658 5.437C24.9908 5.50128 24.7433 4.52406 24.7194 4.41665C24.664 4.16715 24.617 3.92334 24.5776 3.67083C24.5463 3.47005 24.5273 3.26728 24.4952 3.06686C24.4663 2.88594 24.3783 2.72113 24.3534 2.54067C24.3311 2.37893 24.2401 1.96674 24.4907 2.18148C24.8111 2.45613 24.9198 3.03932 25.1312 3.38257C25.3417 3.72429 25.7 4.20918 26.0784 4.39835C26.2643 4.49129 26.0098 3.87818 25.996 3.84013C25.9298 3.65706 25.9143 3.45776 25.8519 3.27047C25.8099 3.14465 25.7489 3.0174 25.7489 2.88383" stroke="#00BD2A" stroke-linecap="round"/>
<path d="M1.62032 2.77245C1.85523 2.59241 2.06246 2.38967 2.33106 2.29669C2.46332 2.25091 2.57652 2.24277 2.71689 2.22272C2.8998 2.19659 3.08071 2.06752 3.26662 2.06752C3.52742 2.06752 3.78667 1.96308 4.04843 1.96308C4.53541 1.96308 5.02753 1.98919 5.51052 1.98919C5.82361 1.98919 6.1379 2.0889 6.44464 2.15165C6.70921 2.20576 6.96179 2.26732 7.2221 2.34021C7.53873 2.42887 7.88188 2.44969 8.18667 2.57519C8.27289 2.61069 8.39576 2.62884 8.48982 2.65496C8.62439 2.69234 8.75442 2.7228 8.89015 2.75215C9.17297 2.8133 9.46371 2.8851 9.73434 2.98132C9.86411 3.02747 10.0255 3.02872 10.1637 3.05385C10.3502 3.08776 10.5437 3.09374 10.7308 3.12492C11.0636 3.18039 11.4013 3.19624 11.736 3.24241C11.9271 3.26876 12.1193 3.28182 12.3119 3.29608C12.5035 3.31027 12.6893 3.37295 12.8848 3.37295C13.6341 3.37295 14.395 3.42517 15.1447 3.42517C15.3119 3.42517 15.4792 3.42517 15.6465 3.42517C15.753 3.42517 15.9106 3.42125 16.012 3.39326C16.3164 3.3093 16.6493 3.32528 16.9462 3.23081C17.5755 3.03057 18.2229 2.88861 18.8521 2.69413C19.1545 2.60067 19.4631 2.55515 19.7659 2.47946C20.0517 2.40801 20.3201 2.24832 20.6144 2.22272C20.77 2.20919 20.9442 2.14134 21.0989 2.10523C21.257 2.06834 21.4264 1.96667 21.5877 1.96308C21.8568 1.9571 22.1516 1.84323 22.3869 1.7165C22.4662 1.67382 22.6105 1.67409 22.7017 1.64978C22.8019 1.62304 22.9007 1.55981 23.0048 1.54679C23.1667 1.52656 23.3377 1.47317 23.4995 1.43511C23.825 1.35851 24.1541 1.33647 24.4916 1.33647C24.6375 1.33647 24.7964 1.31036 24.9499 1.31036C25.1379 1.31036 25.2936 1.39592 25.4634 1.46702C25.8535 1.63029 26.2351 1.82315 26.5745 2.06752C26.881 2.28823 27.0715 2.73203 27.101 3.10026C27.1157 3.28341 27.1286 3.4603 27.1286 3.6471C27.1286 3.76343 27.1368 3.88357 27.1271 3.99956C27.1221 4.05935 27.0788 4.26513 27.0444 4.30707C26.9779 4.38845 26.9754 4.48068 26.94 4.57976C26.8984 4.69632 26.7787 4.76891 26.7108 4.86696C26.5481 5.10207 26.3104 5.32998 26.0958 5.51387C25.8309 5.74093 25.5805 6.00557 25.2806 6.1869C25.0142 6.34801 24.8113 6.60306 24.5423 6.76854C24.2455 6.95122 23.9633 7.14005 23.659 7.31393C23.5119 7.398 23.3588 7.4797 23.2123 7.56631C23.021 7.6793 22.824 7.76723 22.6234 7.86946C22.2436 8.06294 21.8404 8.22092 21.4427 8.38003C21.2283 8.46578 20.9924 8.47593 20.7841 8.5744C20.5991 8.66186 20.3498 8.72324 20.1459 8.75136C19.9389 8.77991 19.732 8.8384 19.5309 8.89496C19.2604 8.97104 19.0036 9.01183 18.723 9.03855C18.0995 9.09794 17.4809 9.19864 16.8591 9.26773C16.2511 9.33529 15.648 9.37947 15.0417 9.4679C14.6181 9.52966 14.163 9.56073 13.7348 9.56073C13.2666 9.56073 12.7987 9.6332 12.3307 9.63905C11.7669 9.6461 11.202 9.66516 10.6394 9.66516C9.72417 9.66516 8.80788 9.66758 7.89512 9.63905C7.44838 9.62509 7.00883 9.53462 6.56067 9.53462C6.33731 9.53462 6.11483 9.47558 5.89635 9.43018C5.69169 9.38766 5.4588 9.40472 5.26104 9.3388C5.08486 9.28008 4.89723 9.26424 4.72726 9.17925C4.50914 9.07019 4.29151 8.94589 4.08034 8.82388C3.76212 8.64002 3.45438 8.48401 3.17379 8.24659C3.07137 8.15993 2.92436 8.09674 2.80972 8.02031C2.70829 7.95269 2.62961 7.86654 2.53122 7.79549C2.40968 7.70771 2.3271 7.58821 2.23387 7.47348C2.13597 7.35298 1.98509 7.27495 1.89591 7.15292C1.81029 7.03575 1.68335 6.94469 1.61452 6.81931C1.51887 6.6451 1.42534 6.49957 1.35343 6.30874C1.22328 5.96335 1.15036 5.60839 1.15036 5.23683C1.15036 4.74527 1.09966 4.21728 1.26785 3.75008C1.37098 3.46361 1.42903 3.2003 1.5681 2.92911C1.67168 2.72712 1.77153 2.57192 1.92347 2.41999C2.13833 2.20512 2.48968 2.19241 2.7691 2.14584" stroke="black" stroke-linecap="round"/>
<path d="M20.523 2.01531C20.6247 1.91369 20.7733 1.87385 20.8944 1.80064C20.9929 1.74104 21.0237 1.70201 21.1366 1.70201C21.2454 1.70201 21.4153 1.57234 21.5152 1.52505C21.6101 1.48008 21.721 1.49091 21.8227 1.47283C21.9229 1.45501 22.0428 1.41481 22.1418 1.41481C22.3613 1.41481 22.5756 1.33647 22.796 1.30893C23.2532 1.25177 23.7117 1.15373 24.1783 1.15373C24.4374 1.15373 24.6966 1.15373 24.9557 1.15373C25.0491 1.15373 25.1862 1.13009 25.2734 1.16823C25.4317 1.2375 25.5647 1.36393 25.7187 1.44092" stroke="black" stroke-linecap="round"/>
</svg>
