<svg width="37" height="21" viewBox="0 0 37 21" fill="none" xmlns="http://www.w3.org/2000/svg">
<path d="M11 9.2C11.5744 9.2 12.1189 9.05 12.7111 9.05C13.1378 9.05 13.7192 9.1612 14.1278 9.025C14.5115 8.89711 14.9549 8.99853 15.35 8.93889C15.7949 8.87174 16.2528 8.9 16.7028 8.9C17.2045 8.9 17.7004 8.80925 18.2 8.8C18.7607 8.78962 19.3131 8.75 19.875 8.75C20.1151 8.75 20.3389 8.71873 20.575 8.675C20.8638 8.62152 21.1592 8.67213 21.45 8.63889C22.5893 8.50868 23.7666 8.43815 24.9111 8.4C25.9549 8.36521 27.0061 8.20643 28.05 8.15C28.8484 8.10685 29.5649 7.88311 30.3389 7.71111C31.0616 7.55052 31.8448 7.38543 32.5278 7.075C32.7473 6.97524 33.0244 6.98915 33.25 6.88889C33.4443 6.80254 33.5528 6.64679 33.7222 6.55C34.0512 6.36203 34.2483 5.94307 34.425 5.625C34.5824 5.34161 34.7 5.00375 34.7 4.675C34.7 4.25428 34.9 3.89124 34.9 3.475C34.9 3.30601 34.9618 2.99577 34.8889 2.85C34.8055 2.6832 34.6854 2.57052 34.5722 2.425C34.24 1.99787 33.5569 1.98578 33.1222 1.725C32.8973 1.59007 32.5859 1.5466 32.3389 1.46111C32.0784 1.37095 31.8402 1.23159 31.575 1.15C31.0538 0.989619 30.5277 0.963049 30 0.83889C28.9372 0.588815 27.8383 0.750001 26.7611 0.750001C26.5193 0.750001 26.2841 0.819335 26.05 0.852778C25.7709 0.892654 25.4798 0.909721 25.2 0.961112C24.5808 1.07485 23.9137 1.02227 23.3028 1.175C22.7863 1.30412 22.212 1.25371 21.7 1.4C21.45 1.47142 21.1387 1.49265 20.8778 1.5C20.478 1.51126 20.1105 1.61139 19.7194 1.67222C18.8986 1.79991 18.0739 1.92779 17.25 2.01111C16.5617 2.08071 15.878 2.28876 15.2028 2.42778C14.54 2.56423 13.8929 2.7516 13.2333 2.9C12.5002 3.06496 11.7605 3.14808 11.0556 3.42222C10.6216 3.59097 10.1556 3.6364 9.71111 3.77222C9.35482 3.88109 9.01774 3.9966 8.65 4.06111C8.33547 4.11629 8.02462 4.2492 7.72222 4.35C7.42502 4.44907 7.12627 4.49967 6.825 4.57778C6.32458 4.70752 5.78855 4.90608 5.325 5.12778C4.76439 5.3959 4.17734 5.67808 3.66111 6.02778C3.30816 6.26688 2.89431 6.51078 2.62778 6.85C2.40123 7.13834 2.11309 7.36422 1.95 7.7C1.79973 8.00938 1.8 8.26676 1.8 8.60556C1.8 8.91089 1.78535 9.15146 2.06111 9.35C2.15093 9.41467 2.14874 9.48826 2.25 9.53889C2.36569 9.59673 2.48049 9.6313 2.6 9.67778C3.20809 9.91426 4.02904 9.8 4.675 9.8C5.59143 9.8 6.48756 9.76342 7.39722 9.70278C8.35437 9.63897 9.31536 9.5 10.275 9.5C11.2955 9.5 12.3239 9.45 13.35 9.45" stroke="#A46F3F" stroke-linecap="round"/>
<path d="M10.721 19.3125C11.328 19.3125 11.9033 19.1482 12.529 19.1482C12.9799 19.1482 13.5941 19.27 14.0259 19.1208C14.4313 18.9807 14.8998 19.0918 15.3173 19.0265C15.7873 18.9529 16.2713 18.9839 16.7467 18.9839C17.2768 18.9839 17.8007 18.8845 18.3287 18.8743C18.9211 18.863 19.5048 18.8196 20.0985 18.8196C20.3522 18.8196 20.5886 18.7853 20.8381 18.7374C21.1433 18.6788 21.4554 18.7343 21.7627 18.6978C22.9665 18.5552 24.2104 18.4779 25.4197 18.4361C26.5226 18.398 27.6333 18.2241 28.7363 18.1623C29.5799 18.115 30.337 17.8699 31.1548 17.6815C31.9184 17.5056 32.746 17.3247 33.4676 16.9847C33.6996 16.8754 33.9924 16.8906 34.2308 16.7808C34.436 16.6862 34.5507 16.5156 34.7297 16.4096C35.0773 16.2037 35.2856 15.7447 35.4723 15.3963C35.6386 15.0858 35.7629 14.7157 35.7629 14.3556C35.7629 13.8947 35.9742 13.497 35.9742 13.0411C35.9742 12.856 36.0394 12.5161 35.9624 12.3564C35.8743 12.1737 35.7474 12.0503 35.6278 11.8909C35.2768 11.423 34.555 11.4097 34.0957 11.1241C33.8581 10.9762 33.529 10.9286 33.2681 10.835C32.9928 10.7362 32.7411 10.5835 32.4609 10.4942C31.9102 10.3185 31.3543 10.2894 30.7968 10.1534C29.6738 9.87943 28.5127 10.056 27.3745 10.056C27.1189 10.056 26.8705 10.1319 26.6231 10.1686C26.3282 10.2123 26.0206 10.231 25.725 10.2873C25.0707 10.4118 24.3659 10.3543 23.7204 10.5216C23.1746 10.663 22.5678 10.6078 22.0268 10.768C21.7627 10.8463 21.4338 10.8695 21.1581 10.8776C20.7357 10.8899 20.3474 10.9996 19.9341 11.0662C19.0668 11.2061 18.1955 11.3462 17.3249 11.4375C16.5976 11.5137 15.8752 11.7416 15.1618 11.8939C14.4614 12.0434 13.7777 12.2486 13.0808 12.4112C12.3061 12.5919 11.5246 12.683 10.7797 12.9833C10.3212 13.1681 9.82884 13.2179 9.35916 13.3667C8.9827 13.4859 8.62654 13.6125 8.23797 13.6831C7.90564 13.7436 7.57718 13.8892 7.25767 13.9996C6.94364 14.1081 6.62797 14.1636 6.30965 14.2491C5.78089 14.3912 5.21452 14.6088 4.72472 14.8516C4.13237 15.1453 3.51208 15.4544 2.96662 15.8375C2.59369 16.0994 2.15641 16.3666 1.87479 16.7382C1.63541 17.0541 1.33096 17.3015 1.15864 17.6693C0.999856 18.0082 1.00014 18.2902 1.00014 18.6613C1.00014 18.9958 0.984667 19.2593 1.27604 19.4768C1.37094 19.5477 1.36863 19.6283 1.47562 19.6837C1.59786 19.7471 1.71915 19.785 1.84544 19.8359C2.48795 20.0949 3.35539 19.9698 4.03792 19.9698C5.00623 19.9698 5.9531 19.9297 6.91426 19.8633C7.9256 19.7934 8.941 19.6411 9.95497 19.6411C11.0332 19.6411 12.1199 19.5864 13.2041 19.5864" stroke="#A46F3F" stroke-linecap="round"/>
<path d="M1.75 19.5C1.75 19.2303 2.20509 18.9741 2.42222 18.85C2.47117 18.822 2.55543 18.7421 2.6 18.7C2.72927 18.5779 2.83445 18.5792 2.99722 18.5222C3.17913 18.4586 3.31262 18.3149 3.5 18.25C3.7262 18.1717 3.93539 18.082 4.17222 18.0389C4.72488 17.9384 5.24471 17.7002 5.78889 17.5889C6.20188 17.5044 6.61602 17.4326 7.025 17.325C7.81519 17.1171 8.59141 16.9832 9.4 16.8611C9.79799 16.8011 10.1926 16.77 10.5889 16.6889C10.8948 16.6263 11.2344 16.55 11.5472 16.55C12.0773 16.55 12.5777 16.45 13.1 16.45C13.4428 16.45 13.7463 16.4 14.075 16.4C14.3483 16.4 14.6492 16.25 14.9389 16.25C15.118 16.25 15.2691 16.2 15.45 16.2C15.6287 16.2 15.9619 16.1979 16.1222 16.125C16.2842 16.0514 16.6724 16.05 16.8528 16.05C17.2733 16.05 17.6642 15.9148 18.0778 15.9C20.0003 15.8313 21.9086 15.4394 23.825 15.3C24.673 15.2383 25.5276 15.1149 26.3722 15.025C27.2038 14.9365 28.023 14.776 28.85 14.6611C29.2999 14.5986 29.7669 14.5778 30.2111 14.4889C30.6204 14.407 31.0273 14.2808 31.4472 14.2528C31.844 14.2263 32.2289 14.1 32.6222 14.1C32.9541 14.1 33.3275 14.0396 33.65 13.9611C33.9591 13.8859 34.311 13.7758 34.6 13.6389C34.8126 13.5382 35.0184 13.574 35.1972 13.425C35.3058 13.3345 35.4838 13.3107 35.5722 13.2222C35.6662 13.1283 35.7812 13.0094 35.9 12.95" stroke="#A46F3F" stroke-linecap="round"/>
<path d="M24.45 16.2C24.8601 16.2 25.2616 16.15 25.6694 16.15C25.8926 16.15 25.2231 16.15 25 16.15" stroke="#A46F3F" stroke-linecap="round"/>
<path d="M21.75 16.05C23.4362 16.05 25.1155 16.1315 26.8 16.15C27.5723 16.1585 28.3567 16.1944 29.1222 16.3C29.4867 16.3503 29.9614 16.3463 30.3 16.4889C30.4571 16.555 30.6812 16.4951 30.825 16.575C30.9264 16.6313 31.1937 16.6937 31.3 16.7C31.6259 16.7192 31.946 16.85 32.25 16.85" stroke="#A46F3F" stroke-linecap="round"/>
<path d="M2.89999 9.15001C3.07818 9.13021 3.32223 8.98889 3.49999 8.92779C3.88435 8.79567 4.31072 8.70146 4.7111 8.6389C5.09155 8.57946 5.47462 8.58062 5.85277 8.52501C6.31783 8.45662 6.78041 8.35493 7.24722 8.30001C9.11697 8.08004 11.0537 8.13167 12.9 7.72779C13.6405 7.56581 14.4247 7.48143 15.1778 7.40001C16.0648 7.30412 16.9555 7.06658 17.85 7.05001C18.243 7.04273 18.8196 6.94493 19.1778 6.77779C19.4046 6.67196 19.7815 6.60217 20.0278 6.56112C20.3396 6.50916 20.6597 6.48608 20.9722 6.4389C21.643 6.33765 22.3157 6.24941 22.9889 6.16112C23.6451 6.07506 24.2991 6.02346 24.9472 5.87223C25.6933 5.69814 26.4551 5.5837 27.2 5.40001C28.0483 5.19085 28.9215 5.10217 29.7528 4.85279C30.2046 4.71725 30.6375 4.54306 31.1028 4.45001C31.4184 4.38689 31.7191 4.26189 32.0389 4.21112C32.3975 4.15421 32.7463 4.12492 33.1 4.0389C33.4443 3.95516 33.6004 3.72758 33.9 3.57779C34.1308 3.46237 34.5039 3.20001 34.75 3.20001" stroke="#A46F3F" stroke-linecap="round"/>
<path d="M22.15 7C22.4308 6.74727 22.8602 6.7 23.2222 6.7C23.8012 6.7 24.4055 6.65555 24.975 6.78055C25.8118 6.96424 26.5969 7.3323 27.4 7.6" stroke="#A46F3F" stroke-linecap="round"/>
<path d="M22.4 6.84999C21.9077 6.84999 21.4048 6.79999 20.9 6.79999" stroke="#A46F3F" stroke-linecap="round"/>
<path d="M2.20001 8.45C2.39645 8.41428 2.55598 8.3 2.75279 8.3C2.96959 8.3 3.25212 8.29907 3.45001 8.21111C3.48398 8.19601 3.64446 8.2198 3.64446 8.17222C3.64446 8.0586 3.53456 8.08268 3.50001 8.02222C3.39236 7.83382 3.46864 7.7248 3.65001 7.63889C3.98935 7.47815 4.42979 7.46058 4.80001 7.45C5.23817 7.43748 5.77186 7.45734 6.20001 7.375C6.44903 7.32711 6.71663 7.27476 6.96946 7.25278C7.05188 7.24561 7.22505 7.25836 7.07501 7.175C6.96251 7.1125 6.14976 7.06339 6.20279 6.87778C6.24421 6.73279 6.40001 6.7408 6.40001 6.55C6.40001 6.38015 6.72169 6.4 6.85557 6.4C7.60096 6.4 8.29881 6.71221 9.02223 6.85C9.41871 6.92552 9.79107 7.05 10.2 7.05C10.3352 7.05 10.9412 7.13662 11.0389 7.03889C11.198 6.87981 10.7085 6.44593 10.6195 6.35C10.3014 6.00748 9.66479 5.72902 9.23335 5.58333C9.05223 5.52218 8.82025 5.45 8.62779 5.45C8.50382 5.45 8.5175 5.45 8.63335 5.45C9.29249 5.45 9.95528 5.42411 10.6111 5.48889C11.1056 5.53773 11.601 5.55792 12.0945 5.60278C12.5706 5.64607 12.9587 5.87595 13.4111 6C13.6795 6.07359 13.9555 6.04676 14.225 6.125C14.4405 6.18757 14.6752 6.21946 14.8972 6.24722C15.0546 6.26689 15.0957 6.17021 14.9445 6.07778C14.6957 5.92576 14.5183 5.70777 14.2528 5.575C13.72 5.30861 13.1416 4.99749 12.65 4.66111C12.4628 4.53299 12.0075 4.25 11.775 4.25C10.6744 4.25 13.9774 4.45895 15.0389 4.75C15.556 4.8918 16.1514 4.93908 16.6472 5.125C16.849 5.20067 17.0947 5.24519 17.3111 5.25C17.5098 5.25442 17.6697 5.3413 17.8611 5.35C17.9866 5.3557 18.0999 5.4 18.225 5.4C18.3894 5.4 18.1806 5.25355 18.15 5.2C18.0486 5.02259 17.7358 4.87046 17.5695 4.74722C17.3053 4.55158 17.0249 4.35816 16.75 4.17778C16.4923 4.00867 16.2675 3.85642 16.0278 3.66111C16.0037 3.64149 15.6359 3.4293 15.6722 3.41111C15.7827 3.35588 16.0183 3.44617 16.1278 3.475C16.5242 3.57931 16.9456 3.59985 17.3472 3.69722C18.647 4.01233 22.6004 4.70952 21.2889 4.44722C21.076 4.40463 20.8465 4.27879 20.65 4.18889C20.2341 3.99857 19.7505 3.83853 19.3111 3.71111C18.995 3.61945 18.6762 3.52678 18.3556 3.45278C18.2117 3.41957 18.0042 3.35 18.2806 3.35C18.5945 3.35 18.8548 3.44316 19.1611 3.5C19.6861 3.59741 20.2127 3.71306 20.7389 3.8C21.6333 3.94777 22.5356 4.0567 23.4278 4.21111C23.8815 4.28963 23.2663 4.22301 23.1222 4.175C22.8717 4.09149 22.526 4.18933 22.3 4.08889C21.8716 3.89849 22.6852 4.04795 22.8083 4.08056C23.417 4.24166 24.0337 4.35563 24.65 4.48889C24.808 4.52305 25.117 4.61278 25.275 4.525C25.3981 4.45664 25.1526 4.26437 25.0611 4.2C24.9236 4.10325 24.7462 4.09326 24.625 4C24.4393 3.85713 24.1437 3.71178 23.9222 3.62778C23.4216 3.4379 22.8447 3.05 22.3 3.05C21.7349 3.05 22.6365 3 22.7833 3C23.6182 3 24.4821 3.07113 25.3028 3.225C26.0107 3.35773 26.7338 3.45703 27.45 3.53889C27.9404 3.59493 28.5016 3.57885 28.9722 3.75C29.8787 4.07964 27.105 3.26021 26.1583 3.075C25.7445 2.99403 25.3222 2.94136 24.9111 2.85C24.8945 2.8463 24.5353 2.74015 24.5611 2.71111C24.8423 2.39481 25.5733 2.5 25.9389 2.5C26.8451 2.5 27.7864 2.46994 28.675 2.675C29.1411 2.78256 29.6325 2.96097 30.1 3.03889C30.3344 3.07796 30.546 3.05732 30.7778 3.12222C30.984 3.17996 31.1901 3.1837 31.4 3.20278C31.5593 3.21726 31.9319 3.19547 32.075 3.275C32.1948 3.34154 32.4146 3.3 32.55 3.3C32.7267 3.3 32.9145 3.33792 32.6972 3.175C31.921 2.59285 30.745 2.55 29.8 2.55" stroke="#A46F3F" stroke-width="3" stroke-linecap="round"/>
<path d="M2.29999 18.05C2.55174 18.0248 2.7676 17.7129 2.99999 17.6C3.19868 17.5035 3.42283 17.4245 3.62777 17.35C3.97538 17.2236 4.46345 16.9734 4.6611 16.65C4.74493 16.5128 5.01771 16.5101 5.13888 16.3889C5.26535 16.2624 5.33685 16.2038 5.49999 16.1222C5.71566 16.0144 5.9663 15.9966 6.19999 15.9222C6.4867 15.831 6.75827 15.7321 7.04999 15.6611C7.79368 15.4802 8.58045 15.3 9.34999 15.3C9.76788 15.3 10.2116 15.3417 10.625 15.275C10.6782 15.2664 11.4838 15.2665 11.2389 15.1C11.0567 14.9761 10.7382 14.9441 10.5278 14.85C10.4687 14.8236 9.86127 14.731 10.0805 14.6972C11.1627 14.5307 12.2554 14.55 13.35 14.55C13.4715 14.55 14.1147 14.6093 13.7 14.5389C13.3335 14.4767 13.0033 14.3 12.6278 14.3C12.3347 14.3 13.1866 14.4912 13.4778 14.525C14.0603 14.5927 14.664 14.55 15.25 14.55C15.3564 14.55 15.8061 14.6344 15.6889 14.4C15.5685 14.1592 15.3025 14.1026 15.1278 13.9278C15.039 13.839 14.9361 13.7389 14.9028 13.6222C14.8672 13.4979 15.5987 13.549 15.6722 13.55C16.1762 13.5568 16.6524 13.7308 17.1389 13.8389C17.5437 13.9289 17.2246 13.9219 16.9944 13.85C16.5524 13.7119 16.1059 13.6274 15.6555 13.525C15.2333 13.429 15.4538 13.4008 15.7611 13.3611C16.3483 13.2854 17.002 13.3648 17.5889 13.4111C18.2574 13.4639 18.9126 13.6201 19.5722 13.7C19.6942 13.7148 20.4083 13.9009 20.0139 13.7695C19.5223 13.6056 19.1219 13.2972 18.65 13.1111C18.5939 13.089 17.8418 12.85 18.1722 12.85C18.4583 12.85 18.7292 12.9358 19.0055 12.9972C19.4765 13.1019 19.9469 13.1809 20.4167 13.3C21.1727 13.4917 21.9258 13.6937 22.6972 13.8222C22.8936 13.855 23.0922 13.8586 23.2889 13.8889C23.43 13.9106 22.988 13.6712 22.9389 13.65C22.3593 13.4006 21.7198 13.268 21.1111 13.1111C20.8823 13.0522 20.6591 13.05 20.425 13.05C20.3086 13.05 20.0334 12.9854 20.3111 13.0028C21.0215 13.0472 21.7048 13.4047 22.4083 13.525C23.2224 13.6643 24.0272 13.8557 24.85 13.9389C25.0276 13.9569 25.7355 14.0822 25.3889 13.8C25.197 13.6438 24.9904 13.5458 24.7778 13.4222C24.5293 13.2777 24.3434 13.0751 24.0722 12.9722C23.9911 12.9415 23.4911 12.7729 23.6583 12.5778C23.7156 12.5109 23.9282 12.5533 24.0111 12.5389C24.2962 12.4893 24.5831 12.4968 24.8722 12.5C26.2034 12.5148 27.494 13 28.8194 13C29.0202 13 28.7845 12.9522 28.7 12.9C28.4404 12.7395 28.1518 12.6005 27.8639 12.5C27.2043 12.2697 26.6134 12.0653 25.9111 12.05C25.7467 12.0464 25.6982 12 25.9028 12C26.1635 12 26.4241 12.0349 26.6833 12.0611C27.5743 12.1511 28.4337 12.4184 29.3222 12.525C30.0801 12.616 30.8346 12.6888 31.5944 12.7472C31.9824 12.7771 31.838 12.7597 31.5778 12.6389C31.1192 12.426 30.5877 12.2867 30.0889 12.2111C29.9864 12.1956 29.1777 12.1244 29.6028 12.1528C30.1003 12.186 30.6166 12.375 31.1055 12.475C31.736 12.604 32.383 12.6893 33.0222 12.7611C33.3249 12.7951 33.648 12.9 33.95 12.9C34.091 12.9 34.0917 12.7019 33.975 12.65C33.6704 12.5146 33.3707 12.3702 33.05 12.2722C32.5566 12.1215 32.0791 12.0652 31.5778 11.95C30.5212 11.7073 29.3947 11.6911 28.3278 11.875C28.044 11.9239 27.7093 11.9867 27.4528 12.1278C27.1219 12.3098 27.0533 12.7433 26.9 13.05" stroke="#A46F3F" stroke-width="3" stroke-linecap="round"/>
<path d="M4.70001 19.05C6.52981 19.05 8.34958 18.7347 10.125 18.325C11.351 18.0421 12.5945 17.9004 13.8389 17.7C15.153 17.4884 16.4556 17.1818 17.7833 17.0611C19.8298 16.8751 21.9122 16.808 23.95 16.525C24.4155 16.4603 24.8847 16.3716 25.3389 16.25C25.9062 16.0982 26.5119 16.0698 27.0722 15.9C28.0523 15.603 29.105 15.591 30.0945 15.3083C30.4063 15.2192 30.6426 15.0736 30.9722 15.0472C31.279 15.0227 31.619 14.9355 31.9278 14.8889C32.3566 14.8242 32.783 14.6371 33.1889 14.5111C33.27 14.486 33.9814 14.1262 34.05 14.2806C34.1766 14.5654 34.3569 15.1382 33.9945 15.3194C33.7336 15.4499 33.3783 15.4337 33.1 15.5222C32.7724 15.6265 32.423 15.7075 32.0889 15.8C31.1157 16.0695 30.0692 15.991 29.0778 16.15C28.4679 16.2478 27.8749 16.4082 27.2695 16.5194C26.6814 16.6275 26.1276 16.6859 25.55 16.8611C24.6421 17.1365 23.4838 17.4613 22.55 17.15" stroke="#A46F3F" stroke-width="3" stroke-linecap="round"/>
<path d="M6.5 9.04999C7.26886 9.02737 8.03203 8.92565 8.8 8.89721C9.60385 8.86744 10.4283 8.77496 11.2222 8.64999C12.9263 8.38175 14.669 8.36649 16.3778 8.09999C17.2349 7.9663 18.1374 7.8618 19.0028 7.79999C19.8369 7.74041 20.6649 7.5662 21.5 7.48888C22.5291 7.39359 23.5452 7.16769 24.5778 7.09999C25.5434 7.03667 26.5033 6.92388 27.4667 6.83888C28.1598 6.77772 28.834 6.69492 29.5222 6.59999C29.9756 6.53745 30.4539 6.56431 30.8889 6.39999C31.2336 6.26977 31.5347 6.07095 31.8972 5.97499C32.3526 5.85445 32.8025 5.72852 33.2389 5.54999C33.5842 5.40871 33.8285 5.09847 33.9611 4.79999C34.0389 4.62489 34.0796 4.55488 33.8778 4.49721C33.649 4.43184 33.4471 4.33529 33.2 4.29999" stroke="#A46F3F" stroke-width="3" stroke-linecap="round"/>
<path d="M24.2 11.65C24.0123 11.5201 23.7394 11.55 23.5222 11.55C23.2291 11.55 22.9127 11.5155 22.6222 11.5556C22.2609 11.6054 21.9151 11.8263 21.575 11.9472C21.1447 12.1002 20.7841 12.2781 20.4 12.525C19.1578 13.3236 18.0891 14.3824 16.9 15.2472C16.6614 15.4208 16.433 15.5776 16.45 15.9C16.467 16.2236 17.6892 16.1 17.8722 16.1C19.1506 16.1 20.5151 16.1753 21.7611 15.8389C21.8554 15.8134 22.6637 15.5732 22.5667 15.45C22.4437 15.294 22.0797 15.2027 21.9 15.1" stroke="#A46F3F" stroke-width="3" stroke-linecap="round"/>
<path d="M19.4 5.84999C19.1272 5.84999 19.1083 5.754 19.4 5.7111C19.7818 5.65495 20.1539 5.57816 20.5389 5.53888C20.9524 5.49668 21.3651 5.38233 21.7722 5.29999C22.0621 5.24136 22.3951 5.20291 22.65 5.04999" stroke="#A46F3F" stroke-width="3" stroke-linecap="round"/>
<path d="M21.5 2.5C20.4922 2.5 19.5361 2.82869 18.5445 2.97222C16.7348 3.23415 14.903 3.3995 13.1 3.7" stroke="#A46F3F" stroke-width="3" stroke-linecap="round"/>
<path d="M8.09999 5.5C6.61187 5.96183 5.11639 6.4001 3.64999 6.95" stroke="#A46F3F" stroke-width="3" stroke-linecap="round"/>
<path d="M2.74999 10.35C3.25721 10.35 3.74896 10.3 4.26111 10.3C4.67527 10.3 5.08485 10.158 5.49999 10.15C6.03604 10.1397 6.56907 10.1383 7.09999 10.0611C7.96733 9.93494 8.92258 10.05 9.79999 10.05C10.2828 10.05 10.7721 9.99999 11.2611 9.99999C11.8598 9.99999 12.4981 10.0394 13.0889 9.93887C13.6644 9.84091 14.253 9.79839 14.8333 9.73887C15.5461 9.66577 16.2815 9.7287 16.9889 9.63887C18.2023 9.48478 19.4537 9.52007 20.6611 9.28887C21.8963 9.05234 23.1424 8.97457 24.3889 8.8111C25.3567 8.68416 26.3246 8.56911 27.3 8.54999C27.6889 8.54236 28.0784 8.41416 28.4611 8.39999C28.784 8.38803 29.0869 8.25893 29.4 8.24999C29.6368 8.24322 29.8631 8.11315 30.1 8.09999C30.2656 8.09078 30.5501 8.07771 30.7 8.0111C30.8871 7.92795 31.1595 7.97313 31.3611 7.9111C31.569 7.84714 31.8403 7.72329 32.05 7.69999C32.1487 7.68902 32.2406 7.56839 32.35 7.55276C32.4921 7.53246 32.5247 7.53069 32.65 7.4611C32.8356 7.35797 33.0602 7.31879 33.25 7.23887C33.3892 7.18025 33.6874 7.09037 33.7889 6.98887C33.8399 6.93785 33.9667 6.8805 34 6.82221C34.0343 6.76224 34.1017 6.64825 34.15 6.59999C34.2439 6.50604 34.258 6.54564 34.325 6.42499C34.3775 6.33048 34.4403 6.24721 34.4889 6.14999C34.5504 6.02696 34.6 6.03371 34.6 5.87776C34.6 5.78279 34.6345 5.67321 34.7 5.59999C35.1722 5.07225 35.1 4.20048 35.1 3.49999C35.1 3.0041 35.115 2.66498 34.75 2.29999C34.6707 2.22066 34.6213 2.03602 34.5222 1.99999C34.4051 1.9574 34.2924 1.87038 34.1889 1.79999C33.9556 1.64136 33.742 1.55471 33.4611 1.4611C32.9099 1.27736 32.4041 1.01378 31.8111 0.999985C31.5377 0.993627 31.1728 0.895212 30.9111 0.811096C30.5181 0.684773 30.0996 0.695231 29.7 0.611096C29.301 0.527098 28.8072 0.599985 28.4 0.599985C27.9833 0.599985 27.5667 0.599985 27.15 0.599985C26.0245 0.599985 24.8519 0.655119 23.75 0.899985C23.3926 0.97941 23.04 0.980808 22.6778 1.00276C22.3212 1.02437 21.97 1.11363 21.6167 1.1611C20.8726 1.26105 20.133 1.38892 19.3889 1.48887C18.4966 1.60873 17.6252 1.76191 16.7389 1.92221C15.9828 2.05894 15.223 2.12982 14.4667 2.29999C13.7176 2.46852 12.9461 2.47383 12.2 2.64999C11.4273 2.83243 10.6591 2.95027 9.87222 3.0611C9.36928 3.13193 8.74183 3.24691 8.27222 3.44999C8.08276 3.53191 7.90233 3.52782 7.70277 3.55276C7.56454 3.57004 7.41972 3.66437 7.28888 3.7111C6.87065 3.86047 6.47145 4.01846 6.04999 4.13887C5.85142 4.19561 5.66872 4.24315 5.47777 4.32499C5.38682 4.36396 5.2972 4.41243 5.21111 4.4611C5.05106 4.55156 4.88246 4.5501 4.72222 4.62221C4.36085 4.78482 3.91669 4.92755 3.58888 5.14999C3.2208 5.39976 2.87502 5.66908 2.52222 5.93887C2.20083 6.18464 1.92702 6.52507 1.68333 6.84999C1.53893 7.04252 1.14999 7.22265 1.14999 7.49999C1.14999 7.98202 1.04663 8.58816 1.28888 8.99999C1.49863 9.35656 1.57412 9.71945 1.99999 9.9111C2.43708 10.1078 2.82641 9.99999 3.24999 9.99999" stroke="black" stroke-linecap="round"/>
<path d="M2.95001 9.95001C3.08839 9.94136 3.2282 9.8332 3.36112 9.7889C3.65269 9.69171 4.03629 9.56346 4.3389 9.55001C4.82821 9.52826 5.35645 9.30976 5.82779 9.17778C6.62773 8.9538 7.48802 8.95932 8.27779 8.67501C8.90176 8.45038 9.5944 8.38138 10.2111 8.16112C10.9231 7.90682 11.7194 7.91701 12.45 7.75001C12.9758 7.62983 13.5877 7.5648 14.1278 7.55001C14.6849 7.53474 15.2476 7.35845 15.8028 7.30001C18.5192 7.01406 21.2446 6.61065 23.9028 5.99723C25.0011 5.74377 26.0989 5.53903 27.1806 5.22501C27.8871 5.01987 28.6201 4.82085 29.3389 4.66112C29.685 4.5842 30.1319 4.53956 30.45 4.3889C30.6601 4.2894 30.9759 4.2797 31.1278 4.12778C31.2514 4.00418 31.5533 3.95083 31.6028 3.77778C31.667 3.55319 32.2921 3.49523 32.4611 3.43889C32.7817 3.33202 33.0586 3.11755 33.375 3.04723C33.5955 2.99823 33.7073 2.69638 33.9 2.60001" stroke="black" stroke-linecap="round"/>
<path d="M21.5 7.15001C21.6815 6.9887 21.9059 7.09593 22.125 7.04724C22.4156 6.98266 22.7207 7.00001 23.025 7.00001C23.3081 7.00001 23.5666 7.05001 23.85 7.05001C24.1308 7.05001 24.3915 7.15001 24.6611 7.15001C25.2317 7.15001 25.7753 7.55001 26.35 7.55001C26.6687 7.55001 26.9441 7.55498 27.2389 7.66113C27.4836 7.74923 27.6331 7.85001 27.9 7.85001" stroke="black" stroke-linecap="round"/>
<path d="M28.9 5.79999C29.5244 5.79999 30.2097 5.9693 30.7722 6.22499C31.0631 6.35721 31.4472 6.61016 31.6528 6.84999C31.7719 6.989 31.9441 7.09408 32.075 7.22499C32.1818 7.33176 32.2888 7.49999 32.45 7.49999" stroke="black" stroke-linecap="round"/>
<path d="M28.65 5.40001C28.5724 5.40001 28.5219 5.37878 28.45 5.35001" stroke="black" stroke-linecap="round"/>
<path d="M1.85 20.3C1.57985 20.3 1.33876 19.7311 1.22778 19.525C1.17278 19.4229 1.15324 19.3133 1.15 19.2C1.1455 19.0423 1.02345 18.9447 1.00278 18.8C0.962468 18.5178 0.97473 18.2283 0.911114 17.95C0.828542 17.5887 0.880678 16.8404 1.125 16.5472C1.1988 16.4587 1.2808 16.3372 1.35 16.2389C1.4362 16.1164 1.56326 16.0576 1.65 15.9389C1.88452 15.618 2.36516 15.4579 2.70278 15.2722C3.50233 14.8325 4.43728 14.679 5.28889 14.35C5.71896 14.1838 6.21607 14.14 6.62778 13.95C6.97648 13.7891 7.42332 13.5978 7.80556 13.55C8.41743 13.4735 9.01828 13.2514 9.62222 13.125C10.3865 12.965 11.1446 12.7922 11.9111 12.65C12.6759 12.5081 13.4419 12.4312 14.2056 12.275C14.7861 12.1563 15.3702 12.0963 15.95 11.9889C16.4388 11.8984 16.9109 11.7235 17.4 11.6389C17.8194 11.5663 18.2546 11.5243 18.6528 11.375C19.311 11.1282 19.9992 11.0983 20.6722 10.9389C21.4826 10.747 22.3361 10.55 23.175 10.55C23.573 10.55 23.9639 10.45 24.3611 10.45C24.7348 10.45 25.1469 10.433 25.5222 10.3972C26.9847 10.2579 28.4589 10.25 29.9389 10.25C30.4901 10.25 31.0411 10.3 31.6 10.3C32.1351 10.3 32.8222 10.3316 33.325 10.525C33.8283 10.7186 34.4322 10.854 34.85 11.2278C35.019 11.379 35.2693 11.4592 35.4278 11.6C35.5584 11.7161 35.6505 11.8505 35.775 11.975C35.8731 12.0731 36.0612 12.1129 36.0972 12.275C36.1427 12.4797 36.35 12.5507 36.35 12.75C36.35 12.9444 36.45 13.123 36.45 13.325C36.45 13.553 36.3772 13.7944 36.25 13.9889C36.1297 14.1729 36.1462 14.4461 36.0389 14.65C35.9196 14.8767 35.7689 15.0171 35.625 15.225C35.4666 15.4539 35.2279 15.6431 35.0444 15.8528C34.9298 15.9838 34.7683 16.0317 34.65 16.15C34.5324 16.2676 34.48 16.4225 34.3111 16.4889C34.0571 16.5887 33.8365 16.7526 33.6 16.8778C33.3186 17.0268 32.9697 17.1075 32.6694 17.225C31.7934 17.5678 30.8765 17.6595 29.9722 17.8778C28.7927 18.1625 27.5241 18.2742 26.3222 18.4389C25.7788 18.5133 25.2253 18.5848 24.6778 18.6C23.9431 18.6204 23.2149 18.7705 22.4806 18.7972C20.8013 18.8583 19.1239 19.05 17.4389 19.05C15.812 19.05 14.1919 19.2155 12.5722 19.3611C11.0951 19.4939 9.62581 19.5912 8.15556 19.775C7.49839 19.8571 6.82332 19.8289 6.17222 19.95C5.74116 20.0302 5.30642 19.975 4.875 20.05C4.51038 20.1134 4.10473 20.0765 3.75 20.175C3.43315 20.263 3.08735 20.2879 2.76111 20.3C2.44118 20.3118 1.90027 20.6005 1.7 20.2" stroke="black" stroke-linecap="round"/>
<path d="M2.14999 20C2.22293 19.8177 2.73411 19.681 2.92777 19.65C3.2419 19.5997 3.50907 19.55 3.83055 19.55C4.68117 19.55 5.53004 19.4194 6.37222 19.3111C7.39283 19.1799 8.40392 18.8996 9.42499 18.8C9.99951 18.7439 10.5597 18.5968 11.1333 18.5389C11.7746 18.4741 12.4197 18.3331 13.05 18.2C14.2138 17.9543 15.3689 17.6726 16.55 17.525C17.1046 17.4557 17.6169 17.3122 18.1611 17.2C18.6695 17.0952 19.2041 17.0228 19.7 16.8722C21.196 16.4181 22.7956 16.3181 24.275 15.825C25.0573 15.5642 25.8417 15.3085 26.6389 15.1C27.1702 14.961 27.677 14.7893 28.2028 14.625C28.802 14.4377 29.4719 14.3318 30.0889 14.2111C30.521 14.1266 30.9456 13.9747 31.375 13.9C31.5702 13.866 31.7317 13.7379 31.9222 13.6889C32.1339 13.6345 32.3778 13.5473 32.5778 13.45C32.9362 13.2756 33.2892 13.1288 33.6472 12.9722C33.9625 12.8343 34.2823 12.7319 34.6 12.5889C34.8116 12.4936 35.08 12.355 35.3 12.3" stroke="black" stroke-linecap="round"/>
<path d="M24.15 16.35C24.3031 16.35 24.2842 16.4473 24.3805 16.5222C24.4963 16.6123 24.5769 16.6122 24.6611 16.75C24.8062 16.9874 25.2847 17.15 25.5472 17.15C26.0296 17.15 26.5199 17.1122 26.9917 17.2222C27.1536 17.26 27.3347 17.2917 27.5 17.3C27.6418 17.3071 27.656 17.45 27.8 17.45" stroke="black" stroke-linecap="round"/>
<path d="M28.8 15.15C29.3346 15.2213 30.1712 15.4038 30.6 15.7611C30.9532 16.0555 31.6 16.6992 31.6 17.2" stroke="black" stroke-linecap="round"/>
</svg>
