<svg width="32" height="20" viewBox="0 0 32 20" fill="none" xmlns="http://www.w3.org/2000/svg">
<path d="M1.50001 9.85001C2.1079 9.63117 2.52973 8.94624 3.02501 8.55001C3.0978 8.49178 3.16621 8.37887 3.25279 8.35001C3.39488 8.30265 3.57766 8.24661 3.67223 8.12501C3.77875 7.98807 3.94388 7.79198 4.12223 7.75001C4.41511 7.6811 4.58858 7.39095 4.84723 7.27779C5.0497 7.18921 5.18741 7.10489 5.37501 6.97501C5.54553 6.85696 5.7263 6.77839 5.90001 6.67223C6.05742 6.57604 6.13948 6.4332 6.27501 6.32779C6.41881 6.21595 6.59377 6.20626 6.72501 6.07501C6.86116 5.93886 7.0651 5.82577 7.22779 5.72223C7.44753 5.5824 7.67895 5.46288 7.90001 5.32779C7.9988 5.26742 8.14207 5.27287 8.22779 5.20001C8.32409 5.11816 8.40731 5.03408 8.52501 4.97779C9.35234 4.58211 10.2244 4.24061 11.0556 3.82501C11.4409 3.63234 11.9034 3.61049 12.2778 3.37223C12.5681 3.18752 13.032 3.08647 13.3583 2.97223C14.2637 2.65535 15.1746 2.33067 16.0972 2.10001C16.463 2.00858 16.8461 1.85141 17.2 1.72501C17.6502 1.56422 18.1492 1.49753 18.6 1.32223C19.0478 1.14808 19.6255 1.07058 20.1 1.00279C20.4652 0.95062 20.8307 0.893823 21.2 0.85279C22.301 0.730463 23.6728 0.718804 24.5 1.50001C24.6761 1.66636 24.8853 1.73532 25.05 1.90001C25.1278 1.97782 25.2081 2.13485 25.3 2.1889C25.4253 2.26258 25.535 2.32061 25.6111 2.45001C25.7392 2.66774 26.0141 2.77531 26.1389 3.00001C26.2127 3.13289 26.2692 3.22393 26.4 3.31112C26.5425 3.40615 26.6245 3.66218 26.75 3.7389C26.9414 3.85589 27.0009 3.96108 27.15 4.12779C27.2614 4.25223 27.4034 4.3461 27.4889 4.50001C27.6226 4.74059 27.9029 4.90529 28.0389 5.15001C28.1607 5.36931 28.4399 5.57101 28.5611 5.80001C28.6735 6.01224 28.8337 6.18956 28.9389 6.40001C28.9884 6.49903 29.0551 6.6796 29.15 6.7389C29.2301 6.78895 29.2025 6.91566 29.2611 6.9889C29.3763 7.13282 29.4482 7.29769 29.5611 7.4389C29.6958 7.60724 30.0696 8.30261 29.8611 8.51112C29.7116 8.6606 29.6072 8.72377 29.425 8.82501C29.3234 8.88148 29.2325 8.95225 29.125 9.00001C29.0251 9.04441 28.7961 9.05944 28.7278 9.12779C28.5369 9.31869 28.1535 9.23447 27.9 9.32501C27.6325 9.42055 27.3239 9.43674 27.075 9.57501C26.935 9.65281 26.5858 9.75001 26.425 9.75001C26.098 9.75001 25.7323 9.85684 25.425 9.97501C25.0227 10.1297 24.4814 10.2493 24.05 10.2972C23.7865 10.3265 23.5515 10.4481 23.2972 10.5222C23.0506 10.5942 22.7017 10.7244 22.45 10.7472C21.8249 10.8041 21.2283 11.1068 20.6195 11.25C20.3114 11.3225 20.0234 11.4316 19.7222 11.525C19.38 11.6312 18.9985 11.7035 18.675 11.8472C17.6832 12.288 16.5185 12.4702 15.6445 13.15C15.437 13.3113 15.1304 13.387 14.9 13.5278C14.6889 13.6568 14.4465 13.7972 14.25 13.95C13.8722 14.2439 13.4168 14.5722 13 14.7806C12.6187 14.9712 12.3177 15.3667 11.9472 15.575C11.7729 15.6731 11.5114 15.8031 11.375 15.95C11.2014 16.1369 10.9308 16.1823 10.775 16.35C10.4461 16.7042 9.94601 17.028 9.5389 17.2722C9.36877 17.3743 9.23659 17.5687 9.06112 17.6389C9.00487 17.6614 8.75652 17.7631 8.75001 17.8C8.73178 17.9033 8.29781 18.1018 8.1889 18.1889C8.0905 18.2676 7.72969 18.35 7.60001 18.35C6.74899 18.35 6.2276 17.57 5.86112 16.8778C5.65808 16.4943 5.21721 15.9583 5.20001 15.5111C5.19388 15.3518 4.86835 15.0331 4.75001 14.9C4.66599 14.8055 4.55277 14.665 4.4889 14.55C4.40332 14.396 4.20032 14.3379 4.11112 14.2C3.8859 13.8519 3.49111 13.5872 3.25001 13.2389C3.12433 13.0574 2.82211 12.8851 2.76112 12.6778C2.6994 12.4679 2.59205 12.3157 2.45001 12.15C2.33326 12.0138 2.27102 11.7642 2.1889 11.6C2.08776 11.3977 1.88888 11.1778 1.7389 11.0111C1.59283 10.8488 1.45001 10.6729 1.45001 10.45" stroke="#FB7800" stroke-linecap="round"/>
<path d="M8.20001 18.75C8.74712 18.75 9.30387 18.7803 9.85001 18.75C10.427 18.7179 11.0466 18.6947 11.5722 18.4611C11.8059 18.3573 12.1452 18.4027 12.375 18.275C12.4692 18.2227 12.6859 18.3052 12.75 18.225C12.7767 18.1917 13.0977 18.1529 13.15 18.15C13.6212 18.1238 14.0609 17.75 14.55 17.75C14.8255 17.75 15.0722 17.6 15.325 17.6C15.4282 17.6 15.569 17.5208 15.675 17.4972C15.8089 17.4675 15.926 17.4162 16.05 17.3611C16.2545 17.2702 16.5942 17.2 16.825 17.2C17.1294 17.2 17.4437 16.967 17.75 16.95C17.9173 16.9407 18.0787 16.8586 18.2389 16.8111C18.3977 16.7641 18.6358 16.8023 18.775 16.725C18.8519 16.6823 19.1324 16.65 19.225 16.65C19.3743 16.65 19.5928 16.5822 19.7389 16.5389C20.1416 16.4196 20.5844 16.3566 21 16.2972C21.2077 16.2675 21.675 16.27 21.8389 16.1389C21.9907 16.0175 22.3317 16.0517 22.5222 15.9972C22.7484 15.9326 22.9996 15.8639 23.25 15.85C23.8352 15.8175 24.369 15.5112 24.95 15.45C25.1187 15.4322 25.2556 15.3368 25.4111 15.2889C25.6953 15.2014 25.9853 15.0616 26.275 14.9972C26.3842 14.9729 26.5865 14.8911 26.675 14.8222C26.8038 14.7221 26.9528 14.7625 27.1 14.6889C27.5573 14.4602 28.0396 14.2935 28.5 14.0889C28.7267 13.9881 28.9546 13.8775 29.1778 13.75C29.3566 13.6478 29.467 13.35 29.5611 13.1722C29.8184 12.6862 29.9133 12.1076 30.1389 11.6C30.1844 11.4976 30.1651 11.2972 30.25 11.2389C30.316 11.1935 30.4 10.9033 30.4 10.825C30.4 10.5853 30.5 10.3162 30.5 10.05C30.5 9.8169 30.5615 9.46728 30.45 9.27222C30.3489 9.09532 30.05 8.87999 30.05 8.64999" stroke="#FB7800" stroke-linecap="round"/>
<path d="M2.29999 9.94999C2.47517 9.96946 2.60016 10.16 2.74999 10.2389C2.95288 10.3457 3.081 10.4979 3.24999 10.65C3.44177 10.8226 3.65767 10.9678 3.84999 11.15C4.04408 11.3339 4.22036 11.5491 4.42499 11.7222C4.66015 11.9212 4.89046 12.1674 5.09721 12.4C5.34974 12.6841 5.59591 12.9705 5.84999 13.2528C6.12045 13.5533 6.39683 13.8817 6.64443 14.2C6.73755 14.3197 6.85061 14.4705 6.92499 14.6028C6.99776 14.7321 7.13719 14.8216 7.18888 14.9611C7.44183 15.6441 7.9582 16.2491 8.57221 16.6C8.73027 16.6903 8.78776 16.7529 8.87777 16.5472C9.00452 16.2575 9.13588 15.9806 9.22221 15.6722C9.30299 15.3837 9.34999 14.9721 9.34999 14.6722C9.34999 14.3496 9.25809 14.066 9.24999 13.75C9.23042 12.9867 8.83078 12.2753 8.54999 11.5889C8.40187 11.2268 8.19809 10.8899 7.98888 10.5611C7.82313 10.3006 7.56951 10.1943 7.32499 10.025C7.04101 9.82839 6.79934 9.49415 6.47499 9.34999C6.35922 9.29854 6.24466 9.17937 6.12499 9.15277C6.00534 9.12618 5.77546 9.0594 5.7111 8.94999C5.61596 8.78825 5.59449 8.71429 5.59999 8.99999C5.6071 9.37007 5.68737 9.8435 5.84999 10.1778C6.09228 10.6758 6.42819 11.2782 6.82221 11.6722C7.08473 11.9347 6.80191 11.2282 6.77499 11.1444C6.63606 10.7122 6.41399 10.3229 6.33888 9.87222C6.29331 9.59883 6.19588 9.06493 6.34999 8.8111C6.44708 8.65118 6.62715 8.48888 6.69999 8.32499C6.77388 8.15873 6.9312 8.07197 6.99999 7.89999C7.03907 7.80228 7.10435 7.60119 7.17777 7.52777C7.28273 7.42281 8.75963 9.29138 8.88888 9.44999C9.40566 10.0842 9.84989 10.8086 10.2 11.55C10.4491 12.0776 10.6381 12.6373 10.925 13.1472C10.9678 13.2232 11.1831 13.7705 11.275 13.7194C11.4986 13.5952 11.6638 13.3529 11.8028 13.1444C11.9577 12.912 12.0487 12.6481 12.2222 12.425C12.3601 12.2477 12.3 11.9008 12.3 11.7C12.3 10.7428 11.8842 9.92904 11.3389 9.14999C11.1362 8.8604 10.9693 8.53449 10.7722 8.23888C10.6614 8.07273 10.5836 7.80604 10.3778 7.74722C10.2864 7.72112 10.1855 7.49923 10.1278 7.42499C10.0362 7.30729 9.95648 7.18335 9.87221 7.07499C9.40645 6.47615 10.2654 6.41686 10.6778 6.51111C11.4266 6.68226 11.8774 7.2947 12.2722 7.93888C12.5964 8.46781 13.0145 8.91491 13.3 9.47777C13.4969 9.86596 13.7205 10.2477 13.975 10.6C14.1229 10.8048 14.2516 10.9809 14.3778 11.1972C14.4264 11.2806 14.565 11.4944 14.675 11.4944C14.8155 11.4944 14.9963 10.8468 15.0528 10.7528C15.2383 10.4436 15.3418 10.0231 15.35 9.66111C15.3658 8.96635 14.9208 8.36117 14.5055 7.83055C14.1845 7.42038 13.8614 7.01139 13.5 6.64999C13.3311 6.4811 13.2111 6.30116 13.0722 6.1111C12.9674 5.96762 12.7996 5.84155 12.7111 5.69999C12.6217 5.55698 12.2323 5.26577 12.6278 5.15277C13.0267 5.03878 13.5391 5.14934 13.8305 5.40277C14.7079 6.16569 15.3367 7.29608 15.7611 8.37222C16.1327 9.31457 16.6795 10.65 17.875 10.65C18.4913 10.65 17.7732 8.84705 17.6972 8.64444C17.5214 8.17551 17.3009 7.66261 17.05 7.23055C16.7794 6.76455 16.6403 6.26113 16.3111 5.82222C16.1481 5.60491 15.9084 5.46862 15.75 5.23888C15.6128 5.03998 15.4561 4.87017 15.3111 4.68888C15.0968 4.42098 16.2998 4.30921 16.4583 4.38055C16.8674 4.56465 17.2414 5.05674 17.5278 5.38888C17.9972 5.93341 18.3483 6.64984 18.6972 7.27499C18.9435 7.71635 19.226 8.05222 19.5222 8.44722C19.6948 8.67732 19.8539 8.96155 20.0611 9.16111C20.1331 9.2304 20.7016 9.79826 20.7389 9.72777C20.799 9.61414 20.7477 9.3744 20.75 9.24999C20.7534 9.06421 20.7838 8.86196 20.8111 8.67777C20.9045 8.04742 20.7323 7.54586 20.4 6.99999C20.0421 6.41203 19.5666 5.84517 19.1472 5.29999C18.7623 4.79962 18.3287 4.38984 18.0111 3.84999C17.9648 3.77131 17.8831 3.60076 18 3.53888C18.3318 3.36324 18.4735 3.45827 18.7944 3.69166C19.2689 4.03672 19.6344 4.59643 19.9472 5.09166C20.4759 5.9288 21.1068 6.69785 21.6611 7.51944C21.946 7.94168 22.3391 8.24104 22.6694 8.62222C22.7814 8.75138 22.9113 8.83284 23.0722 8.89722C23.193 8.94555 23.2383 9.05525 23.35 9.1111C23.5243 9.19827 23.7079 8.77823 23.8611 8.64999C24.2335 8.33822 24.2945 7.90791 24.3 7.44444C24.3064 6.90507 24.2176 6.53096 23.8722 6.1111C23.6893 5.88875 23.5623 5.75689 23.3333 5.57222C23.1272 5.40597 22.886 5.29018 22.6778 5.12499C22.0912 4.65977 21.427 4.17542 21.1 3.48055C21.0223 3.31538 20.85 3.11824 20.85 2.92499C20.85 2.78654 21.1007 2.84999 21.25 2.84999C22.1239 2.84999 23.0485 3.4104 23.6389 4.04999C23.9862 4.42631 24.4449 4.67182 24.7611 5.08888C25.1385 5.58677 25.6073 5.96284 26.0444 6.39999C26.5112 6.86673 27.0084 7.61312 27.6722 7.80277C27.9116 7.87118 27.7342 7.52606 27.7 7.38055C27.6531 7.18128 27.4953 7.01261 27.3778 6.85277C27.2018 6.61341 27.0839 6.3461 26.9 6.1111C26.6831 5.83392 26.4201 5.48962 26.2611 5.17777C26.1089 4.87916 25.9101 4.52994 25.6167 4.33888C25.2374 4.09194 24.8526 3.83565 24.4389 3.64999C23.7969 3.36193 23.1735 3.19476 22.4944 3.02499C21.6425 2.81201 20.7514 2.84999 19.8805 2.84999C19.4656 2.84999 19.3962 2.80456 19.2778 3.24444C19.075 3.99748 19.5013 4.35532 20.0111 4.82222C20.7623 5.5102 21.4204 6.28965 22.15 6.99999C22.5479 7.38741 23.2321 8.05289 23.8305 8.09722C24.06 8.11421 24.2949 8.09999 24.525 8.09999C24.7974 8.09999 25.0351 8.23147 25.3028 8.24722C25.6339 8.2667 25.9494 8.24945 26.2 8.49999" stroke="#FB7800" stroke-width="3" stroke-linecap="round"/>
<path d="M28.7 11C28.7 10.4543 28.7508 12.131 28.525 12.6278C28.4242 12.8495 28.4383 12.6143 28.4611 12.4889C28.5153 12.1909 28.5952 11.9003 28.6389 11.6C28.6977 11.1959 28.7 10.7628 28.7 10.3528C28.7 10.2562 28.7344 10.086 28.6889 10C28.6077 9.84668 28.4739 10.2545 28.45 10.3111C28.1977 10.9086 27.7915 11.4277 27.525 12.0222C27.3328 12.4509 27.189 12.9053 27.0389 13.3389C26.8601 13.8555 27.1174 13.2821 27.1722 13.0472C27.2574 12.6823 27.2449 12.2246 27.25 11.85C27.251 11.773 27.2535 11.1421 27.1389 11.2611C26.908 11.5009 26.7926 11.9269 26.6472 12.225C26.4585 12.6118 26.1545 12.9928 25.8778 13.3222C25.7272 13.5015 25.6939 13.6761 25.7 13.3889C25.709 12.9634 25.7 12.5367 25.7 12.1111C25.7 11.9958 25.7713 11.3552 25.6694 11.6833C25.5057 12.211 25.3133 12.7275 25.1444 13.2528C24.995 13.7177 24.8263 14.2847 24.6 14.7167C24.5606 14.7919 24.4713 15.0307 24.5111 14.9556C24.5884 14.8095 24.6161 14.6205 24.65 14.4611C24.7485 13.9974 24.7275 13.4762 24.7472 13.0028C24.7551 12.8135 24.8244 12.243 24.6944 12.0806C24.6323 12.0029 24.2707 12.9067 24.25 12.9611C24.0602 13.4607 23.7402 13.9087 23.4611 14.3611C23.3268 14.5788 23.2635 14.8434 23.325 14.45C23.4009 13.9641 23.45 13.4952 23.45 13.0028C23.45 12.9425 23.3547 12.2127 23.3111 12.2611C23.2514 12.3274 23.228 12.503 23.1944 12.5833C23.0867 12.8407 22.9517 13.0826 22.825 13.3306C22.576 13.8178 22.3831 14.3444 22 14.75C21.9484 14.8047 21.4242 15.3938 21.4611 15.2278C21.5488 14.833 21.6309 14.4582 21.6472 14.05C21.6577 13.7867 21.65 13.5218 21.65 13.2583C21.65 13.1901 21.6909 12.9442 21.6444 12.8861C21.6025 12.8337 21.1142 13.6985 21.0889 13.7389C20.8203 14.1677 20.5364 14.6666 20.1889 15.0389C19.9633 15.2805 20.069 15.1468 20.1 14.9222C20.1636 14.4608 20.2469 14.022 20.1722 13.5528C20.1498 13.4121 20.1216 12.9338 19.9 13.1111C19.7308 13.2465 19.6566 13.4968 19.55 13.6778C19.3926 13.945 19.2544 14.2272 19.0889 14.4889C18.853 14.8617 18.5433 15.1676 18.2528 15.4945C18.0574 15.7143 18.1542 15.075 18.1472 14.95C18.1322 14.68 17.923 13.2954 17.4 13.5722C17.1391 13.7103 16.9081 14.2476 16.7778 14.4945C16.6071 14.8179 16.3262 15.1107 16.0528 15.35C15.8406 15.5357 15.9415 15.3442 15.95 15.1778C15.9631 14.9214 16.1127 14.485 15.9 14.2722C15.784 14.1562 15.6264 14.334 15.5694 14.4083C15.2897 14.7732 15.0507 15.1263 14.6972 15.4278C14.4542 15.6351 14.2037 15.8004 13.95 15.9889C13.7472 16.1396 13.85 15.7786 13.85 15.6111C13.85 15.4737 13.7863 15.0952 13.625 15.3806C13.4708 15.6533 13.2867 15.958 13.0278 16.1445C12.73 16.3588 12.4393 16.4 12.0889 16.4C11.8556 16.4 11.5882 16.5212 11.475 16.725C11.4105 16.841 11.1977 17 11.05 17" stroke="#FB7800" stroke-width="3" stroke-linecap="round"/>
<path d="M0.950012 9.75001C0.950012 9.67226 1.30864 9.36823 1.40001 9.31112C1.46941 9.26775 1.57178 9.20921 1.65001 9.20001C1.76524 9.18645 1.8437 9.02641 1.97501 8.99723C2.22176 8.9424 2.45398 8.74825 2.67501 8.65001C2.78248 8.60224 2.92598 8.40831 3.02779 8.32501C3.16775 8.21049 3.43761 8.15194 3.5389 8.00001C3.69915 7.75963 4.01266 7.70617 4.17779 7.48889C4.30383 7.32305 4.46189 7.28813 4.60001 7.15001C4.73688 7.01314 4.86509 6.8497 5.05001 6.77778C5.41793 6.63471 5.72728 6.4002 6.0889 6.26112C6.24882 6.19961 6.39759 6.11511 6.55001 6.0389C6.6327 5.99755 6.6811 5.92288 6.75557 5.87501C6.88634 5.79094 7.05078 5.79566 7.17779 5.71945C7.55589 5.49259 7.92539 5.28729 8.30279 5.07501C8.7181 4.8414 9.12591 4.71206 9.55001 4.50001C10.0358 4.25712 10.5739 4.13605 11.0889 3.9889C11.3837 3.90467 11.7803 3.81808 12.025 3.62778C12.5037 3.25548 13.178 3.09598 13.7 2.7889C13.9189 2.66013 14.1736 2.50309 14.425 2.44723C14.55 2.41946 14.6493 2.32059 14.7778 2.29723C15.0722 2.24371 15.3828 2.18674 15.6778 2.11112C16.528 1.89312 17.3267 1.69426 18.2 1.59723C18.5936 1.55349 18.9618 1.40269 19.35 1.34723C19.7312 1.29278 20.1725 1.22889 20.5389 1.11112C21.1357 0.919302 21.7089 0.738027 22.3056 0.652784C22.8145 0.580085 23.4226 0.460045 23.9222 0.602784C24.1516 0.668319 24.3722 0.963873 24.6 1.07778C24.8662 1.2109 25.0493 1.58865 25.3389 1.6889C25.897 1.88209 26.2368 2.4592 26.75 2.76112C26.9588 2.88394 27.0794 3.15166 27.2389 3.31112C27.4014 3.47364 27.6222 3.68783 27.7028 3.90278C27.7799 4.10844 27.9904 4.25766 28.125 4.42223C28.175 4.48332 28.207 4.5453 28.25 4.61112C28.3123 4.70634 28.4449 4.76577 28.4889 4.86112C28.5242 4.9377 28.6729 5.19071 28.75 5.23889C28.9372 5.35589 29.123 5.85495 29.1889 6.03056C29.3193 6.37833 29.4756 6.71316 29.6722 7.02223C29.7305 7.11375 29.8173 7.31872 29.85 7.42501C29.9026 7.59578 30.0463 7.70787 30.1111 7.86112C30.2276 8.13639 30.3977 8.38164 30.5389 8.65001C30.667 8.89331 30.6942 9.06146 30.7528 9.32501C30.8669 9.83862 30.9 10.3071 30.9 10.85C30.9 11.4718 30.5301 12.0573 30.2889 12.6C30.1719 12.8633 30.0696 13.1164 29.9389 13.3778C29.8746 13.5064 29.7575 13.8727 29.6222 13.95C29.5031 14.0181 29.4086 14.2175 29.275 14.2472C29.1039 14.2853 28.9447 14.3893 28.7778 14.45C28.5556 14.5308 28.357 14.6516 28.125 14.7222C27.8811 14.7965 27.6036 14.8272 27.35 14.8889C26.8035 15.0218 26.266 15.1991 25.7222 15.3389C25.4979 15.3966 25.2844 15.4803 25.0722 15.5778C24.8061 15.7001 24.5403 15.6875 24.2778 15.775C23.8249 15.926 23.2369 16.116 22.7611 16.15C22.1254 16.1954 21.4098 16.2837 20.8 16.4778C20.0169 16.727 19.1789 16.7167 18.3861 16.9222C17.6306 17.1181 16.8334 17.1248 16.0778 17.3C15.725 17.3818 15.3714 17.3898 15.0278 17.5C14.7036 17.604 14.349 17.6882 14.0111 17.7389C13.3434 17.8391 12.6421 17.9451 11.9945 18.125C11.4682 18.2712 10.9158 18.2882 10.3778 18.375C9.98778 18.4379 9.53749 18.6 9.15001 18.6C8.47985 18.6 7.53658 18.8643 7.01112 18.3389C6.49131 17.8191 5.77254 17.504 5.37501 16.7972C5.15145 16.3998 5.11472 15.9017 4.80001 15.55C4.65243 15.3851 4.60526 15.1612 4.4389 14.9889C4.26204 14.8057 4.10403 14.604 3.92501 14.425C3.77578 14.2758 3.73283 14.0882 3.64723 13.9028C3.54974 13.6916 3.31977 13.5121 3.25001 13.3028C3.07334 12.7728 2.59063 12.441 2.30001 11.9889C2.19527 11.826 2.07466 11.6231 2.01112 11.4389C1.93984 11.2322 1.97041 10.9273 1.82501 10.7528C1.72221 10.6294 1.62119 10.4819 1.47779 10.4C1.40454 10.3581 1.22851 10.257 1.20001 10.2" stroke="black" stroke-linecap="round"/>
<path d="M7.45001 18.15C7.46345 18.0425 7.60523 17.9258 7.65001 17.825C7.70722 17.6963 7.83298 17.5207 7.92779 17.4C8.06262 17.2284 8.30338 17.1189 8.46112 16.9611C8.64108 16.7812 8.81673 16.6241 9.00001 16.45C9.32383 16.1424 9.66757 15.8536 10.0083 15.5639C10.255 15.3542 10.4337 15.1768 10.75 15.0889C10.9682 15.0283 11.3226 14.7966 11.5 14.65C11.6978 14.4867 12.1076 14.2939 12.375 14.2528C12.6507 14.2104 12.8312 14.0051 13.0528 13.85C13.5463 13.5045 14.1682 13.3167 14.6889 13.0111C15.3012 12.6517 15.9085 12.3972 16.575 12.175C17.4186 11.8938 18.2276 11.4824 19.0889 11.25C19.4595 11.15 19.8465 11.099 20.1945 10.925C20.4776 10.7835 20.7579 10.7003 21.0722 10.65C21.7827 10.5363 22.4849 10.3459 23.1889 10.2111C23.8553 10.0835 24.5675 9.75001 25.25 9.75001C25.5026 9.75001 25.744 9.63898 25.9889 9.5889C26.2323 9.53912 26.5194 9.53113 26.75 9.4389C27.1547 9.27703 27.5809 9.26266 28 9.20279C28.3314 9.15545 28.6077 9.00001 28.95 9.00001C29.4 9.00001 30.1293 8.78967 30.55 9.00001" stroke="black" stroke-linecap="round"/>
<path d="M8.45001 6.29999C8.73162 6.29999 9.00388 6.46942 9.20557 6.65277C9.59615 7.00784 10.0156 7.3417 10.375 7.72777C11.0079 8.40748 11.4471 9.20818 12.05 9.89721C12.4293 10.3307 12.6834 10.939 12.9389 11.45C13.0753 11.7227 13.2485 12.0453 13.35 12.35" stroke="white" stroke-opacity="0.5" stroke-linecap="round"/>
<path d="M14.1895 14.3319C14.1114 14.3417 14.1578 15.398 14.1578 15.5682C14.1578 15.7602 14.1895 15.9544 14.1895 16.1388C14.1895 16.214 14.1991 16.5241 14.2529 16.551" stroke="white" stroke-opacity="0.5" stroke-linecap="round"/>
<path d="M14.5699 3.36346C14.643 3.37972 14.7506 3.53711 14.8094 3.58889C15.0105 3.76587 15.1643 3.99199 15.3624 4.17359C15.8158 4.5892 16.2357 5.07208 16.6604 5.51911C17.0646 5.94462 17.4253 6.42944 17.7153 6.93859C17.9143 7.28796 18.1923 7.66208 18.3106 8.04812C18.4038 8.35242 18.5743 8.61627 18.6769 8.90932C18.7438 9.10064 18.9106 9.25675 18.9428 9.46584C18.9638 9.60232 18.9763 9.72282 18.9763 9.8621C18.9763 9.98121 19.0397 10.0946 19.0397 10.2108" stroke="white" stroke-opacity="0.5" stroke-linecap="round"/>
<path d="M19.7054 12.1763C19.907 12.4031 19.9699 12.7334 20.1034 13.0005C20.1875 13.1686 20.2134 13.3277 20.269 13.5007C20.3168 13.6496 20.4028 13.8096 20.4028 13.9674C20.4028 14.2313 20.5613 14.5 20.5613 14.7757C20.5613 14.8661 20.5754 15.4661 20.6881 15.4097" stroke="white" stroke-opacity="0.5" stroke-linecap="round"/>
<path d="M19.4201 2.34906C19.5393 2.3623 19.5852 2.53129 19.6297 2.61675C19.7154 2.78157 19.9059 2.96775 20.0295 3.10988C20.4002 3.53618 20.864 3.93562 21.1636 4.41665C21.287 4.61462 21.4658 4.77426 21.5757 4.98198C21.6918 5.20127 21.8306 5.40742 21.9562 5.62127C22.142 5.93768 22.3378 6.2424 22.5268 6.55292C22.8109 7.01974 23.0965 7.5034 23.1942 8.04109C23.2249 8.20989 23.2876 8.35026 23.2876 8.53069C23.2876 8.71267 23.3827 8.89151 23.3827 9.0696" stroke="white" stroke-opacity="0.5" stroke-linecap="round"/>
<path d="M23.985 11.2253C24.0255 11.2303 24.0599 11.6044 24.0871 11.6691C24.1416 11.7985 24.1522 11.9272 24.177 12.0636C24.2324 12.3688 24.3532 12.6765 24.3654 12.9934C24.3773 13.3036 24.4922 13.6194 24.4922 13.9357C24.4922 14.1734 24.4922 14.4112 24.4922 14.6489" stroke="white" stroke-opacity="0.5" stroke-linecap="round"/>
</svg>
