<svg width="24" height="22" viewBox="0 0 24 22" fill="none" xmlns="http://www.w3.org/2000/svg">
<path d="M10.1549 10.9376C10.2141 10.8257 10.2814 10.6759 10.3157 10.5557C10.3377 10.4787 10.4989 10.289 10.577 10.3301C10.7695 10.4315 10.8381 10.5868 10.8572 10.8069C10.8778 11.0434 10.9187 11.295 10.9187 11.5305C10.9187 11.609 11.1173 11.7974 11.2 11.8018C11.2732 11.8056 11.3039 11.7291 11.3206 11.6622C11.3381 11.5925 11.4436 11.5474 11.4602 11.4892C11.4793 11.4223 11.47 11.503 11.5015 11.5561C11.5419 11.6243 11.5522 11.7388 11.5774 11.8174C11.6256 11.9671 11.5819 12.0992 11.5819 12.244C11.5819 12.3714 11.6047 12.4651 11.4502 12.4651C11.3044 12.4651 11.1922 12.3792 11.1799 12.2194C11.1666 12.0457 11.1183 11.8828 11.1409 11.7024C11.17 11.4695 11.4229 11.4052 11.6009 11.3496C11.7329 11.3083 11.8633 11.3618 11.8633 11.1743C11.8633 11.0831 11.7912 11.0765 11.7326 11.0269C11.5841 10.9012 11.3907 10.8464 11.2213 10.7567C11.0328 10.6569 10.6838 10.5604 10.6015 10.3547C10.5492 10.2239 10.5368 10.032 10.5368 9.89243" stroke="white" stroke-linecap="round"/>
<path d="M6.53717 7.0585C6.79445 7.0585 7.0527 7.06565 7.30985 7.0585C7.57552 7.05112 7.81521 6.85863 8.0803 6.83742C8.17366 6.82995 8.1707 6.82581 8.21429 6.93791C8.24964 7.02882 8.2624 7.12442 8.29022 7.21483C8.31218 7.28621 8.33426 7.3744 8.23327 7.35887C8.1375 7.34413 8.07245 7.26045 7.98427 7.22823C7.90497 7.19925 7.84133 7.15229 7.76319 7.1188" stroke="white" stroke-linecap="round"/>
<path d="M12.6069 4.50601C12.6069 4.43231 12.6069 4.35862 12.6069 4.28492C12.6069 4.16253 12.5621 4.06848 12.5366 3.95106C12.4921 3.74618 12.4558 3.53838 12.3546 3.35033C12.3162 3.27895 12.2956 3.21225 12.2552 3.14042C12.2148 3.0686 12.179 2.99335 12.1447 2.91821C12.1311 2.8886 11.9748 2.50426 11.9683 2.50508C11.9392 2.50871 12.0572 2.7038 12.0643 2.71723C12.1224 2.82742 12.1937 2.93366 12.2742 3.02876C12.3466 3.11428 12.4462 3.27459 12.4462 3.06784C12.4462 2.93229 12.3914 2.81392 12.3457 2.6882C12.3052 2.57706 12.1576 2.49263 12.0442 2.45483C11.8741 2.39812 11.7257 2.29051 11.5573 2.23039C11.4308 2.18519 11.3029 2.1734 11.1799 2.11873C10.9303 2.00781 10.6609 2.46575 10.5468 2.61785C10.5176 2.6568 10.4396 2.86778 10.481 2.91375C10.5564 2.99763 10.7063 3.01492 10.8081 3.04885C10.952 3.09681 11.111 3.10947 11.2603 3.13483C11.4205 3.16203 11.6812 3.18502 11.803 3.30009C11.8777 3.3706 11.8357 3.25856 11.8119 3.21969C11.7489 3.11655 11.6738 3.03406 11.602 2.93831" stroke="white" stroke-linecap="round"/>
<path d="M10.0343 6.81733C10.0545 6.7165 10.3091 6.59763 10.395 6.57615C10.5714 6.53205 10.681 6.36696 10.8025 6.25011C10.9056 6.15103 10.9388 6.09418 10.9388 5.94304C10.9388 5.7822 10.8681 5.65954 10.7065 5.60137C10.499 5.52665 10.2869 5.44485 10.0745 5.38586C10.0436 5.37727 9.69489 5.20813 9.69489 5.25187C9.69489 5.48622 9.9008 5.76411 10.0589 5.92853C10.1182 5.99018 10.1919 6.13398 10.2755 6.13398" stroke="white" stroke-linecap="round"/>
<path d="M6.13519 10.7768C5.94502 10.7768 5.79352 10.8834 5.79352 11.0872C5.79352 11.2305 5.90473 11.3526 5.93533 11.4903C5.95701 11.5878 6.09781 11.6272 6.13519 11.7114C6.16093 11.7693 6.38301 11.8291 6.44784 11.8409C6.57713 11.8644 6.80651 11.859 6.92909 11.8118C7.0406 11.769 7.17082 11.7934 7.25179 11.7125C7.32929 11.635 7.44329 11.5385 7.46282 11.4311C7.47696 11.3533 7.5049 11.2562 7.46617 11.1787C7.40944 11.0653 7.25734 11.0407 7.16023 10.9733C7.09476 10.9278 7.01165 10.9291 6.93914 10.8929C6.8787 10.8627 6.82823 10.8371 6.75825 10.8371C6.63955 10.8371 6.51276 10.9416 6.44114 11.038C6.35342 11.1561 6.43082 11.3337 6.51707 11.4199C6.645 11.5479 6.8717 11.6117 7.0441 11.6455C7.16509 11.6691 7.29795 11.668 7.42151 11.6611C7.50714 11.6563 7.56333 11.6284 7.64259 11.6812" stroke="white" stroke-linecap="round"/>
<path d="M5.27096 15.1181C5.27096 14.9628 5.29106 14.8093 5.29106 14.6513C5.29106 14.4712 5.23927 14.3037 5.19057 14.1332C5.15481 14.0081 5.00448 13.8281 4.89802 13.7603C4.83556 13.7206 4.78826 13.6729 4.73723 13.6218C4.68405 13.5687 4.62065 13.5777 4.58314 13.5102C4.51076 13.3799 4.44712 13.313 4.36652 13.4789C4.27703 13.6632 4.24593 13.7975 4.24593 14.0037C4.24593 14.1408 4.34119 14.2627 4.34643 14.399C4.35128 14.5252 4.4143 14.6824 4.53625 14.7172C4.56451 14.7253 4.56834 14.7683 4.61887 14.7775C4.67281 14.7873 4.72785 14.8367 4.77966 14.8367C5.00499 14.8367 4.94003 14.6766 5.02978 14.5308C5.11468 14.3928 5.13617 14.2246 5.19504 14.0774C5.22661 13.9985 5.41619 13.9725 5.26985 13.9725C5.0599 13.9725 4.86053 13.8635 4.71825 13.7212C4.61764 13.6206 4.58328 13.5105 4.52285 13.3896C4.49327 13.3304 4.39752 13.1837 4.33414 13.1696C4.26861 13.1551 4.23498 13.1145 4.17559 13.0881C4.14152 13.073 4.02411 13.0077 4.08514 13.0077" stroke="white" stroke-linecap="round"/>
<path d="M6.47688 18.575C6.38421 18.4708 6.33259 18.353 6.25579 18.2378C6.19693 18.1495 6.15088 18.0521 6.08496 17.971C6.0311 17.9047 5.97771 17.8158 5.94985 17.7354C5.90861 17.6162 5.79907 17.4799 5.71313 17.3892C5.65243 17.3251 5.55131 17.2137 5.53224 17.1279C5.51763 17.0622 5.46799 17.0154 5.41165 16.9872" stroke="white" stroke-linecap="round"/>
<path d="M12.3256 14.5352C12.2252 14.5252 12.1388 14.495 12.0341 14.495C11.9162 14.495 11.9126 14.5261 11.8331 14.6055C11.7793 14.6593 11.7351 14.7407 11.6869 14.801C11.6625 14.8314 11.6741 14.8845 11.6578 14.9171C11.6362 14.9603 11.5903 14.9944 11.5663 15.0377C11.4713 15.2087 11.3407 15.2842 11.3407 15.4899C11.3407 15.5646 11.3443 15.6558 11.4211 15.6965C11.4932 15.7346 11.5297 15.826 11.602 15.8662C11.8012 15.9768 11.9797 15.8326 12.1346 15.7121C12.2173 15.6478 12.29 15.5846 12.3658 15.5089C12.3984 15.4762 12.4607 15.4518 12.4663 15.3994C12.478 15.2877 12.6255 15.1769 12.6628 15.0734C12.6923 14.9914 12.6975 14.8788 12.7376 14.8065C12.7741 14.7408 12.815 14.6056 12.8269 14.5341C12.8379 14.4684 12.9153 14.3183 12.8035 14.3141C12.6275 14.3076 12.4684 14.4325 12.3457 14.5553" stroke="white" stroke-linecap="round"/>
<path d="M17.9331 14.1734C17.9421 14.2453 18.1099 14.2739 18.1642 14.2739C18.2558 14.2739 18.1298 14.2193 18.0983 14.1891C18.0405 14.1334 17.9885 14.0713 17.9331 14.0126C17.9091 13.9872 17.862 13.8742 17.8237 13.8742C17.803 13.8742 17.826 13.9239 17.8449 13.9322C17.9002 13.9568 17.93 14.0095 17.9722 14.0517C18.0121 14.0916 18.0485 14.1295 18.0782 14.1779C18.1191 14.2444 18.1578 14.2593 18.21 14.3096C18.2814 14.3784 18.3531 14.4199 18.4355 14.4749" stroke="white" stroke-linecap="round"/>
<path d="M15.8026 13.9724C15.8026 13.7495 15.7232 13.5634 15.6262 13.3695C15.5809 13.2789 15.5373 13.1619 15.4721 13.078C15.4373 13.0333 15.4327 12.9647 15.3906 12.9273C15.3437 12.8857 15.3106 12.8312 15.2801 12.7777C15.2209 12.6742 15.0934 12.6821 15.0143 12.6102C14.9523 12.5538 14.8315 12.4851 14.7474 12.4851C14.5018 12.4851 14.2368 12.4504 13.9938 12.4248C13.8642 12.4112 13.4771 12.2846 13.4913 12.5253C13.496 12.6063 13.6939 12.6595 13.7425 12.6973C13.8403 12.7733 13.9962 12.8349 14.1143 12.8771C14.1791 12.9002 14.2229 12.9297 14.2796 12.9675C14.3251 12.9979 14.4584 13.0505 14.4806 13.0881C14.5382 13.186 14.4903 13.3187 14.5465 13.4197C14.5864 13.4916 14.6677 13.5545 14.7441 13.5839C14.8319 13.6176 14.8909 13.66 14.9429 13.595C14.977 13.5524 14.9818 13.5123 15.0389 13.5504" stroke="white" stroke-linecap="round"/>
<path d="M18.0336 9.63113C18.1944 9.63113 18.3551 9.63113 18.5159 9.63113C18.6999 9.63113 18.9033 9.71842 19.0686 9.79192C19.1426 9.82479 19.198 9.88839 19.2752 9.91698C19.3706 9.95231 19.4755 10.0264 19.5499 10.0934C19.6517 10.185 19.8062 10.1973 19.9228 10.2587C19.9849 10.2913 20.0703 10.3547 20.1439 10.3547" stroke="white" stroke-linecap="round"/>
<path d="M12.9084 8.8674C12.8526 8.92317 12.9144 9.04083 12.8638 9.10411C12.8385 9.13574 12.8497 9.19199 12.8236 9.22471C12.8045 9.24851 12.6249 9.40801 12.6985 9.42904C12.7506 9.44392 12.8552 9.56117 12.8894 9.44133C12.9173 9.34397 13.185 9.2717 13.2657 9.24481C13.3909 9.20308 13.5606 9.22917 13.6923 9.22917C13.7819 9.22917 13.8663 9.19147 13.9535 9.18898C14.0535 9.18612 14.1539 9.18898 14.2539 9.18898C14.3977 9.18898 14.5413 9.14878 14.6883 9.14878C14.7917 9.14878 14.8952 9.14878 14.9987 9.14878C15.0947 9.14878 15.1586 9.06838 15.2399 9.06838C15.3188 9.06838 15.3931 9.01414 15.4509 8.96789C15.4809 8.9439 15.4977 8.90682 15.5212 8.87745C15.5552 8.83493 15.585 8.85922 15.6307 8.84618C15.8253 8.79056 15.2257 8.8473 15.0232 8.8473C14.6684 8.8473 14.3298 8.85323 13.9837 8.90648C13.8564 8.92607 13.7117 8.9076 13.5828 8.9076C13.4527 8.9076 13.2379 8.98013 13.1496 9.06838" stroke="white" stroke-linecap="round"/>
<path d="M9.74999 12.55C9.58286 12.5291 9.44999 11.8374 9.44999 11.625C9.44999 11.4591 9.39999 11.2863 9.39999 11.1C9.39999 10.9818 9.38315 10.6235 9.47499 10.55C9.57667 10.4687 9.73528 10.1676 9.74999 10.05C9.77849 9.82193 10.1604 9.40736 10.35 9.2889C10.4289 9.23956 10.497 9.13845 10.575 9.07778C10.6209 9.04204 10.8027 8.90996 10.8278 8.90278C10.9798 8.85935 11.2235 8.70427 11.3389 8.5889C11.4297 8.49811 11.7075 8.38716 11.8278 8.35278C12.0487 8.28966 12.2465 8.16319 12.4611 8.0889C12.9281 7.92724 13.4883 8.00001 13.9833 8.00001C15.2594 8.00001 16.5503 8.02319 17.775 8.40001C18.1329 8.51014 18.5426 8.58767 18.8611 8.80001C19.1479 8.99121 19.5275 9.07756 19.775 9.32501C19.9972 9.54721 20.25 9.64793 20.45 9.91112C20.6421 10.1639 20.9361 10.3667 21.0778 10.65C21.2997 11.0939 21.5442 11.512 21.75 11.975C21.8831 12.2744 22.05 12.757 22.05 13.075C22.05 13.1602 22.0931 13.5945 22 13.6C21.8173 13.6108 21.6489 13.6009 21.55 13.4278C21.4721 13.2914 21.4184 13.1081 21.3111 12.9889C21.197 12.8621 21.0565 12.7581 20.95 12.625C20.6245 12.2181 20.0434 11 21 11" stroke="#FD4C14" stroke-linecap="round"/>
<path d="M21 11.85C20.8137 11.7514 20.6903 11.634 20.5 11.5389C20.3383 11.4581 20.1429 11.3746 19.975 11.3C19.8642 11.2508 19.7275 11.132 19.6389 11.0611C19.5449 10.9859 19.4276 10.9821 19.325 10.9C19.2409 10.8328 19.1077 10.7127 19 10.7C18.8271 10.6797 18.774 10.5462 18.6222 10.5028C18.4606 10.4566 18.3941 10.4152 18.25 10.3389C18.137 10.2791 18.0086 10.15 17.875 10.15C17.7611 10.15 17.6112 10.0565 17.5 10.05C17.3414 10.0407 17.2112 10.0425 17.0722 10.0028C16.7848 9.92065 16.3523 10 16.0528 10C15.6435 10 15.2342 10 14.825 10C14.4812 10 14.0863 9.9575 13.7722 10.0472C13.2381 10.1998 12.7891 10.6495 12.5389 11.15C12.273 11.6818 12.6087 12.4104 12.3389 12.95C12.1688 13.2901 11.9833 13.35 11.6 13.35C11.3594 13.35 10.9174 13.3429 10.7889 13.1C10.7234 12.9764 10.6283 12.9148 10.55 12.7778C10.4693 12.6366 10.4046 12.498 10.3389 12.35C10.2303 12.1058 10.197 11.6573 10.3 11.4" stroke="#FD4C14" stroke-linecap="round"/>
<path d="M9.69999 12.8C9.52548 12.8218 9.7181 13.2403 9.78888 13.3111C9.90461 13.4268 10.2386 13.3394 10.4 13.4111C10.728 13.5569 11.2881 13.45 11.65 13.45" stroke="#FD4C14" stroke-linecap="round"/>
<path d="M19.2 14.15C19.1901 14.0705 18.951 13.7733 18.8889 13.7111C18.6625 13.4847 18.3357 13.3295 18.0611 13.15C17.5203 12.7964 17.0395 12.2725 16.4278 12.05C16.1637 11.954 15.8605 11.75 15.5722 11.75C15.2991 11.75 15.0521 11.5 14.7778 11.5C14.3868 11.5 13.721 11.258 13.5 11.7" stroke="#FD4C14" stroke-linecap="round"/>
<path d="M13.6 11.65C13.3663 11.65 12.9227 11.6545 12.8 11.9" stroke="#FD4C14" stroke-linecap="round"/>
<path d="M10.3 14.3C10.3 14.987 10.0543 15.9178 10.5 16.475C10.6701 16.6877 11.0553 16.9 11.325 16.9C11.7415 16.9 12.3319 17.0054 12.7 16.7889C12.7939 16.7336 12.9878 16.4472 13 16.35C13.0171 16.2131 13.1776 16.0378 13.2389 15.9C13.3909 15.5579 13.2981 15.119 13.3972 14.7722C13.5534 14.2256 15.2968 14.55 15.75 14.55C16.1306 14.55 16.5138 14.7 16.9 14.7C17.2258 14.7 17.5306 14.9623 17.8278 15.0472C18.0188 15.1018 18.2247 15.2 18.425 15.2C18.6347 15.2 18.7837 15.3103 18.975 15.3528C19.1502 15.3917 19.254 15.505 19.35 15.625C19.4081 15.6976 19.6415 15.9863 19.7389 15.8889C19.8728 15.7549 19.8 15.3107 19.8 15.1389C19.8 14.8139 19.5146 14.7908 19.3 14.6C19.0589 14.3857 19.0965 14.8966 19.1611 15.05C19.2928 15.3629 19.355 15.7033 19.575 15.9722C19.706 16.1324 19.8 16.3735 19.8 16.575C19.8 16.7407 19.9685 16.8148 20.075 16.9C20.2244 17.0195 20.2739 17.1931 20.375 17.375C20.5468 17.6842 20.282 16.6533 20.1 16.35" stroke="#FD4C14" stroke-linecap="round"/>
<path d="M19.8 15.2C19.9728 15.2192 20.2469 15.6551 20.2889 15.8C20.3451 15.9944 20.4946 16.3129 20.625 16.4722C20.7026 16.5671 20.7927 16.6686 20.8 16.8C20.8123 17.0221 20.85 17.225 20.85 17.45C20.85 17.6831 20.7273 17.7453 20.65 17.9" stroke="#FD4C14" stroke-linecap="round"/>
<path d="M10.8 14C10.6564 14.1435 10.4696 14.4152 10.3 14.5" stroke="#FD4C14" stroke-linecap="round"/>
<path d="M8.79999 8.64999C8.82584 8.53365 9.32789 8.27682 9.43888 8.19999C9.73121 7.9976 10.0949 7.90644 10.3778 7.67499C10.8218 7.31165 11.3599 7.09003 11.775 6.67499C11.9482 6.50178 12.1964 6.30808 12.3 6.07499C12.3464 5.97048 12.5058 5.96042 12.55 5.84999C12.5964 5.73396 12.7274 5.66069 12.7889 5.54999C12.9214 5.31144 13.0961 5.10224 13.2222 4.84999C13.3272 4.63996 13.3 4.39144 13.3 4.1611C13.3 3.61859 13.4286 3.03854 13.25 2.50276C13.0617 1.93793 12.472 1.65218 11.9722 1.42499C11.64 1.27397 11.2752 1.19999 10.9111 1.19999C10.7748 1.19999 10.6361 1.19242 10.5 1.19999C10.3612 1.2077 10.298 1.40425 10.1722 1.44999C9.71313 1.61692 9.54999 2.38825 9.54999 2.82499C9.54999 3.27508 9.37578 3.71146 9.34999 4.14999C9.32194 4.62676 9.0108 4.95053 8.78888 5.34999C8.70483 5.50128 8.47375 5.58242 8.34999 5.69999C8.2727 5.77341 8.16882 5.90828 8.07499 5.94999C7.94772 6.00655 7.83565 5.98614 7.72499 6.07221C7.67697 6.10955 7.51225 6.19653 7.44999 6.19999C7.02952 6.22335 6.68468 6.49999 6.23888 6.49999C6.03675 6.49999 5.90364 6.59999 5.69999 6.59999C5.52655 6.59999 5.32242 6.64999 5.12499 6.64999C4.66699 6.64999 4.2675 6.57587 3.87221 6.34999C3.67995 6.24012 3.53825 6.08854 3.34999 5.98887C3.18673 5.90245 3.06315 5.65017 2.87777 5.59721C2.73544 5.55654 1.87109 4.49254 1.75277 5.02499C1.6661 5.41497 2.0227 5.77154 2.28888 6.0111C2.3757 6.08924 2.46394 6.16847 2.54999 6.24999C2.60281 6.30003 2.77174 6.4812 2.82777 6.49721C2.99684 6.54551 3.17436 6.67948 3.3111 6.78887C3.38075 6.84459 3.50515 6.78574 3.58888 6.8611C3.62699 6.8954 3.74844 6.94354 3.79999 6.94999C3.99938 6.97491 4.21959 7.10156 4.42499 7.14721C4.5977 7.18559 4.83927 7.29053 4.99999 7.29999C5.23473 7.31379 5.42933 7.49999 5.67221 7.49999C6.14437 7.49999 6.70694 7.70912 7.1611 7.83887C7.4557 7.92305 7.81623 7.95641 8.12221 7.99721C8.45365 8.0414 8.81501 7.99999 9.14999 7.99999C9.36175 7.99999 9.68766 7.97906 9.87499 7.87499C10.0551 7.77492 10.3037 7.80926 10.5 7.7111C10.7137 7.60423 10.7935 7.41335 10.975 7.27221C11.0373 7.22371 11.1721 7.08236 11.0222 7.17776C10.858 7.28226 10.7897 7.42496 10.65 7.54999C10.1787 7.97165 9.51714 8.07925 8.90554 8.14721C8.25982 8.21895 7.60194 8.19999 6.94721 8.19999C6.51591 8.19999 6.1778 8.1558 5.7611 8.0611C5.22289 7.93878 4.67935 7.86389 4.17499 7.62499C3.88276 7.48656 3.63862 7.29079 3.34999 7.13887C3.16543 7.04174 2.88065 6.83831 2.74999 6.67499C2.66995 6.57494 2.33224 6.3766 2.22499 6.35276C2.0842 6.32148 1.93136 6.11386 1.83888 6.0111C1.74997 5.91231 1.77725 5.61016 1.74721 5.47499C1.71112 5.31257 1.51576 5.0697 1.4111 4.93887C1.28111 4.77639 1.33888 4.5111 1.47499 4.37499C1.71013 4.13984 1.92344 4.26648 2.1111 4.4611C2.4439 4.80622 2.80486 5.16078 3.12499 5.50554C3.52147 5.93252 3.97066 6.00149 4.49999 6.19999" stroke="#FD4C14" stroke-linecap="round"/>
<path d="M7.75 19.95C7.57815 19.9309 7.4272 19.7677 7.275 19.7C6.96659 19.5629 6.72058 19.3657 6.44722 19.1778C6.23695 19.0332 5.87849 18.8583 5.75278 18.6278C5.6935 18.5191 5.58546 18.438 5.5 18.35C5.34781 18.1933 5.26237 17.9891 5.12222 17.8222C4.95471 17.6228 4.83495 17.4036 4.70278 17.1806C4.58783 16.9866 4.39028 16.8432 4.3 16.6389C4.16119 16.3247 3.94943 16.0404 3.82222 15.7111C3.61249 15.1683 3.4 14.7464 3.4 14.15C3.4 13.6662 3.35646 13.0986 3.62778 12.6722C3.90452 12.2374 4.11482 11.7852 4.475 11.425C4.74102 11.159 4.91764 10.8167 5.2 10.55C5.32094 10.4358 5.50475 10.2418 5.65 10.1611C5.718 10.1233 5.75526 10.0183 5.825 10.0028C5.92009 9.98166 6.0069 9.983 6.1 9.9389C6.40285 9.79544 6.63786 9.86083 6.95 9.95001C7.23495 10.0314 7.78136 10.1327 7.95 10.4278C8.02832 10.5648 8.18298 10.6774 8.23889 10.8389C8.28749 10.9793 8.30142 11.2018 8.38889 11.3111C8.50902 11.4613 8.48807 11.9769 8.41111 12.15C8.27672 12.4524 8.09663 12.5 7.775 12.5C7.5098 12.5 7.21835 12.5841 6.97778 12.6528C6.82502 12.6964 6.60231 12.9982 6.475 13.1C6.29775 13.2418 6.25455 13.6216 6.19722 13.8222C6.12875 14.0619 5.95 14.327 5.95 14.6C5.95 14.9522 6 15.3031 6 15.65C6 16.2642 6.43402 16.8566 6.59722 17.4278C6.67251 17.6913 6.7712 17.9122 6.91111 18.15C6.9742 18.2573 7.23806 18.4485 7.25 18.55C7.2618 18.6503 7.5058 18.9418 7.6 18.9889C7.84235 19.1101 7.87627 19.4 8.225 19.4C8.54167 19.4 8.85833 19.4 9.175 19.4C9.35869 19.4 9.87043 19.3131 9.98889 19.4611C10.0744 19.568 10.1 19.7664 10.1 19.9C10.1 20.101 10.0636 20.0884 9.9 20.1611C9.5523 20.3157 9.08888 20.2717 8.74722 20.1222C8.56278 20.0415 8.3532 20.053 8.17778 19.9778C8.12615 19.9557 8.22544 20.049 8.23889 20.0611C8.32544 20.139 8.51601 20.1 8.625 20.1C9.6135 20.1 10.5695 20.0577 11.55 20C11.7383 19.9889 11.4943 19.642 11.45 19.6C11.3093 19.4667 10.9415 19.4101 10.75 19.4C10.6058 19.3924 10.4022 19.4478 10.3 19.55C10.1505 19.6995 10.132 19.7 9.9 19.7" stroke="#FD4C14" stroke-linecap="round"/>
<path d="M4.53808 11.9671C4.41226 12.6968 5.17658 13.2034 5.8061 13.2034" stroke="#FD4C14" stroke-linecap="round"/>
<path d="M4.28445 16.1516C4.44485 16.2029 4.61506 16.188 4.77405 16.2326C4.94932 16.2816 5.12837 16.3425 5.30592 16.3805C5.60301 16.4442 5.83412 16.4064 6.12309 16.3101" stroke="#FD4C14" stroke-linecap="round"/>
<path d="M9.03954 8.0996C9.10448 7.91202 9.21623 7.7559 9.30019 7.5783C9.41606 7.33321 9.45165 7.00472 9.45165 6.73647C9.45165 6.26166 9.3437 5.9311 9.00784 5.59525" stroke="#FD4C14" stroke-linecap="round"/>
<path d="M12.1462 5.27821C12.1462 4.89587 11.9089 4.49604 11.6566 4.21976C11.4374 3.97972 11.2423 3.8692 10.9257 3.80589C10.7246 3.76567 10.3353 3.72685 10.1491 3.81998" stroke="#FD4C14" stroke-linecap="round"/>
<path d="M16.7428 8.76529C16.5506 8.78131 16.266 8.91462 16.1475 9.06821C16.0233 9.22929 16.056 9.27272 16.1088 9.431" stroke="#FD4C14" stroke-linecap="round"/>
<path d="M11.5439 9.08231C11.3007 9.10663 11.1649 9.53099 11.1388 9.71632C11.1103 9.91913 11.084 10.2023 11.2797 10.3257C11.4829 10.4537 11.6847 10.5088 11.9243 10.5088" stroke="#FD4C14" stroke-linecap="round"/>
<path d="M12.3681 13.6789C12.5899 13.5254 13.1277 13.5988 13.3579 13.693C13.5556 13.7739 13.7947 14.1018 13.7947 14.3129" stroke="#FD4C14" stroke-linecap="round"/>
<path d="M15.7918 12.2207C15.8136 12.3515 15.9994 12.5609 16.0842 12.6645C16.2526 12.8703 16.5337 13.09 16.5773 13.3689C16.6166 13.6206 16.5843 13.9003 16.5843 14.1544C16.5843 14.385 16.5597 14.5524 16.4575 14.7567" stroke="#FD4C14" stroke-linecap="round"/>
<path d="M1.49479 4.10531C1.65283 4.03508 1.94907 4.02319 2.11296 4.07361C2.36815 4.15213 2.4423 4.28849 2.62193 4.46811C2.96487 4.81105 3.39082 5.15486 3.84064 5.37334C4.01401 5.45755 4.23318 5.49879 4.3954 5.61109C4.55044 5.71843 4.80338 5.73756 4.98186 5.8013C5.35312 5.93389 5.79471 5.97565 6.18649 5.97565C6.59659 5.97565 7.04455 6.03352 7.43867 5.91225C7.77941 5.80741 8.12047 5.58569 8.41258 5.39095C8.525 5.316 8.57379 5.1295 8.62744 5.00878C8.65466 4.94753 8.71581 4.86629 8.75424 4.80977C8.80643 4.73303 8.82393 4.66936 8.86343 4.57906C9.03801 4.18002 9.25814 3.80821 9.43405 3.40614C9.47559 3.31117 9.48821 3.20461 9.53091 3.10498C9.58836 2.97094 9.65006 2.83837 9.70526 2.70344C9.77123 2.54218 9.85085 2.28957 9.86377 2.11522C9.873 1.99057 9.9332 1.83534 9.96063 1.71191C9.98173 1.61695 10.0434 1.44023 10.1033 1.36321C10.1785 1.26645 10.3297 1.24825 10.4344 1.1959C10.5395 1.14334 10.7679 1.09826 10.8852 1.09375C11.1836 1.08228 11.4262 1.09554 11.7024 1.20294C11.9029 1.2809 12.1076 1.27708 12.273 1.44246C12.3846 1.55401 12.5455 1.68657 12.6288 1.82287C12.6615 1.8764 12.7371 1.91301 12.7873 1.94967C12.8862 2.02195 12.9501 2.13212 13.0479 2.20327C13.1334 2.26543 13.2655 2.41225 13.3191 2.50619C13.384 2.61976 13.4441 2.72081 13.5023 2.83729C13.5811 2.99485 13.5727 3.13087 13.5727 3.30575C13.5727 3.61493 13.6296 3.98412 13.534 4.27086C13.2612 5.0892 12.6548 5.70577 12.0511 6.29266C11.834 6.5037 11.5875 6.79379 11.3202 6.94076C11.0883 7.0683 10.8826 7.21544 10.6721 7.37048C10.4884 7.50589 10.2831 7.58295 10.0857 7.68749C9.86934 7.80202 9.65795 7.93313 9.41996 7.99745C9.30718 8.02793 9.19591 8.06922 9.09591 8.1313C8.95274 8.22016 8.82841 8.22902 8.67499 8.27571C8.42902 8.35057 8.17356 8.3532 7.91594 8.3532C7.60745 8.3532 7.32972 8.39295 7.01775 8.34616C6.71129 8.30019 6.39477 8.2581 6.08434 8.2581C5.86782 8.2581 5.67043 8.19117 5.45914 8.16476C5.30299 8.14524 5.10684 8.13028 4.96601 8.05205C4.9016 8.01626 4.71756 7.94109 4.64901 7.94109C4.53584 7.94109 4.4382 7.83965 4.332 7.81605C4.18561 7.78352 3.97793 7.64867 3.8653 7.53603C3.75385 7.42458 3.62851 7.25412 3.58527 7.10279C3.5585 7.00908 3.44505 6.9242 3.40388 6.83157C3.3667 6.74792 3.24855 6.63314 3.23833 6.54626C3.22846 6.46238 3.04255 6.36033 3.01819 6.27505C2.99342 6.18838 2.88733 6.09766 2.81037 6.0549C2.73934 6.01544 2.58597 5.91652 2.50921 5.91225C2.38122 5.90514 2.28751 5.80039 2.16051 5.78545C2.11531 5.78013 1.90518 5.71196 1.8752 5.6745C1.80376 5.58519 1.72078 5.44623 1.60751 5.40504C1.39722 5.32857 1.27289 4.86058 1.27289 4.66888C1.27289 4.46966 1.3634 4.38276 1.55115 4.32017C1.72615 4.26184 1.83792 4.33592 2.002 4.39062" stroke="black" stroke-linecap="round"/>
<path d="M5.33057 10.4137C5.80058 10.0205 6.23286 9.93822 6.83811 9.93822C7.10129 9.93822 7.34244 9.9342 7.58132 10.0404C7.80086 10.1379 7.9051 10.2937 8.07268 10.4613C8.24228 10.6309 8.30768 10.8589 8.42139 11.0636C8.55694 11.3076 8.51517 11.5152 8.50064 11.7769C8.49537 11.8716 8.37968 12.0071 8.32452 12.078C8.28488 12.129 8.13249 12.2647 8.07092 12.2823C7.86021 12.3425 7.65134 12.4299 7.42282 12.4426C7.21575 12.4541 7.01974 12.6145 6.8522 12.7032C6.76509 12.7493 6.68548 12.803 6.61621 12.8723C6.54192 12.9466 6.50713 13.1054 6.42424 13.1717C6.37622 13.2101 6.30995 13.4177 6.28864 13.4817C6.24589 13.6099 6.28827 13.7989 6.28159 13.9325C6.27389 14.0865 6.21819 14.2335 6.21819 14.3922C6.21819 14.5084 6.21819 14.6246 6.21819 14.7409C6.21819 14.9959 6.22599 15.2277 6.27983 15.47C6.31387 15.6232 6.26009 15.7993 6.37669 15.9296C6.46224 16.0253 6.51859 16.225 6.55985 16.3488C6.68307 16.7185 6.77068 17.126 6.9931 17.4495C7.07818 17.5733 7.16756 17.7433 7.26431 17.8458C7.35554 17.9424 7.42797 18.0477 7.53201 18.1328C7.61563 18.2013 7.72536 18.2334 7.80322 18.3072C7.90022 18.3991 7.97355 18.4299 8.09557 18.4798C8.20711 18.5254 8.38546 18.5797 8.48303 18.6418C8.68167 18.7682 8.92351 18.7968 9.14874 18.8532C9.6168 18.9702 10.1105 19.0046 10.5929 19.0046C11.0128 19.0046 12.0055 19.1851 11.9225 19.7654C11.8787 20.0722 11.6043 20.3784 11.3044 20.4329C11.1208 20.4663 10.9522 20.5579 10.7584 20.5579C10.5107 20.5579 10.263 20.5579 10.0152 20.5579C9.58798 20.5579 9.17674 20.5137 8.756 20.4611C8.3796 20.414 7.90209 20.3181 7.58132 20.1071C7.46799 20.0325 7.32376 20.0187 7.20091 19.9556C7.07077 19.8888 6.9398 19.7989 6.80289 19.7496C6.66434 19.6997 6.53655 19.615 6.40839 19.5418C6.26864 19.4619 6.08221 19.4275 5.96459 19.3216C5.85413 19.2222 5.70537 19.1575 5.60003 19.0522C5.46204 18.9142 5.36198 18.7705 5.23547 18.626C5.07298 18.4403 4.95508 18.2236 4.78462 18.0465C4.68741 17.9456 4.64863 17.8205 4.57152 17.7049C4.50298 17.6021 4.40234 17.4685 4.37251 17.3491C4.31477 17.1182 4.12483 16.9533 4.0467 16.7363C3.95084 16.47 3.7699 16.2487 3.74378 15.9613C3.729 15.7988 3.61291 15.6616 3.58704 15.4999C3.55995 15.3306 3.47394 15.1765 3.43558 15.0103C3.35953 14.6808 3.41598 14.3305 3.39507 13.9959C3.35309 13.3242 3.31192 12.6396 3.53068 11.9917C3.77101 11.28 4.21723 10.6321 4.95369 10.3662C5.33877 10.2271 5.71082 10.046 6.12309 10.1284" stroke="black" stroke-linecap="round"/>
<path d="M9.13464 11.555C9.13464 11.2099 9.11449 10.8765 9.19804 10.5423C9.27998 10.2146 9.54136 9.94901 9.6894 9.65292C9.84993 9.33187 10.155 9.03152 10.3956 8.77235C10.724 8.41869 11.2424 8.30468 11.6954 8.20174C12.4187 8.03734 13.1625 7.78259 13.9091 7.78259C14.5125 7.78259 15.1105 7.75089 15.7143 7.75089C16.222 7.75089 16.6544 7.84223 17.1479 7.93404C17.401 7.98113 17.5935 8.12954 17.8365 8.21054C18.1214 8.30553 18.3765 8.44969 18.6519 8.56101C19.1525 8.7634 19.5793 9.05728 20.0555 9.30422C20.4914 9.53025 20.8149 9.87725 21.1967 10.1742C21.4498 10.3711 21.677 10.7462 21.8149 11.0301C22.0206 11.4537 22.2435 11.8913 22.3609 12.3475C22.4107 12.5414 22.4243 12.7242 22.4982 12.911C22.5538 13.0517 22.6074 13.2399 22.6074 13.3918C22.6074 13.6511 22.5291 13.9325 22.2112 13.9325C22.0879 13.9325 21.8999 13.9344 21.8008 13.8533C21.7041 13.7741 21.5178 13.7211 21.4592 13.6155C21.3549 13.4278 21.1831 13.356 21.1474 13.1241C21.1297 13.0088 20.9937 12.7857 20.9132 12.6962C20.7972 12.5673 20.7287 12.3804 20.6173 12.2348C20.5151 12.1011 20.4627 11.9463 20.3408 11.8244C20.2396 11.7232 20.2267 11.5396 20.1031 11.4669C19.9888 11.3997 19.9355 11.2344 19.8178 11.1587C18.9223 10.583 17.8219 10.5708 16.7992 10.375C16.5135 10.3203 16.2151 10.2829 15.9256 10.2482C15.6074 10.21 15.3015 10.2084 14.9817 10.1901C14.5567 10.1658 14.1253 10.0655 13.6995 10.1601C13.3694 10.2335 13.009 10.5029 12.9141 10.8258C12.8524 11.0354 12.833 11.2497 12.7661 11.4599C12.6918 11.6936 12.7268 11.9436 12.6781 12.1819C12.6445 12.3462 12.563 12.4968 12.5583 12.6645C12.5543 12.8107 12.455 13.0214 12.3505 13.1259C12.2079 13.2685 12.1762 13.3479 11.9807 13.4183C11.8011 13.4829 11.653 13.5014 11.4646 13.5363C11.1392 13.5965 10.6772 13.6569 10.371 13.4957C10.0847 13.3451 10.0412 13.0978 9.8708 12.83C9.72696 12.604 9.43953 12.4694 9.48511 12.1731C9.49721 12.0945 9.52232 12.0136 9.53971 11.9354C9.54776 11.8991 9.52474 11.7262 9.51505 11.8086C9.50706 11.8765 9.43268 11.9116 9.42171 11.9829C9.40678 12.0799 9.37035 12.1757 9.33894 12.27C9.24959 12.538 9.17882 12.9253 9.38825 13.1717C9.47814 13.2775 9.45453 13.3514 9.59606 13.3918C9.73003 13.4301 9.84416 13.4887 9.99056 13.4887" stroke="black" stroke-linecap="round"/>
<path d="M10.8782 14.4397C10.6801 14.4397 10.5194 14.6597 10.4485 14.8219C10.3877 14.9608 10.3393 15.0399 10.3393 15.1988C10.3393 15.3303 10.3446 15.4536 10.3146 15.5809C10.2623 15.8034 10.3481 16.0403 10.4344 16.2343C10.4801 16.3373 10.5616 16.4056 10.6404 16.4844C10.7041 16.548 10.8064 16.5438 10.8852 16.5953C11.1001 16.7358 11.3362 16.6954 11.5738 16.7697C11.799 16.8401 12.1282 16.8009 12.3435 16.7292C12.4683 16.6876 12.5387 16.6354 12.6464 16.5636C12.7777 16.4761 12.8024 16.3301 12.9088 16.2326C13.0226 16.1282 13.1812 16.0089 13.2311 15.8592C13.2649 15.7577 13.3107 15.654 13.3684 15.5633C13.5829 15.2264 13.6547 14.8518 14.1099 14.8518C14.599 14.8518 15.1459 14.7365 15.6333 14.8448C16.0765 14.9433 16.5446 14.9486 16.9964 15.0491C17.1362 15.0801 17.2752 15.0824 17.4156 15.1125C17.5682 15.1452 17.7336 15.209 17.884 15.2305C18.1231 15.2646 18.3367 15.4568 18.5497 15.5633C18.7726 15.6748 18.8509 16.0181 19.0252 16.1832C19.2449 16.3913 19.3817 16.6577 19.5483 16.9141C19.6096 17.0085 19.7453 17.1218 19.7861 17.2135C19.8169 17.2829 19.8929 17.44 19.9516 17.483C20.0205 17.5333 20.1522 17.6314 20.1911 17.7049C20.2375 17.7925 20.2924 17.787 20.3725 17.8493C20.511 17.957 20.7255 17.9368 20.8956 17.9268C20.9492 17.9236 21.0072 17.5278 21.0206 17.4671C21.1273 16.987 20.9415 16.4457 20.8251 15.993C20.7381 15.6545 20.5561 15.3113 20.3743 15.0138C20.2305 14.7785 20.0365 14.4315 19.8178 14.2565C19.7066 14.1676 19.6072 14.0658 19.4937 13.9818C19.3985 13.9113 19.3378 13.7941 19.2489 13.7141C19.1417 13.6176 19.0079 13.5539 18.9002 13.457C18.8113 13.377 18.7059 13.3626 18.6131 13.2914C18.4369 13.1561 18.2467 13.0698 18.0566 12.9568C17.7722 12.7877 17.488 12.6119 17.2025 12.4461C16.7315 12.1726 16.1929 11.9847 15.6896 11.7768C15.2895 11.6116 14.9264 11.4418 14.4903 11.3982C14.2164 11.3708 13.9439 11.333 13.6678 11.333C13.5474 11.333 13.3114 11.4119 13.2557 11.5232" stroke="black" stroke-linecap="round"/>
<path d="M10.7514 14.091C10.6659 14.11 10.6743 14.2573 10.6246 14.3129C10.5118 14.439 10.5338 14.5896 10.4661 14.725" stroke="black" stroke-linecap="round"/>
<path d="M8.53235 5.84885C8.71986 5.84885 8.87283 6.04315 8.93741 6.2046C8.96893 6.28338 9.01479 6.36219 9.05541 6.43531C9.09782 6.51165 9.06099 6.62058 9.07302 6.70476C9.07931 6.74875 9.13263 6.86865 9.15932 6.90201C9.19554 6.94729 9.16636 7.10662 9.16636 7.16266C9.16636 7.29974 9.07126 7.40415 9.07126 7.52898" stroke="black" stroke-linecap="round"/>
<path d="M9.61017 4.35892C9.83185 4.35892 10.0127 4.40399 10.2125 4.46106C10.4816 4.53795 10.7317 4.62306 10.9751 4.75694C11.2547 4.91072 11.5149 5.08338 11.72 5.32579C11.8651 5.49727 12.0828 5.59983 12.0828 5.84885" stroke="black" stroke-linecap="round"/>
<path d="M6.05969 12.9181C6.05065 12.8457 5.67622 12.6777 5.60883 12.6328C5.3946 12.4899 5.22574 12.3187 5.13332 12.0692C5.09449 11.9643 5.01357 11.8916 5.01357 11.7769C5.01357 11.6839 4.99552 11.5821 4.97482 11.4915C4.95536 11.4064 4.89395 10.9966 4.98187 10.9526" stroke="black" stroke-linecap="round"/>
<path d="M5.64758 15.8663C5.62744 16.0475 4.21623 15.7884 4.12595 15.5175" stroke="black" stroke-linecap="round"/>
<path d="M12.0828 8.797C12.0581 8.99437 11.7884 9.12154 11.7658 9.33591C11.7546 9.44236 11.7341 9.54105 11.7341 9.65291C11.7341 9.76056 11.8266 9.86517 11.8609 9.96816C11.8857 10.0427 11.9858 10.2208 12.0529 10.2711C12.1313 10.3299 12.2311 10.3319 12.3188 10.382C12.4277 10.4442 13.0021 10.4408 13.0021 10.3186" stroke="black" stroke-linecap="round"/>
<path d="M17.7572 9.05062C17.4391 9.05062 17.1268 9.01531 16.8837 9.25843C16.7556 9.38655 16.2947 10.0333 16.7111 10.0333" stroke="black" stroke-linecap="round"/>
<path d="M12.8753 13.2668C13.0257 13.2668 13.2076 13.3354 13.3385 13.4112C13.4765 13.4911 13.8994 13.6531 13.9215 13.8444C13.9396 14.0015 13.9896 14.169 14.0183 14.327C14.0392 14.442 14.0422 14.5348 14.1751 14.5348" stroke="black" stroke-linecap="round"/>
<path d="M16.9647 13.1717C17.1016 13.4626 17.1232 13.7293 17.1232 14.0523C17.1232 14.3374 17.1346 14.7352 16.8379 14.8835" stroke="black" stroke-linecap="round"/>
</svg>
