<svg width="24" height="19" viewBox="0 0 24 19" fill="none" xmlns="http://www.w3.org/2000/svg">
<path d="M1.64999 9.95001C1.68361 9.68107 2.42779 9.33997 2.62499 9.20278C2.92589 8.99347 3.28566 8.86695 3.59722 8.67223C3.97322 8.43722 4.43165 8.22158 4.84999 8.06112C5.31841 7.88145 5.76946 7.66064 6.23888 7.48889C6.48092 7.40034 6.7115 7.2596 6.93888 7.1389C7.1963 7.00224 7.46821 6.92546 7.72222 6.77778C8.6787 6.22169 9.69802 5.74601 10.6 5.10001C11.1779 4.68611 11.8206 4.3496 12.4167 3.96112C12.7072 3.77173 12.9914 3.57093 13.3 3.41112C13.6937 3.20722 14.1259 2.96691 14.4778 2.70001C14.9978 2.30548 15.6093 2.01582 16.1778 1.70001C16.5624 1.48633 16.9242 1.17043 17.325 0.980562C17.4635 0.91495 17.6679 0.919045 17.775 0.800006C17.8468 0.720184 18.0022 0.632595 18.1 0.600006" stroke="#FF5019" stroke-linecap="round"/>
<path d="M1.8 10.1C2.21151 10.1 2.60058 10.3966 2.97223 10.5028C3.12934 10.5477 3.29908 10.7488 3.4 10.875C3.45376 10.9422 3.57415 10.971 3.65 11.0111C3.70481 11.0401 3.77588 11.1703 3.82778 11.2222C4.13618 11.5306 4.51453 11.7692 4.83889 12.0611C5.0667 12.2661 5.41083 12.5217 5.55 12.8" stroke="#FF5019" stroke-linecap="round"/>
<path d="M1.25 10.4C1.25 10.9982 1.35 11.5922 1.35 12.2C1.35 12.3507 1.3136 12.4896 1.5 12.5C1.62261 12.5068 1.92281 12.711 2.02778 12.7778C2.28884 12.9439 2.5735 13.0729 2.85 13.2111C2.98281 13.2775 3.10182 13.372 3.22222 13.4389C3.35198 13.511 3.56908 13.5246 3.67222 13.6278C3.88857 13.8441 4.23138 13.9339 4.5 14.0611C4.65073 14.1325 4.77346 14.2564 4.91111 14.35C5.04978 14.4443 5.20763 14.5076 5.325 14.625C5.45595 14.7559 5.80399 15.1 6 15.1" stroke="#FF5019" stroke-linecap="round"/>
<path d="M5.8 13.2C5.8 13.4727 5.9 13.7094 5.9 13.9889C5.9 14.2426 5.9 14.4963 5.9 14.75" stroke="#FF5019" stroke-linecap="round"/>
<path d="M5.89999 13.25C6.01122 13.2298 6.10869 13.1414 6.19722 13.075C6.28603 13.0084 6.35449 13.02 6.44999 12.9722C6.66364 12.8654 6.84913 12.7041 7.04999 12.575C7.2538 12.444 7.48283 12.3456 7.69722 12.225C7.84521 12.1417 8.11217 12.0378 8.22777 11.9222C8.39589 11.7541 8.73158 11.5501 8.96111 11.4889C9.27462 11.4053 9.50762 11.1195 9.81111 11.0111C10.1077 10.9052 10.4513 10.6769 10.7167 10.5C10.8602 10.4043 11.0115 10.2937 11.15 10.1889C11.308 10.0693 11.4837 10.0147 11.6389 9.89999C12.0008 9.63249 12.3921 9.42051 12.7528 9.14999C12.9585 8.99572 13.2151 8.94388 13.4278 8.79721C13.6716 8.62907 13.9425 8.50042 14.1778 8.32221C14.6894 7.93464 15.3114 7.62792 15.8778 7.32499C16.5882 6.94498 17.1527 6.41747 17.8 5.94999C18.2363 5.63488 18.6548 5.29962 19.1 4.99999C19.4389 4.77185 19.7121 4.45801 20.0611 4.23888C20.2009 4.15107 20.33 4.01405 20.4889 3.9611C20.615 3.91907 20.6972 3.95275 20.8 3.84999C20.9081 3.74184 21.0309 3.68822 21.1 3.54999" stroke="#FF5019" stroke-linecap="round"/>
<path d="M18.65 0.549988C19.119 0.966893 19.6196 1.35197 20.0611 1.8111C20.3286 2.08926 20.5806 2.37469 20.8889 2.59999C21.0625 2.72683 21.2918 2.94999 21.5 2.94999" stroke="#FF5019" stroke-linecap="round"/>
<path d="M6.45 15.25C6.73615 14.9281 7.0693 14.6393 7.475 14.4722C7.893 14.3001 8.3516 14.1603 8.75 13.9611C8.94318 13.8645 9.12955 13.7676 9.325 13.675C9.51411 13.5854 9.7429 13.5203 9.925 13.4222C10.27 13.2364 10.6212 13.0384 10.9889 12.9111C11.3562 12.784 11.7145 12.4986 12.05 12.2889C12.1263 12.2412 12.2274 12.1667 12.2528 12.0778C12.2654 12.0336 12.4738 11.941 12.525 11.9C12.746 11.7232 12.8974 11.5514 13.15 11.4111C13.465 11.2361 13.7335 10.9212 14.05 10.7278C14.4712 10.4704 14.9505 10.1092 15.3111 9.76112C15.5003 9.57846 15.7782 9.42833 15.9972 9.27778C16.2313 9.11685 16.4297 8.92511 16.6722 8.77501C17.1717 8.46582 17.6306 8.05364 18.1889 7.8389C18.3534 7.77561 18.4553 7.56271 18.6278 7.50001C18.8014 7.43686 19.0287 7.23157 19.1944 7.12501C19.6123 6.85641 20.024 6.53655 20.4722 6.30001C20.8434 6.10408 21.149 5.85067 21.5 5.62501C21.6347 5.53841 22.1598 5.25491 21.85 5.10001" stroke="#FF5019" stroke-linecap="round"/>
<path d="M21.65 3.75C21.65 4.13101 21.5799 4.58971 21.7 4.95" stroke="#FF5019" stroke-linecap="round"/>
<path d="M10.6 16.1C10.6 15.9019 10.674 15.6482 10.8111 15.5111C10.9749 15.3473 11.0176 15.143 11.1889 14.9889C11.365 14.8304 11.6698 14.85 11.9 14.85C12.0051 14.85 12.2043 14.9186 12.3 14.9611C12.4317 15.0196 12.5683 14.9804 12.7 15.0389C12.9498 15.1499 13.2984 15.0271 13.55 15.1389C13.7689 15.2362 14.1723 15.0878 14.3611 15.2389C14.4075 15.276 14.6852 15.2964 14.75 15.3C14.8744 15.3069 14.9813 15.393 15.1 15.4C15.2057 15.4062 15.2736 15.5 15.4 15.5C15.5744 15.5 15.6525 15.5022 15.8 15.5889C16.0131 15.7142 16.1583 16.8329 15.85 16.85C15.3284 16.879 14.7865 16.9 14.25 16.9C13.937 16.9 13.6241 16.9 13.3111 16.9C12.9162 16.9 12.5425 16.8 12.15 16.8C11.941 16.8 10.4895 16.7157 10.8 16.25" stroke="#FF5019" stroke-linecap="round"/>
<path d="M10.9 14.65C11.0328 14.65 11.2349 14.386 11.25 14.25C11.2775 14.0022 11.6451 13.711 11.75 13.475C11.8684 13.2085 12.25 12.8738 12.25 12.6" stroke="#FF5019" stroke-linecap="round"/>
<path d="M16.2 15.65C16.2 14.728 16.9002 13.9602 17.2611 13.1611C17.7452 12.0893 18.4996 11.0978 19.15 10.1222C19.3162 9.87284 19.4998 9.63206 19.6889 9.39999C19.8619 9.18769 20.113 8.94619 20.225 8.69722C20.3091 8.51033 20.4427 8.35127 20.55 8.17499C20.6661 7.9843 20.7351 7.75158 20.8611 7.57222C21.0434 7.31287 21.1779 6.9893 21.375 6.75277C21.4833 6.6228 21.7 6.32143 21.7 6.14999" stroke="#FF5019" stroke-linecap="round"/>
<path d="M16.35 17.15C16.3525 17.1303 16.4932 17.0127 16.5278 17.0028C16.6157 16.9777 16.6761 16.8587 16.7389 16.7889C16.8012 16.7196 16.7763 16.579 16.875 16.5C16.9314 16.4549 16.9867 16.2972 17.0028 16.225C17.0335 16.0868 17.1674 16.0327 17.2111 15.9111C17.2569 15.7839 17.3298 15.7181 17.3889 15.6C17.4764 15.425 17.6888 15.2517 17.7528 15.0278C17.8195 14.7941 18.0673 14.6053 18.15 14.3778C18.2453 14.1157 18.441 13.8227 18.6 13.5889C18.7976 13.2982 18.9667 12.9759 19.175 12.675C19.3817 12.3765 19.6378 12.0843 19.7611 11.7389C19.9973 11.0777 20.5403 10.5571 20.775 9.9C20.9644 9.3698 21.3585 8.88263 21.5028 8.37778C21.5543 8.19747 21.7555 8.06264 21.7972 7.875C21.838 7.69168 21.9572 7.48386 22.0389 7.3C22.1134 7.13229 22.05 6.80624 22.05 6.62222C22.05 6.35812 22.0464 5.8488 21.75 5.75" stroke="#FF5019" stroke-linecap="round"/>
<path d="M16.1 17.5C15.0929 17.5 14.1011 17.45 13.1 17.45C12.3429 17.45 11.5882 17.15 10.85 17.15" stroke="#FF5019" stroke-linecap="round"/>
<path d="M10.75 17.05C10.75 16.6686 10.7049 16.3359 10.7528 15.9528C10.7719 15.7998 11.0232 15.4134 11.15 15.35" stroke="#FF5019" stroke-linecap="round"/>
<path d="M2.34999 8.55001C2.13958 8.52371 2.19999 7.56168 2.19999 7.37501C2.19999 7.07756 2.3842 7.05074 2.62499 6.99723C2.7217 6.97574 2.79485 6.87594 2.92222 6.85279C3.0647 6.82688 3.21101 6.82465 3.34999 6.77501C3.76221 6.62779 4.32274 6.80001 4.73888 6.80001C5.01627 6.80001 5.42605 6.86102 5.68888 6.9389C5.92683 7.0094 6.30332 6.97534 6.54999 7.00001" stroke="#FF5019" stroke-linecap="round"/>
<path d="M2.2 6.59999C2.68513 6.55148 2.99378 6.03808 3.48889 5.99999C3.75644 5.97941 4.00499 5.72158 4.25555 5.64999C4.63786 5.54076 5.0138 5.43819 5.4 5.33888C5.70536 5.26036 5.97668 5.14178 6.275 5.04999C6.57363 4.95811 6.86716 4.91693 7.16111 4.81111C7.52235 4.68106 7.8111 4.44321 8.2 4.39999C8.32485 4.38612 8.44099 4.27663 8.57222 4.25277C8.68509 4.23225 8.81627 4.22315 8.92222 4.17499C9.04252 4.12031 9.27715 4.06445 9.4 4.04999C9.79432 4.0036 10.2141 3.8277 10.5889 3.68888C11.0476 3.51899 11.4865 3.3851 11.9389 3.21111C12.2588 3.08808 12.714 2.89999 13.05 2.89999" stroke="#FF5019" stroke-linecap="round"/>
<path d="M13 3.05001C13.7517 2.69393 14.6562 2.35001 15.5 2.35001" stroke="#FF5019" stroke-linecap="round"/>
<path d="M7.25 11.45C7.01325 11.4237 6.80451 11.35 6.55278 11.35C6.42055 11.35 6.12371 11.3439 6 11.2889C5.85144 11.2229 5.66348 11.3019 5.525 11.225C5.28538 11.0919 5.51002 11.0284 5.69722 10.9972C6.16635 10.919 6.61335 10.6577 7.09722 10.5972C7.71834 10.5196 8.37291 10.25 9 10.25C9.11701 10.25 10.4029 10.0888 10.15 9.85001C9.96957 9.6796 9.70844 9.67225 9.47222 9.62501C8.93476 9.51751 8.37296 9.55001 7.82778 9.55001C7.38548 9.55001 6.94222 9.5415 6.5 9.55001C6.14386 9.55685 5.7816 9.65001 5.425 9.65001C4.98767 9.65001 4.43058 9.68205 4.01111 9.81112C3.89613 9.84649 3.46723 9.93563 3.75278 9.77501C3.96753 9.65421 4.40105 9.50712 4.65 9.50001C4.98705 9.49038 5.27839 9.37147 5.6 9.30001C6.03199 9.20401 6.46405 9.06759 6.9 8.97223C7.26101 8.89326 7.60074 8.76261 7.96111 8.6889C8.12278 8.65583 8.29298 8.62219 8.45 8.57223C8.67852 8.49952 8.89202 8.51815 9.125 8.47501C10.1487 8.28543 11.198 8.25741 12.2278 8.08889C12.5389 8.03798 13.4847 8.00001 13.1694 8.00001C13.0046 8.00001 12.8427 7.89214 12.6889 7.83889C12.2086 7.67263 11.7159 7.51188 11.225 7.40278C10.8437 7.31805 10.4396 7.35288 10.05 7.29723C9.82729 7.26541 9.61791 7.25001 9.38889 7.25001C9.29269 7.25001 9.15943 7.28597 9.31111 7.23889C9.55292 7.16385 9.7989 7.04699 10.05 7.01112C10.7821 6.90653 11.533 6.79274 12.2722 6.75278C12.8898 6.7194 13.5292 6.72544 14.1389 6.61112C14.6715 6.51125 15.2182 6.56317 15.7472 6.47501C15.9249 6.4454 16.1022 6.46967 16.2694 6.40278C16.3178 6.38342 16.1675 6.37587 16.1222 6.35001C15.3321 5.89851 14.4505 6.0229 13.5694 5.92501C12.9865 5.86024 12.3302 5.87516 11.75 5.96112C11.4666 6.0031 11.0657 5.94304 10.8 6.06112C10.7372 6.08901 10.4646 6.20001 10.575 6.20001C10.6903 6.20001 10.8327 6.14104 10.9389 6.10001C11.1933 6.00172 11.4368 6.0113 11.7 5.95001C12.449 5.77558 13.256 5.5403 14.025 5.50278C14.6028 5.4746 15.2019 5.42334 15.7722 5.32501C16.2157 5.24855 16.645 5.0937 17.0889 5.01112C17.3446 4.96355 18.1267 4.95001 17.8667 4.95001C16.5353 4.95001 15.1416 4.82397 13.8222 4.98889C13.4241 5.03866 12.9684 5.20001 12.575 5.20001C12.4754 5.20001 13.0989 4.91302 13.1778 4.86112C13.608 4.57805 14.1603 4.38532 14.6472 4.22778C15.2522 4.03205 15.8428 3.89102 16.4778 3.84723C17.3169 3.78936 18.1675 3.74529 19 3.65278C19.1216 3.63928 20.0778 3.53281 20.0778 3.43889C20.0778 3.39109 19.6776 3.15016 19.6222 3.12501C19.3307 2.99249 18.9237 3.00001 18.6111 3.00001C17.8576 3.00001 17.1808 3.02355 16.4556 3.22501C16.4199 3.23492 16.1734 3.34161 16.2111 3.25001C16.2671 3.11394 16.3703 3.01847 16.5 2.95001C16.7384 2.82418 17.0446 2.45001 17.325 2.45001C17.5191 2.45001 17.6864 2.35001 17.85 2.35001C18.0167 2.35001 18.1833 2.35001 18.35 2.35001" stroke="#FF5019" stroke-width="2" stroke-linecap="round"/>
<path d="M6.60001 13.5C6.66159 13.6724 6.71043 14.1657 6.87778 14.2722C7.0755 14.3981 7.2505 13.9118 7.32223 13.8C7.49695 13.5276 7.6098 13.2801 7.72501 12.9806C7.80896 12.7623 7.81779 12.9848 7.86112 13.1278C8.223 14.322 9.85307 10.8708 10.1889 11.8111C10.2409 11.9566 10.2093 12.1608 10.425 12.0945C10.7035 12.0088 10.9204 11.3993 11.0611 11.1722C11.1661 11.0029 11.3195 10.3623 11.5278 10.3028C11.6722 10.2615 11.745 10.66 11.75 10.75C11.7616 10.958 11.8451 11 12.0278 11C12.3016 11 12.4557 10.7171 12.55 10.4889C12.664 10.2129 12.7061 9.91813 12.8222 9.65279C12.9021 9.47012 12.9834 9.50001 13.1722 9.50001C13.8428 9.50001 14.1195 8.48734 14.725 8.35279C15.0763 8.27473 15.0012 9.24549 15.35 8.74723C15.6516 8.31634 15.7253 7.78086 16.05 7.37501C16.0929 7.32138 16.3262 7.33282 16.4 7.30001C16.6856 7.17307 17.0682 7.05042 17.3778 7.00279C17.6701 6.95782 17.9583 6.93072 18.25 6.90001C18.3943 6.88482 18.5663 6.34704 18.625 6.22501C18.7125 6.04324 18.7793 5.82853 19 5.9389C19.1601 6.01895 19.3048 6.02628 19.45 5.89723C19.6174 5.74847 19.7876 5.60337 19.95 5.45001C20.0751 5.33191 20.1956 5.47042 20.25 5.25279C20.2956 5.07052 20.7659 4.33187 20.95 4.70001" stroke="#FF5019" stroke-width="2" stroke-linecap="round"/>
<path d="M14.1 14.5C13.8992 14.2741 14.7119 13.5777 14.9 13.4C15.1304 13.1824 15.5268 12.9748 15.8111 12.8611C15.9546 12.8037 16.1095 12.7424 16.225 12.65C16.2811 12.6051 16.4804 12.4087 16.3 12.4889C15.9875 12.6278 15.5392 12.6 15.2 12.6C14.9814 12.6 14.7886 12.6645 14.5778 12.7028C14.4356 12.7286 14.1797 12.7065 14.05 12.7611C13.8331 12.8525 13.1256 12.7668 13.0111 12.95C12.985 12.9917 12.8722 13 12.8722 13C12.8722 13 13.0119 12.8881 13.075 12.825C13.2505 12.6495 13.3506 12.5203 13.5778 12.4C13.8261 12.2685 13.9042 12.0677 14.1972 11.9944C14.4693 11.9264 14.7324 11.6165 14.9944 11.5C15.2268 11.3967 15.3431 11.1299 15.5889 11.0389C15.8349 10.9478 16.0198 10.7559 16.2528 10.6278C16.4426 10.5234 16.8533 10.4808 16.9889 10.3C17.0406 10.231 17.1997 10.0946 17.2778 10.05C17.4136 9.97239 17.5379 9.90588 17.65 9.8C17.794 9.664 17.9315 9.58382 18.075 9.47222C18.2405 9.34347 17.8556 9.46254 17.8 9.48889C17.5251 9.61912 17.2608 9.94933 16.9694 10C16.6516 10.0553 16.3559 10.2319 16.0889 10.4C15.9152 10.5094 15.8264 10.5245 15.9 10.3222C16.0824 9.82065 16.5885 9.27008 17 8.95C17.2561 8.75081 17.5445 8.50922 17.7389 8.25C17.9384 7.98398 18.2721 7.80747 18.5528 7.625C18.8306 7.4444 19.1195 7.12962 19.4111 7C19.7052 6.86928 19.9548 6.59841 20.25 6.5" stroke="#FF5019" stroke-width="2" stroke-linecap="round"/>
<path d="M16.55 16.1C16.55 15.5333 16.7151 15.0642 16.9694 14.5555C17.1326 14.2292 17.2551 13.8563 17.45 13.55C17.5746 13.3543 17.6854 13.1387 17.775 12.925C17.887 12.6579 18.0885 12.4832 18.25 12.25C18.4483 11.9636 18.7503 11.6928 19 11.45C19.3029 11.1555 19.5747 10.7786 19.8028 10.4222C19.9981 10.1171 20.1935 9.91104 20.325 9.57499C20.4302 9.30607 20.609 9.07314 20.7 8.79999" stroke="#FF5019" stroke-width="2" stroke-linecap="round"/>
<path d="M5 6.25C5.01647 6.11827 5.38695 6.09415 5.47778 6.07222C5.92265 5.96484 6.37521 5.94691 6.82222 5.825C7.16607 5.73122 7.54814 5.52642 7.90278 5.50278C8.22593 5.48123 8.53766 5.41176 8.85 5.325C9.06065 5.26649 9.25752 5.18049 9.46111 5.1C9.7151 4.99958 10.0071 4.96161 10.25 4.85C10.5248 4.72375 10.9392 4.5 11.25 4.5" stroke="#FF5019" stroke-width="2" stroke-linecap="round"/>
<path d="M1.4 12.6C1.42539 12.6032 1.6161 12.7423 1.675 12.775C1.81237 12.8513 1.93516 12.8638 2.08889 12.9111C2.22127 12.9519 2.33804 12.9645 2.47222 13.0028C2.59023 13.0365 2.71146 13.1604 2.85 13.2C3.26523 13.3187 3.61348 13.5683 3.96111 13.8C4.12316 13.908 4.39413 13.9941 4.525 14.125C4.65147 14.2515 4.84709 14.4577 5.025 14.4972C5.21096 14.5386 5.59092 14.7586 5.75 14.9C5.87218 15.0086 6.04587 14.9533 6.175 15.025C6.29493 15.0916 6.25 14.7284 6.25 14.65C6.25 14.3333 6.25 14.0167 6.25 13.7C6.25 13.3589 6.15934 13.1538 5.92778 12.9222C5.82639 12.8208 5.75244 12.7025 5.65 12.6C5.53802 12.488 5.38017 12.4181 5.3 12.2778C5.23636 12.1664 5.15902 12.127 5.06111 12.0389C4.98469 11.9701 4.86568 11.9969 4.77778 11.925C4.67775 11.8432 4.61368 11.7835 4.48889 11.7389C4.28275 11.6653 4.1421 11.501 3.925 11.4528C3.73401 11.4103 3.61616 11.2185 3.42778 11.15C3.26193 11.0897 3.12222 10.9222 3 10.8C2.89465 10.6947 2.6861 10.5659 2.61111 10.45C2.44071 10.1867 2.01462 10.1 1.725 10.1C1.40907 10.1 1.12502 9.89967 1.1 10.35C1.07754 10.7543 1.12724 11.1429 1.19722 11.5278C1.23687 11.7459 1.07457 12.3873 1.3 12.5" stroke="black" stroke-linecap="round"/>
<path d="M1.39999 9.95001C1.41739 9.79344 1.81434 9.60316 1.94999 9.5389C2.14429 9.44686 2.41832 9.37409 2.57499 9.20001C2.73932 9.01743 3.01818 9.07627 3.17222 8.92223C3.35769 8.73676 3.60955 8.66316 3.84999 8.55001C4.32669 8.32568 4.83373 8.13543 5.30833 7.92779C5.59166 7.80383 5.84959 7.721 6.1111 7.55001C6.30586 7.42267 6.60749 7.29668 6.82499 7.20001C7.00756 7.11887 7.17014 7.01216 7.34999 6.92223C7.59068 6.80189 7.88103 6.51583 8.14999 6.50001C8.4009 6.48525 8.74814 6.2485 8.98888 6.15001C9.32894 6.0109 9.64883 5.85566 9.99722 5.72501C10.7156 5.45561 11.3641 4.97138 12.1 4.76112C12.3413 4.69217 12.5289 4.50191 12.775 4.44723C12.9378 4.41107 13.117 4.29858 13.2389 4.1889C13.4621 3.98804 13.7766 3.96346 14.0028 3.77501C14.1638 3.64084 14.413 3.56081 14.6028 3.47779C14.9464 3.32744 15.2902 3.06696 15.65 2.96112C15.9087 2.88505 16.1574 2.76786 16.4 2.65001C16.5287 2.58749 16.6793 2.50505 16.8111 2.46112C16.9578 2.41222 17.1077 2.46395 17.25 2.37501C17.3652 2.30299 17.5644 2.21597 17.7 2.20001C17.7712 2.19164 18.1665 2.06689 18.2 2.02501C18.3015 1.89812 19.1358 1.88814 19.3 1.96112C19.5207 2.0592 19.6738 2.13307 19.85 2.30001C20.0291 2.46972 20.2625 2.48354 20.4528 2.65001C20.7046 2.87034 21.0216 2.99605 21.3 3.17501C21.495 3.30037 21.6549 3.46753 21.8389 3.60001C21.9937 3.7115 22.1536 3.92942 22.275 4.07779C22.3909 4.2194 22.7 4.46199 22.7 4.65001" stroke="black" stroke-linecap="round"/>
<path d="M6.25 15.45C6.57271 15.3305 6.94353 15.234 7.25 15.0889C7.41434 15.011 7.63334 14.9423 7.80278 14.9C8.08516 14.8294 8.30198 14.5662 8.6 14.5C8.82963 14.449 9.08126 14.3231 9.27222 14.1889C9.47544 14.0461 9.71565 13.9872 9.9 13.8222C10.2548 13.5047 10.7297 13.3487 11.125 13.075C11.9338 12.515 12.8762 12.2014 13.6889 11.65C14.2706 11.2553 14.8563 10.9005 15.4722 10.5555C15.9805 10.2709 16.4884 9.99494 16.95 9.63888C17.1318 9.49864 17.3009 9.33854 17.5028 9.22499C17.7225 9.1014 18.0079 8.9854 18.1889 8.8111C18.4991 8.51242 18.9394 8.17164 19.35 8.02499C19.6098 7.93221 19.8555 7.77901 20.1 7.64999C20.2484 7.57169 20.4331 7.51351 20.5611 7.4111C20.7264 7.27887 20.943 7.08277 21.15 6.99999C21.4123 6.89506 21.6641 6.64485 21.9278 6.52499C22.1799 6.41038 22.3283 6.2693 22.55 6.13888C22.7235 6.0368 22.8 5.65764 22.8 5.47499C22.8 5.33671 22.7643 5.22849 22.75 5.09999C22.7215 4.84342 22.5709 4.85521 22.35 4.79999" stroke="black" stroke-linecap="round"/>
<path d="M6.2 13.05C6.41819 13.0282 6.64647 12.8669 6.85555 12.7972C7.24824 12.6663 7.69583 12.5878 8.07222 12.4222C8.81192 12.0967 9.41673 11.571 10.0889 11.1389C10.4333 10.9175 10.8013 10.7049 11.175 10.525C11.5852 10.3275 11.9446 10.0203 12.3806 9.87499C12.892 9.70453 13.4034 9.52164 13.8778 9.27499C14.4044 9.00117 14.9385 8.7213 15.4722 8.47222C15.7617 8.33715 15.9523 8.08038 16.2611 7.94999C16.8799 7.68872 17.4261 7.23242 18.05 6.99999C18.2529 6.9244 18.4029 6.73923 18.6 6.63888C18.8007 6.53669 19.0344 6.45309 19.2194 6.32499C19.3871 6.20892 19.6101 6.05584 19.8056 5.99999C20.0854 5.92005 20.2936 5.70663 20.5611 5.61111C20.8362 5.51285 21.1063 5.43671 21.3889 5.33888C21.7252 5.22246 22.0253 4.89999 22.4 4.89999" stroke="black" stroke-linecap="round"/>
<path d="M2.2 8.8C2.2 8.33086 2.09961 7.723 2.31111 7.3C2.54685 6.82853 2.67514 6.19173 3.26111 5.98889C3.43612 5.92831 3.6206 5.77225 3.77778 5.67222C4.00667 5.52657 4.2787 5.49803 4.53889 5.43889C4.75538 5.38969 5.0007 5.26064 5.20278 5.17222C5.49174 5.04581 5.75077 5.01168 6.05 4.93889C6.37719 4.8593 6.65719 4.6615 7 4.59722C7.3145 4.53826 7.63546 4.46226 7.93889 4.36111C8.17893 4.2811 8.40077 4.15539 8.65 4.1C8.92571 4.03873 9.23721 3.97998 9.5 3.87778C9.79642 3.76251 10.1295 3.70765 10.4389 3.63889C10.6432 3.59348 10.844 3.48221 11.05 3.45278C11.4936 3.3894 11.9498 3.21489 12.3778 3.07222C12.829 2.92183 13.2811 2.86042 13.7222 2.7C14.0821 2.56912 14.4221 2.42934 14.7778 2.3C15.2585 2.12519 15.7551 2.02129 16.225 1.82778C16.4333 1.74203 16.6793 1.70339 16.8889 1.63889C17.0375 1.59316 17.2004 1.47415 17.35 1.45278C17.6211 1.41405 17.9799 1.41115 18.225 1.275C18.3246 1.21965 18.4881 1.25 18.6 1.25C18.7722 1.25 18.7355 1.32101 18.8 1.45" stroke="black" stroke-linecap="round"/>
<path d="M3.2 6.9C3.76552 6.64147 4.66876 6.79019 5.25 6.88889C5.65995 6.9585 6.03463 7 6.45 7" stroke="black" stroke-linecap="round"/>
<path d="M10.55 14.8C10.6411 14.719 10.8137 14.5354 10.9278 14.5028C11.0393 14.4709 11.0824 14.4398 11.1611 14.3611C11.2249 14.2973 11.2463 14.1934 11.3222 14.15C11.4371 14.0843 11.7085 13.8578 11.7472 13.7222C11.7959 13.5517 12.0874 13.41 12.225 13.3C12.4863 13.091 12.6166 12.7333 12.85 12.5C13.0016 12.3484 13.1395 12.2132 13.2611 12.0611C13.3443 11.9571 13.483 11.934 13.55 11.8" stroke="black" stroke-linecap="round"/>
<path d="M10.95 15.1C11.2131 15.1 11.4589 15 11.7278 15C12.2148 15 12.7019 15 13.1889 15C13.9759 15 14.763 15 15.55 15C15.6859 15 16.0752 14.9515 16.1 15.15C16.1269 15.3655 16.25 15.5579 16.25 15.8C16.25 16.2171 16.4552 16.8948 16.125 17.225C15.6755 17.6745 14.715 17.5 14.15 17.5C13.4537 17.5 12.7574 17.5 12.0611 17.5C11.7513 17.5 11.5056 17.4747 11.225 17.35C11.1073 17.2977 10.9876 17.2375 10.875 17.175C10.7572 17.1096 10.8003 17.0102 10.725 16.95C10.656 16.8948 10.7021 16.6262 10.7 16.55C10.6927 16.2886 10.55 16.0482 10.55 15.7889C10.55 15.4919 10.633 15.3005 10.8 15.05" stroke="black" stroke-linecap="round"/>
<path d="M15.95 15C16.2188 14.9193 16.3321 14.2179 16.525 14.025C16.8363 13.7136 17.091 13.3645 17.4028 13.0528C17.7916 12.6639 18.1099 12.2258 18.4528 11.7972C18.6218 11.5859 18.7069 11.3863 18.825 11.15C18.9276 10.9448 19.1282 10.7907 19.2194 10.5778C19.2972 10.3963 19.4157 10.2001 19.55 10.05C19.6959 9.88697 19.7333 9.68242 19.8389 9.49999C20.0025 9.21743 20.1775 9.00266 20.35 8.73888C20.5195 8.47962 20.6818 8.1803 20.9 7.94999C21.0211 7.8222 21.35 7.48231 21.35 7.29999" stroke="black" stroke-linecap="round"/>
<path d="M16.4 17.3C16.7836 17.3 17.089 16.7054 17.3222 16.4722C17.6437 16.1507 17.9523 15.7971 18.2389 15.4389C18.3397 15.3128 18.4782 15.091 18.5611 14.95C18.7026 14.7095 18.8003 14.446 18.9722 14.225C19.1247 14.0289 19.1871 13.7645 19.325 13.55C19.4686 13.3266 19.6266 13.0869 19.7389 12.85C20.0437 12.2065 20.3538 11.6095 20.7 10.9722C20.9193 10.5686 21.1127 10.2743 21.2778 9.84999C21.404 9.52552 21.6398 9.26633 21.7611 8.93888C21.95 8.42891 22.3182 8.00291 22.3972 7.44999C22.4511 7.073 22.7 6.76404 22.7 6.39999" stroke="black" stroke-linecap="round"/>
<path d="M1.90532 10.9745C1.87762 11.2238 1.80694 11.5663 1.92998 11.7987C1.94609 11.8291 1.99143 11.8227 1.99866 11.848C2.00717 11.8778 1.987 11.9246 2.00747 11.9502C2.05443 12.0089 2.05031 12.0726 2.14131 12.0206C2.20235 11.9857 2.24683 11.9059 2.30158 11.8621C2.37461 11.8037 2.34982 11.7503 2.39844 11.6878C2.51982 11.5317 2.58724 11.4638 2.75419 11.6155C2.82046 11.6758 2.86894 11.7599 2.95144 11.8057C3.01624 11.8417 3.11011 11.8559 3.1663 11.9009C3.24939 11.9673 3.45888 12.0209 3.52205 12.0999C3.57246 12.1629 3.6945 12.1424 3.75981 12.1932C3.82768 12.246 3.91301 12.2701 3.98171 12.3235C4.13484 12.4426 4.33058 12.5429 4.50477 12.63C4.65636 12.7058 4.81169 12.7758 4.94858 12.8519C5.05154 12.9091 5.26757 13.034 5.29905 13.1442C5.32701 13.2421 5.42409 13.3907 5.42409 13.4947C5.42409 13.5662 5.50252 13.6178 5.51743 13.6849C5.53757 13.7755 5.24417 13.6298 5.20219 13.5986C4.70602 13.23 4.14158 12.9815 3.55199 12.7973C3.33956 12.7309 2.57103 12.617 2.57103 12.3059" stroke="white" stroke-linecap="round"/>
<path d="M2.82465 8.18483C2.82465 8.0957 2.82703 8.01305 2.86339 7.93123C2.90506 7.83748 2.93366 7.78704 2.98315 7.72517C3.06649 7.62099 3.43424 7.75422 3.56081 7.65297C3.59241 7.62768 3.73295 7.61422 3.77567 7.61422C3.87213 7.61422 3.92457 7.55082 4.01342 7.55082C4.18518 7.55082 4.36932 7.45572 4.53648 7.45572" stroke="white" stroke-linecap="round"/>
<path d="M11.257 15.8564C11.0646 15.8804 11.1926 16.5855 11.3997 16.5855C11.8128 16.5855 12.2685 16.6172 12.6994 16.6172C13.2272 16.6172 13.7637 16.6489 14.2844 16.6489C14.5606 16.6489 15.0902 16.7315 15.2654 16.5062C15.3416 16.4082 15.5069 16.3148 15.5348 16.1892C15.5593 16.0792 15.4313 15.8949 15.3147 15.8881C14.8359 15.8599 14.3712 15.8881 13.8952 15.8881C13.3645 15.8881 12.8338 15.8881 12.3031 15.8881C12.1394 15.8881 11.9756 15.8881 11.8118 15.8881C11.6465 15.8881 11.5185 15.9515 11.3521 15.9515" stroke="white" stroke-linecap="round"/>
<path d="M5.04369 10.816C5.07095 10.6797 5.39676 10.6647 5.49982 10.6557C5.62402 10.6449 5.74917 10.6038 5.87143 10.58C6.07892 10.5396 6.29307 10.578 6.50192 10.5448C7.17181 10.4382 7.85339 10.3464 8.529 10.2788C8.72521 10.2592 8.93341 10.2608 9.12603 10.2454C9.23471 10.2367 8.91803 9.98602 8.88651 9.96711C8.5728 9.77888 8.20452 9.70784 7.84743 9.66772C7.14993 9.58934 6.44831 9.61136 5.74462 9.61136C5.50841 9.61136 5.85227 9.45421 5.92074 9.42115C6.08577 9.34148 6.27269 9.32418 6.43851 9.24504C6.69596 9.12217 6.97045 9.03163 7.24688 8.96149C7.87806 8.80134 8.49518 8.59978 9.13307 8.46309C9.7165 8.33807 10.337 8.28244 10.933 8.24119C11.3227 8.21421 11.7196 8.17998 12.1059 8.12847C12.1149 8.12728 12.3131 8.1215 12.2327 8.09677C12.0795 8.04962 11.8608 8.0766 11.7008 8.06507C11.1321 8.02408 10.5547 8.07965 9.98723 8.00871C9.7779 7.98255 9.27779 7.91331 9.55046 7.64063C9.96736 7.22374 10.7069 7.09151 11.257 6.94674C12.1425 6.71373 13.014 6.52814 13.9357 6.50645C14.2198 6.49977 14.5063 6.51905 14.7899 6.49765C14.8129 6.49591 15.1794 6.43761 15.1421 6.41664C15.0195 6.34766 14.7341 6.36369 14.5962 6.34619C14.2759 6.30556 13.9494 6.26771 13.6275 6.24404C13.3335 6.22243 13.0416 6.21939 12.7469 6.21939C12.7084 6.21939 12.4321 6.25264 12.4053 6.21234C12.3728 6.16361 12.8489 6.08723 12.8702 6.08554C13.264 6.05438 13.6521 5.98064 14.0431 5.92704C14.8758 5.81292 15.7134 5.74855 16.5457 5.63116C16.6184 5.62091 17.5853 5.48875 17.1798 5.28598C16.8457 5.11893 16.4359 5.03658 16.0738 4.95136C16.0413 4.94373 15.7771 4.86211 15.8307 4.83865C16.0094 4.7605 16.2346 4.73929 16.426 4.71537C17.0755 4.63417 17.7464 4.58618 18.3791 4.40541C18.4097 4.39666 19.4991 4.06899 19.2702 3.91933C19.2069 3.87794 19.098 3.90657 19.0237 3.87354C18.9441 3.83816 18.8701 3.82419 18.7947 3.77844C18.7335 3.74127 18.6587 3.75154 18.6186 3.68334C18.5993 3.65042 18.5798 3.63573 18.5482 3.61993" stroke="white" stroke-opacity="0.5" stroke-linecap="round"/>
<path d="M13.3493 14.0812C13.5424 14.0237 13.7011 13.908 13.8758 13.8117C14.134 13.6695 14.4229 13.5733 14.6965 13.4648C14.9071 13.3812 15.1246 13.3047 15.3394 13.2323C15.4431 13.1973 15.5865 13.1798 15.681 13.1231C15.77 13.0697 15.4794 13.0737 15.3781 13.0509C15.196 13.0099 15.0258 12.9364 14.8445 12.8941C14.6484 12.8484 14.5792 12.7805 14.7159 12.5754C14.9815 12.177 15.509 11.9225 15.8853 11.6472C16.0854 11.5009 16.2936 11.3585 16.5158 11.2475C16.5878 11.2115 16.7864 11.1795 16.8363 11.1171C16.9671 10.9537 17.113 10.7845 17.2273 10.6082C17.3626 10.3994 17.6235 10.0753 17.8825 10.0235" stroke="white" stroke-opacity="0.5" stroke-linecap="round"/>
<path d="M5.30074 6.00296C5.97373 5.96127 6.65861 5.92843 7.32511 5.82319C7.39387 5.81234 7.45882 5.77138 7.34856 5.7629C7.13253 5.74628 6.92562 5.78643 6.71211 5.80644C6.67962 5.80949 6.41587 5.82208 6.48767 5.82208C6.7323 5.82208 6.9495 5.80551 7.19001 5.76178C7.50092 5.70525 7.83136 5.63917 8.12459 5.51948C8.15121 5.50862 8.61673 5.33664 8.55225 5.28388C8.48971 5.23272 8.23611 5.30999 8.30995 5.27718C8.55885 5.16656 8.81741 5.08519 9.07816 5.00696C9.2612 4.95205 9.43411 4.87091 9.61748 4.81714C9.69824 4.79346 9.8861 4.75348 9.93905 4.67645C9.95443 4.65408 9.93209 4.68898 9.95469 4.69544C9.99728 4.70761 10.0646 4.69545 10.1043 4.68427C10.3242 4.62244 10.5271 4.51169 10.743 4.43974C10.9732 4.363 11.211 4.33104 11.4487 4.28453C11.6708 4.24108 11.8721 4.17892 12.074 4.07796C12.2005 4.01472 12.3587 4.01851 12.496 3.98417C12.7088 3.93098 12.9067 3.84522 13.1191 3.79211" stroke="white" stroke-opacity="0.5" stroke-linecap="round"/>
</svg>
