<svg width="29" height="14" viewBox="0 0 29 14" fill="none" xmlns="http://www.w3.org/2000/svg">
<path d="M2.11037 7.88648C2.1537 7.88107 2.29729 7.68159 2.32542 7.6394C2.37269 7.5685 2.56726 7.40182 2.64571 7.36029C2.85972 7.24699 3.13235 7.19456 3.32518 7.04458C3.47805 6.92568 3.68148 6.96799 3.84222 6.87757C3.99123 6.79375 4.20469 6.77551 4.37299 6.73344C4.76068 6.63651 5.18385 6.60706 5.56035 6.49551C5.72822 6.44577 5.89991 6.45158 6.07281 6.44518C6.23953 6.439 6.4366 6.35547 6.599 6.31249C6.74315 6.27433 6.90575 6.21434 7.05198 6.1981C7.12454 6.19004 7.19645 6.14506 7.26704 6.12489C7.36349 6.09733 7.47724 6.14487 7.56673 6.09515C8.18094 5.75392 8.93901 5.546 9.58227 5.2601C9.93584 5.10297 10.3409 5.06743 10.7079 4.95354C11.0321 4.85293 11.4044 4.79756 11.7488 4.7545C11.9655 4.72742 12.1878 4.67632 12.4031 4.63325C12.6049 4.5929 12.8269 4.58479 13.0231 4.5303C13.2622 4.46387 13.5806 4.46853 13.8284 4.46853C14.1531 4.46853 14.4687 4.42735 14.7938 4.42735C15.1414 4.42735 15.4843 4.3521 15.8325 4.34499C16.1838 4.33782 16.5879 4.34611 16.9352 4.29466C17.5634 4.2016 18.2358 4.26263 18.8707 4.26263C19.1774 4.26263 19.453 4.30009 19.7561 4.34499C20.0115 4.38284 20.3033 4.46853 20.5591 4.46853C21.1224 4.46853 21.6392 4.86458 22.2063 4.88033C22.6537 4.89276 23.0246 5.28004 23.46 5.29213C23.6648 5.29782 23.8496 5.35268 24.0274 5.45685C24.2096 5.56366 24.5558 5.61126 24.7617 5.66276C24.9414 5.70768 25.1147 5.69382 25.2765 5.7863C25.3807 5.84586 25.4901 5.87986 25.6013 5.93043C25.6677 5.96059 25.8281 6.00002 25.8713 6.05397C25.9224 6.11783 26.0558 6.23447 26.1184 6.27131C26.1746 6.30436 26.4601 6.41797 26.2511 6.35367C26.0228 6.28343 25.8206 6.14789 25.5876 6.07456C24.674 5.78694 23.7426 5.53299 22.808 5.3173C22.4337 5.23094 22.0635 5.19785 21.7121 5.02218C21.5125 4.92237 21.2917 4.80751 21.0738 4.75908C20.8603 4.71162 21.0324 4.67427 21.115 4.73849C21.2593 4.85071 21.4303 4.87583 21.5863 4.96498C21.8485 5.1148 22.0872 5.26413 22.371 5.37449C22.8739 5.57006 23.3939 5.67254 23.8947 5.8595C24.2198 5.98091 24.6055 6.13094 24.9562 6.15692C25.2356 6.17761 25.5725 6.38564 25.8507 6.44747C26.0357 6.48857 26.571 6.65108 26.3815 6.65108C26.2927 6.65108 26.1216 6.48119 26.052 6.4223C25.6471 6.07962 24.9967 5.91329 24.4986 5.76342C23.9009 5.58355 23.2952 5.40529 22.705 5.20062C22.2684 5.04922 21.8534 4.90616 21.3964 4.83C21.1987 4.79705 20.6057 4.71561 20.8061 4.71561C21.5163 4.71561 22.1563 5.11465 22.7897 5.39966C23.7492 5.83144 24.7165 6.24128 25.7043 6.58702C25.8767 6.64735 26.1425 6.67612 26.2854 6.79521C26.3872 6.88008 26.567 6.93934 26.6949 6.93934" stroke="#D32947" stroke-width="3" stroke-linecap="round"/>
<path d="M22.5769 5.41565C22.1518 5.31756 21.7554 5.06021 21.3392 4.92149C21.1477 4.85764 20.9369 4.83437 20.7673 4.71559C20.5962 4.59584 20.3804 4.48767 20.1793 4.42733C19.7998 4.31349 19.4245 4.15971 19.0537 4.03612C18.7466 3.93374 18.4425 3.84034 18.1386 3.72727C17.9123 3.64305 17.645 3.5616 17.4111 3.51908C17.1397 3.46973 16.8664 3.39782 16.5875 3.39782C16.1812 3.39782 15.7768 3.31546 15.3704 3.31546C14.9269 3.31546 14.489 3.2331 14.0503 3.2331C13.7945 3.2331 13.5607 3.16387 13.3114 3.15074C13.155 3.14251 12.9298 3.1317 12.776 3.08897C12.4866 3.00858 12.0656 3.0272 11.7648 3.0272C11.2508 3.0272 10.7368 3.0272 10.2229 3.0272C9.7472 3.0272 9.26562 3.10557 8.80214 3.21023C8.21967 3.34175 7.63851 3.56445 7.05199 3.65406C6.8227 3.68909 6.57803 3.80709 6.36107 3.89199C6.14836 3.97522 5.93013 4.01369 5.71363 4.07958C5.44544 4.16121 5.2278 4.3748 4.9701 4.46851C4.71609 4.56088 4.4725 4.73287 4.22886 4.84828C4.15309 4.88417 4.06825 4.91791 3.9955 4.96267C3.91922 5.00962 3.79501 5.10493 3.7164 5.12739C3.47682 5.19584 2.97515 5.4643 2.97515 5.76568C2.97515 5.88296 2.95092 5.83049 2.97973 5.76568C3.03151 5.64917 3.31545 5.53803 3.41441 5.44768C3.7956 5.09963 4.30272 4.91626 4.66583 4.55316C4.80806 4.41092 4.98017 4.33621 5.11881 4.18025C5.2397 4.04424 5.38761 3.84497 5.52832 3.73642C5.77242 3.54811 5.96994 3.31736 6.26041 3.19192C6.5482 3.06765 6.81212 2.93061 7.11376 2.84189C7.4525 2.74226 7.85387 2.75081 8.20503 2.70691C8.93371 2.61583 9.66919 2.48561 10.4036 2.45297C11.2007 2.41754 12.0437 2.49014 12.8332 2.38891C13.6144 2.28876 14.4106 2.32714 15.1965 2.32714C15.4985 2.32714 15.8005 2.32714 16.1025 2.32714C16.3357 2.32714 16.5439 2.39653 16.7728 2.41179C16.9863 2.42602 17.2215 2.53714 17.4271 2.5971C17.5914 2.64504 17.7597 2.66478 17.9235 2.70691C18.0678 2.74401 18.3503 2.85113 18.4177 2.98602" stroke="#D32947" stroke-width="3" stroke-linecap="round"/>
<path d="M7.58733 7.8453C7.74015 7.98114 7.96206 8.03132 8.14097 8.13356C8.2836 8.21506 8.46211 8.37346 8.64886 8.38064C9.24576 8.4036 10.0149 8.60552 10.4905 8.97546C10.5608 9.03009 10.6671 9.03998 10.749 9.099C10.8778 9.19173 11.0002 9.30511 11.138 9.39184C11.2583 9.46762 11.4626 9.5365 11.6001 9.59545C11.75 9.65969 11.9119 9.76871 12.0599 9.84711C12.345 9.99801 12.7896 10.087 13.1146 10.1102C13.3187 10.1248 13.4993 10.2337 13.714 10.2337C13.8811 10.2337 14.0499 10.2522 14.2082 10.307C14.331 10.3495 14.8237 10.522 14.4187 10.522C13.8577 10.522 13.304 10.5632 12.744 10.5632C12.5974 10.5632 12.0048 10.3021 11.9112 10.4191C11.7512 10.6192 12.3292 10.6388 12.4237 10.6478C12.8155 10.6851 13.1569 10.9939 13.5584 11.0162C13.8722 11.0336 14.1837 11.0573 14.5033 11.0573C15.258 11.0573 16.0351 11.1064 16.7705 10.943C17.091 10.8717 17.4802 10.9147 17.7794 10.7485C17.9021 10.6803 18.0393 10.6702 18.1706 10.6364C18.3402 10.5928 18.5112 10.4885 18.6648 10.4076C18.8787 10.295 19.1367 10.2534 19.3648 10.172C19.5536 10.1046 19.8465 10.0428 19.9848 9.88143C20.1556 9.68225 20.2296 9.63987 20.2296 9.35981C20.2296 9.03914 20.0005 8.70979 19.6531 8.67119C19.1885 8.61957 18.6924 8.5636 18.2621 8.80159C17.6213 9.15609 16.8451 9.36896 16.1116 9.36896C15.0078 9.36896 13.9606 9.33279 12.8767 9.099C12.385 8.99296 11.865 8.94044 11.3942 8.76041C11.2887 8.72007 11.0954 8.68488 11.0876 8.54536C11.0557 7.96998 12.2501 7.79018 12.6136 7.74235C13.5605 7.61775 14.5154 7.6394 15.4687 7.6394C15.8125 7.6394 16.1647 7.64021 16.5051 7.68973C16.796 7.73204 17.0891 7.70337 17.379 7.75379C17.5835 7.78934 17.7658 7.72176 17.9647 7.72176C18.0606 7.72176 18.2686 7.70853 18.3559 7.65999C18.6728 7.48396 19.0331 7.35114 19.406 7.35114" stroke="#D32947" stroke-width="3" stroke-linecap="round"/>
<path d="M7.91677 7.14522C7.91677 6.93454 7.67668 6.65815 7.58047 6.4749C7.54912 6.41518 7.51795 6.31629 7.47294 6.27129C7.39889 6.19723 7.33174 6.10508 7.26704 6.0242C7.13675 5.86134 7.09317 5.67066 7.09317 5.45683C7.09317 5.18271 7.28247 5.10281 7.46379 4.92149C7.68372 4.70157 7.92688 4.51763 8.21418 4.41818C8.67325 4.25927 9.15737 4.17155 9.61431 4.02468C10.0212 3.89391 10.4874 3.83469 10.8817 3.67694C11.1006 3.5894 11.3889 3.64259 11.623 3.59458C11.967 3.52401 12.3103 3.48019 12.6616 3.48019C13.5389 3.48019 14.4286 3.39783 15.3086 3.39783C16.2214 3.39783 17.1343 3.39783 18.0471 3.39783C18.9893 3.39783 19.9146 3.50625 20.8519 3.56484C21.6967 3.61763 22.5814 3.73868 23.3822 4.01324C23.5961 4.08659 23.8187 4.10501 24.0365 4.18025C24.2233 4.24478 24.3973 4.30919 24.5787 4.38615C24.8594 4.50525 25.2054 4.75677 25.519 4.75677C25.624 4.75677 25.8312 4.86845 25.9354 4.90319C26.1015 4.95855 26.2555 5.12812 26.4272 5.16629C26.6444 5.21454 26.8505 5.39508 26.942 5.60096C26.997 5.72466 27.1769 5.76927 27.2303 5.88923C27.2894 6.02225 27.4062 6.04737 27.4773 6.13631C27.6294 6.32638 27.711 6.57507 27.7244 6.81578C27.7413 7.12009 27.8033 7.36813 27.5597 7.5982C27.4546 7.69742 27.0727 7.95311 26.9328 7.81325C26.7899 7.67026 26.5114 7.54167 26.3243 7.44263C26.1283 7.33888 25.913 7.24609 25.7066 7.15437C25.5689 7.09319 25.4067 7.07992 25.2719 7.01253C25.1292 6.94116 24.9811 6.97327 24.8418 6.90729C24.7331 6.85581 24.4877 6.8637 24.4209 6.7746C24.3668 6.70258 23.8978 6.61418 23.8032 6.60988C23.311 6.58751 22.8233 6.38877 22.3298 6.3628C22.0373 6.3474 21.7593 6.28044 21.465 6.28044C21.0987 6.28044 20.7383 6.26397 20.3738 6.23697C18.7527 6.11689 17.1295 6.11572 15.4985 6.11572C14.4617 6.11572 13.4522 6.20685 12.4283 6.38339C12.0262 6.4527 11.6003 6.48568 11.2089 6.58929C10.9534 6.65693 10.6853 6.72302 10.4379 6.81578C10.3256 6.8579 10.1034 6.88657 10.017 6.9622C9.75841 7.18843 9.40292 7.37695 9.09041 7.51584C8.83 7.63158 8.55633 7.72174 8.2668 7.72174C8.20221 7.72174 7.9499 7.75683 7.91677 7.69886C7.84981 7.58168 7.832 7.47225 7.73146 7.37171C7.46535 7.10559 7.45157 6.8782 7.38143 6.52752" stroke="black" stroke-linecap="round"/>
<path d="M6.84608 5.04504C6.59839 5.1243 6.2206 4.98531 6.00188 5.10681C5.90382 5.1613 5.76013 5.11422 5.65185 5.12969C5.51818 5.14879 5.37641 5.20259 5.24005 5.20976C4.99351 5.22274 4.73561 5.3333 4.48051 5.3333C4.21429 5.3333 3.88718 5.55174 3.63403 5.64216C3.36112 5.73962 3.00588 5.77403 2.77839 5.96016C2.57111 6.12975 2.33295 6.24545 2.14239 6.43602C1.95669 6.62172 1.85117 6.66256 1.77863 6.91645C1.7699 6.94702 1.62428 7.06863 1.58417 7.1132C1.52287 7.18131 1.45532 7.29521 1.4103 7.37401C1.34688 7.485 1.39936 7.58501 1.36683 7.69887C1.33556 7.80833 1.28676 7.88115 1.28676 8.01001C1.28676 8.11983 1.28676 8.22964 1.28676 8.33945C1.28676 8.39436 1.28676 8.44927 1.28676 8.50418C1.28676 8.601 1.35037 8.5518 1.36683 8.60941C1.4184 8.78991 1.76997 8.91598 1.94564 8.91598C2.30225 8.91598 2.62621 9.02266 2.97514 8.86565C3.30415 8.71759 3.72071 8.7069 4.04812 8.56366C4.64055 8.30447 5.35046 8.20321 5.98129 8.07178C6.72742 7.91634 7.4913 7.79494 8.20502 7.55703" stroke="black" stroke-linecap="round"/>
<path d="M1.03968 7.63938C0.850069 7.42607 1.05466 6.67161 1.11289 6.44516C1.21284 6.05646 1.29924 5.52333 1.53613 5.20747C2.0594 4.50977 2.65389 3.8536 3.34577 3.31547C3.79746 2.96416 4.21799 2.6232 4.72531 2.35002C5.12126 2.13682 5.54854 2.01165 5.97215 1.86501C6.13987 1.80696 6.29095 1.72539 6.45258 1.64996C6.64632 1.55955 6.88118 1.58372 7.07257 1.48067C7.23295 1.39431 7.42477 1.38486 7.59648 1.32967C7.90146 1.23164 8.26585 1.18119 8.5848 1.1741C8.85972 1.16799 9.14439 1.0768 9.41984 1.05285C9.84014 1.0163 10.2653 1.0132 10.685 0.95905C11.5162 0.851795 12.3674 0.885841 13.2061 0.885841C13.9275 0.885841 14.6493 0.853535 15.3612 0.977352C15.6585 1.02905 15.9599 1.14956 16.2603 1.17181C16.6395 1.1999 17.1216 1.30374 17.4706 1.46236C17.8571 1.63806 18.2961 1.65967 18.6739 1.86501C18.9517 2.01598 19.3178 2.07697 19.6142 2.18073C19.8827 2.27471 20.1549 2.35104 20.4264 2.44153C20.5272 2.47515 20.6621 2.50622 20.7421 2.57423C20.8511 2.66684 21.0143 2.65556 21.1173 2.73895C21.227 2.82777 21.3673 2.80434 21.481 2.88308C21.5897 2.95827 21.6555 3.03421 21.7922 3.06839C21.9106 3.09799 22.0065 3.20244 22.1239 3.22853C22.253 3.25721 22.373 3.27532 22.4945 3.33606C22.8074 3.4925 23.2038 3.59691 23.4005 3.89199" stroke="black" stroke-linecap="round"/>
<path d="M9.31689 8.33946C9.47129 8.47669 9.62481 8.6029 9.82021 8.67805C9.95227 8.72884 10.0536 8.84278 10.1817 8.90683C10.2874 8.9597 10.3998 8.99186 10.4905 9.0624C10.6095 9.1549 10.7519 9.1979 10.8611 9.30719C10.982 9.42807 11.1807 9.43517 11.3256 9.53368C11.5772 9.70482 11.9116 9.94558 12.1995 10.0278C12.4223 10.0915 12.6299 10.3319 12.8584 10.3573C12.9471 10.3671 13.1395 10.4752 13.229 10.5129C13.3509 10.5642 13.526 10.6455 13.6591 10.6455C13.7814 10.6455 13.9077 10.7279 14.032 10.7279C14.1624 10.7279 14.2928 10.7279 14.4232 10.7279C14.7485 10.7279 15.0631 10.7691 15.391 10.7691C16.0031 10.7691 16.5284 10.6037 17.0999 10.4305C17.793 10.2205 18.4821 9.89599 19.1178 9.54283C19.4332 9.36761 19.7362 9.15395 20.026 8.93657C20.193 8.81135 20.3737 8.69887 20.5362 8.56595C20.6693 8.45708 20.7412 8.26919 20.8885 8.18389C21.0147 8.11082 21.2222 7.7184 21.1127 7.57762C20.9824 7.41001 20.7238 7.16106 20.7238 6.93933" stroke="black" stroke-linecap="round"/>
<path d="M21.2179 7.76294C21.2272 7.83724 21.2591 7.89867 21.2591 7.98943C21.2591 8.10943 21.4126 8.12588 21.4238 8.21592C21.4346 8.30229 21.5006 8.58978 21.5565 8.65975C21.7837 8.94376 22.0415 9.02457 22.0415 9.43073C22.0415 9.62569 22.0129 9.75656 21.918 9.92261C21.8337 10.0701 21.6713 10.1657 21.5703 10.2955C21.4465 10.4546 21.2221 10.5167 21.0921 10.6684C20.9624 10.8197 20.6628 10.9655 20.4767 11.0482C20.0867 11.2215 19.7014 11.413 19.3237 11.6018C18.8174 11.855 18.2563 11.978 17.7176 12.1875C17.214 12.3834 16.6566 12.4221 16.1711 12.6428C15.9634 12.7372 15.6357 12.7563 15.4093 12.7846C15.0897 12.8246 14.7713 12.8281 14.4461 12.8281C13.8215 12.8281 13.1662 12.7113 12.6433 12.3751C12.4423 12.2459 12.1687 12.2682 11.9524 12.1601C11.8788 12.1233 11.7177 12.046 11.6664 11.9862C11.5798 11.8851 11.4246 11.9095 11.3164 11.8604C11.1293 11.7753 10.9807 11.617 10.82 11.492C10.7537 11.4405 10.6925 11.463 10.6255 11.3959C10.5436 11.3141 10.4757 11.25 10.4059 11.1603C10.3286 11.061 10.2063 11.0408 10.0993 10.9841C10.0234 10.9439 9.97638 10.843 9.89341 10.7897C9.82683 10.7469 9.60465 10.6639 9.57312 10.6044C9.53331 10.5292 9.48135 10.4376 9.39925 10.3893C9.23837 10.2947 9.07929 10.1535 8.94626 10.0278C8.87333 9.95897 8.8002 9.87328 8.71977 9.81966C8.6243 9.75601 8.46073 9.64755 8.37889 9.56571C8.08553 9.27235 7.46393 9.1131 7.07028 9.00063C6.93169 8.96103 6.74052 9.02082 6.64018 8.89539C6.54674 8.77859 6.3183 8.78804 6.26727 8.60942C6.25632 8.5711 5.94444 8.51976 5.89893 8.44012C5.79201 8.25301 5.58913 8.31137 5.44595 8.21592" stroke="black" stroke-linecap="round"/>
</svg>
