<svg width="81" height="25" viewBox="0 0 81 25" fill="none" xmlns="http://www.w3.org/2000/svg">
<path d="M2 6V24" stroke="#3278B9" stroke-width="3"/>
<path d="M2 1V4" stroke="#3278B9" stroke-width="3"/>
<path d="M13.3395 5.5466V23.9279" stroke="#3278B9" stroke-width="3"/>
<path d="M13.2746 1.38971V7.62506" stroke="#3278B9" stroke-width="3"/>
<path d="M6 2.16913H21.7832" stroke="#3278B9" stroke-width="3"/>
<path d="M25.2257 1C25.2257 2.33151 25.2257 3.66301 25.2257 4.99452C25.2257 5.1569 25.2257 5.31928 25.2257 5.48166C25.2257 5.75114 25.0663 5.74288 24.9659 5.96879C24.8034 6.33435 24.4918 6.62465 24.3163 6.97554" stroke="#3278B9" stroke-width="3"/>
<path d="M31.5601 12.1507C30.4089 12.1507 29.1205 11.7297 28.0527 12.295C26.7551 12.982 26.1088 14.6603 26.3676 16.0839C26.4169 16.3549 26.6803 16.3709 26.8186 16.5529C26.9694 16.7513 27.1813 16.9111 27.4032 17.022C27.7679 17.2044 28.1357 17.3919 28.5074 17.5777C29.448 18.048 30.424 18.8273 30.6833 19.916C30.82 20.4904 30.8501 21.104 30.6364 21.648C30.3611 22.3487 29.6729 22.4732 28.9981 22.5754C28.0594 22.7176 26.8494 22.826 25.9238 22.5285C25.5725 22.4156 25.156 22.1405 25 21.8285" stroke="#3278B9" stroke-width="3"/>
<path d="M43.1299 23.178C43.0724 22.6032 43 22.068 43 21.4784C43 19.9939 43.1391 18.5754 43.2887 17.1014C43.5328 14.6953 43.4547 12.2637 43.4547 9.84851C43.4547 8.22829 43.5196 6.60999 43.5196 4.98797C43.5196 3.87622 43.6495 2.78793 43.6495 1.67905" stroke="#53BB51" stroke-width="3"/>
<path d="M43.3248 3.23787C45.1258 3.23787 46.9092 2.78833 48.6472 3.39664C49.0023 3.52094 49.363 3.61921 49.7225 3.72861C50.0953 3.84208 50.2569 4.17625 50.5849 4.32761C50.7396 4.39899 50.8052 4.60948 50.9241 4.73175C51.0644 4.87606 51.2966 5.01939 51.404 5.18641C51.6198 5.5221 51.82 5.92778 51.9128 6.31946C52.0328 6.82614 52.0932 7.27705 52.0932 7.79891C52.0932 8.54158 52.1928 9.36441 51.9958 10.0866C51.8297 10.6956 51.6436 11.4875 51.2488 11.9919C50.7909 12.5771 50.104 12.9023 49.4302 13.1718C48.5437 13.5265 47.4769 13.4599 46.5399 13.4966C46.0828 13.5145 45.3728 13.4271 44.9485 13.6157C44.5578 13.7893 43.948 13.6951 43.5196 13.6951" stroke="#53BB51" stroke-width="3"/>
<path d="M44.1042 13.8899C44.3974 13.9388 44.7424 14.1464 44.9846 14.3121C45.4157 14.6071 45.9395 14.7627 46.3414 15.0915C47.3522 15.9185 48.2767 16.8533 48.99 17.953C49.6085 18.9066 50.1936 19.8793 50.8591 20.8037C51.0824 21.1137 51.3864 21.2524 51.5087 21.6192" stroke="#53BB51" stroke-width="3"/>
<path d="M56.8996 13.1755C56.4444 13.2169 55.9907 13.7646 55.7305 14.0992C55.4956 14.4012 55.3685 14.8236 55.2758 15.189C55.1644 15.6284 54.994 16.0506 54.8861 16.488C54.4637 18.2013 55.1811 20.2982 56.279 21.6156C57.1923 22.7116 58.5903 22.6894 59.79 22.0702C60.1921 21.8627 60.5405 21.7125 60.8942 21.4243C61.2687 21.1191 61.4207 20.6752 61.6411 20.2588C62.1228 19.3488 62.4174 18.4326 62.4999 17.4118C62.571 16.5315 62.6802 15.5021 62.0164 14.8137C61.5264 14.3056 61.0148 13.7505 60.3781 13.4209C59.3592 12.8932 58.4722 12.3536 57.2857 12.5909C56.5773 12.7326 55.9587 12.7821 55.7918 13.5327C55.695 13.9685 55.6656 14.4909 55.6656 14.9292" stroke="#53BB51" stroke-width="3"/>
<path d="M66.7073 4.34207C66.7073 6.00197 66.5261 7.57598 66.2671 9.21344C65.8523 11.8354 65.9222 14.4439 65.9892 17.0906C66.0271 18.5863 65.8629 20.0627 65.8629 21.5542" stroke="#53BB51" stroke-width="3"/>
<path d="M70.8642 4.66681C70.8642 5.83084 70.8642 7.0284 70.8642 8.20306C70.8642 9.28741 70.8912 10.3701 70.7993 11.4506C70.7053 12.5542 70.4745 13.652 70.4745 14.7632C70.4745 15.6727 70.3969 16.5787 70.4096 17.4911C70.4212 18.3293 70.5395 19.1712 70.5395 20.0098C70.5395 20.8344 70.7993 21.6482 70.7993 22.4635" stroke="#53BB51" stroke-width="3"/>
<path d="M79.8925 13.3054C79.5658 13.0113 79.1003 12.9112 78.6945 12.7858C78.1695 12.6235 77.2946 12.3157 76.8073 12.6883C76.109 13.2223 75.7776 13.8299 75.6382 14.6946C75.5259 15.3904 76.1147 15.7291 76.58 16.1127C77.3225 16.725 78.2261 17.0664 78.9687 17.6571C79.5075 18.0857 79.282 18.69 78.9507 19.151C78.4222 19.8863 77.7016 20.5486 76.7748 20.6774C76.222 20.7541 75.6439 20.7098 75.0861 20.7098" stroke="#53BB51" stroke-width="3"/>
</svg>
